<svg width="203" height="155" viewBox="0 0 203 155" fill="none" xmlns="http://www.w3.org/2000/svg">
<path fill-rule="evenodd" clip-rule="evenodd" d="M63.5105 70.2975C64.2434 77.6978 64.9764 85.0983 65.7093 92.4986C69.6998 90.2217 73.6904 87.9445 77.6808 85.6675V102.527V106.958C77.6808 107.35 77.448 108.697 77.6808 109.037C77.8783 109.325 79.3405 109.333 79.6862 109.382C81.9425 109.697 84.2041 109.979 86.4689 110.229C92.438 110.888 98.8269 111.832 104.819 111.075C110.027 110.416 115.077 108.564 119.835 106.408C121.506 105.651 123.153 104.841 124.77 103.976C125.113 103.792 126.357 103.359 126.544 102.985C126.696 102.68 126.339 101.608 126.291 101.287C126.09 99.935 125.889 98.5827 125.688 97.2307L122.879 78.3484L128.185 83.6462C128.6 84.0612 129.389 85.2396 129.965 85.4235C130.386 85.5585 131.43 85.141 131.847 85.0608C134.851 84.4818 137.855 83.9029 140.859 83.3242C141.559 83.1893 143.136 83.1944 143.726 82.7716C144.044 82.5437 144.059 82.0804 144.171 81.6413C144.904 78.7708 145.636 75.9005 146.369 73.0302C146.501 72.5132 147.237 70.883 147.05 70.3624C146.983 70.1757 146.658 70.0481 146.459 69.9264C141.926 67.1574 137.391 64.3881 132.857 61.6188C130.374 60.1018 127.89 58.5848 125.406 57.0678C124.366 56.4323 123.088 55.2873 121.909 54.9319C121.177 54.7111 120.113 54.8765 119.355 54.8548C117.816 54.8108 116.278 54.7669 114.739 54.723C114.498 54.7162 113.654 54.5444 113.451 54.6864C113.282 54.8045 113.352 54.9692 113.297 55.2507C113.162 55.9382 113.161 56.6796 113.094 57.3776C113.041 57.9378 113.147 58.9649 112.894 59.4719C112.733 59.7959 112.938 59.6668 112.719 59.8234C112.46 60.0098 111.631 59.9498 111.321 59.9857C109.814 60.1608 108.305 60.336 106.797 60.5112C105.005 60.7193 103.192 61.1101 101.391 60.9301C98.6598 60.6576 95.7155 60.671 93.0342 60.0957C92.3374 59.9461 92.0862 59.5536 91.5487 59.0169C90.4996 57.9693 89.4611 56.9095 88.4005 55.8728C87.8806 55.3649 88.1031 55.451 87.5674 55.6438C86.8957 55.885 86.2146 56.4676 85.6067 56.838C83.2776 58.2567 80.9486 59.6753 78.6195 61.094L64.4003 69.7554C64.1037 69.9362 63.8071 70.1167 63.5105 70.2975Z" fill="#E73A40"/>
<path fill-rule="evenodd" clip-rule="evenodd" d="M199.514 71.2173C196.583 82.3454 190.687 94.4793 178.811 98.0262C175.923 98.8885 173.114 99.5396 170.115 99.2112C169.829 99.1799 169.591 99.22 169.319 99.2252C168.833 99.2344 169.253 99.4092 168.707 99.2408C168.282 99.1095 167.884 98.7809 167.44 98.6357C166.262 98.2502 165.005 98.1756 163.808 97.8641C160.865 97.0984 157.832 96.1532 154.98 95.0973C153.637 94.6003 152.403 93.9079 151.14 93.242C149.856 92.5652 148.496 92.145 147.197 91.5242C146.171 91.0335 144.413 90.394 143.692 89.4737C142.923 88.4921 143.987 86.4026 144.291 85.3591C145.326 81.8085 146.557 78.31 147.335 74.6887C150.02 77.8 153.746 79.7267 157.603 80.9694C159.696 81.6437 161.849 82.1312 164.026 82.4363C166.002 82.7131 168.134 83.0483 170.116 82.6551C171.611 82.3583 173.488 81.6709 174.557 80.5294C174.938 80.1218 175.395 79.3747 175.181 78.7828C174.91 78.0313 174.12 78.385 173.693 77.8242C173.32 77.3357 173.379 76.1932 173.26 75.5984C173.05 74.5457 172.762 73.5218 172.41 72.5084C171.726 70.5408 170.875 68.5688 170.671 66.4751C170.494 64.6586 170.907 62.9409 171.813 61.3647C172.241 60.6195 173.317 58.5925 174.366 58.6766C175.519 58.769 173.965 63.6264 173.914 64.6173C173.712 68.5451 174.239 72.7304 176.255 76.1732C177.027 77.4914 178.143 79.0263 179.79 79.1896C181.536 79.3625 182.943 77.9892 183.774 76.5998C185.801 73.2101 184.779 68.5588 183.753 65.006C182.493 60.6471 179.207 57.6427 177.128 53.728C180.231 54.04 181.893 56.011 183.485 58.5118C185.238 61.2649 186.603 64.5706 187.276 67.774C187.616 69.3925 187.381 71.0178 187.384 72.6522C187.384 73.1952 187.384 75.1984 188.269 75.1195C189.215 75.0351 189.54 72.7759 189.679 72.0867C189.998 70.5059 190.343 68.9248 190.62 67.3362C191.11 64.5253 191.328 61.6466 191.915 58.8553C192.014 58.3835 192.212 57.0743 192.918 57.4278C193.463 57.6999 193.375 59.7247 193.395 60.1953C193.444 61.3551 193.513 62.5147 193.522 63.6758C193.536 65.3964 193.193 67.1775 193.362 68.8876C193.471 70.0052 194.071 71.2398 194.815 69.7328C195.552 68.2383 195.702 66.3744 196.113 64.7671C196.545 63.0797 196.991 61.3674 197.908 59.8687C198.162 59.4528 198.435 58.7927 199 58.9883C199.411 59.1306 199.714 60.1036 199.841 60.4471C200.413 61.9991 200.316 63.7247 200.28 65.3495C200.236 67.3403 200.022 69.2871 199.514 71.2173ZM142.357 74.1051C142.2 74.0545 141.535 73.9914 141.37 73.977C141.177 73.9601 141.396 73.6037 140.928 73.7052C141.018 73.9291 141.179 74.0785 141.41 74.1535C140.706 74.3917 140.187 73.8037 139.705 73.7279C139.245 73.6555 139.225 73.7279 138.771 74.2142C138.279 73.6137 138.371 73.9883 137.966 73.9885C137.819 73.9887 137.812 74.2112 137.573 74.1846C137.363 74.1611 137.341 73.8438 137.218 73.8064C136.546 73.603 135.855 74.6259 135.093 73.7386C134.908 74.6618 132.793 73.5054 131.979 73.6677C131.126 73.8374 131.494 74.1433 130.805 73.6206C130.148 73.1226 130.331 73.4533 129.567 73.8609C129.585 73.8514 129.136 74.1548 129.178 74.1596C128.649 74.0978 128.679 73.5509 128.009 73.58C127.3 73.6108 126.997 74.1665 126.349 73.4827C126.208 73.9949 126.178 73.7741 125.846 73.9032C125.663 73.9467 125.503 73.8985 125.366 73.7592C125.324 73.9 125.233 73.9863 125.092 74.0181C124.729 74.0506 124.05 74.101 123.721 73.9267C123.227 73.6648 123.624 73.5643 123.282 73.27C123.128 74.0817 122.792 73.9091 122.083 73.9848C121.542 74.0428 121.423 73.8768 120.906 73.7961C120.397 73.7166 119.74 73.9142 119.243 73.9983C119.038 74.0332 118.764 74.176 118.555 74.1259C118.367 74.0807 118.287 73.9347 118.174 73.8966C118.038 73.8506 118.067 73.7313 117.832 73.6736C117.669 73.634 117.378 73.7863 117.216 73.8127C116.059 74.0005 114.947 74.0024 113.843 73.5472C114.387 74.5026 112.573 73.9868 112.249 73.5912C111.845 74.2247 111.356 73.7775 110.54 73.8269C109.756 73.8746 108.575 74.1149 108.257 73.1375C108.195 73.336 107.749 73.9127 107.572 74.0007C107.058 74.2557 106.996 73.8785 106.518 73.725C105.867 73.5157 106.003 73.9127 105.599 73.9934C104.918 74.1298 104.549 73.6499 103.947 73.3949C103.921 73.7915 103.908 74.0354 103.565 74.2824C103.262 73.1766 102.178 74.3728 102.364 72.8949C101.952 73.1634 101.371 73.3697 101.254 73.9127C101.944 73.723 101.327 74.1738 101.299 74.1887C101.208 74.2364 100.9 73.8042 100.828 73.7433C100.809 73.9472 100.789 74.1511 100.77 74.355C100.495 74.2176 100.237 73.9716 100.014 73.8484C99.8132 73.7374 100.101 73.5064 99.7617 73.4905C99.5827 73.4819 99.3962 73.8694 99.2084 73.9025C98.9212 73.9528 99.0592 73.5409 98.939 73.5548C98.7559 73.5758 98.4577 73.8435 98.3193 73.8384C97.8653 73.8215 98.1725 73.6103 97.8263 73.5135C97.2073 73.3401 97.2471 73.745 96.8022 73.891C95.7841 74.2252 95.8865 72.6874 94.8508 73.713C94.603 73.9584 94.4435 74.3374 94.1041 74.3161C93.4011 74.2721 93.648 73.4389 93.7908 73.0309C93.9386 73.1037 91.2227 74.4987 91.2442 74.4442C91.2613 74.1095 91.6884 73.8516 91.3067 73.5546C90.9946 74.2242 90.6662 74.2359 89.9463 74.3606C89.5964 74.4212 89.5275 74.5022 89.1532 74.3567C88.9146 74.2643 88.7544 73.8839 88.5173 73.8628C88.5493 73.8658 88.1139 74.1971 88.0475 74.2269C87.6546 74.4039 87.406 74.2032 87.0244 74.276C86.6989 74.3381 86.5707 74.6149 86.2469 74.5391C85.8147 74.4381 86.0686 73.922 85.474 74.066C85.2706 74.1152 85.1485 74.5068 84.8281 74.5877C84.329 74.7141 83.7171 74.4784 83.1896 74.6014C82.7709 74.6992 82.46 74.7405 82.0937 74.7608C81.798 74.7775 81.9196 74.5474 81.3751 74.819L81.1441 74.2369C80.8716 74.4821 80.5988 74.7271 80.3263 74.9723C80.2745 74.7525 80.2418 74.53 80.2279 74.3046C79.8213 74.7119 79.3092 74.7814 78.7628 74.818C78.1708 74.8576 77.7298 74.9867 77.154 75.095C76.9719 75.129 76.503 75.1835 76.3533 75.12C76.3753 75.1293 76.0733 75.0036 76.1643 75.0276C76.125 74.9476 76.0886 74.8664 76.055 74.7838C76.0042 74.554 75.8388 74.544 75.5597 74.7535C75.4152 74.7312 75.1351 74.5418 74.991 74.5885C74.6196 74.7088 74.6702 74.997 74.3 74.9547C74.0599 74.9271 73.9373 74.5723 73.6873 74.5481C73.3047 74.5115 72.973 74.9398 72.6283 75.0332C73.6766 74.7486 71.2686 74.9694 72.0173 74.9889C71.5265 74.9762 71.0169 74.9518 70.5632 75.1718C70.3126 75.0004 70.6169 74.6559 70.3636 74.5141C70.1339 74.3855 70.1163 74.7251 70.0894 74.7327C70.2342 74.6916 70.1619 74.9806 70.0169 75.032C69.5652 75.1921 69.2038 74.785 69.1803 74.3811C68.7964 74.9589 68.6888 74.7266 68.1242 74.7623C67.5675 74.7975 67.0874 75.0894 66.5304 75.084C65.4289 75.0735 64.6814 74.6907 64.3136 73.7071C65.4875 73.8501 66.6688 73.0954 67.8165 73.2732C68.1938 73.3316 68.4294 73.6149 68.7598 73.5646C69.1671 73.5027 69.4514 73.0585 69.9734 73.0106C71.125 72.9052 72.2603 73.0079 73.4197 72.8314C74.8047 72.6204 76.2501 72.4955 77.6483 72.5981C78.7288 72.6776 79.6037 72.2644 80.6994 72.185C82.1162 72.0818 83.5447 72.0635 84.9639 71.9891C86.422 71.9126 87.9911 71.6799 89.4453 71.7544C89.8992 71.7777 90.2899 71.8222 90.7404 71.795C90.9309 71.7835 91.1114 71.6542 91.3113 71.6735C91.5716 71.6987 91.6835 71.9652 91.9536 71.9559C92.4126 71.9402 92.9032 71.562 93.4487 71.5518C94.3459 71.5349 95.2391 71.5368 96.1385 71.4857C96.9304 71.4408 97.7787 71.2559 98.5669 71.266C99.1229 71.2728 99.2602 71.7466 99.5842 71.7955C100.167 71.8833 103.114 70.2061 103.369 71.7114C104.903 70.6614 106.961 71.5505 108.669 71.3532C110.863 71.0997 113.098 71.3256 115.306 71.2354C117.554 71.1435 119.867 71.2286 122.106 71.4405C123.033 71.5283 123.929 71.6107 124.859 71.5574C125.274 71.5337 125.753 71.4278 126.168 71.5234C126.268 71.5466 127.037 72.0833 126.941 72.0987C127.361 71.7217 127.077 71.6664 127.816 71.6471C128.385 71.6322 128.924 71.7552 129.49 71.7887C130.507 71.8488 131.531 71.708 132.545 71.739C133.392 71.7649 134.22 71.8899 135.072 71.896C135.989 71.9026 137.073 71.9285 137.737 72.6683C137.667 72.436 137.597 72.2038 137.527 71.9715C138.551 72.0517 139.563 72.4172 140.599 72.2463C140.337 72.4972 140.071 72.7023 139.971 73.0702C140.529 72.9993 140.907 72.6096 141.495 72.6065C141.989 72.6035 142.092 72.8512 142.613 72.5312C142.677 72.9233 142.741 73.3155 142.806 73.7074C143.528 73.5374 143.054 72.9991 143.107 72.5138C143.693 72.6901 144.19 72.4876 143.959 73.3318C143.781 73.9826 142.968 74.3034 142.357 74.1051ZM141.342 81.3548C141.091 82.062 138.913 81.6579 138.398 81.5831C137.732 81.4868 136.971 81.334 136.359 81.2582C136.285 81.1601 136.197 81.077 136.094 81.0086C136.017 81.1159 135.92 81.1922 135.802 81.2369C135.521 81.2985 135.52 81.589 135.15 81.5247C135.133 81.9545 135.431 81.7102 135.66 81.8662C135.084 82.2525 135.347 81.8078 135.024 81.8149C134.944 81.7012 134.832 81.6567 134.689 81.6811C134.507 81.7283 134.339 81.8063 134.185 81.9151C134.041 82.0672 133.918 82.075 133.815 81.9388C133.717 81.8398 133.597 81.7787 133.455 81.7555C132.887 81.8479 132.728 82.0997 132.089 82.0586C131.176 81.9997 130.187 82.2405 129.288 82.1136C128.731 82.0351 127.8 81.1597 127.547 82.0131C127.162 81.3804 126.548 80.9499 126.179 80.3035C127.897 80.2042 129.615 80.0859 131.335 80.0238C132.84 79.9695 134.487 80.1389 135.894 80.068C137.213 80.0015 138.608 79.8558 139.954 79.7355C141.381 79.6082 141.853 79.9211 141.342 81.3548ZM96.5167 81.4591C97.1406 81.6317 97.7347 81.2403 98.3398 81.364C98.5398 81.4049 98.9539 81.7691 99.045 81.7762C99.2116 81.7897 99.7014 81.432 99.9114 81.3841C101.241 81.0817 102.85 81.1139 104.179 81.2997C104.883 81.398 104.991 81.0758 105.606 80.9193C106.245 80.7565 107.153 80.8819 107.825 80.8369C109.408 80.7311 110.989 80.8064 112.561 80.6907C114.175 80.5719 115.78 80.5076 117.395 80.4245C118.494 80.368 121.137 79.7407 122.048 80.557C122.8 81.2301 121.831 82.3987 121.08 82.6654C120.517 82.8644 120.248 82.4449 119.831 82.485C119.356 82.5305 119.521 83.092 119.097 82.5713C118.834 83.0891 117.182 82.8683 116.709 82.9026C115.677 82.9771 114.804 83.1842 114.102 82.2217C114.149 82.4992 114.197 82.7769 114.245 83.0544C113.313 82.5566 112.314 82.716 111.505 82.8896C111.105 82.9754 109.876 83.569 109.443 83.313C109.144 83.137 109.67 82.8358 109.167 82.6855C108.903 82.6067 108.447 83.0449 108.125 83.0229C107.233 82.9615 107.486 82.3615 106.609 83.125C106.313 82.8683 106.214 82.4319 106.253 82.0576C105.616 82.6006 105.67 83.5057 104.531 83.3399C104.107 83.2783 104.029 82.8456 103.808 82.7659C103.337 82.5957 103.284 82.9016 102.876 83.1436C102.722 83.2348 102.534 83.3818 102.352 83.4001C101.98 83.4372 101.921 83.2661 101.87 83.2717C101.622 83.2991 101.309 83.425 101.015 83.3351C100.751 83.2541 100.674 82.7884 100.209 82.8972C99.7637 83.0016 99.76 83.304 99.8408 83.7565C99.4018 83.7111 99.1364 83.4666 98.8079 83.2018C98.4763 83.9751 97.7784 83.3346 97.3924 83.9871C96.8893 83.3866 96.5668 83.5519 95.9429 82.9654C95.9736 83.2101 96.0042 83.4548 96.0347 83.6996C95.5478 83.6057 95.3312 83.2624 94.9158 83.7167C94.5126 82.9656 93.2902 84.0357 92.6624 83.3104C92.3826 84.2291 90.5309 84.0093 89.7488 84.0252C89.0558 84.0394 88.5427 83.9827 87.8656 84.1436C87.2671 84.2858 86.4378 84.4333 85.875 84.3682C85.5072 84.3257 85.1053 84.2582 84.6472 84.3081C83.9867 84.3797 83.4162 84.7215 82.732 84.5599C81.7018 84.3164 81.0703 82.9632 82.2178 82.3689C83.0031 81.962 84.4177 82.1126 85.2818 82.0376C86.714 81.9131 88.3191 81.6523 89.7532 81.7709C90.8718 81.8635 91.8913 81.5965 93.0326 81.4838C93.8919 81.399 95.3002 81.2462 95.8606 82.0977C96.0757 81.8491 96.0535 81.331 96.5167 81.4591ZM80.8386 93.116C80.6848 92.3501 87.2324 91.9283 87.8822 91.8782C89.2467 91.7731 90.6149 91.698 91.9826 91.6633C93.1069 91.6347 94.1561 91.8494 95.2806 91.6768C96.3309 91.5157 97.5985 91.1854 98.5125 91.9288C98.647 90.912 102.588 91.4074 103.338 91.4103C106.602 91.422 109.726 91.4296 112.883 91.2274C114.687 91.112 116.603 90.9565 118.408 91.0467C119.222 91.0876 119.877 91.3044 120.687 91.1162C121.215 90.9934 121.784 90.738 122.289 91.0991C122.88 91.522 123.132 92.9576 122.725 93.5568C122.429 93.9935 122.166 93.9451 121.693 93.8695C120.964 93.7536 120.423 93.5852 119.681 93.8813C119.801 93.8331 119.183 93.971 119.235 93.9671C118.393 94.0299 117.24 94.6174 116.515 93.9402C116.805 93.991 117.227 93.4727 116.861 93.43C116.586 93.3982 116.412 93.6928 116.197 93.7915C115.464 94.1292 115.088 94.0236 114.65 93.3153C113.766 94.0803 113.671 93.8686 113.283 92.9266C112.984 93.1566 112.92 93.7008 112.685 93.8793C112.65 93.906 112.794 94.2365 112.625 94.2228C112.467 94.2101 112.416 93.9519 112.294 93.9316C112.217 93.9184 112.177 93.692 112.103 93.6783C112.022 93.6634 111.94 93.8079 111.849 93.8038C111.606 93.7923 110.912 94.3091 111.161 93.5837C110.793 94.0519 110.634 93.7534 110.502 93.3275C110.077 93.6505 109.652 93.9734 109.227 94.2962C109.029 93.747 108.689 93.8967 108.262 94.0883C108.391 93.7069 108.31 93.3461 107.986 93.6114C107.799 93.7649 107.673 94.2524 107.482 94.4595C106.706 93.674 106.424 93.8893 105.352 93.9915C104.943 94.0304 104.435 94.1059 104.07 93.8588C103.748 93.6417 103.567 92.8447 103.017 93.4886C103.14 93.3454 102.948 94.4453 102.914 94.6201C102.672 94.4568 102.466 94.2558 102.296 94.0177C101.98 94.6436 101.15 94.082 100.47 94.2099C99.3993 94.4113 98.2949 94.7504 97.3491 93.9536C97.2822 94.2108 96.5074 94.5384 96.5064 94.5485C96.5524 94.093 96.8398 94.2531 96.2527 94.1666C96.1448 94.1507 96.0222 94.3451 95.9202 94.3663C95.5702 94.4387 95.1615 94.37 94.8089 94.36C93.3418 94.3177 91.9987 94.6428 90.55 94.7607C90.0616 94.8003 89.4824 94.8783 89.0238 94.6942C88.5515 94.5042 88.5645 94.2888 88.0866 94.4111C88.2377 94.3724 87.7879 94.845 87.8124 94.8272C87.7481 94.8739 87.48 94.6433 87.3848 94.6607C87.357 94.7614 87.3294 94.8621 87.3015 94.9629C87.1863 94.9487 87.071 94.9345 86.956 94.9203C86.641 94.9626 86.3568 94.6438 86.0608 94.633C86.1153 94.635 85.2621 94.9526 85.3009 94.9719C84.7053 94.6749 84.8763 94.7609 84.1207 94.9418C83.4065 95.1127 82.6954 95.0729 81.9626 95.1795C79.8311 95.489 81.1011 94.4208 80.8386 93.116ZM78.9561 103.773C78.5554 103.204 79.6218 103.008 79.9624 102.957C80.5226 102.875 81.2657 103.039 81.639 102.95C82.2075 102.815 82.7562 102.492 83.3962 102.405C84.2038 102.294 85.0179 102.276 85.8288 102.207C86.0989 102.184 86.4334 102.091 86.6962 102.107C87.0876 102.13 87.2502 102.337 87.5662 102.339C88.1044 102.341 88.7686 102.001 89.3202 101.939C90.0267 101.859 90.7402 101.822 91.45 101.786C92.9457 101.712 94.426 101.743 95.9209 101.741C96.6027 101.74 98.4184 101.033 98.7584 101.826C99.2311 101.225 100.443 101.307 101.119 101.289C102.31 101.259 103.488 101.144 104.677 101.089C105.696 101.041 106.834 101.259 107.834 101.106C108.385 101.022 108.568 100.846 109.193 100.926C109.658 100.984 110.366 100.739 110.764 100.848C110.744 100.842 111.262 101.163 111.1 101.173C111.278 101.162 111.268 101.286 111.464 101.231C111.722 101.158 111.603 100.834 112.138 100.719C112.971 100.539 114.082 100.747 114.948 100.701C115.788 100.656 116.627 100.637 117.468 100.641C117.855 100.642 118.333 100.55 118.71 100.626C118.895 100.662 119.287 100.903 119.443 100.879C119.886 100.81 120.112 100.502 120.711 100.521C121.39 100.543 122.001 100.533 122.676 100.482C123.33 100.432 123.435 100.338 123.759 100.882C124.08 101.422 124.169 102.124 123.578 102.491C123.962 102.466 124.434 102.98 123.982 103.265C123.702 103.441 123.141 103.044 122.807 103.072C122.394 103.108 122.07 103.326 121.621 103.339C121.149 103.354 120.67 103.473 120.205 103.482C119.72 103.491 119.354 103.275 118.894 103.367C118.489 103.448 118.447 103.78 117.959 103.488C117.717 103.343 117.676 102.807 117.346 102.802C116.903 102.795 117.08 103.367 116.826 103.632C116.757 102.814 116.126 104.167 115.875 103.175C115.644 103.504 114.787 103.965 114.372 103.701C113.994 103.459 114.119 102.913 113.962 102.52C113.7 103.227 112.996 103.961 113.06 102.673C112.718 103.094 111.794 103.027 112.026 103.764C111.747 103.758 111.681 103.361 111.447 103.331C111.245 103.305 111.084 103.46 111.053 103.458C111.164 103.467 110.722 103.614 110.715 103.616C111.014 103.555 109.851 103.451 110.049 103.453C109.779 103.451 109.449 103.672 109.133 103.671C108.846 103.67 108.56 103.557 108.276 103.525C107.541 103.441 107.694 103.602 107.232 103.833C107.061 103.919 107.018 104.064 106.775 104.046C106.596 104.032 106.528 103.798 106.508 103.796C106.256 103.771 106.442 103.686 106.051 103.726C106.006 103.803 105.961 103.88 105.916 103.957C105.775 104.138 105.591 104.183 105.366 104.093C104.787 104.217 102.866 104.756 103.054 103.759C102.76 103.902 102.465 104.046 102.171 104.19C102.045 103.386 100.445 104.452 100.088 104.506C99.6296 104.575 99.5874 104.399 99.1539 104.305C99.0758 104.289 98.9193 104.546 98.7361 104.509C98.2607 104.414 98.176 104.366 98.0944 103.85C97.7555 104.484 97.4737 104.2 96.8588 104.305C96.7228 104.328 96.6359 104.595 96.4405 104.549C96.2999 104.516 96.296 104.259 96.199 104.226C96.1116 104.195 96.1248 103.993 95.9961 103.964C95.8486 103.93 95.3456 104.343 95.2013 104.406C94.8758 104.55 94.3412 104.787 94.0235 104.716C93.6306 104.628 93.8055 104.337 93.2504 104.37C92.3748 104.421 92.0095 105.167 91.4647 103.992C91.2188 104.463 91.2501 104.59 90.8552 104.746C90.5634 104.86 89.8242 104.74 89.4401 104.726C87.7992 104.666 86.1858 105.225 84.5586 105.078C83.8433 105.014 83.2402 104.871 82.5184 104.988C81.7599 105.111 81.0181 105.292 80.2486 105.365C79.8574 105.402 79.0399 105.514 78.848 105.014C78.679 104.574 79.3092 104.273 78.9561 103.773ZM82.1743 121.826C80.046 123.25 78.2832 125.194 76.3289 126.841C74.3696 128.491 72.8148 130.326 71.0527 132.154C69.4235 133.844 67.9269 135.442 65.9573 136.719C64.7109 137.527 63.5991 138.522 62.3189 139.284C61.3599 139.855 59.9073 140.605 60.3751 138.86C60.8547 137.071 61.7399 135.263 62.5086 133.592C63.6013 131.218 64.7026 128.865 65.885 126.535C66.3294 125.66 66.578 124.789 67.2827 124.092C68.0495 123.333 68.5865 122.342 69.4262 121.625C72.9584 118.609 78.2817 120.939 82.1743 121.826ZM88.8509 122.848C87.8854 123.355 86.8048 123.48 85.7817 123.815C84.9097 124.1 84.099 124.607 83.1613 124.644C84.015 124.003 84.7483 123.133 85.7106 122.646C86.7931 122.099 87.7757 122.497 88.8509 122.848ZM131.227 127.066C127.676 125.868 124.369 124.102 120.91 122.681C120.313 122.436 115.644 120.898 115.738 120.166C119.011 119.567 122.381 118.538 125.661 119.659C128.645 120.68 131.072 123.127 133.382 125.176C133.985 125.71 137.712 128.144 137.379 128.92C137.148 129.457 135.352 129.31 134.928 129.2C134.38 129.058 134.064 128.725 133.635 128.36C132.916 127.749 132.121 127.368 131.227 127.066ZM124.671 107.047C125.211 106.551 125.533 105.798 126.049 105.339C126.711 104.751 127.779 105.037 128.502 105.343C130.674 106.261 132.53 107.804 134.688 108.761C137.08 109.822 139.15 111.24 141.307 112.701C143.279 114.037 145.411 115.143 147.424 116.417C149.475 117.717 151.771 118.561 153.85 119.814C155.966 121.089 158.073 122.37 160.106 123.775C163.732 126.281 167.507 128.855 170.19 132.418C171.568 134.249 172.859 136.327 173.871 138.383C174.79 140.253 175.788 142.848 174.596 144.793C173.452 146.661 171.501 148.132 169.85 149.525C169.224 150.053 168.629 150.694 167.819 150.923C166.833 151.201 165.683 151.124 164.669 151.206C159.248 151.646 154.198 151.231 148.855 150.261C143.704 149.327 138.531 148.803 133.341 148.153C130.412 147.787 127.485 147.36 124.596 146.75C123.361 146.489 122.105 146.188 120.897 145.832C119.842 145.522 118.954 144.838 117.869 144.567C113.265 143.417 107.996 142.978 103.438 141.044C107.472 139.367 111.759 138.355 115.893 136.962C120.245 135.496 124.495 134.265 129.081 133.849C131.441 133.634 133.553 133.032 135.824 132.401C137.987 131.8 140.246 131.615 142.468 131.346C143.457 131.226 146.277 131.406 146.604 130.114C147.092 128.19 144.321 127.968 143.14 128.141C141.464 128.385 140.082 128.803 138.799 127.429C137.49 126.025 136.217 124.587 134.884 123.201C132.412 120.631 129.864 117.658 126.369 116.505C122.106 115.098 117.162 116.434 112.908 117.233C108.415 118.078 103.93 118.887 99.5207 120.116C97.6949 120.624 95.3404 121.745 93.4455 121.565C91.578 121.387 89.4628 121.081 87.6583 120.543C86.8417 120.299 86.1704 119.848 85.4398 119.427C84.4897 118.879 83.4487 118.528 82.4405 118.103C80.4015 117.242 78.4138 116.449 76.2142 116.111C74.3617 115.826 72.3946 115.657 70.5993 116.307C68.8382 116.944 67.2776 118.241 66.0488 119.627C64.7141 121.132 63.6109 122.819 62.5169 124.501C61.9917 125.309 61.3507 126.013 60.8066 126.802C60.35 127.465 60.0833 128.202 59.6001 128.846C58.5186 130.287 57.7843 132.131 57.1289 133.807C56.4007 135.67 55.5917 137.884 55.7656 139.91C55.8313 140.676 55.8999 141.69 56.1961 142.4C56.5729 143.303 57.1101 143.28 57.8844 143.621C59.2147 144.206 59.5879 145.823 61.307 145.508C62.9196 145.212 64.318 143.883 65.4945 142.824C67.028 141.444 68.4956 139.989 69.9629 138.539C71.4686 137.05 72.9525 135.4 74.1503 133.649C74.6218 132.96 74.9893 132.182 75.5465 131.554C76.2562 130.755 77.0529 130.658 78.0168 130.34C86.4435 127.556 94.9109 124.87 103.601 123.032C105.683 122.592 107.781 122.023 109.826 121.437C111.996 120.815 113.119 121.473 114.909 122.656C118.649 125.129 123.069 126.87 127.234 128.484C128.545 128.992 130.633 129.024 131.658 130.026C125.582 130.952 119.792 132.734 113.931 134.509C111.042 135.384 108.119 136.142 105.218 136.979C102.317 137.816 99.5258 138.901 96.6642 139.844C93.8162 140.783 90.8064 141.167 87.9308 142.033C84.9954 142.917 82.0722 143.525 79.0592 144.063C76.0169 144.606 72.9955 145.232 69.9427 145.718C68.5449 145.941 67.1475 146.171 65.7651 146.477C64.4125 146.777 63.1059 147.494 61.7465 147.661C55.676 148.403 49.7246 150.058 43.6778 150.994C39.1627 151.692 31.3079 152.666 28.3801 148.137C25.4359 143.581 29.048 138.267 32.2708 135.01C34.2736 132.986 36.5243 131.204 38.8856 129.619C41.4127 127.923 43.8441 126.092 46.3717 124.398C52.0918 120.565 58.2944 117.439 64.4399 114.359C67.3897 112.88 70.2396 111.295 73.1091 109.672C74.5332 108.867 75.3214 110.166 76.4471 111.05C77.3325 111.744 78.9586 113.457 80.1974 112.665C80.245 112.95 80.2928 113.235 80.3404 113.521C80.7033 113.355 81.0664 113.19 81.4293 113.024C81.673 113.664 81.6444 114.061 82.3255 114.396C82.7435 114.603 83.6358 114.851 84.0345 114.487C84.1159 114.74 84.1972 114.992 84.2785 115.245C84.6269 115.218 84.6943 114.221 84.76 113.987C85.3573 114.86 86.1834 115.589 87.2332 115.835C87.2383 115.778 87.0625 115.062 87.07 115.057C87.4021 114.854 87.8212 115.725 87.9972 115.911C88.5811 116.529 88.9293 116.433 89.5742 115.935C89.6211 115.985 89.8394 116.555 89.8711 116.545C90.0108 116.5 90.2757 115.996 90.3048 115.95C90.2645 116.614 91.5463 116.747 91.999 116.605C91.8974 116.41 91.7958 116.216 91.6945 116.021C93.2712 115.811 93.8902 117.486 95.4037 117.401C96.5226 117.338 95.6252 117.093 96.2584 116.614C96.8114 116.195 96.9101 117.111 96.9643 117.082C97.0698 116.972 97.1516 116.845 97.2097 116.701C97.4143 117.486 99.0443 118.189 98.8758 116.899C99.517 117.156 99.9722 117.582 100.682 117.672C101.544 117.781 102.466 117.598 103.326 117.526C105.18 117.372 106.928 116.994 108.599 116.145C109.59 115.641 110.644 115.184 111.576 114.576C112.355 114.068 113.834 112.524 114.872 113.189C114.606 112.405 115.857 113.132 115.897 112.122C116.098 112.273 116.299 112.424 116.5 112.576C116.621 112.312 116.587 111.895 116.748 111.665C116.97 111.349 117.078 111.535 117.267 111.357C117.479 111.158 117.663 110.625 117.917 110.473C118.178 110.317 118.486 110.503 118.767 110.367C119.195 110.159 121.036 108.128 120.724 109.868C121.516 109.599 120.905 109.353 121.004 108.825C121.203 107.768 121.686 108.529 122.168 108.621C122.956 108.772 122.941 108.121 123.38 107.647C123.782 107.214 124.537 107.02 124.277 106.269C124.573 106.429 124.637 106.742 124.671 107.047ZM77.1396 84.467C76.5184 85.1589 76.0532 84.8631 75.3627 84.7616C75.2887 84.5139 75.1624 84.4797 74.9839 84.6587C74.7793 84.7763 74.5593 84.8538 74.3237 84.8907C73.7574 85.0303 73.1691 84.9709 72.6151 85.1824C72.6309 84.9968 72.8258 84.667 72.701 84.4785C72.1184 84.8814 71.7572 85.1379 71.0418 85.1454C70.4621 85.1516 69.4445 84.7088 68.9632 85.2381C68.9483 85.032 68.9334 84.8261 68.9188 84.62C68.6831 84.7374 68.478 84.8946 68.3034 85.0917C68.2705 84.7863 68.2522 84.5555 68.0502 84.3086C67.6673 85.0963 67.2478 85.1149 66.5038 84.8139C66.608 84.856 65.759 84.3585 65.7915 84.4963C65.5231 83.3654 69.7603 83.4588 70.2052 83.414C71.316 83.3018 72.4268 83.2368 73.5393 83.1343C74.5945 83.0373 75.382 82.8727 76.1123 83.7531C75.7868 82.4816 78.8656 82.5446 77.1396 84.467ZM28.5584 64.7473C28.6751 66.6697 29.1029 68.7131 28.3555 70.5633C27.7545 72.0505 26.5558 73.7301 25.2645 74.7007C22.6205 76.6878 20.3793 74.2562 20.0113 71.5838C19.6277 68.7964 20.3881 65.3906 22.7882 63.6719C24.2223 62.645 25.611 62.7162 27.2622 63.0538C27.65 63.1333 28.2795 63.1027 28.5012 63.488C28.5533 63.5782 28.5066 64.7456 28.5584 64.7473ZM63.6756 90.36C63.2189 90.5905 62.7411 90.7255 62.3384 91.0392C62.1985 91.1482 62.1509 91.3964 62.0024 91.488C61.7323 91.655 61.3463 91.5443 61.0647 91.6822C60.5988 91.9098 60.2648 92.2357 59.7109 92.4454C58.8885 92.7571 58.1674 93.1845 57.3902 93.5898C56.095 94.2651 54.7051 94.8448 53.3511 95.3946C52.6676 95.6721 50.7773 96.2129 50.8428 97.2136C50.6899 97.2549 50.5336 96.9204 50.2145 96.9471C49.7761 96.9835 49.1972 97.4903 48.7423 97.615C47.8913 97.848 47.2324 97.8685 47.2324 98.9535C46.9616 98.7694 46.8928 98.3191 46.5323 98.2595C46.1267 98.1922 45.9561 98.6298 45.6315 98.766C45.2494 98.9264 44.7742 98.7726 44.3957 98.9433C44.2301 99.1183 44.0463 99.2711 43.8438 99.4014C43.638 99.4251 43.4331 99.419 43.2292 99.3824C42.4258 99.5528 41.6864 99.8549 40.8811 100.012C40.0963 100.165 39.5588 100.221 39.8887 101.149C39.0492 101.313 38.8441 100.422 37.8969 100.748C36.7358 101.147 35.6506 101.435 34.4384 101.679C33.8204 101.803 33.1745 102.08 32.5518 102.145C32.1077 102.192 31.693 102.033 31.2557 102.082C30.7285 102.141 30.3048 102.386 29.7593 102.395C29.2419 102.404 28.6985 102.311 28.1904 102.22C28.2622 102.424 28.352 102.621 28.46 102.809C28.1086 102.735 27.9464 102.312 27.6485 102.25C27.336 102.184 27.0559 102.507 26.7956 102.435C26.6847 102.405 26.7585 102.063 26.5602 101.998C26.3795 101.939 26.3033 102.009 26.1241 101.98C26.0642 101.971 25.3146 101.931 25.1952 101.994C24.9864 102.104 25.1976 102.312 25.1561 102.343C24.4511 102.864 24.4426 102.583 24.1283 102.038C23.6668 101.238 23.1103 101.743 22.2715 101.603C21.3368 101.447 20.6003 101.859 19.6802 101.8C18.6878 101.737 17.5216 100.994 16.6442 100.561C14.7495 99.6244 12.902 98.7381 11.3109 97.3199C8.20041 94.5475 5.66989 91.1379 4.1779 87.2345C2.5748 83.0412 2.27103 78.6676 2.39972 74.2188C2.47713 71.5432 2.69128 68.8693 3.11299 66.225C3.40333 64.406 3.46413 61.1737 5.51483 60.3454C5.86743 64.6043 4.75491 68.9441 5.45647 73.1754C5.66769 74.4498 6.18293 76.148 7.15797 77.092C8.60161 78.4892 8.93932 76.4695 9.06996 75.3537C9.31293 73.2817 9.76443 71.221 10.0841 69.1588C10.4035 67.0973 10.6291 65.0128 11.0733 62.9731C11.2352 62.2294 12.5411 56.7831 13.4995 57.041C13.3057 61.0031 12.7907 64.897 12.7704 68.8737C12.7623 70.4687 12.6195 72.1534 12.8498 73.7379C12.9682 74.5533 13.7108 76.946 14.9879 76.7465C16.1697 76.5619 14.8704 74.8765 14.76 74.2266C14.4677 72.5062 14.8404 70.3658 15.1129 68.6581C15.6286 65.4265 16.7792 62.1167 18.66 59.4162C20.3444 56.998 22.9379 54.6959 26.0623 55.1223C27.3973 55.3047 28.4387 55.6362 29.1095 56.8552C29.6357 57.8119 31.7089 58.8988 30.5075 60.0966C29.4138 61.1869 27.6449 60.3141 26.4291 60.0543C24.9405 59.7359 23.3452 60.1188 22.1003 60.9911C19.9644 62.4873 18.7471 65.1625 18.3498 67.6713C17.8143 71.0542 19.2458 79.9089 24.518 77.9244C28.0204 76.6059 30.6584 71.8635 30.3644 68.2327C30.2465 66.7792 29.6782 64.02 31.6891 63.6276C34.2653 63.125 34.6291 65.9649 34.3684 67.8102C33.9891 70.4946 32.5704 72.9908 30.9473 75.1131C29.5327 76.9629 27.8874 78.1195 26.1851 79.6473C25.6811 80.0996 24.3957 81.1164 24.6116 81.9576C24.8482 82.8796 26.8684 83.1417 27.6774 83.2932C31.6791 84.0423 36.192 83.3531 40.1869 82.8302C48.3977 81.755 56.5006 79.1067 63.2334 74.2379C63.5054 77.2504 63.8482 80.2529 63.9745 83.2764C64.0358 84.744 64.0514 86.2329 64.2191 87.6925C64.3224 88.5904 64.6958 89.8446 63.6756 90.36ZM40.9084 100.857C40.5861 101.026 40.9346 100.006 40.845 100.343C41.3265 100.516 41.3477 100.687 40.9084 100.857ZM74.9693 64.3997C75.4811 63.8357 76.8791 62.4939 77.3228 63.7672C77.4878 63.2245 77.5093 62.4206 78.1467 63.1536C78.4004 62.2531 81.1995 62.3375 81.8928 62.2976C84.1127 62.1707 86.3416 62.1028 88.5537 61.8823C93.0993 61.4292 97.7242 61.663 102.286 61.648C103.274 61.6449 104.26 61.5913 105.24 61.7346C106.187 61.873 107.181 62.261 108.146 62.1192C109.004 61.993 109.566 61.7566 110.449 61.8578C111.505 61.9788 112.53 62.0649 113.596 62.061C118.31 62.0439 123.021 62.2348 127.735 62.2421C128.654 62.2436 129.755 62.0641 130.617 62.4543C130.936 62.5991 131.285 63.0805 131.529 63.1333C131.809 63.1937 131.643 62.7575 132.017 62.9545C132.518 63.2181 132.13 64.0288 131.799 64.1574C131.997 64.0804 131.441 64.0046 131.497 64.0017C131.233 64.0158 131.008 64.2183 130.724 64.2056C130.292 64.1867 129.931 63.9234 129.583 63.6917C129.577 63.7863 129.768 64.4173 129.55 64.4491C129.362 64.4767 129.186 63.8545 129.167 63.7098C128.113 64.64 126.995 64.1215 125.686 64.2393C124.758 64.3229 122.823 64.9422 122.175 63.9731C122.148 64.1792 122.065 64.3596 121.927 64.5143C121.742 64.7962 121.582 64.7723 121.447 64.4417C121.401 64.4439 120.95 64.542 120.941 64.5412C120.624 64.5161 120.212 64.4021 119.89 64.3745C119.39 64.332 119.482 64.6955 119.084 64.7014C118.867 64.7046 118.312 64.3906 117.933 64.3711C117.277 64.3369 116.607 64.6153 115.959 64.531C115.513 64.473 115.11 64.1102 114.673 64.096C114.128 64.0779 113.951 64.4936 113.519 63.9097C113.431 63.8858 113.376 64.2293 113.341 64.2351C113.349 64.2337 112.93 64.2958 112.88 64.3151C112.794 64.3481 112.459 64.5016 112.357 64.5033C112.136 64.5075 112.017 64.3496 111.783 64.3459C111.396 64.3393 110.162 64.6796 110.197 63.9645C108.817 64.4757 107.64 64.2765 106.224 64.3972C105.574 64.453 105.166 64.3659 104.548 64.2466C103.774 64.0973 103.26 64.285 102.488 64.3229C101.746 64.3593 101.512 64.0454 100.886 63.7621C100.639 63.6503 100.476 63.5029 100.173 63.565C100 63.6005 100.123 63.8914 100.072 63.9112C99.8057 64.0139 99.6199 63.9051 99.255 63.93C98.5813 63.976 98.3132 64.539 97.6207 64.0105C97.8507 63.9826 98.081 63.9542 98.3112 63.9264C97.649 63.6457 96.7751 63.5024 96.9355 64.5246C96.3707 64.4454 96.8595 64.0608 96.5819 63.9232C96.3043 63.7858 95.9934 64.0158 95.6437 64.1295C94.7205 64.429 93.9505 64.2804 92.9877 64.2266C91.8937 64.1655 89.3344 65.0581 88.551 63.8992C88.5276 64.1435 88.2653 64.8239 87.9164 64.7918C87.8026 64.7813 88.1198 64.0591 88.1557 63.9826C87.976 64.3652 87.156 64.4378 86.7519 64.6363C86.7973 64.4307 86.8425 64.2251 86.8876 64.0198C86.5126 64.4192 86.3301 64.1755 85.8886 64.309C85.6957 64.3674 85.4164 64.7654 85.2513 64.7894C85.0592 64.5664 84.8174 64.4706 84.5263 64.5016C84.3327 64.4532 84.139 64.4437 83.9456 64.4733C83.1708 64.5295 82.4644 64.96 81.6937 64.6669C81.0266 64.4126 80.7685 63.7591 80.3707 64.7989C80.266 64.6141 80.1615 64.4293 80.0567 64.2444C79.9278 64.4452 79.7986 64.6456 79.6694 64.8461C79.1647 64.5156 79.1337 64.3241 78.5527 64.4456C78.4165 64.4999 78.2766 64.4923 78.1335 64.4227C78.0993 64.5246 78.0651 64.6263 78.0309 64.728C78.0173 64.984 77.9413 65.0686 77.8031 64.9816C77.6869 64.9397 77.5819 64.8764 77.4883 64.7913C77.104 64.8207 76.6132 64.9219 76.2007 64.8659C76.0415 64.8446 75.0435 64.3178 74.9693 64.3997ZM86.7294 57.5173C86.7746 57.5867 86.82 57.6561 86.8652 57.7256C86.2413 58.0551 86.0945 57.8659 86.03 57.2043C86.3348 57.2102 86.3868 57.7464 86.7294 57.5173ZM87.1159 57.129C87.4163 57.2615 87.7608 57.5219 88.0439 57.173C88.2343 57.7268 86.8195 58.4825 87.1159 57.129ZM89.0563 57.3735C89.687 57.7999 88.174 57.4571 88.1765 57.4579C88.4485 57.2068 88.7415 57.1787 89.0563 57.3735ZM94.4814 54.9964C94.6977 56.0878 95.2943 56.0567 96.2574 55.5494C97.6617 54.8094 97.8988 53.5975 97.9967 52.1504C98.0907 50.763 98.2604 50.2258 99.6911 50.5156C100.69 50.7177 101.535 50.5478 102.541 50.52C103.616 50.4904 103.994 50.6544 104.081 51.76C104.167 52.867 104.364 53.7075 105.168 54.55C105.984 55.4064 107.073 55.9179 108.135 56.3971C108.68 56.6432 109.193 56.9083 109.797 56.9616C110.031 56.9823 111.249 56.8283 111.274 57.2136C111.293 57.5033 109.607 58.3204 109.428 58.4177C108.646 58.8431 107.866 59.2247 107.011 59.4824C105.046 60.0755 102.962 60.1105 100.926 60.0746C97.6431 60.0169 93.1066 58.6284 91.1438 55.7162C92.2563 55.4763 93.3689 55.2363 94.4814 54.9964ZM94.1869 45.5445C93.6675 45.1086 93.3313 44.4502 92.8998 43.9341C92.6822 43.6737 92.5228 43.5909 92.3157 43.4605C92.0976 43.3234 91.9748 43.5175 91.7929 43.195C91.3228 42.3616 92.7733 41.1888 91.2349 40.8681C90.7145 40.7593 89.4619 41.1717 89.31 40.426C89.0951 39.3716 91.1077 39.3026 91.5812 38.7675C92.5228 37.7035 91.8837 35.8997 92.4571 34.6721C92.9999 33.5094 94.4013 33.3028 95.5072 32.9534C97.0483 32.4669 98.6079 32.1848 100.173 31.7953C101.267 31.5232 103.085 30.4297 104.099 31.3958C102.534 31.7435 103.444 32.2892 104.487 32.5972C105.669 32.9464 106.922 33.0825 108.147 33.1798C109.408 33.2798 110.693 33.2989 111.939 33.0476C113.091 32.8151 114.378 31.8137 115.586 32.0701C114.916 33.2356 112.919 33.8722 111.705 34.1776C111.087 34.3331 110.691 34.2844 110.774 35.0553C110.855 35.8024 111.504 36.5515 111.651 37.3297C111.845 38.3597 111.675 39.3061 111.309 40.2747C110.948 41.2277 110.864 41.3521 111.179 42.2628C111.67 43.6808 110.615 45.2479 109.639 46.2777C105.694 50.4412 98.1432 48.8641 94.1869 45.5445ZM104.212 20.6606C104.228 20.7032 104.215 20.687 104.212 20.6606V20.6606ZM105.441 31.168C105.277 31.2902 104.335 31.5464 104.375 31.1783C104.427 30.6849 105.276 30.8631 105.441 31.168ZM107.588 21.2017C107.367 21.0369 106.748 21.1046 107.201 20.48C107.348 20.7548 107.469 20.9782 107.588 21.2017ZM92.7286 17.2531C93.0104 16.5208 93.3225 15.8397 93.4495 15.0603C93.5278 14.5801 93.372 14.0318 94.0433 13.9565C93.1879 13.5834 93.1791 12.1109 93.1286 11.3476C93.0592 10.2963 92.7271 8.88884 93.1891 7.91042C93.6634 6.90536 94.3031 6.92198 94.4963 8.11897C94.572 8.58764 94.2826 8.73922 94.2282 9.0656C94.1207 9.71128 94.3346 9.56972 94.7512 9.07783C94.9231 9.57779 94.9891 10.3291 95.6889 10.2973C95.6423 10.1621 95.3741 9.86383 95.4638 9.69588C95.6012 9.43795 96.2735 9.83205 96.3587 9.89171C96.9726 10.321 97.1057 10.7129 96.6679 11.2544C97.2739 11.3197 96.7653 11.8503 97.1565 11.9886C97.7533 12.1996 97.353 11.1999 97.2883 11.0241C97.6517 11.1659 97.7735 11.3278 98.0036 11.6148C98.1386 11.8128 98.2617 12.0185 98.3725 12.2312C98.4961 12.6194 98.7505 12.7167 99.1364 12.5231C99.9095 12.7656 100.977 12.7277 101.67 13.1516C101.986 13.3453 102.1 13.7689 102.365 13.9298C102.662 14.111 103.061 14.0288 103.38 14.1425C103.263 14.408 103.358 14.5518 103.664 14.5743C103.901 14.596 104.131 14.6496 104.354 14.7346C104.52 14.6092 104.701 14.5102 104.897 14.4381C105.028 14.6696 105.214 14.7268 105.454 14.6102C106.167 14.7437 106.509 15.0134 106.962 15.4165C107.369 15.7783 107.038 15.8077 107.484 15.7757C107.663 15.7627 107.976 15.459 108.386 15.5182C108.622 15.5642 108.849 15.6368 109.068 15.736C109.304 15.9385 109.556 15.9639 109.821 15.8126C110.253 16.0236 110.296 16.3974 110.822 16.4485C111.404 16.5052 111.217 15.7796 111.616 16.803C112.155 15.718 112.352 17.4464 112.908 17.586C113.483 17.7308 113.545 17.2641 114.038 17.774C114.186 17.9268 114.178 18.1794 114.343 18.3415C114.615 18.6068 114.983 18.5537 115.219 18.9155C115.087 18.7136 115.25 19.6311 115.247 19.6008C115.284 20.0057 114.924 20.4592 115.661 20.4247C115.653 20.4673 115.299 20.9834 115.23 20.9249C115.213 20.866 115.199 20.8064 115.187 20.746C115.108 20.78 115.073 21.2716 115.088 21.3584C115.15 21.3682 115.176 21.3217 115.164 21.219C115.043 21.5982 115.226 21.839 114.993 22.1989C114.844 22.429 114.437 22.6018 114.22 22.7439C113.697 23.0866 113.186 23.4304 112.676 23.7951C111.487 24.6459 110.156 25.6718 108.658 25.8493C109.41 25.1109 113.737 22.3168 111.567 21.5146C111.164 21.366 110.432 21.2252 110.011 21.1939C109.487 21.155 108.946 21.4547 108.368 21.2677C107.671 21.0423 107.934 20.3873 107.508 20.1524C106.605 19.6539 106.818 20.8262 106.534 21.1332C106.235 20.8196 106.299 20.667 105.827 20.6386C105.348 20.6098 105.234 21.0525 104.675 20.7768C103.905 20.3966 104.312 19.6394 103.22 19.6216C103.238 19.4553 103.396 18.9908 103.188 18.8613C102.907 19.2258 103.124 19.6333 102.864 19.9842C102.733 20.1602 102.45 20.3005 102.243 20.3575C101.758 20.4905 101.69 20.7452 101.768 20.0159C101.41 20.6626 100.309 20.3966 99.654 20.3316C98.5896 20.2257 97.4583 20.0243 96.4378 19.683C95.494 19.3671 94.99 18.8246 94.2116 18.331C93.9173 18.1442 93.7769 18.2156 93.3549 18.0997C92.9384 17.9853 92.5325 17.7635 92.7286 17.2531ZM94.9747 5.80323C95.1353 5.70642 95.2508 7.15106 95.056 7.42097C94.6994 6.85695 94.0673 6.02962 94.9747 5.80323ZM95.4879 5.22699C96.0046 4.7593 95.6457 5.96728 95.5509 6.16996C95.3595 6.04723 95.1681 5.9245 94.9766 5.80177C95.2208 5.6519 95.2818 5.41353 95.4879 5.22699ZM114.984 3.28018C119.759 4.28207 124.489 6.1548 128.319 9.23674C131.807 12.0439 134.268 16.0267 135.648 20.2634C137.081 24.6609 136.6 29.5397 133.191 32.9053C131.396 34.678 129.025 35.7476 126.765 36.7913C125.682 37.2913 124.567 37.7079 123.48 38.1964C122.7 38.5472 121.747 39.1085 120.856 39.0112C121.31 38.533 121.97 38.5232 122.52 38.2308C123.184 37.8773 123.727 37.1989 124.3 36.7143C124.869 36.2332 126.13 34.7181 127.004 35.0848C126.883 34.2778 127.802 33.903 128.217 33.3708C128.655 32.8077 128.687 32.1493 129.494 31.965C128.627 31.2863 128.892 30.0062 129.081 29.0823C129.322 27.9007 129.434 26.816 129.529 25.6136C129.701 23.4458 129.839 20.6844 128.641 18.7786C128.252 18.1598 127.758 17.5912 127.411 16.9484C126.993 16.1739 127.085 15.4921 127.085 14.643C126.321 15.1564 126.16 14.1095 125.837 13.5993C125.595 13.2164 125.277 13.0025 125.199 12.5209C125.142 12.1703 125.522 12.1111 125.314 11.7437C125.058 11.9368 124.956 12.236 124.826 12.5138C124.59 12.4194 124.869 12.0908 124.733 11.984C124.729 11.981 124.274 11.7833 124.297 11.8119C124.004 11.4405 123.909 10.8242 123.766 10.3821C123.229 10.654 123.33 10.622 122.731 10.1677C122.625 10.0878 122.098 9.72057 122.049 9.60053C121.817 9.0392 122.223 9.37169 122.11 9.02331C121.784 8.02264 119.954 8.21187 119.809 6.71246C118.917 7.27893 118.576 6.47629 118.049 5.90543C117.508 5.32063 116.602 5.0957 116.65 4.16814C116.369 4.26422 116.089 4.36006 115.808 4.45565C115.954 3.59972 114.682 3.65424 114.222 3.22004C114.477 3.22322 114.732 3.24326 114.984 3.28018ZM115.712 56.2934C116.154 55.8976 116.02 56.4242 116.304 56.3641C116.548 56.3125 116.596 56.1284 116.83 56.0719C117.792 55.8394 119.23 56.1315 120.241 56.0814C121.413 56.0235 123.421 56.2667 123.98 57.6376C124.316 58.4632 123.803 58.1823 123.237 58.1209C122.799 58.0735 122.409 58.1622 121.975 58.1578C121.76 58.1908 121.547 58.1876 121.334 58.1478C121.23 58.0793 121.168 57.983 121.149 57.8588C120.546 57.7674 119.905 58.1246 119.236 58.1424C118.344 58.1661 117.551 57.995 116.873 57.3926C116.603 57.7943 116.42 57.9935 115.935 58.0385C115.922 58.0397 115.449 57.849 115.375 57.83C115.278 57.8048 115.033 58.0084 114.846 57.9502C115.178 57.4217 115.226 56.7274 115.712 56.2934ZM176.654 61.064C176.811 60.5161 176.943 59.9611 177.086 59.4096C179.289 61.917 181.216 65.2735 182.084 68.4891C182.647 70.5787 183.524 74.365 180.838 75.4427C178.65 76.3206 177.43 73.1737 176.876 71.6236C175.654 68.2021 175.654 64.5454 176.654 61.064ZM78.1115 21.7752C78.1398 21.7696 76.6857 22.6153 77.1648 21.9305C77.3572 21.6552 78.0871 21.4616 78.4109 21.4616L78.1115 21.7752ZM76.7128 22.1336C76.5445 22.2752 76.3746 22.415 76.2032 22.5529C76.0386 22.2928 75.8738 22.0327 75.7092 21.7725C76.0337 21.6356 77.4117 21.533 76.7128 22.1336ZM75.6879 48.4272C75.3837 48.2211 75.1424 48.3306 75.0511 48.6766C75.0511 48.3323 75.2303 47.5326 75.5058 47.4395C75.6838 47.3791 74.9141 46.4684 75.1305 46.23C75.6806 46.5452 75.3512 46.8471 75.5124 47.2539C75.5851 47.4375 75.8037 47.6111 75.8515 47.7522C75.9326 47.9915 76.261 48.8147 75.6879 48.4272ZM74.1974 46.3779C73.8858 46.4576 74.4313 46.972 74.4308 47.1994C74.4304 47.3713 74.224 47.5033 74.1388 47.7385C73.9542 48.2482 74.2719 48.5925 73.7488 48.9814C73.7488 47.8646 72.9994 44.9054 74.4396 44.3612C73.7371 43.8079 74.3141 43.1694 74.8648 43.8314C75.3942 44.468 75.057 46.1579 74.1974 46.3779ZM73.447 41.9709C73.164 40.9671 72.3118 40.616 71.338 40.6754C71.3751 40.1615 71.7646 39.4205 72.0459 40.3468C72.1616 40.073 72.2417 39.7158 72.5054 39.5344C72.9496 40.927 75.1639 41.6964 73.7852 43.2053C73.6726 42.7938 73.563 42.3816 73.447 41.9709ZM70.8738 40.7502C65.7458 41.1221 58.5467 42.1861 54.4431 38.2555C51.7675 35.6926 51.9104 31.7015 54.0726 28.854C55.3065 27.2291 56.9909 26.085 58.6827 24.9951C59.3354 24.5743 59.8885 24.2966 60.6052 24.0548C60.7211 24.0423 60.8303 24.0682 60.9324 24.1325C60.9727 23.9594 61.0701 23.8313 61.2254 23.7477C61.5021 23.5996 61.8964 23.5468 62.0559 23.2392C61.8857 23.8167 61.7983 24.4112 61.7358 25.0088C61.5975 24.8479 61.4596 24.687 61.3216 24.5261C61.2064 25.6143 60.0726 24.9557 59.3957 25.0916C59.8416 25.7087 60.1605 25.9329 60.1988 26.7485C59.8667 26.1353 59.1723 25.7322 58.5266 25.5346C58.8773 26.5717 59.1251 27.1873 58.772 28.3247C58.3457 28.0812 58.3169 27.4964 57.7997 27.3563C57.6632 28.0345 57.639 28.787 57.4642 29.4451C56.1397 28.841 56.2689 30.468 56.8007 31.2731C57.0835 31.7015 57.2224 32.1973 57.4747 32.6085C58.0937 33.617 57.6234 32.1088 58.3115 32.1804C58.1569 33.2441 58.1032 33.35 58.8817 34.1289C59.6413 34.8885 60.0355 35.9425 60.8481 36.6561C61.0833 36.3554 60.7133 36.0408 60.6809 35.753C61.4371 35.8799 61.7912 36.638 62.5181 35.9664C62.8351 36.5842 63.1782 37.2646 63.9374 37.3915C63.4355 36.4376 64.9012 37.0845 65.277 37.2199C65.5622 37.3226 66.0728 37.4042 66.1829 37.4438C66.8022 37.6675 66.3775 37.2661 66.7533 37.9993C67.3052 37.8328 67.5135 37.3749 68.1735 37.7617C68.7103 38.0763 68.7115 38.6152 68.8341 39.1672C68.962 38.8061 69.0912 38.4452 69.2326 38.089C69.3766 38.1497 69.981 38.8147 69.9151 38.8178C71.3294 38.7484 71.2794 39.6266 70.8738 40.7502ZM63.6739 22.7478C63.9579 22.5485 64.3046 22.8138 64.6235 22.7424C65.065 22.6439 65.3158 22.2657 65.8091 22.2251C65.6718 22.6637 65.4142 22.6226 65.1964 22.9671C65.1222 23.0844 65.1607 23.3661 65.0948 23.4336C64.542 23.9998 64.351 23.5377 63.7867 23.1091C63.8358 23.626 63.9352 23.7893 63.4482 23.9279C63.0075 24.0536 62.28 23.5908 62.0578 23.2358C62.2451 22.8607 63.334 22.9864 63.6739 22.7478ZM67.1924 21.94C67.6712 21.9857 67.0945 23.3984 66.4083 22.028C66.6666 21.9718 66.9282 21.9425 67.1924 21.94ZM69.6545 21.6669C70.4096 21.5129 72.9284 20.7951 73.2087 21.9706C73.259 21.9412 73.4463 21.2777 73.5335 21.3586C73.8822 21.6831 73.9212 22.1131 73.8946 22.5637C73.4729 21.6855 73.6228 22.4569 73.3371 22.3967C73.2627 22.3808 73.1486 22.5202 72.9596 22.4627C72.712 22.3872 72.5345 21.8603 72.3782 21.6818C72.1179 22.0535 71.7953 22.5319 71.274 22.4996C70.905 22.4769 70.3104 21.5268 70.7883 22.5669C70.5077 22.4742 70.183 22.2644 69.8704 22.3065C69.5205 22.3537 69.3386 22.6991 69.0106 22.7549C68.2834 22.8781 68.1738 22.1784 67.7018 21.7985C68.3528 21.7606 69.0116 21.798 69.6545 21.6669ZM74.223 21.6557C74.2763 21.4146 74.937 21.3173 75.1053 21.3938C75.516 21.5804 75.3641 21.8266 75.2887 22.2363C74.9839 22.0921 74.6792 21.9481 74.3744 21.8038C74.8294 22.5363 74.0052 22.6427 74.223 21.6557ZM202.132 64.5603C202.078 62.8049 202.027 61.0192 201.582 59.3103C201.27 58.1143 200.505 55.9697 199.058 55.7621C196.876 55.449 195.667 59.7621 195.056 61.2427C194.934 59.4995 195.041 57.6442 194.382 55.9897C193.855 54.6639 192.523 53.4083 191.376 54.8972C190.356 56.2223 190.159 58.1783 189.891 59.7726C189.543 61.8385 189.334 63.9203 189.079 65.9986C188.083 64.0723 187.909 61.8673 187.121 59.8653C186.377 57.9762 185.207 56.1719 184.08 54.4916C183.16 53.119 182.041 51.8287 180.599 50.9896C179.344 50.2593 177.15 49.4694 175.954 50.6823C174.956 51.6942 175.112 53.0484 175.164 54.3253C175.187 54.894 175.276 55.2839 174.776 55.5705C174.531 55.7113 174.147 55.6384 173.877 55.7137C173.441 55.8352 173.108 56.0411 172.74 56.3147C170.159 58.2329 168.969 61.6896 168.601 64.7715C168.135 68.6764 169.657 72.0239 170.967 75.5967C171.176 76.1661 171.839 77.3741 171.747 78.0098C171.647 78.7063 170.773 78.7244 170.183 78.7388C168.401 78.7828 166.539 78.65 164.766 78.484C160.546 78.0892 156.329 76.0573 152.55 74.2433C151.86 73.9122 150.885 73.7228 150.322 73.2015C149.793 72.7116 149.654 71.9263 149.197 71.3642C148.076 69.9851 147.362 68.8082 145.712 67.975C144.031 67.1266 142.316 66.3426 140.676 65.4133C138.649 64.2638 136.775 62.8076 134.832 61.5204C131.221 59.1289 127.634 56.5071 123.805 54.4735C122.027 53.5283 120.038 53.3753 118.191 52.6015C116.393 51.848 114.185 51.847 112.308 52.3228C111.393 52.5548 110.771 53.1044 109.93 53.463C108.945 53.8835 108.141 53.4195 107.274 52.9176C105.949 52.1509 104.635 50.9016 106.522 50.0745C107.162 49.7938 107.964 49.6875 108.523 49.2462C109.119 48.7761 109.598 47.9086 110.082 47.3197C111.16 46.0105 111.803 44.5033 113.38 43.6891C115.124 42.7887 117.191 42.5437 119.05 41.9553C121.065 41.3179 123.037 40.56 125.014 39.8158C128.576 38.4751 132.279 37.0275 134.839 34.0761C137.047 31.5298 138.009 28.2433 137.92 24.9051C137.737 18.0809 134.082 11.1552 128.837 6.88849C122.406 1.65658 114.224 -0.0880461 106.1 0.00339009C102.287 0.0464189 97.7372 0.545406 94.5559 2.86187C91.808 4.86271 91.3509 8.36223 91.7597 11.5212C91.9255 12.8032 92.4925 14.4951 91.5882 15.6248C91.0823 16.2568 90.1739 16.4133 89.4924 16.8074C88.6358 17.3024 87.8805 17.777 86.9103 18.0388C82.7894 19.1517 78.4487 18.7642 74.2353 18.7026C67.2163 18.5999 60.0218 20.5003 54.7857 25.4461C50.5573 29.4397 49.2892 36.9705 54.4462 40.8639C58.6128 44.0092 65.1483 43.6632 70.0611 43.1146C71.5846 42.9442 72.6322 42.6968 72.6356 44.5607C72.6395 46.5968 72.3023 48.7247 72.8217 50.7236C73.6399 53.8716 76.6647 53.9466 79.339 53.2687C80.7502 52.911 82.1142 52.3731 83.4543 51.8098C85.4198 50.9837 87.2214 49.7689 89.1625 48.9443C90.4784 48.3854 91.4637 50.1928 92.6309 48.9399C92.8465 48.7083 92.8864 48.3631 93.2116 48.2446C93.7215 48.059 94.5766 48.7098 95.0237 48.9157C95.6933 49.224 96.3682 49.4506 96.6356 50.1928C96.8859 50.8872 96.7763 51.9912 96.5365 52.6763C96.0156 54.1652 94.6133 53.8708 93.3327 53.7713C91.0996 53.5975 88.8814 53.2291 86.6491 53.0743C84.6462 52.9354 82.7706 53.5339 81.043 54.5216C77.4146 56.5961 74.446 59.8956 71.2999 62.6091C69.6807 64.0056 68.1154 65.514 66.3546 66.7301C65.589 67.2589 64.7598 67.7449 64.0944 68.4021C63.4341 69.0539 63.3616 69.6465 63.1357 70.5139C62.7335 72.0583 60.7363 72.8133 59.4878 73.6281C57.7223 74.7804 55.8506 75.5933 53.8714 76.3003C49.6799 77.7975 45.4555 78.8429 41.0735 79.6157C38.9281 79.9942 36.8005 80.2428 34.634 80.4472C32.7667 80.6233 30.781 81.1983 28.9159 80.7389C29.4531 79.8676 30.4049 79.3444 31.1463 78.6708C32.102 77.8027 32.9149 76.7739 33.6382 75.708C35.0462 73.6323 36.0337 71.4051 36.2606 68.8874C36.465 66.6215 36.2305 63.911 34.8633 61.9969C34.3911 61.3356 33.4568 61.1557 33.0341 60.5601C32.6139 59.968 32.774 58.9487 32.544 58.2583C31.9582 56.5024 30.2198 54.3265 28.69 53.3068C27.0303 52.2 24.6023 51.7935 22.6849 52.3702C19.133 53.4386 16.9511 57.2344 15.3258 60.3024C14.438 58.4341 15.9248 55.6624 14.1903 54.1324C12.7274 52.8418 11.5663 55.3419 11.0769 56.4115C8.78011 61.4324 8.25853 66.7577 7.29618 72.13C6.90401 71.7434 7.10498 70.7513 7.14185 70.2902C7.21047 69.4319 7.20412 68.5899 7.20583 67.7278C7.21047 65.5502 7.61533 63.3626 7.42975 61.1869C7.32255 59.9293 6.9216 57.2774 5.09433 57.6953C3.54472 58.0498 2.57407 60.2288 2.08716 61.561C1.38487 63.4826 1.22273 65.3849 1.26644 67.4149C1.31479 69.6578 0.88746 71.864 0.783924 74.1037C0.582713 78.4542 0.781482 82.7671 2.02977 86.9659C4.07387 93.8414 8.77376 99.5542 15.0465 103.004C18.5025 104.905 22.3365 106.107 26.2784 106.366C28.4146 106.506 30.4767 106.252 32.5946 106.031C34.6846 105.813 36.7856 105.712 38.8719 105.457C43.5183 104.887 48.0458 103.416 52.2691 101.436C54.4921 100.394 56.5826 99.1151 58.7694 98.0042C59.6467 97.5588 60.2396 97.0011 60.9883 96.3813C61.7306 95.7672 61.9362 95.719 62.7804 95.719C62.5328 95.0565 63.2556 94.8524 63.5772 94.4331C63.5591 94.6365 63.541 94.8396 63.523 95.0428C63.7681 94.5111 63.9964 94.5162 64.2077 95.0582C64.4164 94.4512 64.571 93.827 64.823 93.2353C65.7868 93.7231 65.7058 94.8827 66.9946 94.036C68.0561 93.3392 69.0321 92.5173 70.1141 91.8345C72.5789 90.2786 74.7041 88.2543 77.176 86.7162C77.176 88.2142 77.2817 89.7251 77.0815 91.2154C76.891 92.6325 76.3619 93.9571 75.9412 95.3137C75.1651 97.8167 75.1114 100.492 74.2516 102.969C73.8958 103.995 72.9691 104.854 72.7035 105.853C72.4327 106.872 73.0583 107.688 72.0095 108.357C71.2701 108.829 70.3458 109.028 69.5271 109.313C68.278 109.749 67.0923 110.363 65.8764 110.884C60.1737 113.328 54.6111 115.816 49.3276 119.102C44.3134 122.22 39.2226 125.44 34.6164 129.143C30.6188 132.357 26.5778 136.512 25.6047 141.754C24.6604 146.839 27.1763 152.297 32.228 153.972C34.8548 154.843 37.8244 154.735 40.5597 154.773C43.5032 154.813 46.6222 154.104 49.5161 153.591C52.5723 153.049 55.5761 152.2 58.6412 151.716C61.5819 151.252 64.2792 150.214 67.1719 149.574C70.2528 148.892 73.4128 148.523 76.5106 147.91C77.9054 147.634 79.2719 147.227 80.6703 146.971C82.2014 146.692 83.7493 146.587 85.2655 146.216C88.2062 145.498 91.022 144.339 93.9757 143.67C95.3036 143.37 96.6112 142.967 97.9396 142.686C99.1627 142.427 100.116 141.74 101.341 142.304C102.332 142.761 103.122 143.543 104.059 144.087C105.274 144.794 106.556 145.427 107.823 146.035C110.369 147.257 113.01 148.101 115.673 149.019C118.469 149.983 121.216 151.081 124.113 151.718C127.083 152.37 130.114 152.552 133.104 153.068C139.23 154.125 145.303 154.599 151.52 154.637C154.663 154.657 157.805 154.284 160.941 154.328C163.716 154.368 166.129 154.993 168.667 153.518C172.723 151.16 177.427 147.608 177.327 142.45C177.237 137.777 174.434 133.313 171.805 129.628C168.613 125.153 164.061 122.002 159.6 118.915C154.845 115.625 149.505 113.352 144.508 110.48C141.952 109.011 139.595 107.431 136.82 106.387C135.496 105.889 134.203 105.312 132.894 104.776C131.841 104.344 130.32 104.106 129.418 103.39C128.856 102.943 128.802 102.267 128.653 101.602C128.324 100.132 127.807 98.7384 127.306 97.3209C126.339 94.5837 125.696 91.7958 125.28 88.9251C124.884 86.1884 124.004 83.3424 124.459 80.5612C127.457 83.4602 130.536 86.2471 133.603 89.0694C134.752 90.127 135.88 91.2069 137.035 92.2582C137.902 93.0473 138.987 94.2196 140.196 94.4538C141.74 94.7531 141.176 93.0451 142.236 92.7806C142.884 92.619 144.838 94.2651 145.35 94.5903C148.597 96.6515 152.192 97.9578 155.763 99.3608C159.507 100.832 163.359 102.139 167.388 102.509C171.11 102.852 174.916 102.412 178.508 101.398C185.66 99.3787 190.924 94.5873 194.787 88.3765C199.188 81.2993 202.391 73.0086 202.132 64.5603Z" fill="#121212"/>
<path fill-rule="evenodd" clip-rule="evenodd" d="M92.8119 49.1318C92.8107 49.1339 92.7998 49.1572 92.7998 49.1572C92.8133 49.1479 92.8173 49.1395 92.8119 49.1318Z" fill="#121212"/>
<path fill-rule="evenodd" clip-rule="evenodd" d="M93.1568 49.2233C93.1301 48.9978 93.0721 48.7771 92.9834 48.561C92.7466 48.9365 92.5348 49.0972 92.8458 49.4948C92.9494 49.4043 93.0529 49.3138 93.1568 49.2233Z" fill="#121212"/>
<path fill-rule="evenodd" clip-rule="evenodd" d="M109.651 102.876C109.916 102.595 109.452 102.488 109.277 102.485C109.294 102.787 109.144 103.512 109.558 103.652C109.458 103.378 109.49 103.12 109.651 102.876Z" fill="#121212"/>
<path fill-rule="evenodd" clip-rule="evenodd" d="M102.664 43.9021C102.208 44.7812 103.214 45.0539 103.796 44.6292C104.234 44.31 104.493 43.496 104.565 42.9738C104.798 41.284 103.615 39.6757 103.026 38.1764C102.874 37.7888 102.665 36.4598 102.174 36.4232C101.611 36.3812 101.569 37.6054 101.562 37.9213C101.54 38.8737 101.792 39.8437 102.088 40.7428C102.406 41.7121 103.195 42.8755 102.664 43.9021Z" fill="#121212"/>
<path fill-rule="evenodd" clip-rule="evenodd" d="M104.829 40.3766C106.579 41.9345 107.978 39.3397 107.856 37.8047C107.826 37.4244 107.569 36.0223 106.848 36.5326C106.485 36.7889 106.794 37.622 106.621 37.9877C105.785 39.761 104.979 37.0105 104.415 36.7944C103.73 36.5314 103.661 37.4323 103.662 37.9138C103.663 38.8697 104.118 39.7435 104.829 40.3766Z" fill="#121212"/>
<path fill-rule="evenodd" clip-rule="evenodd" d="M98.4774 40.6187C98.8895 39.9697 99.3962 39.0993 99.4522 38.3218C99.5392 37.1133 98.835 37.2141 98.2553 38.0574C97.8459 38.653 97.5388 39.6633 96.635 39.4122C95.5192 39.1025 95.8601 37.6021 95.2355 36.8892C93.6581 39.0079 96.6431 43.5065 98.4774 40.6187Z" fill="#121212"/>
<path fill-rule="evenodd" clip-rule="evenodd" d="M100.842 47.1026C101.494 47.2436 103.195 47.1916 102.606 46.1926C101.862 44.9342 99.3906 46.7887 100.842 47.1026Z" fill="#121212"/>
<path fill-rule="evenodd" clip-rule="evenodd" d="M123.698 9.57726C123.817 9.22162 123.653 9.15703 123.368 8.87695C123.099 9.12584 123.444 9.38769 123.698 9.57726Z" fill="#121212"/>
<path fill-rule="evenodd" clip-rule="evenodd" d="M135.867 73.9936C136.297 74.062 136.436 73.8344 136.282 73.3105C135.603 73.2666 135.465 73.4942 135.867 73.9936Z" fill="#121212"/>
<path fill-rule="evenodd" clip-rule="evenodd" d="M112.363 19.043C112.838 19.26 112.656 19.7054 112.648 20.0818C112.892 19.816 113.386 19.3302 113.185 18.9484C112.875 18.3598 112.066 18.9072 112.363 19.043Z" fill="#121212"/>
<path fill-rule="evenodd" clip-rule="evenodd" d="M96.191 11.6348C96.1187 11.4936 96.0463 11.3524 95.974 11.2112C95.6791 11.4478 95.2239 12.0734 95.6925 12.3784C95.8845 12.1452 96.0507 11.8974 96.191 11.6348Z" fill="#121212"/>
<path fill-rule="evenodd" clip-rule="evenodd" d="M101.888 15.7876C102.479 16.2508 102.195 14.829 102.178 14.7129C102.09 14.8797 101.59 15.5536 101.888 15.7876Z" fill="#121212"/>
<path fill-rule="evenodd" clip-rule="evenodd" d="M101.56 15.0655C101.515 14.9481 101.47 14.8306 101.425 14.7129C101.185 14.9346 100.892 15.3873 101.288 15.6466C101.396 15.465 101.487 15.2714 101.56 15.0655Z" fill="#121212"/>
<path fill-rule="evenodd" clip-rule="evenodd" d="M105.312 19.9478C105.36 19.9924 105.409 20.0369 105.457 20.0817C105.651 19.6886 105.43 19.3934 105.062 19.3813C105.088 19.602 105.171 19.7908 105.312 19.9478Z" fill="#121212"/>
<path fill-rule="evenodd" clip-rule="evenodd" d="M89.4835 64.1622C89.7179 64.0027 89.9306 63.8208 90.122 63.6166C89.4285 63.1926 89.8441 64.1114 89.0093 63.5472C88.8294 63.7959 89.1232 64.3522 89.4835 64.1622Z" fill="#121212"/>
<path fill-rule="evenodd" clip-rule="evenodd" d="M118.625 102.718C118.889 102.313 118.937 102.325 118.576 102.018C118.276 102.518 118.307 102.39 118.625 102.718Z" fill="#121212"/>
<path fill-rule="evenodd" clip-rule="evenodd" d="M63.5105 38.3077C63.6541 38.4575 63.7976 38.6072 63.9412 38.7567C64.0082 38.5609 64.3737 38.0073 64.1255 37.823C63.9206 37.9846 63.7154 38.1462 63.5105 38.3077Z" fill="#121212"/>
<path fill-rule="evenodd" clip-rule="evenodd" d="M68.6164 39.789C68.3872 39.7507 67.839 39.5835 67.7122 39.7966C68.0475 40.0714 68.8042 39.8205 68.6164 39.789Z" fill="#121212"/>
</svg>
