<svg width="284" height="273" viewBox="0 0 284 273" fill="none" xmlns="http://www.w3.org/2000/svg">
<path d="M140.396 272.655C203.023 272.655 253.792 267.807 253.792 261.828C253.792 255.848 203.023 251 140.396 251C77.7692 251 27 255.848 27 261.828C27 267.807 77.7692 272.655 140.396 272.655Z" fill="white"/>
<path d="M133.318 236.637C133.318 236.637 13.2818 221.956 13.0005 99.1901C12.7459 -11.3052 115.26 -15.3217 153.446 19.1269C191.632 53.5755 272.116 7.03708 282.947 96.0305C293.778 185.024 219.482 248.191 133.318 236.637Z" fill="white"/>
<path d="M175.726 63.108C175.775 62.9756 176.953 60.9613 178.472 58.7728C185.547 48.5762 196.036 38.7558 208.338 39.1252V39.0486C202.84 38.5528 197.323 39.77 192.544 42.5334C184.648 46.7849 176.96 54.8977 172.757 61.1286L175.726 63.108Z" fill="#F7CC7F"/>
<path d="M205.606 44.7635L206.436 39.0345L202.177 35.0966C202.06 34.9975 201.974 34.8665 201.929 34.7195C201.885 34.5726 201.884 34.4159 201.927 34.2684C201.97 34.121 202.054 33.989 202.17 33.8886C202.287 33.7882 202.429 33.7236 202.581 33.7026L208.29 32.7199L210.715 27.4647C210.777 27.3291 210.876 27.2136 211 27.1315C211.125 27.0494 211.27 27.0039 211.419 27.0002C211.568 26.9966 211.715 27.035 211.843 27.1109C211.971 27.1869 212.075 27.2974 212.144 27.4299L214.841 32.5526L220.591 33.2496C220.739 33.2671 220.878 33.3255 220.994 33.4183C221.11 33.5111 221.198 33.6345 221.247 33.7746C221.296 33.9146 221.305 34.0657 221.273 34.2107C221.241 34.3556 221.169 34.4887 221.065 34.5947L217.023 38.7766L218.152 44.4569C218.181 44.6028 218.168 44.7538 218.115 44.8929C218.062 45.032 217.972 45.1534 217.853 45.2435C217.735 45.3335 217.594 45.3885 217.446 45.4023C217.298 45.416 217.149 45.3879 217.016 45.3211L211.823 42.7632L206.77 45.5511C206.643 45.6192 206.499 45.6512 206.355 45.6436C206.21 45.6361 206.071 45.5893 205.951 45.5082C205.831 45.4272 205.736 45.315 205.675 45.1838C205.614 45.0526 205.591 44.9073 205.606 44.7635Z" fill="#F7CC7F"/>
<path d="M93.6734 34.2738L92.9137 37.0826L95.1858 38.9922L94.1125 42.0798L97.1583 43.3622L96.0989 46.9098L98.7613 48.4432L98.3013 52.0186L96.9422 51.8444L97.2907 49.168L94.4819 47.551L95.4995 44.1429L92.4049 42.8395L93.5898 39.4313L91.3734 37.5635L92.0773 34.9638L90.3628 34.0438L91.011 32.845L93.6734 34.2738Z" fill="#9BC1F9"/>
<path d="M29.5867 208.76C30.7637 210.071 31.5252 211.702 31.7748 213.446C32.0244 215.189 31.7509 216.968 30.9889 218.557C30.2269 220.145 29.0107 221.471 27.4943 222.368C25.9779 223.265 24.2295 223.691 22.4706 223.593C20.7116 223.496 19.0213 222.878 17.6135 221.819C16.2058 220.76 15.144 219.307 14.5626 217.644C13.9812 215.981 13.9064 214.183 14.3477 212.477C14.7889 210.772 15.7263 209.236 17.0413 208.063C18.7991 206.496 21.1065 205.689 23.458 205.82C25.8094 205.951 28.0133 207.008 29.5867 208.76Z" fill="#F7CC7F"/>
<path d="M20.3511 218.922C20.7616 219.41 21.2659 219.81 21.834 220.099C22.4021 220.388 23.0225 220.56 23.6583 220.605C24.2941 220.649 24.9325 220.566 25.5354 220.359C26.1384 220.153 26.6937 219.827 27.1685 219.402C27.6433 218.977 28.0278 218.46 28.2993 217.884C28.5707 217.307 28.7236 216.682 28.7489 216.045C28.7741 215.408 28.6712 214.772 28.4463 214.176C28.2213 213.58 27.8789 213.035 27.4393 212.573L20.3511 218.922Z" fill="#EFEFEF"/>
<path d="M19.8985 186.465L17.5706 185.147C16.9647 186.121 16.231 187.01 15.3891 187.789C15.088 188.072 14.6905 188.229 14.2774 188.229C13.8644 188.229 13.4669 188.072 13.1658 187.789L13.0891 187.712C12.9265 187.558 12.7978 187.371 12.7112 187.165C12.6245 186.958 12.5818 186.735 12.5857 186.511C12.5896 186.287 12.6401 186.066 12.734 185.863C12.8279 185.659 12.963 185.477 13.1309 185.328C13.9148 184.636 14.5789 183.819 15.0964 182.91C15.884 181.516 15.8909 180.255 14.9082 179.697C13.9255 179.139 12.9497 179.62 11.3049 181.091C8.94213 183.182 6.70485 184.304 4.33516 182.959C2.18152 181.739 1.35212 179.258 2.32091 176.352L0 175.027L1.39394 172.63L3.54061 173.849C3.98179 173.098 4.5029 172.397 5.09485 171.758C5.39896 171.457 5.80976 171.288 6.23788 171.288C6.666 171.288 7.07681 171.457 7.38092 171.758C7.53753 171.91 7.66207 172.091 7.74712 172.292C7.83218 172.492 7.87601 172.708 7.87601 172.926C7.87601 173.144 7.83218 173.359 7.74712 173.56C7.66207 173.76 7.53753 173.942 7.38092 174.093C6.78159 174.676 6.26981 175.343 5.86152 176.073C4.95546 177.662 5.35273 178.568 6.03576 178.958C6.84425 179.411 7.84091 178.847 9.80637 177.209C12.4897 174.881 14.497 174.47 16.7064 175.717C18.9158 176.965 19.8706 179.551 18.7973 182.645L21.2924 184.039L19.8985 186.465Z" fill="#FAE0B2"/>
<path d="M248.617 88.2617L247.076 92.102L240.629 90.3038L237.688 95.6357L232.642 95.0851L232.363 97.636L239.11 98.3748L241.898 93.3217L248.603 95.1896L250.924 89.4187L248.617 88.2617Z" fill="#466EB6"/>
<path d="M237.464 224.177L238.817 220.825C237.407 220.179 236.088 219.352 234.893 218.365C234.465 218.006 234.191 217.498 234.125 216.944C234.059 216.389 234.206 215.831 234.537 215.382L234.621 215.27C234.799 215.025 235.026 214.82 235.287 214.668C235.549 214.515 235.839 214.419 236.139 214.384C236.44 214.349 236.745 214.377 237.034 214.466C237.323 214.555 237.591 214.703 237.82 214.901C238.877 215.825 240.081 216.567 241.381 217.096C243.389 217.912 245.082 217.689 245.647 216.274C246.211 214.859 245.403 213.632 243.145 211.702C239.883 208.914 238.015 206.126 239.395 202.683C240.65 199.581 243.814 198.027 247.891 198.808L249.243 195.455L252.728 196.849L251.474 199.951C252.526 200.436 253.524 201.032 254.45 201.728C254.911 202.077 255.216 202.594 255.3 203.166C255.383 203.739 255.238 204.321 254.896 204.788C254.72 205.025 254.499 205.225 254.245 205.375C253.99 205.525 253.709 205.622 253.416 205.661C253.123 205.7 252.826 205.68 252.541 205.602C252.257 205.524 251.991 205.389 251.759 205.206C250.874 204.504 249.89 203.935 248.839 203.519C246.546 202.599 245.41 203.282 245.006 204.272C244.539 205.436 245.473 206.677 248.024 209.011C251.62 212.19 252.533 214.81 251.251 217.988C249.968 221.167 246.685 222.909 242.343 221.982L240.894 225.578L237.464 224.177Z" fill="#96D9C9"/>
<path d="M49.2761 108.237C49.4419 108.456 49.5264 108.726 49.5149 109.001C49.5035 109.275 49.3969 109.537 49.2134 109.742C48.2221 110.809 47.0402 111.681 45.7286 112.314C44.6292 112.879 43.429 113.221 42.1969 113.32C40.9649 113.419 39.7254 113.274 38.5498 112.892C36.9424 112.309 35.545 111.261 34.5352 109.882L33.2249 110.523C33.1188 110.575 33.0034 110.606 32.8853 110.614C32.7671 110.622 32.6487 110.606 32.5366 110.568C32.4246 110.529 32.3212 110.469 32.2324 110.391C32.1436 110.313 32.0712 110.218 32.0192 110.112V110.077C31.9668 109.971 31.9358 109.855 31.9281 109.737C31.9205 109.619 31.9362 109.5 31.9744 109.388C32.0126 109.276 32.0725 109.173 32.1508 109.084C32.229 108.995 32.324 108.923 32.4304 108.871L33.5107 108.334C33.2946 107.979 33.1483 107.756 33.0507 107.554C32.8603 107.158 32.7018 106.748 32.5767 106.327L31.4616 106.871C31.2461 106.974 30.9984 106.988 30.7726 106.91C30.5467 106.832 30.361 106.667 30.2558 106.452C30.1527 106.238 30.1388 105.991 30.2172 105.767C30.2956 105.542 30.4598 105.357 30.674 105.254L32.0192 104.592C31.6317 102.945 31.7016 101.225 32.2213 99.6152C32.6666 98.3846 33.3501 97.2539 34.2327 96.2876C35.1153 95.3213 36.1796 94.5384 37.3649 93.9837C38.4377 93.4403 39.599 93.0934 40.794 92.9591C41.1073 92.9253 41.4215 93.0148 41.67 93.2087C41.9185 93.4025 42.0818 93.6855 42.1252 93.9976C42.1508 94.1581 42.1438 94.3222 42.1048 94.4799C42.0657 94.6377 41.9953 94.786 41.8978 94.9161C41.8003 95.0461 41.6776 95.1552 41.5371 95.2369C41.3965 95.3186 41.241 95.3712 41.0798 95.3916C40.1509 95.5253 39.2495 95.8078 38.4104 96.2279C36.8549 96.9485 35.6491 98.2571 35.058 99.8661C34.677 100.927 34.6404 102.08 34.9534 103.163L42.5364 99.4688C42.7519 99.3654 42.9996 99.3513 43.2254 99.4296C43.4513 99.508 43.637 99.6724 43.7422 99.887C43.7945 99.9926 43.8253 100.108 43.8329 100.225C43.8405 100.343 43.8247 100.461 43.7865 100.572C43.7482 100.684 43.6883 100.786 43.6101 100.875C43.5319 100.963 43.4371 101.035 43.331 101.086L35.4064 104.947C35.5528 105.337 35.6992 105.721 35.8176 105.958C35.9361 106.195 36.1104 106.564 36.3404 106.954L44.2789 103.086C44.3872 103.033 44.505 103.002 44.6255 102.994C44.7461 102.987 44.8669 103.003 44.9809 103.043C45.095 103.082 45.2001 103.144 45.2902 103.224C45.3802 103.305 45.4534 103.402 45.5055 103.511C45.6118 103.73 45.6274 103.981 45.5491 104.211C45.4708 104.441 45.3048 104.63 45.0874 104.738L37.4834 108.439C38.1371 109.251 38.9996 109.871 39.9786 110.23C40.8042 110.512 41.6792 110.62 42.5487 110.549C43.4182 110.477 44.2635 110.226 45.0316 109.812C45.9426 109.363 46.7813 108.78 47.5198 108.083C47.6404 107.968 47.7841 107.879 47.9414 107.823C48.0988 107.767 48.2662 107.745 48.4327 107.758C48.5992 107.771 48.761 107.819 48.9076 107.899C49.0542 107.98 49.1821 108.09 49.2831 108.223L49.2761 108.237Z" fill="#86B1F2"/>
<path d="M24.7502 132.205L20.8263 132.602L19.4881 126.357L13.6754 126.232L11.912 121.723L9.62598 122.615L11.9887 128.644L17.5017 128.762L18.8887 135.265L24.799 134.665L24.7502 132.205Z" fill="#741D20"/>
<path d="M211.858 86.5329L214.325 87.3484C214.325 87.3484 218.235 86.0799 218.618 85.2575C219.002 84.4351 219.113 82.5254 219.664 82.4696C219.885 82.4404 220.109 82.4554 220.324 82.5137C220.539 82.572 220.74 82.6726 220.916 82.8094C221.092 82.9463 221.239 83.1167 221.348 83.3109C221.457 83.505 221.527 83.7189 221.553 83.9402C221.741 84.902 220.333 87.676 220.549 87.9687C221.366 88.4083 222.229 88.7588 223.121 89.0142C223.456 89.1304 223.753 89.3371 223.978 89.6114C224.203 89.8857 224.348 90.2169 224.396 90.5684C224.43 90.8047 224.383 91.0454 224.263 91.2516C224.143 91.4578 223.956 91.6174 223.734 91.7045L223.037 91.9763L223.267 92.6732C223.346 92.9403 223.317 93.2277 223.187 93.4738C223.057 93.72 222.835 93.9054 222.57 93.9905L222.02 94.1717L222.194 94.6178C222.248 94.7545 222.273 94.9012 222.266 95.0481C222.26 95.1951 222.223 95.339 222.157 95.4706C222.091 95.6022 221.998 95.7184 221.885 95.8116C221.771 95.9049 221.639 95.9731 221.497 96.0117L221.023 96.1511V96.2836C221.061 96.5406 221.003 96.8026 220.86 97.0198C220.718 97.2369 220.5 97.3941 220.249 97.4614L219.775 97.5869L213.21 95.4193C212.596 95.2169 212.032 94.8894 211.551 94.4575L209.37 93.3075C209.255 93.2454 209.167 93.1448 209.12 93.0236C209.072 92.9024 209.07 92.7684 209.112 92.6454L211.133 86.8257C211.16 86.7581 211.201 86.6966 211.253 86.6451C211.304 86.5935 211.366 86.5529 211.433 86.5256C211.501 86.4983 211.573 86.4848 211.646 86.4861C211.719 86.4874 211.791 86.5033 211.858 86.5329Z" fill="#FAE0B2"/>
<path d="M61.647 94.3531C61.5913 94.1998 60.2531 91.9486 58.5734 89.5092C50.6767 78.1277 38.9676 67.1643 25.2373 67.5756V67.4919C31.4473 66.7949 37.5319 68.4677 42.8707 71.4089C51.6804 76.1622 60.2949 85.2089 64.9646 92.1716L61.647 94.3531Z" fill="#F7CC7F"/>
<path d="M28.2836 73.8693L27.3566 67.4711L32.096 63.0802C32.2185 62.9681 32.307 62.8238 32.3514 62.6638C32.3958 62.5038 32.3943 62.3345 32.3471 62.1753C32.2998 62.0161 32.2087 61.8734 32.0842 61.7635C31.9597 61.6536 31.8068 61.5809 31.643 61.5538L25.2726 60.4596L22.5614 54.5911C22.4913 54.4408 22.3807 54.3131 22.242 54.2222C22.1034 54.1313 21.9421 54.0808 21.7763 54.0765C21.6106 54.0721 21.4469 54.1141 21.3036 54.1976C21.1604 54.2811 21.0433 54.4029 20.9654 54.5493L17.9614 60.2435L11.5354 61.0102C11.371 61.0294 11.2152 61.0943 11.0859 61.1976C10.9565 61.3009 10.8587 61.4383 10.8035 61.5944C10.7484 61.7504 10.7381 61.9188 10.7738 62.0804C10.8095 62.2421 10.8899 62.3904 11.0057 62.5087L15.522 67.1435L14.2605 73.486C14.2294 73.6487 14.2442 73.817 14.3034 73.9718C14.3625 74.1266 14.4636 74.2619 14.5953 74.3625C14.727 74.4631 14.8841 74.525 15.049 74.5413C15.214 74.5576 15.3802 74.5276 15.529 74.4548L21.3278 71.5902L26.9733 74.7475C27.1158 74.827 27.2776 74.8656 27.4407 74.859C27.6038 74.8524 27.7619 74.8008 27.8975 74.7099C28.0331 74.619 28.1409 74.4924 28.2091 74.344C28.2772 74.1957 28.303 74.0314 28.2836 73.8693Z" fill="#F7CC7F"/>
<path d="M243.082 184.875L243.528 183.356C244.683 183.172 245.765 182.673 246.655 181.915C247.546 181.156 248.21 180.167 248.574 179.055C248.791 178.347 248.95 177.622 249.048 176.888L245.891 175.982L246.448 174.065L249.299 174.888C249.414 173.748 249.623 172.619 249.926 171.514C250.115 170.716 250.468 169.967 250.963 169.313C251.459 168.659 252.085 168.117 252.802 167.719C253.519 167.321 254.311 167.078 255.128 167.004C255.944 166.93 256.767 167.028 257.544 167.291C258.35 167.509 259.117 167.852 259.816 168.308C259.936 168.388 260.04 168.49 260.12 168.609C260.2 168.729 260.257 168.863 260.285 169.004C260.314 169.145 260.314 169.291 260.286 169.432C260.258 169.573 260.203 169.708 260.123 169.828C259.959 170.072 259.707 170.243 259.42 170.305C259.133 170.368 258.833 170.316 258.583 170.162C258.058 169.857 257.496 169.623 256.91 169.465C254.519 168.768 253.063 170.162 252.428 172.288C252.118 173.382 251.922 174.506 251.843 175.64L256.255 176.909L255.69 178.818L251.508 177.62C251.316 178.794 250.937 179.931 250.386 180.986C249.665 182.174 248.59 183.107 247.313 183.655V183.711L255.363 186.032C255.506 186.07 255.641 186.137 255.758 186.229C255.875 186.321 255.972 186.435 256.044 186.565C256.115 186.696 256.16 186.839 256.174 186.987C256.189 187.135 256.174 187.284 256.129 187.426V187.51C256.042 187.793 255.847 188.031 255.587 188.172C255.326 188.312 255.02 188.345 254.735 188.262L243.082 184.875Z" fill="#F7CC7F"/>
<path d="M1.13584 95.6353L2.63432 93.1053L1.40069 90.4359C1.36914 90.3676 1.35726 90.2919 1.36639 90.2172C1.37552 90.1426 1.40529 90.0719 1.45236 90.0133C1.49943 89.9546 1.56193 89.9103 1.63284 89.8852C1.70374 89.8601 1.78023 89.8553 1.85372 89.8713L4.72523 90.5125L6.87887 88.5122C6.93333 88.4548 7.00343 88.4147 7.08049 88.3967C7.15756 88.3788 7.23819 88.3839 7.31239 88.4114C7.38659 88.4388 7.45111 88.4874 7.49794 88.5512C7.54477 88.615 7.57186 88.6911 7.57584 88.7701L7.85463 91.6974L10.4195 93.1331C10.4802 93.1688 10.5305 93.2198 10.5655 93.2809C10.6005 93.342 10.6189 93.4112 10.6189 93.4816C10.6189 93.552 10.6005 93.6212 10.5655 93.6824C10.5305 93.7435 10.4802 93.7944 10.4195 93.8301L7.72221 94.994L7.09493 97.8795C7.07982 97.9528 7.04466 98.0205 6.99336 98.075C6.94206 98.1295 6.87664 98.1687 6.80438 98.1882C6.73213 98.2077 6.65587 98.2067 6.58411 98.1855C6.51235 98.1642 6.44791 98.1234 6.39796 98.0677L4.45342 95.8653L1.53311 96.2137C1.46212 96.2196 1.39085 96.2066 1.32651 96.176C1.26216 96.1455 1.20704 96.0984 1.16672 96.0397C1.12639 95.981 1.1023 95.9127 1.09688 95.8416C1.09145 95.7706 1.10489 95.6994 1.13584 95.6353Z" fill="#466EB6"/>
<path d="M277.833 136.29L274.237 135.997L273.742 139.321L270.194 139.189L269.33 142.311L266.654 142.646L266.828 144.005L270.404 143.552L271.219 140.597L274.92 140.729L275.401 137.46L278.656 137.725L277.833 136.29Z" fill="#F48C7F"/>
<path d="M85.4416 55.5873L85.2185 51.9839L81.8591 51.97L81.4897 48.4294L78.2767 48.0182L77.5658 45.4185L76.2485 45.7809L77.2034 49.2588L80.2422 49.6491L80.6325 53.3291L83.9361 53.343L84.1382 56.6048L85.4416 55.5873Z" fill="#F48C7F"/>
<path d="M7.53446 161.82L10.2526 162.858L12.3854 160.788L15.3475 162.168L16.9366 159.269L20.3517 160.683L22.143 158.195L25.6557 159.011L25.349 160.342L22.7214 159.729L20.8326 162.356L17.5429 160.997L15.926 163.945L12.6572 162.426L10.5802 164.44L8.06415 163.478L6.97688 165.088L5.84082 164.322L7.53446 161.82Z" fill="#F7CC7F"/>
<path d="M171.427 47.3494L171.253 49.5448L167.698 49.6494L167.043 52.8206L164.395 53.3294L164.659 54.6745L168.2 53.9845L168.813 50.9806L172.514 50.8691L172.779 47.5724L171.427 47.3494Z" fill="#741D20"/>
<path d="M243.535 47.698C245.003 49.1068 246.021 50.9193 246.458 52.9062C246.896 54.8931 246.735 56.9653 245.996 58.8606C245.256 60.756 243.971 62.3894 242.303 63.5544C240.634 64.7194 238.658 65.3635 236.624 65.4054C234.59 65.4473 232.589 64.8851 230.874 63.7899C229.16 62.6946 227.808 61.1155 226.991 59.2522C226.174 57.3889 225.928 55.3252 226.283 53.3219C226.639 51.3186 227.581 49.4658 228.99 47.9977C230.88 46.0307 233.473 44.8943 236.2 44.8381C238.928 44.7819 241.566 45.8105 243.535 47.698Z" fill="#FFF3D9"/>
<path d="M243.361 56.3123L238.984 57.6574L237.59 62.0274C237.566 62.108 237.52 62.1801 237.457 62.2355C237.393 62.2908 237.316 62.3271 237.233 62.3402C237.15 62.3534 237.065 62.3427 236.987 62.3096C236.91 62.2764 236.844 62.2221 236.796 62.1529L234.161 58.4032L229.582 58.445C229.502 58.4439 229.423 58.4209 229.354 58.3786C229.286 58.3363 229.23 58.2763 229.193 58.2048C229.156 58.1333 229.139 58.0531 229.143 57.9727C229.148 57.8923 229.175 57.8146 229.22 57.748L231.973 54.082L230.516 49.7399C230.489 49.6605 230.485 49.5751 230.504 49.4934C230.523 49.4118 230.565 49.3372 230.625 49.2783C230.685 49.2193 230.76 49.1784 230.841 49.1602C230.923 49.142 231.009 49.1472 231.088 49.1753L235.416 50.6599L239.096 47.9347C239.163 47.8894 239.24 47.8629 239.321 47.8582C239.401 47.8534 239.481 47.8706 239.553 47.9077C239.624 47.9449 239.684 48.0007 239.727 48.0693C239.769 48.1378 239.792 48.2166 239.793 48.2971L239.723 52.8762L243.452 55.5387C243.516 55.5852 243.567 55.648 243.599 55.7207C243.631 55.7933 243.643 55.8732 243.634 55.9521C243.625 56.0309 243.594 56.1059 243.547 56.1692C243.499 56.2325 243.435 56.2819 243.361 56.3123Z" fill="#FED333"/>
<path d="M272.683 100.737L275.101 100.591C275.163 100.582 275.222 100.557 275.271 100.519C275.32 100.48 275.358 100.43 275.382 100.372C275.405 100.314 275.412 100.251 275.404 100.189C275.395 100.127 275.37 100.068 275.331 100.019L273.791 98.0121L274.453 95.4472C274.473 95.3895 274.476 95.3272 274.462 95.2677C274.448 95.2083 274.417 95.1541 274.373 95.1116C274.329 95.0691 274.274 95.0401 274.214 95.0279C274.154 95.0158 274.092 95.021 274.035 95.043L271.791 96.0605L269.783 94.6248C269.732 94.5904 269.671 94.5718 269.609 94.5711C269.547 94.5704 269.487 94.5877 269.434 94.6209C269.382 94.654 269.34 94.7017 269.314 94.7581C269.288 94.8144 269.28 94.8771 269.289 94.9384L269.442 97.5799L267.539 99.2527C267.491 99.2931 267.455 99.3454 267.434 99.4043C267.413 99.4632 267.408 99.5266 267.419 99.5881C267.431 99.6496 267.458 99.7071 267.499 99.7546C267.539 99.8022 267.592 99.8382 267.651 99.859L269.993 100.472L270.822 102.94C270.839 102.998 270.874 103.05 270.921 103.088C270.968 103.127 271.025 103.151 271.086 103.157C271.146 103.163 271.207 103.151 271.261 103.122C271.314 103.093 271.358 103.049 271.386 102.995L272.683 100.737Z" fill="#F47458"/>
<path d="M88.9473 145.315C88.9473 145.315 93.2685 137 93.9446 133.941C94.6206 130.881 96.8649 115.52 96.7324 114.516C96.4955 112.627 94.0142 111.401 94.4673 110.557C94.9203 109.714 97.2552 109.456 98.0706 109.526C99.1748 109.656 100.235 110.035 101.172 110.634C101.869 111.205 100.398 129.64 99.9594 133.634C99.5203 137.628 94.1467 149.797 94.1467 149.797L88.9473 145.315Z" fill="#FFBE9D"/>
<path d="M101.953 110.293C101.855 110.356 101.493 110.46 101.409 110.537L100.747 110.746C101.751 110.738 102.722 111.109 103.465 111.784C103.084 111.177 102.566 110.666 101.953 110.293Z" fill="#F47257"/>
<path d="M183.7 113.631C184.397 113.122 184.711 111.84 184.857 111.01L185.199 109.923C184.941 109.805 179.853 108.843 178.313 108.731C178.155 109.096 178.076 109.491 178.083 109.888C178.257 111.157 179.477 119.423 179.477 119.423L183.875 119.715C183.875 119.715 183.157 114.816 183.7 113.631Z" fill="#FFBE9D"/>
<path d="M183.811 110.16C183.063 110.564 182.408 111.119 181.887 111.791C181.887 111.791 179.469 110.076 179.58 109.575C179.727 108.913 182.215 110.272 182.215 110.272L183.811 110.16Z" fill="#F47458"/>
<path d="M205.286 231.043C205.286 231.043 211.217 235.315 212.144 236.584C213.489 238.424 202.108 241.853 203.348 239.706C203.634 239.211 204.457 237.546 204.491 237.385C204.68 236.507 202.268 234.151 202.268 234.151L205.286 231.043Z" fill="#FFBE9D"/>
<path d="M200.274 243.296L204.296 237.615C204.296 237.615 206.805 237.03 209.384 234.13C210.845 234.731 212.133 235.689 213.126 236.918C210.992 239.132 208.705 241.194 206.282 243.086C204.545 244.536 202.562 245.662 200.427 246.411C197.026 247.575 200.274 243.296 200.274 243.296Z" fill="#F7CC7F"/>
<path d="M253.669 125.64C253.669 125.64 252.143 128.17 251.969 128.016C251.795 127.863 252.756 126.56 253.405 124.95C253.572 124.531 253.732 124.127 253.878 123.744C254.269 122.754 253.788 122.245 253.223 123.214C252.96 123.662 252.727 124.128 252.526 124.608C252.326 125.041 252.093 125.458 251.829 125.856C251.607 126.296 251.358 126.722 251.084 127.131C251.084 127.089 250.868 127.18 251.035 126.734C251.202 126.288 251.892 125.152 252.122 124.343C252.255 123.883 252.589 122.949 252.589 122.949C252.683 122.436 252.736 121.916 252.749 121.395C252.31 121.165 251.857 122.162 251.76 122.789C251.514 123.232 251.316 123.699 251.167 124.183C251.167 124.183 250.08 126.072 249.822 125.918C249.711 125.856 250.247 124.622 250.589 123.326C250.93 122.029 251.028 120.865 250.812 120.775C250.435 120.614 249.948 121.911 249.948 121.911C249.948 121.911 249.655 122.838 249.529 123.137C249.404 123.437 248.888 124.531 248.888 124.531C248.888 124.531 246.93 128.016 246.693 127.835C246.383 127.559 246.183 127.18 246.128 126.769C246.177 126.511 246.498 126.072 246.546 125.828C246.567 125.682 246.538 125.534 246.463 125.407C246.388 125.281 246.273 125.183 246.135 125.131C245.835 125.061 245.152 126.218 245.152 126.218C244.849 126.742 244.656 127.324 244.588 127.926C244.539 130.546 244.964 130.442 244.95 130.776C244.936 131.111 241.905 135.516 241.905 135.516L241.842 135.585L245.445 138.206C246.651 136.254 247.585 134.721 247.857 134.24C247.857 134.24 249.662 132.693 250.77 131.689C251.552 130.85 252.222 129.913 252.763 128.901C253.393 127.999 253.911 127.023 254.304 125.995C254.861 124.503 253.669 125.64 253.669 125.64Z" fill="#F8A492"/>
<path d="M214.354 187.134L213.413 191.769L189.855 213.2L206.715 230.304L202.177 234.925C202.177 234.925 177.268 216.63 176.39 214.232C174.996 210.545 194.246 186.102 194.246 186.102L214.354 187.134Z" fill="#263238"/>
<path d="M231.701 243.86C231.701 243.86 237.626 248.133 238.56 249.401C239.905 251.241 228.523 254.677 229.764 252.523C230.05 252.029 230.872 250.37 230.907 250.203C231.095 249.324 228.684 246.969 228.684 246.969L231.701 243.86Z" fill="#FFBE9D"/>
<path d="M226.682 256.141L230.704 250.453C232.762 249.899 234.597 248.718 235.952 247.073C237.363 247.641 238.599 248.571 239.534 249.77C237.401 251.984 235.114 254.046 232.69 255.938C230.952 257.388 228.97 258.517 226.836 259.27C223.434 260.413 226.682 256.141 226.682 256.141Z" fill="#F7CC7F"/>
<path d="M213.546 189.28L213.915 219.745L232.629 243.219L228.224 248.098C228.224 248.098 205.049 228.826 202.506 223.299C200.93 219.87 195.194 187.426 195.194 187.426L213.546 189.28Z" fill="#263238"/>
<path d="M194.51 186.883C196.426 182.555 196.203 151.547 203.661 144.284C206.288 144.73 208.156 144.981 208.595 145.093C208.986 148.285 209.411 160.008 209.676 170.748C209.85 177.906 209.676 185.385 210.554 189.371C211.125 191.818 192.788 190.835 194.51 186.883Z" fill="#E73A40"/>
<path d="M162.959 162.07C158.596 162.321 156.763 163.018 155.425 162.767C154.087 162.516 150.504 161.234 150.546 159.896C155.334 158.934 163.691 160.418 163.691 160.418C163.147 163.206 162.959 162.07 162.959 162.07Z" fill="#FFBE9D"/>
<path d="M200.511 145.274C200.511 145.274 198.574 154.78 196.33 156.425C194.085 158.07 182.662 163.792 181.965 163.75C178.515 163.548 161.983 162.872 161.983 162.872L162.492 157.575L181.122 156.063C181.122 156.063 194.608 147.218 196.455 145.824C197.675 145.023 200.511 145.274 200.511 145.274Z" fill="#455A64"/>
<path d="M193.814 188.953C192.651 188.977 191.493 188.786 190.399 188.389C190.399 188.389 189.632 175.941 193.215 157.492C194.56 150.522 194.609 146.34 197.348 145.239C199.374 144.489 201.533 144.164 203.69 144.284C196.386 164.956 196.358 180.868 195.327 185.482C194.811 187.789 194.358 188.967 193.814 188.953Z" fill="#455A64"/>
<path d="M204.463 141.162L203.696 144.284C203.696 144.284 203.522 147.002 204.783 147.253C206.31 147.546 208.568 145.267 208.568 145.267L209.878 136.457L204.463 141.162Z" fill="#FFBE9D"/>
<path d="M204.463 141.162L203.696 144.284C203.696 144.284 203.522 147.002 204.783 147.253C206.31 147.546 208.568 145.267 208.568 145.267L209.878 136.457L204.463 141.162Z" fill="#FFBE9D"/>
<path d="M209.844 136.499L204.442 141.162L203.871 143.496C205.955 143.002 208.903 140.729 209.844 136.499Z" fill="#F47458"/>
<path d="M204.442 128.393C203.776 128.412 203.133 128.639 202.602 129.041C202.071 129.443 201.679 130.001 201.48 130.637C200.965 132.11 200.571 133.623 200.302 135.161C199.731 138.548 201.696 141.649 203.341 141.893C204.986 142.137 209.014 141.029 209.9 136.234C210.276 134.143 210.778 131.481 209.084 130.059C207.764 129.005 206.131 128.419 204.442 128.393Z" fill="#FFBE9D"/>
<path d="M209.377 139.851C209.377 139.851 215.287 134.582 215.545 130.463C215.803 126.344 212.005 124.134 208.75 124.023C207.42 123.97 206.088 124.037 204.77 124.225C201.508 124.636 199.396 126.086 200.142 128.755C201.139 132.338 207.906 129.313 209.286 130.428C210.429 131.341 208.589 133.551 209.684 134.394C210.778 135.237 210.199 134.917 209.851 136.422C209.62 137.554 209.461 138.699 209.377 139.851Z" fill="#13375B"/>
<path d="M211.656 135.077C211.51 136.067 210.904 136.792 210.311 136.708C209.719 136.624 209.342 135.746 209.489 134.757C209.635 133.767 210.241 133.042 210.841 133.133C211.44 133.223 211.803 134.122 211.656 135.077Z" fill="#FFBE9D"/>
<path d="M184.752 108.502C184.216 107.575 183.428 108.502 183.937 109.735C183.951 109.781 183.951 109.829 183.937 109.875C183.524 110.361 183.056 110.798 182.543 111.178C182.543 111.178 183.533 113.91 184.055 113.213C184.578 112.516 185.031 110.14 185.031 110.14L184.752 108.502Z" fill="#FFBE9D"/>
<path d="M247.076 136.715L243.048 132.728C243.048 132.728 235.381 143.719 231.513 145.622C227.735 147.476 215.169 146.8 214.73 146.702C213.224 146.354 208.59 145.092 208.59 145.092C208.59 145.092 204.707 178.428 209.767 190.012C211.412 193.79 221.693 191.274 221.693 191.274C221.693 191.274 218.528 177.397 218.361 175.578C218.194 173.759 217.316 160.077 217.455 159.931C217.824 159.561 231.84 156.509 235.681 153.588C239.723 150.515 247.076 136.715 247.076 136.715Z" fill="#455A64"/>
<path d="M51.464 166.963C58.371 174.163 64.4416 167.786 64.1419 167.89C65.0514 167.791 65.9661 167.747 66.881 167.758C70.9931 167.597 74.7428 164.649 76.3807 160.739C82.5349 159.931 86.5634 154.236 84.7443 149.316C87.4625 145.922 86.6262 140.513 84.0474 137.049C83.448 131.369 76.0322 130.407 70.9234 132.393C68.2584 133.486 66.1286 135.58 64.9922 138.227C60.0716 138.109 55.8689 141.712 54.7746 146.772C47.1358 148.905 44.4107 159.617 51.464 166.963Z" fill="#E73A40"/>
<path d="M95.8536 236.737C95.3658 239.361 94.6666 241.941 93.7627 244.453C93.686 244.648 92.9124 245.352 92.8218 245.554C93.24 250.293 96.2578 253.109 99.0945 255.116C98.4812 252.726 97.1151 249.979 97.2893 249.45C98.2836 246.171 99.5255 242.972 101.004 239.88C98.6136 239.616 97.7703 238.18 95.8536 236.737Z" fill="#FFBE9D"/>
<path d="M87.2121 180.317L70.8193 191.51C70.8193 191.51 78.8066 196.696 81.5387 199.31C84.2709 201.923 98.963 213.751 99.1651 214.35C99.3394 214.789 97.806 220.4 94.2863 238.368C95.8406 239.964 99.2697 241.518 101.305 242.034C105.563 232.45 110.365 212.51 109.836 210.315C108.992 206.914 87.2121 180.317 87.2121 180.317Z" fill="#001433"/>
<path d="M45.7003 202.85C46.1812 203.317 49.3873 209.548 50.5791 212.887C52.3633 211.765 53.4436 210.426 55.4579 209.674C53.8897 207.402 50.823 201.93 50.5791 200.613C49.9797 197.526 49.2827 197.073 49.2827 197.073C49.2827 197.073 38.9257 200.557 38.2357 201.554C37.5457 202.551 43.7697 200.962 45.7003 202.85Z" fill="#FFBE9D"/>
<path d="M50.6909 201.31C51.4924 201.31 50.6212 197.685 50.433 196.849C50.2239 195.908 49.6803 195.622 49.5478 195.595C49.1784 195.504 37.6993 199.393 35.7269 200.794C35.5703 200.927 35.4341 201.082 35.3227 201.254C34.2563 203.24 43.7421 203.617 45.0803 202.752C46.3278 201.979 47.0736 201.303 50.6909 201.31Z" fill="#FFA94D"/>
<path d="M90.1958 183.823C90.1958 183.823 76.3052 178.352 76.1239 178.944C74.6882 183.572 70.2136 182.081 67.5582 190.235C66.443 193.65 65.5648 202.669 64.8191 209.36C64.3033 213.953 63.5785 217.64 63.5785 217.64C60.722 213.602 57.629 209.736 54.3158 206.063C53.8418 205.541 48.9561 210.182 48.9561 210.182C58.5952 229.293 65.6276 231.998 67.1679 231.482C74.1376 229.126 83.3655 197.086 83.3446 197.093C84.4806 194.877 90.1958 183.823 90.1958 183.823Z" fill="#001433"/>
<path d="M68.7555 151.442C68.7555 151.442 52.1745 151.442 48.627 151.212C45.4139 151.024 32.6733 151.351 32.1715 151.296C31.6697 151.24 28.38 145.657 27.8363 146.256C27.2927 146.856 29.6694 149.044 28.9306 149.588C28.1918 150.132 20.2881 148.891 20.3927 149.469C20.5878 150.564 25.2018 150.424 25.1948 150.954C25.1878 151.484 20.3648 150.661 20.0442 151.539C19.7236 152.418 24.6791 151.895 24.8812 152.285C25.0833 152.676 20.2742 153.393 20.7621 154.209C21.0339 154.648 25.0206 153.47 24.9997 154.069C24.9788 154.669 22.0724 156.049 22.4278 156.53C22.7833 157.011 24.7139 155.031 26.4006 155.031C28.0872 155.031 29.3 154.125 31.9763 154.864C33.3075 155.226 43.4763 156.474 52.063 157.206C60.8727 157.959 68.0933 158.196 68.0933 158.196L68.7555 151.442Z" fill="#FFBE9D"/>
<path d="M93.3454 166.183C93.4195 163.305 93.2774 160.425 92.9202 157.568C93.7217 154.78 95.4363 148.905 96.0496 147.748C96.0496 147.748 93.1641 142.172 90.209 142.235C90.209 142.235 87.1911 149.037 84.8562 150.257C84.4808 150.418 84.0879 150.535 83.6853 150.605C81.4341 150.605 73.5584 150.355 72.0947 150.327L72.9171 161.478C76.0187 169.709 75.4541 176.986 74.9105 179.523C74.6038 180.917 88.2714 185.168 90.3763 183.816C90.4599 183.774 92.8993 171.556 93.3454 166.183Z" fill="#741D20"/>
<path d="M76.0889 150.745C74.6392 150.048 64.1289 150.396 64.1289 150.396C64.1289 150.396 62.6653 157.714 63.8501 159.457C63.8501 159.457 73.2453 160.851 72.9804 161.624L76.0889 150.745Z" fill="#741D20"/>
<path d="M77.9214 145.622C78.4472 147.434 78.8776 149.272 79.2108 151.128C79.4129 152.787 81.9429 157.966 85.3859 157.22C88.829 156.474 85.2396 151.644 84.5635 150.132C83.8875 148.619 82.0614 142.465 82.0614 142.465L77.9214 145.622Z" fill="#FFBE9D"/>
<path d="M82.8281 144.981C82.3959 143.587 82.0614 142.458 82.0614 142.458L77.9214 145.622C77.9214 145.622 78.1235 146.319 78.3674 147.267C79.2593 147.435 80.1819 147.302 80.9897 146.888C81.7974 146.474 82.4443 145.803 82.8281 144.981Z" fill="#F47257"/>
<path d="M74.9179 134.122C73.7446 134.874 72.8793 136.021 72.4785 137.356C71.8443 139.552 72.6876 145.19 77.4131 146.486C82.1385 147.783 84.104 143.28 83.0864 139.796C82.0688 136.311 79.8943 131.906 74.9179 134.122Z" fill="#FFBE9D"/>
<path d="M83.6508 138.422C83.5742 139.363 83.0654 140.088 82.5218 140.046C81.9781 140.005 81.5878 139.196 81.6715 138.262C81.7551 137.328 82.2569 136.596 82.8005 136.638C83.3442 136.68 83.7345 137.482 83.6508 138.422Z" fill="#FFBE9D"/>
<path d="M93.7006 244.571C93.4079 243.818 90.4039 246.202 89.7 246.662C88.996 247.122 88.8427 247.812 88.8636 247.951C88.9124 248.321 96.5303 257.709 98.7815 259.019C99.0278 259.124 99.3002 259.15 99.5621 259.096C100.803 258.615 98.7815 250.92 97.1576 249.408C96.1052 248.425 95.0388 247.923 93.7006 244.571Z" fill="#FFA94D"/>
<path d="M75.4684 133.823C75.4684 133.823 74.7087 140.137 72.6805 141.301C70.6523 142.465 71.5514 145.253 71.5514 145.253C71.5514 145.253 69.6068 138.785 71.189 136.68C72.3046 135.329 73.7927 134.335 75.4684 133.823Z" fill="#E73A40"/>
<path d="M73.9345 142.186C74.4991 143.001 74.513 143.97 73.9345 144.347C73.3561 144.723 72.4779 144.381 71.9133 143.566C71.3488 142.75 71.3418 141.789 71.9133 141.405C72.4848 141.022 73.3421 141.377 73.9345 142.186Z" fill="#FFBE9D"/>
<path d="M159.48 82.5947C156.908 83.1035 146.607 96.8966 146.607 96.8966L146.245 97.8514C146.245 97.8514 164.875 95.7605 165.551 94.9869C167.37 92.8332 161.599 82.1766 159.48 82.5947ZM146.739 97.1823C150.141 92.8402 157.891 86.4978 159.557 85.1456C161.055 86.672 163.306 91.1744 163.599 93.2026C161.459 93.6556 152.176 96.5341 146.739 97.1823Z" fill="#82C7E6"/>
<path d="M134.53 84.9509C129.463 81.6403 128.069 81.6682 126.591 82.5045C125.114 83.3409 119.671 91.1539 122.103 93.5933C124.535 96.0327 143.841 97.7752 143.841 97.7752L144.281 96.5903C144.281 96.5903 139.597 88.2545 134.53 84.9509ZM125.469 92.7291C124.34 91.607 127.142 86.9303 128.424 85.9406C128.745 85.7524 141.737 94.0185 143.549 96.8412C136.293 96.0536 126.508 93.6979 125.462 92.7291H125.469Z" fill="#82C7E6"/>
<path d="M145.082 94.332H144.001C142.924 94.332 142.05 95.2058 142.05 96.2835V99.4757C142.05 100.553 142.924 101.427 144.001 101.427H145.082C146.159 101.427 147.033 100.553 147.033 99.4757V96.2835C147.033 95.2058 146.159 94.332 145.082 94.332Z" fill="#82C7E6"/>
<path d="M185.178 97.9141L96.8644 97.6492C96.3117 97.6469 95.765 97.7643 95.262 97.9935C94.759 98.2227 94.3116 98.5581 93.9506 98.9767C93.5896 99.3953 93.3236 99.8871 93.1709 100.418C93.0182 100.95 92.9824 101.508 93.066 102.054L94.4599 111.066H98.8857L101.527 156.425C101.595 157.594 102.106 158.693 102.958 159.498C103.809 160.302 104.935 160.751 106.106 160.753H176.591L179.525 110.913H183.707L185.178 97.9141Z" fill="#B32323"/>
<path d="M97.4013 112.126V111.038C96.6354 110.85 95.8539 110.731 95.0665 110.683L93.8816 109.812C93.8133 109.794 93.742 109.792 93.6728 109.805C93.6035 109.818 93.5379 109.846 93.4807 109.887C93.4235 109.929 93.3761 109.982 93.3418 110.044C93.3075 110.105 93.2872 110.174 93.2822 110.244C93.3564 110.593 93.5308 110.913 93.784 111.164C93.784 111.164 95.875 112.906 96.6486 113.436C97.018 113.701 98.175 114.405 98.175 114.405L98.8719 113.143L97.4013 112.126Z" fill="#FFBE9D"/>
<path d="M178.103 160.733H123.998L121.098 98.8486H185.38L182.662 156.425C182.597 157.59 182.089 158.686 181.241 159.487C180.393 160.289 179.27 160.734 178.103 160.733Z" fill="#E73A40"/>
<path d="M188.036 110.913L118.255 111.122L116.659 97.6707L185.025 97.9355C185.556 97.9371 186.082 98.0494 186.568 98.2652C187.053 98.4811 187.489 98.7957 187.846 99.1891C188.203 99.5826 188.475 100.046 188.643 100.55C188.811 101.054 188.873 101.588 188.823 102.117L188.036 110.913Z" fill="#E73A40"/>
<path d="M118.255 111.101L184.809 110.913L120.367 114.433L118.255 111.101Z" fill="#B32323"/>
<path d="M146.293 97.7751H144.439V111.038H146.293V97.7751Z" fill="#82C7E6"/>
<path d="M152.127 110.975H149.813V160.823H152.127V110.975Z" fill="#82C7E6"/>
<path d="M96.2382 71.771C101.566 73.8626 107.009 75.6474 112.54 77.1168C114.206 77.5628 116.973 78.8243 118.506 77.6952C118.908 77.4612 119.204 77.0819 119.334 76.6357C119.463 76.1894 119.417 75.7105 119.203 75.2977C118.339 73.5831 115.684 73.4577 113.997 73.0116C108.874 71.6177 103.131 69.8543 97.444 67.7146C96.9062 67.5629 96.3303 67.6283 95.8402 67.8968C95.3501 68.1653 94.985 68.6155 94.8234 69.1504C94.6811 69.6889 94.7516 70.2615 95.0202 70.7495C95.2888 71.2374 95.735 71.6032 96.2661 71.771H96.2382Z" fill="#DEF0F8"/>
<path d="M135.707 62.3342C133.888 48.3948 134.007 48.3948 133.233 47.0566C133.047 46.7494 132.776 46.5022 132.453 46.3445C132.13 46.1868 131.769 46.1252 131.412 46.1671C131.055 46.2089 130.718 46.3525 130.44 46.5806C130.162 46.8087 129.956 47.1118 129.846 47.4539C129.428 48.9942 129.525 48.7502 131.491 63.3936C131.651 64.5575 133.08 65.2336 134.125 64.9687C134.678 64.8192 135.152 64.4614 135.447 63.9702C135.742 63.479 135.835 62.8927 135.707 62.3342Z" fill="#DEF0F8"/>
<path d="M158.1 64.0836C159.471 62.2292 160.639 60.2338 161.585 58.1315C162.47 56.173 164.087 53.2875 162.568 51.343C162.369 51.1315 162.115 50.9783 161.835 50.8997C161.555 50.8212 161.259 50.8202 160.979 50.8969C158.923 51.5939 158.533 54.4933 157.71 56.2985C156.795 58.2632 155.716 60.1471 154.483 61.93C154.338 62.1649 154.242 62.4262 154.198 62.6987C154.155 62.9712 154.166 63.2496 154.231 63.5178C154.296 63.7861 154.413 64.0388 154.576 64.2615C154.739 64.4842 154.944 64.6725 155.18 64.8154C155.663 65.0884 156.232 65.1646 156.77 65.0283C157.307 64.892 157.771 64.5536 158.066 64.0836H158.1Z" fill="#DEF0F8"/>
<path d="M189.095 74.6701C189.723 73.8128 189.2 72.7046 188.468 72.161C186.956 71.0389 184.286 72.0704 182.655 72.5234C180.743 73.069 178.879 73.7682 177.079 74.6143C176.594 74.8935 176.237 75.3528 176.087 75.8927C175.937 76.4327 176.006 77.01 176.278 77.4998C176.566 77.9782 177.026 78.3279 177.564 78.477C178.102 78.6261 178.677 78.5633 179.17 78.3013C186.105 75.4019 187.541 76.7819 189.095 74.6701Z" fill="#DEF0F8"/>
</svg>
