<svg width="261" height="265" viewBox="0 0 261 265" fill="none" xmlns="http://www.w3.org/2000/svg">
<path d="M113.88 264.655C176.507 264.655 227.276 259.807 227.276 253.828C227.276 247.848 176.507 243 113.88 243C51.2531 243 0.483887 247.848 0.483887 253.828C0.483887 259.807 51.2531 264.655 113.88 264.655Z" fill="white"/>
<path d="M120.216 220.749C120.216 220.749 8.5702 207.087 8.30855 92.8372C8.07181 -9.9931 103.42 -13.731 138.937 18.3279C174.453 50.3869 249.311 7.07676 259.385 89.8967C269.459 172.717 200.357 231.502 120.216 220.749Z" fill="white"/>
<path d="M79.8553 249.636L76.8389 256.664L90.3506 256.507L90.6385 249.342L79.8553 249.636Z" fill="#FF9C87"/>
<path d="M90.4558 255.264C89.827 255.347 89.1924 255.38 88.5583 255.362C87.3936 255.362 85.7774 255.362 83.9781 255.362L79.3978 255.264C78.7662 255.273 78.1346 255.243 77.5068 255.172C78.1335 255.088 78.7659 255.055 79.3978 255.074C80.5691 255.074 82.1852 255.074 83.9781 255.074L88.5583 255.165C89.1922 255.158 89.826 255.191 90.4558 255.264Z" fill="#263238"/>
<path d="M84.8213 249.486C84.9391 249.486 84.9653 250.794 84.8737 252.339C84.7821 253.883 84.625 255.172 84.5073 255.165C84.3895 255.159 84.3633 253.857 84.4484 252.313C84.5334 250.768 84.7036 249.479 84.8213 249.486Z" fill="#263238"/>
<path opacity="0.6" d="M76.8596 256.813L90.3713 256.362L90.4563 255.079L77.5401 255.191L76.853 256.656" fill="white"/>
<path d="M137.92 253.032V246.221L125.155 246.168L125.076 256.14L125.868 256.199C129.388 256.402 143.79 257.01 146.152 256.304C148.756 255.518 137.92 253.032 137.92 253.032Z" fill="#FF9C87"/>
<g opacity="0.4">
<path opacity="0.4" d="M143.213 254.432C143.213 254.432 147.014 255.545 146.536 256.173C146.059 256.801 131.487 256.736 125.055 256.14V255.859L142.067 256.075C142.067 256.075 142.473 254.465 143.213 254.432Z" fill="white"/>
</g>
<path d="M124.88 255.846C124.951 255.857 125.024 255.857 125.096 255.846L125.75 255.885L128.073 255.996C130.036 256.075 132.738 256.147 135.735 256.166C138.732 256.186 141.434 256.134 143.397 256.075L145.72 255.99H146.374H146.597H145.74L143.423 256.022C141.46 256.055 138.751 256.081 135.761 256.068C132.771 256.055 130.062 255.996 128.106 255.95L125.783 255.885H124.932L124.88 255.846Z" fill="#263238"/>
<path d="M142.074 256.271C142.24 255.492 142.676 254.797 143.305 254.308C142.909 254.455 142.581 254.741 142.382 255.113C142.141 255.449 142.032 255.861 142.074 256.271Z" fill="#263238"/>
<path d="M138.32 254.348C138.352 254.348 138.535 254.151 138.719 253.857C138.902 253.562 139.033 253.307 138.993 253.288C138.954 253.268 138.778 253.484 138.588 253.772C138.398 254.06 138.28 254.321 138.32 254.348Z" fill="#263238"/>
<path d="M137.285 253.798C137.285 253.798 137.514 253.693 137.736 253.497C137.959 253.3 138.109 253.117 138.083 253.084C138.057 253.052 137.854 253.182 137.631 253.379C137.409 253.575 137.259 253.765 137.285 253.798Z" fill="#263238"/>
<path d="M136.638 252.587C136.846 252.668 137.071 252.697 137.293 252.672C137.513 252.701 137.737 252.678 137.947 252.607C137.737 252.534 137.514 252.505 137.293 252.522C137.072 252.497 136.849 252.519 136.638 252.587Z" fill="#263238"/>
<path d="M136.416 251.737C136.636 251.885 136.896 251.962 137.162 251.959C137.422 252.002 137.689 251.966 137.927 251.854C137.676 251.817 137.422 251.799 137.168 251.802C136.92 251.758 136.668 251.736 136.416 251.737Z" fill="#263238"/>
<path d="M138.725 253.235C138.997 253.285 139.277 253.285 139.549 253.235C139.844 253.195 140.135 253.132 140.419 253.045C140.594 252.995 140.763 252.927 140.923 252.842C141.019 252.784 141.09 252.693 141.126 252.587C141.139 252.526 141.134 252.463 141.112 252.405C141.09 252.347 141.052 252.296 141.002 252.26C140.8 252.164 140.579 252.113 140.356 252.112C140.132 252.11 139.911 252.157 139.708 252.25C139.505 252.343 139.324 252.479 139.179 252.649C139.034 252.82 138.928 253.019 138.869 253.235C138.851 253.308 138.851 253.384 138.869 253.457C138.958 253.205 139.086 252.969 139.248 252.757C139.434 252.543 139.677 252.386 139.948 252.306C140.107 252.252 140.275 252.231 140.443 252.243C140.61 252.256 140.774 252.301 140.923 252.378C141.054 252.476 141.002 252.626 140.858 252.711C140.712 252.791 140.558 252.857 140.4 252.908C140.122 253.002 139.838 253.075 139.549 253.124C139.065 253.209 138.725 253.209 138.725 253.235Z" fill="#263238"/>
<path d="M138.967 253.3C139.069 253.129 139.104 252.926 139.065 252.731C139.04 252.518 138.963 252.313 138.843 252.136C138.777 252.016 138.683 251.915 138.569 251.841C138.455 251.766 138.324 251.722 138.188 251.71C138.105 251.728 138.031 251.777 137.983 251.848C137.936 251.919 137.918 252.006 137.933 252.09C137.951 252.221 137.998 252.346 138.071 252.456C138.175 252.639 138.305 252.806 138.457 252.953C138.712 253.209 138.915 253.307 138.921 253.287C138.928 253.267 138.758 253.143 138.535 252.881C138.403 252.729 138.289 252.562 138.195 252.384C138.084 252.214 138.005 251.9 138.195 251.861C138.385 251.821 138.607 252.05 138.731 252.214C138.846 252.374 138.924 252.557 138.96 252.751C138.982 252.933 138.984 253.117 138.967 253.3Z" fill="#263238"/>
<path d="M125.154 252.358C125.154 252.358 125.521 252.326 126.097 252.391C126.846 252.489 127.555 252.784 128.151 253.248C128.748 253.724 129.201 254.356 129.46 255.074C129.656 255.624 129.669 255.99 129.702 255.983C129.715 255.899 129.715 255.813 129.702 255.728C129.678 255.506 129.632 255.287 129.564 255.074C129.34 254.321 128.892 253.654 128.28 253.162C127.667 252.67 126.919 252.376 126.136 252.319C125.903 252.295 125.668 252.295 125.436 252.319C125.239 252.326 125.154 252.345 125.154 252.358Z" fill="#263238"/>
<path d="M126.495 247.052C126.409 247.922 126.37 248.795 126.378 249.669C126.335 250.542 126.346 251.416 126.41 252.287C126.5 251.417 126.539 250.543 126.528 249.669C126.571 248.797 126.56 247.923 126.495 247.052Z" fill="#263238"/>
<path d="M131.298 254.818C131.908 254.969 132.535 255.035 133.163 255.014C133.788 255.046 134.415 254.998 135.028 254.87C135.028 254.825 134.19 254.87 133.163 254.87C132.136 254.87 131.305 254.779 131.298 254.818Z" fill="#263238"/>
<path d="M128.792 254.805C128.792 254.838 128.864 254.982 128.949 255.178C129.034 255.374 129.073 255.538 129.119 255.531C129.165 255.525 129.185 255.335 129.086 255.113C128.988 254.89 128.825 254.779 128.792 254.805Z" fill="#263238"/>
<path d="M127.856 253.628C127.823 253.661 127.908 253.792 128.039 253.929C128.17 254.066 128.301 254.145 128.334 254.119C128.366 254.093 128.281 253.955 128.151 253.818C128.02 253.68 127.889 253.602 127.856 253.628Z" fill="#263238"/>
<path d="M126.509 253.084C126.509 253.13 126.686 253.13 126.875 253.196C127.065 253.261 127.196 253.366 127.229 253.333C127.261 253.3 127.157 253.13 126.928 253.052C126.699 252.973 126.496 253.045 126.509 253.084Z" fill="#263238"/>
<path d="M125.553 252.829C125.553 252.868 125.605 252.934 125.716 252.98C125.828 253.025 125.919 253.019 125.932 252.98C125.945 252.94 125.873 252.875 125.769 252.836C125.664 252.796 125.566 252.79 125.553 252.829Z" fill="#263238"/>
<g opacity="0.3">
<path opacity="0.3" d="M125.055 251.841L137.926 251.854L137.913 250.317L125.101 250.238L125.055 251.841Z" fill="black"/>
</g>
<path d="M97.1164 119.99L74.8564 249.486L92.9091 250.238L116.105 137.892L122.085 250.324L141.937 250.023L134.727 118.033L97.1164 119.99Z" fill="#FF9C87"/>
<path opacity="0.5" d="M97.1164 119.99L74.8564 249.486L92.9091 250.238L116.105 137.892L122.085 250.324L141.937 250.023L134.727 118.033L97.1164 119.99Z" fill="black"/>
<path d="M121.654 137.78C121.422 137.844 121.182 137.877 120.941 137.878L118.978 138.022C117.329 138.133 115.052 138.244 112.546 138.486C110.04 138.729 107.789 139.075 106.147 139.285L104.184 139.533C103.946 139.576 103.705 139.592 103.464 139.579C103.689 139.491 103.924 139.432 104.164 139.402C104.615 139.311 105.276 139.187 106.094 139.049C107.723 138.774 109.981 138.395 112.493 138.153C115.006 137.911 117.296 137.826 118.952 137.78C119.776 137.78 120.443 137.747 120.915 137.747C121.161 137.73 121.41 137.741 121.654 137.78Z" fill="#263238"/>
<path d="M136.107 129.759C135.952 129.829 135.785 129.871 135.616 129.883C135.166 129.951 134.71 129.973 134.255 129.949C132.731 129.874 131.261 129.361 130.023 128.471C128.784 127.58 127.829 126.351 127.273 124.93C127.105 124.507 126.98 124.069 126.9 123.621C126.857 123.459 126.843 123.291 126.861 123.124C126.92 123.124 127.031 123.811 127.515 124.838C128.111 126.18 129.052 127.338 130.244 128.195C131.435 129.051 132.833 129.575 134.294 129.713C135.4 129.818 136.107 129.7 136.107 129.759Z" fill="#263238"/>
<path d="M137.168 162.737C141.938 177.047 138.542 187.889 138.542 187.889H128.91L126.836 163.528L137.168 162.737Z" fill="#263238"/>
<path d="M79.1809 224.124C77.6054 219.695 77.1992 214.935 78.0015 210.303C78.8039 205.671 80.7877 201.324 83.7611 197.683H88.6293L84.7753 224.15L79.1809 224.124Z" fill="#263238"/>
<path d="M138.927 168.749C138.75 168.846 138.561 168.916 138.364 168.959C137.998 169.077 137.461 169.227 136.787 169.391C135.03 169.875 133.192 169.989 131.389 169.724C130.865 169.636 130.361 169.459 129.897 169.201C129.468 168.952 129.089 168.626 128.778 168.239C128.268 167.589 127.892 166.844 127.672 166.047C127.519 165.521 127.401 164.986 127.319 164.444C127.273 164.247 127.255 164.044 127.267 163.842C127.326 163.842 127.476 164.68 127.921 165.975C128.163 166.728 128.543 167.429 129.04 168.043C129.659 168.777 130.524 169.258 131.474 169.397C133.234 169.645 135.024 169.565 136.754 169.162C137.469 168.98 138.195 168.842 138.927 168.749Z" fill="#455A64"/>
<path d="M128.91 188.811C128.851 188.811 129.237 187.738 129.709 185.984C130.938 181.416 131.3 176.657 130.775 171.956C130.572 170.15 130.35 169.05 130.409 169.037C130.51 169.281 130.583 169.536 130.625 169.796C130.749 170.294 130.88 171.02 131.011 171.923C131.678 176.654 131.312 181.474 129.938 186.05C129.676 186.92 129.434 187.62 129.237 188.091C129.156 188.343 129.046 188.584 128.91 188.811Z" fill="#455A64"/>
<path d="M88.401 198.031C88.4232 198.232 88.4121 198.435 88.3683 198.633C88.3225 199.019 88.2374 199.575 88.1 200.255C87.7308 202.03 87.185 203.764 86.4708 205.431C86.3399 205.725 86.2156 206.013 86.0912 206.282L86.0389 206.399H85.9146C84.0498 206.131 82.3747 206 81.1773 205.928C80.5209 205.921 79.8654 205.875 79.2144 205.791C79.8639 205.694 80.5218 205.665 81.1773 205.706C82.7756 205.723 84.3711 205.843 85.9538 206.066L85.7772 206.164C85.9015 205.889 86.0258 205.608 86.1501 205.313C86.8536 203.664 87.4246 201.962 87.8579 200.223C88.1982 198.868 88.3421 198.024 88.401 198.031Z" fill="#455A64"/>
<path d="M80.7725 224.949C81.0416 224.961 81.3113 224.946 81.5773 224.903C81.9265 224.813 82.2544 224.654 82.5419 224.436C82.8294 224.218 83.0709 223.945 83.2523 223.634C83.7405 222.663 84.0107 221.598 84.0441 220.512C84.188 219.263 84.3385 217.895 84.5021 216.475C84.8423 213.616 85.1564 211.031 85.4116 209.16C85.5359 208.283 85.6471 207.544 85.7257 206.948C85.7515 206.675 85.8063 206.405 85.8892 206.144C85.9208 206.417 85.9208 206.694 85.8892 206.968C85.8304 207.563 85.7584 208.277 85.6799 209.193C85.4901 211.071 85.2022 213.662 84.8685 216.521C84.6984 217.941 84.5348 219.302 84.3843 220.545C84.3328 221.673 84.024 222.774 83.4814 223.764C83.2756 224.092 83.0044 224.375 82.6847 224.593C82.3649 224.811 82.0035 224.961 81.6231 225.034C81.4173 225.069 81.2072 225.069 81.0015 225.034C80.9198 225.023 80.8416 224.993 80.7725 224.949Z" fill="#455A64"/>
<path d="M129.16 39.9205L146.146 50.5336L165.043 37.2705L180.4 47.5041V103.933L165.043 95.7994L148.05 105.529L129.212 97.4287L113.96 103.848L115.57 54.3483L129.16 39.9205Z" fill="#455A64"/>
<path d="M118.618 55.7677L116.995 98.4817L128.354 93.751L147.153 102.846L164.047 91.3038L177.84 99.7838V49.5321L165.676 40.3389L147.421 54.4002L129.709 43.4992L118.618 55.7677Z" fill="#F5F5F5"/>
<path d="M177.839 99.7833V72.1056C175.641 69.6388 171.42 69.1481 168.803 71.2353C165.532 73.8526 165.132 79.1657 161.494 81.2137C159.976 82.0709 158.157 82.1756 156.508 82.7383C154.967 83.2666 153.594 84.1936 152.527 85.425C151.461 86.6564 150.739 88.1482 150.436 89.7488C150.133 91.3495 150.259 93.0018 150.802 94.5379C151.344 96.074 152.284 97.4391 153.525 98.4943L164.046 91.2968L177.839 99.7833Z" fill="#E0E0E0"/>
<path d="M165.125 40.7642L147.419 54.3871L143.749 52.1297C143.029 54.2759 143.232 56.8212 144.724 58.5158C144.527 59.7693 144.574 61.0489 144.861 62.2847C145.174 63.6568 145.841 64.9228 146.797 65.9562C147.752 66.9896 148.962 67.7542 150.305 68.1736C153.007 68.8999 156.194 67.696 157.47 65.1965C158.242 63.6719 158.392 61.6762 159.819 60.7274C161.448 59.6478 163.581 60.6424 165.511 60.9434C169.634 61.5977 173.834 58.457 174.881 54.4002C175.209 52.9952 175.245 51.5377 174.986 50.1184C174.727 48.699 174.179 47.348 173.376 46.1492L166.833 41.2026C166.273 41.0244 165.702 40.878 165.125 40.7642Z" fill="#E0E0E0"/>
<path d="M141.741 97.2842C140.374 95.0988 140.341 92.3376 140.642 89.7792C140.943 87.2208 141.532 84.6559 141.257 82.0909C140.982 79.526 139.582 76.8564 137.142 76.0189C135.774 75.5412 134.25 75.6917 132.862 75.2664C130.284 74.4681 128.668 71.8116 128.191 69.1616C127.713 66.5116 128.138 63.7896 128.334 61.1004C128.531 58.4111 128.478 55.5648 127.157 53.2485C126.35 51.862 125.032 50.8471 123.486 50.4219L118.618 55.8004L116.995 98.5144L128.354 93.7836L147.153 102.879L148.226 102.146C145.766 100.798 143.174 99.5809 141.741 97.2842Z" fill="#E0E0E0"/>
<path d="M119.129 77.877C119.207 77.9425 118.729 78.4987 118.35 79.2838C117.97 80.069 117.853 80.7888 117.754 80.7822C117.636 80.2181 117.739 79.63 118.042 79.1399C118.442 78.2893 119.096 77.8116 119.129 77.877Z" fill="#FF9C87"/>
<path d="M125.115 75.979C125.115 76.0248 124.918 76.051 124.624 76.0575C124.329 76.0641 123.93 76.0117 123.492 76.0575C122.96 76.1454 122.422 76.1913 121.882 76.195C122.346 75.8674 122.905 75.6998 123.472 75.7173C123.868 75.6985 124.264 75.7337 124.65 75.822C124.945 75.8482 125.121 75.9071 125.115 75.979Z" fill="#FF9C87"/>
<path d="M130.736 79.1076C130.664 79.1796 130.082 78.702 129.427 78.1523C128.773 77.6027 128.119 77.1839 128.184 77.0989C128.731 77.2223 129.234 77.494 129.637 77.8841C130.343 78.4533 130.801 79.0487 130.736 79.1076Z" fill="#FF9C87"/>
<path d="M134.532 84.42C134.447 84.4658 133.995 83.8835 133.524 83.1114C133.184 82.6714 132.939 82.1657 132.804 81.6261C132.883 81.5737 133.334 82.1561 133.812 82.9347C134.148 83.3769 134.393 83.8819 134.532 84.42Z" fill="#FF9C87"/>
<path d="M137.939 89.9954C137.867 90.0543 137.403 89.4851 136.905 88.7195C136.558 88.289 136.302 87.7926 136.153 87.2604C136.238 87.208 136.696 87.7838 137.187 88.5363C137.533 88.9672 137.789 89.4635 137.939 89.9954Z" fill="#FF9C87"/>
<path d="M142.789 94.3006C142.789 94.3399 142.586 94.3006 142.311 94.1698C141.949 94.0204 141.605 93.8317 141.284 93.6071C140.531 93.0836 140.041 92.5078 140.106 92.4424C140.6 92.6767 141.062 92.9735 141.48 93.3257C141.84 93.5874 142.187 93.7903 142.429 93.98C142.671 94.1698 142.808 94.2548 142.789 94.3006Z" fill="#FF9C87"/>
<path d="M149.193 95.38C148.122 95.7137 146.969 95.6769 145.921 95.2753C146.464 95.2012 147.014 95.2012 147.557 95.2753C148.105 95.2288 148.656 95.2641 149.193 95.38Z" fill="#FF9C87"/>
<path d="M155.326 93.3457C154.951 93.7611 154.479 94.0761 153.952 94.2618C153.466 94.5446 152.917 94.6979 152.355 94.7067C152.799 94.3857 153.289 94.1322 153.808 93.9542C154.279 93.6738 154.791 93.4685 155.326 93.3457Z" fill="#FF9C87"/>
<path d="M160.102 88.9291C159.913 89.4535 159.601 89.9249 159.192 90.3032C158.584 90.9902 157.982 91.4286 157.923 91.3632C157.864 91.2977 158.342 90.7481 158.937 90.0545C159.533 89.361 160.023 88.8702 160.102 88.9291Z" fill="#FF9C87"/>
<path d="M163.209 83.178C163.183 83.7362 163.022 84.2797 162.738 84.7614C162.359 85.5924 161.94 86.2009 161.855 86.1551C162.16 85.1025 162.616 84.0996 163.209 83.178Z" fill="#FF9C87"/>
<path d="M164.78 76.8567C164.895 77.403 164.875 77.9689 164.721 78.5056C164.674 79.0601 164.497 79.5958 164.205 80.0694C164.168 79.5219 164.23 78.9723 164.388 78.4467C164.434 77.8994 164.567 77.3628 164.78 76.8567Z" fill="#FF9C87"/>
<path d="M163.752 70.4832C164.156 70.8798 164.431 71.3879 164.544 71.9423C164.764 72.4625 164.829 73.0347 164.734 73.5912C164.51 73.0997 164.346 72.5836 164.243 72.0535C164.023 71.5494 163.859 71.0228 163.752 70.4832Z" fill="#FF9C87"/>
<path d="M158.845 66.374C159.408 66.4069 159.951 66.5924 160.416 66.9106C161.22 67.362 161.724 67.9117 161.685 67.9771C161.176 67.7805 160.693 67.5235 160.245 67.2116C159.744 66.9953 159.273 66.7137 158.845 66.374Z" fill="#FF9C87"/>
<path d="M152.406 65.5107C153.483 65.2175 154.624 65.2586 155.677 65.6285C155.137 65.7236 154.585 65.7347 154.042 65.6612C153.492 65.6983 152.94 65.6475 152.406 65.5107Z" fill="#FF9C87"/>
<path d="M146.577 63.8292C146.675 63.79 146.956 64.4836 147.709 64.9023C148.461 65.3211 149.194 65.4192 149.175 65.5566C148.686 65.631 148.187 65.555 147.743 65.3388C147.299 65.1226 146.931 64.7764 146.688 64.3462C146.518 64.0386 146.505 63.8423 146.577 63.8292Z" fill="#FF9C87"/>
<path d="M149.972 58.928C149.972 58.9673 149.847 59.0916 149.599 59.2486C149.35 59.4057 148.99 59.5954 148.637 59.8571C147.91 60.3544 147.407 60.8713 147.328 60.8125C147.25 60.7536 147.675 60.1123 148.44 59.5758C148.764 59.351 149.116 59.1706 149.487 59.0392C149.769 58.928 149.952 58.8822 149.972 58.928Z" fill="#FF9C87"/>
<path d="M156.354 57.8488C155.268 57.9736 154.174 58.0152 153.082 57.9731C154.126 57.5589 155.281 57.5151 156.354 57.8488Z" fill="#FF9C87"/>
<path d="M162.562 59.8176C162.013 59.7461 161.483 59.573 160.998 59.3072C160.474 59.1389 159.982 58.887 159.539 58.5613C160.098 58.5731 160.646 58.7213 161.135 58.9931C161.665 59.1596 162.153 59.4411 162.562 59.8176Z" fill="#FF9C87"/>
<path d="M168.66 62.1278C168.105 62.1763 167.546 62.091 167.031 61.8792C166.491 61.7448 165.985 61.4997 165.545 61.1594C166.096 61.1847 166.636 61.3181 167.135 61.552C167.671 61.6615 168.186 61.8559 168.66 62.1278Z" fill="#FF9C87"/>
<path d="M174.973 61.0938C175.032 61.1657 174.457 61.6826 173.567 61.9836C173.054 62.2222 172.482 62.2997 171.924 62.2061C172.414 61.9712 172.927 61.7892 173.455 61.663C173.948 61.4382 174.455 61.248 174.973 61.0938Z" fill="#FF9C87"/>
<path d="M93.2371 71.4001C93.2698 71.4956 93.2918 71.5943 93.3025 71.6946C93.3418 71.9258 93.3876 72.2071 93.4399 72.5387L93.8849 75.6532C94.2644 78.3294 94.7748 81.9347 95.3375 85.926C95.9002 89.9174 96.3844 93.575 96.6919 96.2185C96.8489 97.5271 96.9602 98.6002 97.0322 99.3461C97.0322 99.6798 97.0845 99.9612 97.1041 100.197C97.1141 100.297 97.1141 100.398 97.1041 100.498C97.063 100.405 97.0386 100.305 97.0322 100.203L96.8948 99.3592C96.7835 98.574 96.633 97.5206 96.4563 96.2447C96.0768 93.5685 95.5665 89.9567 95.0038 85.9718C94.441 81.987 93.9569 78.3163 93.6428 75.6794C93.4923 74.3708 93.3745 73.2911 93.3025 72.5517C93.3025 72.2115 93.2502 71.9301 93.2306 71.7011C93.2155 71.6012 93.2177 71.4994 93.2371 71.4001Z" fill="#263238"/>
<path d="M111.388 22.0052L109.935 51.9796L122.766 53.1835L123.473 45.914C123.473 45.914 128.001 47.0329 129.362 42.8452C130.239 40.1691 131.017 19.2178 131.017 19.2178L111.388 22.0052Z" fill="#FFBE9D"/>
<path d="M132.118 22.7176C132.471 25.5247 128.551 27.1474 128.551 27.1474L127.864 33.7822C127.25 33.7371 126.633 33.7371 126.019 33.7822C126.353 30.6742 122.342 31.2761 121.936 33.4027C121.531 35.5292 123.899 36.8051 123.899 36.8051C122.296 39.2654 121.642 40.5675 119.365 42.8707C116.898 45.3702 115.576 45.573 113.031 45.488L110.231 45.3571C110.231 45.3571 109.229 42.9623 108.497 37.3024C108.15 34.5805 106.023 31.0144 106.625 26.5912C108.346 14.0217 120.366 15.35 120.366 15.35C126.608 15.5136 131.293 16.2072 132.118 22.7176Z" fill="#263238"/>
<path d="M128.726 26.938C130.19 26.4353 131.509 25.5823 132.567 24.4532C133.625 23.3241 134.392 21.9533 134.799 20.4602C135.175 19.3144 135.095 18.0678 134.576 16.9792C133.981 15.9454 132.58 15.3238 131.534 15.8996C131.533 15.0778 131.242 14.2826 130.712 13.6547C130.182 13.0268 129.447 12.6067 128.637 12.4688C127.827 12.3309 126.994 12.4841 126.286 12.9012C125.578 13.3183 125.04 13.9725 124.768 14.748C124.36 14.2503 123.81 13.8902 123.19 13.7169C122.571 13.5436 121.913 13.5655 121.307 13.7796C120.702 14.0046 120.154 14.3598 119.702 14.82C119.249 15.2802 118.904 15.8342 118.689 16.4427C118.271 17.662 118.163 18.9663 118.375 20.2377" fill="#263238"/>
<path d="M107.972 32.4086C105.688 30.1512 104.981 27.8284 105.237 24.6026C104.2 22.8122 103.628 20.7907 103.573 18.7225C103.518 16.6544 103.982 14.6054 104.922 12.7624C105.862 10.9194 107.248 9.34109 108.955 8.17138C110.661 7.00166 112.634 6.27778 114.692 6.06575C115.787 5.89238 116.91 6.06387 117.904 6.55649C118.391 6.81542 118.78 7.22709 119.01 7.72828C119.241 8.22946 119.301 8.79245 119.18 9.3308C118.846 10.3777 117.315 10.9208 116.563 10.1225C119.069 11.6144 121.621 13.1455 123.499 15.3571C125.377 17.5687 126.489 20.6832 125.619 23.4641C124.912 25.7411 123.001 27.4489 121.097 28.8557C117.302 31.6169 112.48 33.7369 107.978 32.389" fill="#FF9C87"/>
<path d="M122.132 13.6687C122.14 13.9699 122.112 14.271 122.047 14.5651C121.909 15.3727 121.69 16.1642 121.392 16.9272C120.407 19.4791 118.644 21.6565 116.353 23.1513C114.062 24.6461 111.359 25.3827 108.626 25.2567C107.808 25.2251 106.994 25.1089 106.199 24.9099C105.902 24.8532 105.614 24.7586 105.342 24.6286C106.421 24.8393 107.515 24.9683 108.613 25.0146C111.287 25.0761 113.917 24.328 116.157 22.8684C118.398 21.4088 120.145 19.3059 121.17 16.8356C121.572 15.8065 121.894 14.7477 122.132 13.6687Z" fill="#263238"/>
<path d="M113.606 32.5855C113.144 32.5424 112.697 32.3972 112.297 32.1602C111.286 31.6369 110.438 30.8473 109.844 29.8766C109.248 28.8906 108.942 27.7568 108.96 26.605C108.933 26.135 109.014 25.665 109.196 25.231C109.255 25.231 109.15 25.761 109.196 26.5985C109.259 27.6813 109.58 28.7334 110.131 29.6672C110.7 30.5889 111.484 31.359 112.415 31.9116C113.115 32.3761 113.619 32.5266 113.606 32.5855Z" fill="#263238"/>
<path d="M118.279 30.6226C117.868 30.5618 117.477 30.4097 117.134 30.1777C116.294 29.6531 115.581 28.9503 115.044 28.1192C114.507 27.2881 114.159 26.349 114.026 25.3684C113.938 24.9697 113.938 24.5567 114.026 24.158C114.122 24.5435 114.194 24.9347 114.241 25.3292C114.628 27.2016 115.702 28.8613 117.251 29.9814C117.607 30.1725 117.951 30.3867 118.279 30.6226Z" fill="#263238"/>
<path d="M123.08 27.449C122.44 26.3306 121.718 25.2611 120.921 24.2494C120.037 23.3063 119.083 22.4313 118.068 21.6321C119.288 22.1491 120.358 22.9634 121.182 24.0007C122.091 24.9751 122.743 26.16 123.08 27.449Z" fill="#263238"/>
<path d="M125.861 22.4756C125.75 22.5279 125.265 20.9314 123.898 19.5311C122.53 18.1309 120.849 17.8365 120.894 17.7187C121.256 17.7066 121.615 17.7736 121.948 17.915C122.774 18.2021 123.524 18.6743 124.14 19.2956C124.747 19.9168 125.231 20.6472 125.566 21.4483C125.736 21.7662 125.836 22.1163 125.861 22.4756Z" fill="#263238"/>
<g opacity="0.2">
<path opacity="0.2" d="M104.7 23.6344C106.244 24.112 107.971 23.6344 109.332 22.8034C110.693 21.9724 111.95 20.8797 113.258 19.9833C113.714 19.6478 114.232 19.4074 114.783 19.2766C115.057 19.2124 115.343 19.2138 115.617 19.2809C115.891 19.348 116.146 19.4788 116.36 19.6627C116.569 19.8904 116.714 20.1702 116.778 20.4729C116.843 20.7757 116.825 21.0902 116.726 21.3835C116.521 21.9694 116.156 22.4862 115.673 22.8754C113.67 24.6224 110.818 24.9234 108.168 24.9888C107.563 25.0334 106.955 24.9782 106.368 24.8252C106.075 24.7464 105.805 24.6008 105.578 24.3998C105.351 24.1989 105.173 23.9481 105.06 23.6671" fill="black"/>
</g>
<path d="M117.178 15.6653C117.118 15.8645 117.03 16.0541 116.916 16.228C116.726 16.5748 116.439 17.0786 116.053 17.6806C115.079 19.2806 113.855 20.7143 112.428 21.9271C110.974 23.1407 109.198 23.9047 107.317 24.1256C106.751 24.1868 106.178 24.1692 105.616 24.0733C105.408 24.0581 105.204 24.0049 105.014 23.9163C105.772 23.9766 106.533 23.9766 107.291 23.9163C109.104 23.6264 110.804 22.8508 112.212 21.6719C113.61 20.4771 114.837 19.0943 115.856 17.5628C116.262 16.9065 116.703 16.2731 117.178 15.6653Z" fill="#263238"/>
<path d="M114.187 19.4335C114.073 20.1905 114.113 20.9628 114.305 21.704C114.591 22.4149 115.021 23.0588 115.568 23.595C115.568 23.6342 115.28 23.5426 114.914 23.2547C114.476 22.8645 114.148 22.3656 113.964 21.8085C113.781 21.2513 113.747 20.6556 113.867 20.0813C113.991 19.6494 114.155 19.4139 114.187 19.4335Z" fill="#263238"/>
<path d="M118.833 8.36813C118.833 8.36813 118.591 8.2111 118.133 8.00171C117.483 7.71593 116.773 7.59673 116.065 7.65492C115.013 7.73577 114.013 8.14551 113.206 8.82616C112.242 9.68715 111.523 10.7892 111.125 12.0192C110.687 13.2369 110.487 14.5276 110.536 15.8208C110.567 16.8739 110.952 17.8859 111.629 18.6933C112.091 19.232 112.701 19.6233 113.383 19.8187C113.867 19.943 114.155 19.9234 114.155 19.9561C114.155 19.9888 114.089 19.9561 113.952 19.9888C113.75 20.0018 113.548 19.9886 113.35 19.9496C112.619 19.7921 111.956 19.4101 111.452 18.8569C110.706 18.0262 110.272 16.9624 110.222 15.847C110.152 14.5126 110.35 13.1777 110.805 11.9211C111.223 10.6274 111.988 9.47321 113.016 8.58406C113.874 7.87869 114.936 7.46805 116.046 7.41282C116.791 7.37046 117.533 7.53342 118.192 7.88394C118.368 7.97502 118.533 8.08706 118.683 8.21764C118.787 8.30924 118.84 8.36159 118.833 8.36813Z" fill="#263238"/>
<path d="M110.17 23.1366C110.079 23.1497 109.987 23.1497 109.896 23.1366C109.632 23.0978 109.373 23.032 109.123 22.9403C108.196 22.5893 107.382 21.9921 106.768 21.2129C105.862 20.0286 105.366 18.5818 105.355 17.0907C105.297 15.2915 105.739 13.5115 106.63 11.9478C107.415 10.5113 108.542 9.29079 109.912 8.39473C111.282 7.49868 112.852 6.95478 114.482 6.81136C115.456 6.71023 116.44 6.75655 117.401 6.94877C117.734 7.02729 117.996 7.09272 118.166 7.15161C118.256 7.17487 118.341 7.21009 118.421 7.2563C117.132 6.9796 115.807 6.90893 114.495 7.04692C112.925 7.23058 111.421 7.78576 110.108 8.66647C108.795 9.54719 107.71 10.7281 106.945 12.1113C106.069 13.6231 105.622 15.3442 105.649 17.0907C105.659 18.5049 106.117 19.8795 106.958 21.0166C107.532 21.7814 108.294 22.3853 109.169 22.7702C109.797 23.0647 110.177 23.0974 110.17 23.1366Z" fill="#263238"/>
<path d="M121.202 17.4835C121.218 16.7347 121.037 15.9949 120.679 15.3373C120.265 14.6441 119.691 14.0606 119.004 13.6361C118.148 13.1235 117.228 12.7253 116.269 12.4518C115.742 12.2934 115.255 12.0234 114.842 11.6601C114.64 11.4813 114.484 11.2567 114.386 11.0052C114.288 10.7537 114.252 10.4824 114.28 10.214C114.325 9.97597 114.418 9.74973 114.555 9.54937C114.691 9.34901 114.867 9.1788 115.071 9.04933C115.413 8.82064 115.812 8.69151 116.223 8.67636C116.794 8.66206 117.362 8.76448 117.892 8.97735C118.086 9.03795 118.271 9.12609 118.441 9.23908C118.236 9.2272 118.033 9.18531 117.839 9.11476C117.317 8.96237 116.773 8.89824 116.23 8.925C115.866 8.95649 115.518 9.08533 115.222 9.29797C115.052 9.40527 114.906 9.54676 114.793 9.71346C114.68 9.88015 114.604 10.0684 114.568 10.2664C114.55 10.4854 114.584 10.7055 114.667 10.909C114.75 11.1125 114.879 11.2935 115.045 11.4376C115.426 11.7622 115.873 12.0009 116.354 12.1377C117.338 12.4236 118.279 12.8441 119.148 13.3875C119.87 13.8459 120.461 14.4839 120.862 15.2392C121.135 15.7436 121.276 16.3082 121.274 16.8815C121.294 17.085 121.269 17.2903 121.202 17.4835Z" fill="#263238"/>
<path d="M175.549 75.1353L178.33 73.9379C180.757 72.6293 182.158 71.9749 182.583 71.0262C183.152 69.7175 181.477 69.3838 181.477 69.3838C181.477 69.3838 183.048 67.9901 182.413 66.9432C182.265 66.7455 182.061 66.5976 181.827 66.5193C181.593 66.4409 181.341 66.4359 181.104 66.5048C181.104 66.5048 182.452 65.1962 182.491 64.3914C182.544 63.2856 181.183 63.279 181.183 63.279C182.819 60.9955 182.053 59.7326 181.49 59.8111C180.928 59.8897 179.527 61.4011 179.527 61.4011C178.251 62.4284 174.79 65.2943 175.346 62.4939C175.902 59.6934 175.268 57.3313 174.653 56.8078C174.038 56.2844 173.089 56.9583 173.298 57.8155C173.432 58.7705 173.432 59.7395 173.298 60.6945C173.221 61.4664 173.011 62.2191 172.677 62.9192C172.284 63.7371 171.924 64.411 171.597 64.9803L170.131 68.4089L175.549 75.1353Z" fill="#FFBE9D"/>
<path d="M122.518 67.8469L142.422 95.0863C143.137 96.0672 144.05 96.8867 145.102 97.4914C146.154 98.096 147.322 98.4723 148.53 98.5958C149.737 98.7192 150.957 98.5871 152.11 98.2079C153.262 97.8287 154.322 97.2109 155.221 96.3949L177.33 76.2353L169.308 66.571L150.765 80.8614L137.162 58.3135C136.507 57.3693 135.672 56.5635 134.705 55.9422C133.738 55.3209 132.659 54.8963 131.528 54.6927C130.397 54.4891 129.237 54.5105 128.114 54.7557C126.991 55.0009 125.928 55.465 124.985 56.1215C123.156 57.3931 121.882 59.3152 121.424 61.4946C120.965 63.6741 121.357 65.9464 122.518 67.8469Z" fill="#FF9C87"/>
<path d="M125.678 72.2239C125.843 72.3949 125.986 72.5862 126.104 72.7931L127.164 74.3962C128.053 75.7572 129.303 77.622 130.736 79.6308C132.169 81.6395 133.524 83.4389 134.512 84.7279L135.683 86.259C135.84 86.4351 135.975 86.6309 136.082 86.8414C135.893 86.6953 135.724 86.526 135.578 86.3376C135.277 86.0038 134.845 85.5066 134.328 84.8784C133.288 83.6287 131.901 81.8555 130.461 79.8271C129.022 77.7987 127.798 75.9012 126.954 74.5205C126.535 73.827 126.202 73.2577 125.986 72.852C125.859 72.6556 125.755 72.4447 125.678 72.2239Z" fill="#455A64"/>
<path d="M86.981 77.8835C86.981 77.8835 83.4738 93.1292 83.428 95.151C83.3691 97.8076 86.7454 102.388 89.8469 103.003C94.8001 103.997 99.6159 99.6658 99.6159 99.6658L100.211 79.2184L86.981 77.8835Z" fill="#FF9C87"/>
<path d="M86.6147 79.4869C86.6147 79.4869 89.5134 56.3567 100.414 53.4646C111.315 50.5725 109.935 51.9793 109.935 51.9793L119.095 53.0589C123.549 53.5863 127.69 55.614 130.838 58.8082C133.986 62.0025 135.953 66.1731 136.415 70.6339L136.107 91.1861C136.107 91.1861 138.424 105.941 138.424 106.89C138.424 112.87 136.107 119.322 136.107 119.322L96.9268 121.075C96.9268 121.075 94.4077 120.172 93.2234 116.456C92.0391 112.739 97.1035 100.19 97.1035 100.19L86.6147 79.4869Z" fill="#FF9C87"/>
<g opacity="0.2">
<path opacity="0.2" d="M126.823 73.8208C127.409 82.2618 129.096 90.5898 131.842 98.5933C132.33 100.179 133.009 101.699 133.864 103.121C134.315 103.808 135.002 104.521 135.827 104.391C136.115 104.32 136.379 104.171 136.588 103.959C136.797 103.748 136.943 103.483 137.011 103.193C137.137 102.61 137.153 102.009 137.057 101.42C136.533 96.2247 136.618 92.0436 136.095 86.8483" fill="black"/>
</g>
<path d="M114.286 71.8382C114.201 70.7586 118.14 53.2751 118.14 53.2751L125.763 54.8324L121.104 73.0291L114.286 71.8382Z" fill="#263238"/>
<path d="M121.058 107.675C126.757 107.164 134.053 93.7509 136.297 86.0823C137.913 97.86 130.552 109.638 122.027 116.181" fill="#263238"/>
<path d="M78.8416 83.0334H75.1381C74.9484 84.7085 75.7401 86.4555 75.2167 88.0652C74.9837 88.7674 74.6438 89.4295 74.209 90.0281C73.4565 91.075 73.4696 98.7567 74.1174 101.4H78.5275L78.8416 83.0334Z" fill="#FF9C87"/>
<path d="M130.873 68.3768H70.1063C67.7639 61.7485 66.8675 55.3754 70.1063 49.7483H130.873C135.506 55.7288 134.308 61.9972 130.873 68.3768Z" fill="#455A64"/>
<path d="M92.9226 130.164C84.1678 131.008 82.0085 128.463 79.8362 124.53C77.6639 120.598 77.7424 115.841 77.8732 111.339C78.135 103.535 78.3989 95.7249 78.665 87.908C78.8416 82.7127 78.3771 77.1117 81.0467 72.6558C83.7163 68.1999 87.7993 66.7211 94.048 67.0941L109.065 67.4932C116.871 67.696 123.093 70.6078 122.877 79.4084L123.093 119.623C123.094 122.267 122.06 124.807 120.212 126.698C118.365 128.59 115.85 129.684 113.206 129.745L92.9226 130.164Z" fill="#263238"/>
<path d="M91.1301 49.2571H88.5259V68.8736H91.1301V49.2571Z" fill="#263238"/>
<path d="M112.336 49.2046H109.732V68.8211H112.336V49.2046Z" fill="#263238"/>
<path d="M119.993 71.8384C120.002 71.8948 120.002 71.9521 119.993 72.0085C119.993 72.1394 119.993 72.2964 119.993 72.4992C119.954 72.9311 119.934 73.5658 119.797 74.3771C119.498 76.6835 118.924 78.946 118.089 81.1166C117.508 82.6148 116.789 84.0561 115.943 85.422C114.986 87.0059 113.805 88.4429 112.436 89.6882L111.245 90.6435C110.839 90.9445 110.407 91.2062 109.982 91.4876C109.76 91.6185 109.557 91.782 109.328 91.8933L108.628 92.2335C108.163 92.4929 107.677 92.7118 107.175 92.8878L105.644 93.3917C105.121 93.5094 104.577 93.5945 104.034 93.6927C103.766 93.7385 103.498 93.8104 103.223 93.8301L102.386 93.8693C101.829 93.8693 101.273 93.9478 100.71 93.9347C98.5198 93.8958 96.3396 93.6238 94.2065 93.1234C92.2153 92.6496 90.3056 91.8822 88.5401 90.8464C86.942 89.9046 85.5204 88.6912 84.3394 87.2607L83.5542 86.2399C83.3121 85.8997 83.1224 85.5333 82.8999 85.193C82.4989 84.5322 82.1553 83.8383 81.8726 83.1188C81.0296 80.9474 80.5435 78.6538 80.4331 76.327C80.4331 75.5026 80.4331 74.8679 80.4331 74.436C80.4331 74.2332 80.4331 74.0762 80.4331 73.9453C80.4233 73.889 80.4233 73.8315 80.4331 73.7752C80.4413 73.8316 80.4413 73.8889 80.4331 73.9453V74.436C80.4331 74.8941 80.4527 75.5222 80.492 76.3205C80.6528 78.6217 81.1693 80.8842 82.0231 83.0272C82.3103 83.73 82.6538 84.4083 83.0504 85.0556C83.2663 85.3959 83.4561 85.7558 83.7047 86.0895L84.4833 87.0775C85.6503 88.4766 87.0546 89.6594 88.6317 90.5715C90.3724 91.5855 92.2531 92.3373 94.2131 92.8028C96.3236 93.2902 98.4793 93.5556 100.645 93.5945C101.201 93.5945 101.744 93.5487 102.294 93.5291L103.112 93.4898C103.38 93.4898 103.648 93.4047 103.91 93.3589C104.44 93.2608 104.97 93.1823 105.487 93.0645L106.992 92.5738C107.482 92.4109 107.958 92.2051 108.412 91.9587L109.099 91.6315C109.324 91.5125 109.542 91.3815 109.753 91.239C110.172 90.9576 110.597 90.7024 110.996 90.4145L112.115 89.4788C113.465 88.2539 114.636 86.8467 115.596 85.2977C116.439 83.9506 117.162 82.5318 117.756 81.0577C118.604 78.9075 119.207 76.6688 119.555 74.3837C119.705 73.5789 119.751 72.9442 119.81 72.5189C119.81 72.3226 119.856 72.159 119.875 72.0347C119.9 71.9615 119.94 71.8946 119.993 71.8384Z" fill="#455A64"/>
<path d="M103.006 86.6001H93.6035V89.2239H103.006V86.6001Z" fill="#FF9C87"/>
<path d="M109.548 79.2251H107.893V117.189H109.548V79.2251Z" fill="#455A64"/>
<path d="M111.035 110.594H106.782V111.595H111.035V110.594Z" fill="#455A64"/>
<path d="M88.4855 79.2251H86.8301V116.822H88.4855V79.2251Z" fill="#455A64"/>
<path d="M89.9718 110.227H85.7188V111.228H89.9718V110.227Z" fill="#455A64"/>
<path d="M119.096 77.2886C119.102 77.3604 119.102 77.4326 119.096 77.5045C119.096 77.6681 119.096 77.8775 119.05 78.1588C119.004 78.7412 118.939 79.5591 118.854 80.606C118.683 82.726 118.454 85.7947 118.271 89.5898C118.088 93.3848 117.964 97.9193 117.983 102.944C117.983 105.464 118.049 108.1 118.153 110.836C118.199 112.197 118.278 113.597 118.199 115.023C118.151 116.481 117.83 117.917 117.25 119.257C116.678 120.633 115.668 121.782 114.378 122.528C113.109 123.16 111.724 123.527 110.308 123.608C107.567 123.824 104.93 123.922 102.411 123.974C97.3723 124.066 92.8378 123.915 89.0362 123.699C87.1387 123.575 85.4178 123.503 83.9129 123.274C82.6122 123.12 81.3601 122.687 80.2422 122.005C79.5418 121.567 78.9474 120.979 78.5017 120.284C78.3442 120.042 78.2209 119.78 78.1353 119.505C78.1353 119.505 78.253 119.78 78.554 120.245C79.0207 120.91 79.62 121.471 80.3141 121.894C81.4249 122.543 82.6601 122.951 83.9391 123.091C85.4244 123.294 87.1518 123.346 89.0493 123.457C92.8444 123.647 97.3788 123.771 102.404 123.66C104.91 123.601 107.553 123.49 110.256 123.274C111.621 123.196 112.957 122.842 114.182 122.234C115.4 121.525 116.357 120.442 116.91 119.145C117.47 117.845 117.78 116.451 117.826 115.036C117.905 113.636 117.826 112.249 117.787 110.875C117.689 108.14 117.643 105.496 117.637 102.984C117.637 97.9454 117.787 93.411 117.996 89.616C118.206 85.8209 118.481 82.7391 118.69 80.6256C118.788 79.5656 118.886 78.7412 118.952 78.185L119.03 77.5307C119.041 77.4474 119.063 77.366 119.096 77.2886Z" fill="#455A64"/>
<path d="M121.058 126.591C120.676 125.275 120.124 124.015 119.416 122.842C118.608 121.736 117.663 120.738 116.602 119.872C116.993 120.004 117.353 120.213 117.662 120.487C118.459 121.09 119.147 121.825 119.697 122.659C120.249 123.488 120.658 124.404 120.907 125.368C121.035 125.762 121.086 126.178 121.058 126.591Z" fill="#455A64"/>
<path d="M105.669 102.153C105.681 102.292 105.681 102.432 105.669 102.572C105.669 102.892 105.669 103.311 105.708 103.828C105.738 104.497 105.727 105.168 105.675 105.837C105.584 106.724 105.324 107.586 104.91 108.375C104.376 109.415 103.603 110.313 102.654 110.996C101.705 111.678 100.608 112.126 99.4525 112.301C98.084 112.512 96.6838 112.338 95.4088 111.797C94.7433 111.503 94.1205 111.12 93.5571 110.659C92.9835 110.172 92.4852 109.603 92.0784 108.971C91.4102 107.941 91.0119 106.76 90.9202 105.536C90.8613 104.351 90.9202 103.245 90.9202 102.166V102.009H91.0838L101.618 102.087L104.622 102.127H105.413C105.498 102.117 105.584 102.117 105.669 102.127H105.374H104.55L101.514 102.172L91.0838 102.251L91.2474 102.087C91.2474 103.16 91.2474 104.299 91.2801 105.431C91.3746 106.596 91.7544 107.719 92.3859 108.702C92.7748 109.306 93.2511 109.848 93.7992 110.312C94.3375 110.752 94.9315 111.12 95.5659 111.405C96.7881 111.951 98.1387 112.146 99.4656 111.968C100.655 111.801 101.781 111.332 102.737 110.607C103.579 109.98 104.271 109.176 104.766 108.251C105.176 107.491 105.443 106.661 105.551 105.804C105.616 105.152 105.647 104.496 105.642 103.841C105.642 103.324 105.675 102.912 105.682 102.585C105.688 102.257 105.662 102.153 105.669 102.153Z" fill="#455A64"/>
<path d="M78.4291 95.708H72.501C72.501 95.708 73.0899 111.137 77.8991 111.34L78.4291 95.708Z" fill="#455A64"/>
<path d="M78.8418 84.6428C77.6376 84.8704 76.4015 84.8704 75.1973 84.6428C76.4015 84.4153 77.6376 84.4153 78.8418 84.6428Z" fill="#263238"/>
<path d="M88.4932 130.288H88.6502H89.1082L90.888 130.21L97.4312 129.987L107.122 129.699L112.847 129.542C113.835 129.503 114.869 129.542 115.857 129.431C116.873 129.318 117.861 129.026 118.775 128.567C119.689 128.112 120.508 127.489 121.19 126.729C121.866 126.007 122.35 125.128 122.596 124.17C122.965 122.31 123.108 120.412 123.022 118.517C123.022 114.872 123.022 111.588 123.022 108.82C123.022 106.052 123.061 103.854 123.074 102.277C123.074 101.524 123.074 100.935 123.107 100.497C123.107 100.314 123.107 100.163 123.107 100.039C123.107 99.9146 123.107 99.8818 123.107 99.8818C123.115 99.9338 123.115 99.9869 123.107 100.039C123.107 100.163 123.107 100.314 123.107 100.497C123.107 100.935 123.107 101.524 123.139 102.277C123.139 103.847 123.172 106.078 123.192 108.82C123.211 111.561 123.192 114.872 123.231 118.517C123.324 120.44 123.184 122.366 122.812 124.255C122.558 125.264 122.051 126.192 121.34 126.951C120.632 127.746 119.78 128.399 118.827 128.875C117.876 129.348 116.848 129.65 115.791 129.765C114.744 129.863 113.75 129.837 112.755 129.876L107.03 130.013L97.333 130.229L90.7898 130.347H89.0166H88.5521C88.5305 130.329 88.5108 130.31 88.4932 130.288Z" fill="#455A64"/>
</svg>
