<svg width="244" height="254" viewBox="0 0 244 254" fill="none" xmlns="http://www.w3.org/2000/svg">
<path d="M41.1613 254C-1.89781 225.644 38.7395 207.304 16.0575 158.592C-14.0721 93.8814 -8.65844 12.0833 92.377 12C158.888 11.945 215.16 60.0911 226.631 116.987C243.774 201.993 214.385 254 214.385 254H41.1613Z" fill="#E73A40"/>
<path d="M80.7889 208.557C79.0187 215.452 77.3737 222.339 77.3737 222.339C85.5948 224.868 86.7351 219.624 86.2285 218.354C86.8508 215.52 89.3268 211.276 89.3268 211.276C80.4739 210.775 80.7889 208.557 80.7889 208.557Z" fill="#FF7446"/>
<path d="M33.1809 202.019L25.1476 206.434L28.3882 213.687L38.1026 210.498C36.8959 204.95 33.1809 202.019 33.1809 202.019Z" fill="#FF7446"/>
<path d="M77.8594 220.169C77.8594 220.169 76.5919 221.941 76.2637 224.935C75.9355 227.929 76.776 230.741 76.776 230.741C76.776 230.741 91.2791 231.557 96.9578 230.502C102.637 229.447 103.141 228.455 103.001 226.846C102.86 225.237 95.1516 225.719 92.8463 223.787C90.5411 221.856 87.3289 217.716 85.9647 218.386C84.6006 219.055 84.8681 221.645 83.0258 221.801C81.1835 221.956 78.6809 219.186 77.8594 220.169Z" fill="#09434C"/>
<path d="M28.3902 204.322C28.3902 204.322 26.3506 203.563 23.3718 204.015C20.393 204.466 17.898 206.014 17.898 206.014C17.898 206.014 20.8654 220.244 23.3547 225.447C25.844 230.649 26.9331 230.89 28.4509 230.336C29.9688 229.782 27.5023 222.464 28.7735 219.738C30.0447 217.011 33.2151 212.833 32.2096 211.691C31.204 210.549 28.7792 211.477 28.1436 209.737C27.508 207.997 29.5514 204.863 28.3902 204.322Z" fill="#09434C"/>
<path d="M55.9299 126.263C55.9299 126.263 62.3637 170.155 62.3637 175.593C62.3637 181.031 30.5247 200.243 30.5247 200.243C30.5247 200.243 33.3403 211.595 38.1026 213.682C39.7646 214.41 76.18 190.254 78.1533 185.672C80.4149 180.416 86.6172 143.196 86.6172 143.196C86.6172 143.196 100.534 164.124 99.9232 168.431C98.965 175.202 78.1533 211.517 78.1533 211.517C78.1533 211.517 80.9992 217.805 91.0911 213.462C91.0911 213.462 119.431 178.524 123.002 173.91C131.453 162.993 93.1194 114.006 93.1194 114.006L55.9299 126.263Z" fill="#575757"/>
<path opacity="0.32" d="M106.469 167.353C106.469 160.052 87.9645 134.518 87.9645 134.518L86.6174 143.202C86.6174 143.202 100.534 164.129 99.9233 168.436C98.9652 175.208 78.1534 211.522 78.1534 211.522C78.1534 211.522 78.8004 212.955 80.5725 213.989C90.7611 203.683 106.469 173.95 106.469 167.353Z" fill="#0D5965"/>
<g opacity="0.5">
<path opacity="0.5" d="M73.7476 128.571C73.4728 125.966 73.0292 123.382 72.4194 120.835L55.9374 126.262C55.9374 126.262 56.795 132.117 57.884 139.816C61.248 141.605 64.5038 142.784 66.3499 142.418C69.5507 141.782 73.7684 136.915 73.7684 128.567C73.7609 128.569 73.7514 128.569 73.7476 128.571Z" fill="#0D5965"/>
</g>
<path d="M72.0666 122.464C69.9302 101.388 47.1396 58.8787 39.2429 44.6602C35.5165 44.9201 32.2228 46.159 30.3691 49.1416C24.0187 59.3474 31.7295 102.66 38.7591 115.358C41.0543 119.526 43.984 123.312 47.4431 126.579C51.5831 130.472 61.2177 136.013 64.9327 135.307C68.0158 134.719 72.078 130.213 72.078 122.462C72.078 122.462 72.0704 122.462 72.0666 122.464Z" fill="#2D2D2D"/>
<path d="M98.8455 117.628C98.7583 117.472 66.7902 52.1095 59.8365 49.1345C59.6999 49.0738 59.328 48.9182 59.1212 48.8347C54.2641 46.8501 47.889 44.9964 42.6942 44.6606C41.5429 44.5748 40.3871 44.571 39.2353 44.6492C47.1396 58.8678 69.9303 101.379 72.0591 122.453C80.174 118.499 90.04 115.264 98.8455 117.628Z" fill="white"/>
<g opacity="0.5">
<path opacity="0.5" d="M58.4723 82.4204C63.466 93.3376 68.0101 104.6 70.4254 113.853C86.0176 116.356 90.0476 114.899 96.6996 113.284C93.4571 106.763 91.1385 102.234 90.2487 100.473L58.4723 82.4204Z" fill="#531C2E"/>
</g>
<path d="M59.4515 112.886C61.8061 113.455 65.7848 113.749 70.42 113.853C68.0104 104.6 63.4663 93.3374 58.4668 82.4202L28.0318 65.1299C28.0318 65.2077 28.0413 65.2836 28.047 65.3595C28.8681 78.4622 34.3653 90.8348 43.5386 100.227C49.7448 106.594 55.877 112.009 59.4515 112.886Z" fill="#822344"/>
<path d="M134.297 75.1885C133.829 70.1928 130.288 58.9322 128.863 55.8604C127.438 52.7886 132.546 35.9385 132.546 35.9385L68.0862 40.6325C68.0862 40.6325 70.5717 50.5555 68.0862 52.7905C59.7493 60.2793 65.9403 58.5926 64.8987 63.8842C64.3484 66.6828 59.9656 70.3066 59.7512 73.09C59.6658 74.1601 62.3107 75.7899 62.305 76.7746C62.2879 79.7326 64.7279 85.8818 65.7069 87.2441H133.631C133.631 87.2441 134.578 78.1919 134.297 75.1885Z" fill="#3F19FF"/>
<path d="M131.195 38.0245C131.195 38.0245 92.9789 52.7212 78.4074 48.8525C63.836 44.9839 64.999 32.9966 79.9613 25.0676C94.9237 17.1387 140.981 28.2912 131.195 38.0245Z" fill="#DB8A00"/>
<path d="M111.017 28.0775V15.9023H114.902V28.087C114.902 29.5005 115.661 30.8153 116.895 31.6919C118.348 32.724 119.28 34.3178 119.28 36.107V59.8236H106.64V36.107C106.64 34.3178 107.571 32.724 109.026 31.6919C110.265 30.8058 111.017 29.491 111.017 28.0775Z" fill="#822344"/>
<path opacity="0.57" d="M90.1159 25.9959C89.949 25.9692 89.7948 25.8907 89.675 25.7715C89.5551 25.6524 89.4758 25.4986 89.4481 25.3318L89.2052 23.8975L84.4904 24.7076L84.7313 26.1306C84.7602 26.297 84.736 26.4683 84.6621 26.6202C84.5882 26.7721 84.4684 26.8968 84.3196 26.9768C83.3446 27.4909 82.5566 28.2994 82.0678 29.2873C81.579 30.2752 81.4142 31.3921 81.5969 32.4791L87.0688 64.8C87.3009 66.1687 88.0671 67.3891 89.1989 68.1929C90.3308 68.9967 91.7355 69.318 93.1042 69.0861L95.6846 68.6497C96.3624 68.535 97.0109 68.2879 97.5932 67.9225C98.1755 67.5571 98.6801 67.0805 99.0781 66.52C99.4761 65.9596 99.7598 65.3261 99.913 64.656C100.066 63.9858 100.086 63.292 99.9706 62.6143L94.4968 30.299C94.3127 29.2119 93.79 28.2106 93.0033 27.4379C92.2167 26.6652 91.2062 26.1606 90.1159 25.9959Z" fill="#97F0FF"/>
<path opacity="0.57" d="M88.0725 26.6815C87.9056 26.6552 87.7514 26.5768 87.6317 26.4575C87.5121 26.3382 87.4333 26.1842 87.4065 26.0174L87.1087 24.251L84.4904 24.7006L84.7313 26.1236C84.7602 26.2901 84.736 26.4613 84.6621 26.6132C84.5882 26.7651 84.4684 26.8899 84.3196 26.9698C83.3446 27.4839 82.5566 28.2925 82.0678 29.2804C81.579 30.2682 81.4142 31.3851 81.5969 32.4721L87.0688 64.793C87.3009 66.1617 88.0671 67.3821 89.1989 68.1859C90.3308 68.9897 91.7355 69.311 93.1042 69.0791L95.4038 68.6902C96.3234 68.1536 97.0577 67.3496 97.5088 66.3853C97.96 65.421 98.1066 64.342 97.9291 63.2923L92.4553 30.9846C92.2713 29.897 91.7484 28.8954 90.9614 28.1227C90.1743 27.3499 89.1632 26.8455 88.0725 26.6815Z" fill="white"/>
<path d="M85.1071 39.9241L78.8307 56.0153L70.6722 54.1009L70.8012 52.8733L72.4804 36.729L78.4285 38.2355L85.1071 39.9241Z" fill="#9B0A3A"/>
<path d="M84.9496 39.8628L78.7966 55.9502L70.6722 54.1003L78.8649 56.0811C79.5194 54.4343 84.6043 41.6482 85.2664 39.9861L84.9496 39.8628Z" fill="#44051D"/>
<path d="M70.8014 52.8739L72.4881 36.7314L78.4362 38.236C77.7096 43.761 75.761 53.0693 70.8014 52.8739Z" fill="#BF1657"/>
<path d="M85.185 37.4859L84.9838 38.3416L73.3248 35.6057L73.5259 34.75C73.5561 34.6222 73.6358 34.5116 73.7475 34.4426C73.8593 34.3735 73.9938 34.3517 74.1216 34.3819L84.8207 36.8902C84.9478 36.9212 85.0574 37.0013 85.1257 37.1129C85.194 37.2245 85.2153 37.3587 85.185 37.4859Z" fill="#F4E4A2"/>
<path d="M85.1848 37.4862L84.9837 38.3419L79.1456 36.972C79.1954 36.7865 79.2191 36.5949 79.2158 36.4028C79.2158 36.1467 78.5366 35.6799 77.7871 35.2397L84.8205 36.8904C84.9476 36.9215 85.0573 37.0015 85.1256 37.1132C85.1938 37.2248 85.2151 37.3589 85.1848 37.4862Z" fill="#EFBA50"/>
<path d="M85.64 40.2545L71.5011 36.938L72.7477 35.8394L72.8577 35.7427L85.2036 38.6399L85.64 40.2545Z" fill="#F4E4A2"/>
<path d="M85.6401 40.2545L81.8227 39.359C81.6329 38.2528 74.2049 36.2284 72.7459 35.8394L72.8578 35.7427L85.1999 38.6399L85.6401 40.2545Z" fill="#EFBA50"/>
<path d="M85.6545 40.2478L71.5161 36.9316L71.416 37.3583L85.5545 40.6745L85.6545 40.2478Z" fill="#F4C87A"/>
<path d="M72.9717 35.1295L85.3746 38.04C85.4149 38.0493 85.453 38.0666 85.4865 38.0908C85.5201 38.1151 85.5485 38.1458 85.57 38.1811C85.5916 38.2164 85.6059 38.2557 85.6121 38.2966C85.6182 38.3376 85.6162 38.3793 85.6061 38.4195C85.597 38.4599 85.5798 38.4981 85.5556 38.5318C85.5315 38.5655 85.5008 38.594 85.4654 38.6156C85.43 38.6372 85.3906 38.6515 85.3496 38.6575C85.3085 38.6636 85.2667 38.6614 85.2266 38.6509L72.8295 35.7366C72.7891 35.7273 72.7511 35.71 72.7175 35.6858C72.6839 35.6616 72.6556 35.6309 72.634 35.5955C72.6124 35.5602 72.5981 35.5209 72.592 35.48C72.5858 35.439 72.5878 35.3973 72.598 35.3572C72.6178 35.2776 72.6681 35.2091 72.7381 35.1665C72.808 35.1239 72.892 35.1106 72.9717 35.1295Z" fill="#F4E4A2"/>
<path d="M85.1071 39.9241L78.8307 56.0153L70.6722 54.1009L70.8012 52.8733L72.4804 36.729L78.4285 38.2355L85.1071 39.9241Z" fill="#FC7A22"/>
<path d="M84.9496 39.8628L78.7966 55.9502L70.6722 54.1003L78.8649 56.0811C79.5194 54.4343 84.6043 41.6482 85.2664 39.9861L84.9496 39.8628Z" fill="#44051D"/>
<path d="M73.7172 51.0941L75.3983 34.9497L81.3464 36.4543C80.6273 41.9793 78.6787 51.2895 73.7172 51.0941Z" fill="#FC8A3D"/>
<path d="M85.185 37.4859L84.9838 38.3416L73.3248 35.6057L73.5259 34.75C73.5561 34.6222 73.6358 34.5116 73.7475 34.4426C73.8593 34.3735 73.9938 34.3517 74.1216 34.3819L84.8207 36.8902C84.9478 36.9212 85.0574 37.0013 85.1257 37.1129C85.194 37.2245 85.2153 37.3587 85.185 37.4859Z" fill="#F4E4A2"/>
<path d="M85.64 40.2545L71.5011 36.938L72.7477 35.8394L72.8577 35.7427L85.2036 38.6399L85.64 40.2545Z" fill="#F4E4A2"/>
<path d="M85.6545 40.2478L71.5161 36.9316L71.416 37.3583L85.5545 40.6745L85.6545 40.2478Z" fill="#F4C87A"/>
<path d="M72.9717 35.1295L85.3746 38.04C85.4149 38.0493 85.453 38.0666 85.4865 38.0908C85.5201 38.1151 85.5485 38.1458 85.57 38.1811C85.5916 38.2164 85.6059 38.2557 85.6121 38.2966C85.6182 38.3376 85.6162 38.3793 85.6061 38.4195C85.597 38.4599 85.5798 38.4981 85.5556 38.5318C85.5315 38.5655 85.5008 38.594 85.4654 38.6156C85.43 38.6372 85.3906 38.6515 85.3496 38.6575C85.3085 38.6636 85.2667 38.6614 85.2266 38.6509L72.8295 35.7366C72.7891 35.7273 72.7511 35.71 72.7175 35.6858C72.6839 35.6616 72.6556 35.6309 72.634 35.5955C72.6124 35.5602 72.5981 35.5209 72.592 35.48C72.5858 35.439 72.5878 35.3973 72.598 35.3572C72.6178 35.2776 72.6681 35.2091 72.7381 35.1665C72.808 35.1239 72.892 35.1106 72.9717 35.1295Z" fill="#F4E4A2"/>
<path d="M103.528 42.0631C103.794 41.6058 104.128 41.1334 104.433 41.0176C104.791 40.9066 105.137 40.7618 105.467 40.5851C106.457 39.9797 107.306 39.169 107.957 38.2077C108.35 37.5976 108.606 36.9088 108.707 36.1895C108.807 35.4702 108.749 34.7377 108.537 34.0431C108.408 33.6023 108.373 33.1394 108.433 32.6842C108.494 32.229 108.65 31.7915 108.89 31.4001L110.835 28.2354L107.454 25.5791L104.849 28.2354C104.41 28.6793 103.621 28.8577 102.872 28.9165C100.574 29.1062 98.4433 30.311 97.3505 32.3317C97.1085 32.7847 96.9072 33.2584 96.749 33.7471C96.6553 34.1099 96.5974 34.481 96.5764 34.8551C96.5365 35.1777 96.1571 35.6141 95.7757 35.9821C95.5893 36.168 95.3569 36.3011 95.1022 36.3677C94.8475 36.4344 94.5797 36.4323 94.3261 36.3616C93.9596 36.2527 93.5687 36.2565 93.2043 36.3725C92.8399 36.4886 92.5188 36.7115 92.2827 37.0124L80.931 51.5004C80.7756 51.6969 80.6607 51.9223 80.5929 52.1635C80.525 52.4046 80.5056 52.6569 80.5358 52.9056C80.566 53.1543 80.6451 53.3946 80.7686 53.6126C80.8921 53.8306 81.0576 54.0219 81.2555 54.1756L89.3381 60.5108C89.5352 60.6653 89.7607 60.7794 90.0019 60.8467C90.2431 60.914 90.4952 60.9332 90.7438 60.903C90.9924 60.8729 91.2327 60.7941 91.4508 60.6711C91.6689 60.5482 91.8607 60.3834 92.0152 60.1863L103.367 45.7002C103.603 45.399 103.742 45.0339 103.768 44.6523C103.794 44.2707 103.704 43.8902 103.511 43.5601C103.381 43.3313 103.315 43.0722 103.318 42.8093C103.321 42.5463 103.393 42.2888 103.528 42.0631Z" fill="#97F0FF"/>
<path d="M103.528 42.0631C103.794 41.6058 104.128 41.1334 104.433 41.0176C104.791 40.9066 105.137 40.7618 105.467 40.5851C106.457 39.9797 107.306 39.169 107.957 38.2077C108.35 37.5976 108.606 36.9088 108.707 36.1895C108.807 35.4702 108.749 34.7377 108.537 34.0431C108.408 33.6023 108.373 33.1394 108.433 32.6842C108.494 32.229 108.65 31.7915 108.89 31.4001L110.835 28.2354L107.454 25.5791L104.849 28.2354C104.41 28.6793 103.621 28.8577 102.872 28.9165C100.574 29.1062 98.4433 30.311 97.3505 32.3317C97.1085 32.7847 96.9072 33.2584 96.749 33.7471C96.6553 34.1099 96.5974 34.481 96.5764 34.8551C96.5365 35.1777 96.1571 35.6141 95.7757 35.9821C95.5893 36.168 95.3569 36.3011 95.1022 36.3677C94.8475 36.4344 94.5797 36.4323 94.3261 36.3616C93.9596 36.2527 93.5687 36.2565 93.2043 36.3725C92.8399 36.4886 92.5188 36.7115 92.2827 37.0124L80.931 51.5004C80.7756 51.6969 80.6607 51.9223 80.5929 52.1635C80.525 52.4046 80.5056 52.6569 80.5358 52.9056C80.566 53.1543 80.6451 53.3946 80.7686 53.6126C80.8921 53.8306 81.0576 54.0219 81.2555 54.1756L89.3381 60.5108C89.5352 60.6653 89.7607 60.7794 90.0019 60.8467C90.2431 60.914 90.4952 60.9332 90.7438 60.903C90.9924 60.8729 91.2327 60.7941 91.4508 60.6711C91.6689 60.5482 91.8607 60.3834 92.0152 60.1863L103.367 45.7002C103.603 45.399 103.742 45.0339 103.768 44.6523C103.794 44.2707 103.704 43.8902 103.511 43.5601C103.381 43.3313 103.315 43.0722 103.318 42.8093C103.321 42.5463 103.393 42.2888 103.528 42.0631Z" fill="#97F0FF"/>
<g style="mix-blend-mode:multiply" opacity="0.49">
<path d="M103.511 43.559C103.382 43.3303 103.315 43.0712 103.318 42.8082C103.321 42.5452 103.393 42.2878 103.528 42.062C103.794 41.6048 104.128 41.1323 104.433 41.0166C104.791 40.9056 105.137 40.7607 105.467 40.584C106.458 39.9793 107.307 39.1685 107.957 38.2067C108.351 37.5965 108.607 36.9078 108.707 36.1885C108.807 35.4692 108.749 34.7366 108.537 34.042C108.408 33.6013 108.373 33.1384 108.434 32.6831C108.494 32.2279 108.65 31.7905 108.89 31.3991L110.835 28.2343L109.031 26.8208L107.088 29.9818C106.848 30.3728 106.692 30.81 106.631 31.2649C106.57 31.7198 106.606 32.1824 106.735 32.6228C106.948 33.319 107.006 34.0533 106.905 34.7743C106.805 35.4953 106.548 36.1856 106.152 36.7969C105.503 37.7598 104.653 38.5713 103.661 39.1762C103.331 39.3536 102.985 39.4985 102.627 39.6088C102.324 39.7226 101.988 40.1951 101.724 40.6542C101.589 40.88 101.516 41.1374 101.513 41.4004C101.51 41.6634 101.577 41.9224 101.707 42.1512C101.9 42.4813 101.99 42.8619 101.964 43.2435C101.938 43.6251 101.798 43.9902 101.563 44.2914L90.2091 58.7813C90.0555 58.9791 89.8641 59.1446 89.6461 59.2681C89.4281 59.3917 89.1879 59.4708 88.9391 59.501C88.6904 59.5311 88.4382 59.5117 88.197 59.4439C87.9558 59.376 87.7304 59.2611 87.5339 59.1057L89.3383 60.5192C89.5354 60.6737 89.7609 60.7879 90.0021 60.8552C90.2433 60.9225 90.4954 60.9416 90.744 60.9115C90.9926 60.8813 91.2329 60.8026 91.451 60.6796C91.6691 60.5566 91.8609 60.3919 92.0154 60.1948L103.367 45.7087C103.605 45.4066 103.746 45.0397 103.772 44.6561C103.797 44.2726 103.707 43.8902 103.511 43.559Z" fill="#4B6568"/>
</g>
<path d="M112.901 26.6945L111.366 28.6545L106.83 25.0989L108.364 23.1408C108.388 23.1109 108.417 23.0859 108.449 23.0672C108.482 23.0485 108.519 23.0365 108.556 23.0319C108.594 23.0273 108.632 23.0302 108.668 23.0405C108.705 23.0507 108.739 23.068 108.769 23.0915L112.852 26.2904C112.912 26.3375 112.951 26.4065 112.96 26.4823C112.969 26.558 112.948 26.6343 112.901 26.6945Z" fill="#97F0FF"/>
<g style="mix-blend-mode:multiply" opacity="0.49">
<path d="M111.364 28.6544L109.031 26.8254L110.738 24.6396L112.846 26.2903C112.906 26.3378 112.945 26.4071 112.954 26.4832C112.964 26.5592 112.943 26.6359 112.895 26.6964L111.364 28.6544Z" fill="#4B6568"/>
</g>
<path d="M111.346 28.6584L106.809 25.1025L106.364 25.67L110.901 29.2258L111.346 28.6584Z" fill="#57D0DD"/>
<path d="M112.913 26.8995L108.141 23.1587L107.919 23.4424L112.691 27.1832L112.913 26.8995Z" fill="#57D0DD"/>
<path d="M112.476 27.4625L107.704 23.7217L107.481 24.0054L112.254 27.7462L112.476 27.4625Z" fill="#57D0DD"/>
<path d="M112.036 28.0225L107.264 24.2817L107.042 24.5655L111.814 28.3062L112.036 28.0225Z" fill="#57D0DD"/>
<path opacity="0.85" d="M97.6615 45.075L90.9355 39.0699C90.4102 38.6023 89.9826 38.0353 89.6774 37.4017C89.3722 36.768 89.1954 36.0803 89.1571 35.378C89.1188 34.6758 89.2199 33.9729 89.4545 33.3099C89.689 32.6468 90.0524 32.0367 90.5238 31.5148L91.9942 29.8831C92.9493 28.8274 94.2829 28.192 95.7045 28.1153C97.126 28.0385 98.5202 28.5266 99.5835 29.4733L106.308 35.4783C106.381 35.543 106.44 35.6216 106.482 35.7095C106.525 35.7973 106.549 35.8927 106.555 35.9901C106.56 36.0875 106.546 36.1849 106.513 36.2769C106.481 36.3688 106.43 36.4533 106.365 36.5256C106.299 36.598 106.249 36.6826 106.217 36.7745C106.184 36.8664 106.17 36.9638 106.175 37.0611C106.181 37.1584 106.205 37.2537 106.247 37.3416C106.29 37.4294 106.349 37.508 106.421 37.5729L109.267 40.1116C109.415 40.2432 109.608 40.3111 109.806 40.3004C110.003 40.2897 110.188 40.2014 110.32 40.0546C110.386 39.9806 110.466 39.9203 110.555 39.8773C110.644 39.8343 110.741 39.8094 110.84 39.8041C110.939 39.7988 111.038 39.8132 111.131 39.8464C111.224 39.8797 111.31 39.9311 111.383 39.9977L121.556 49.0821C121.629 49.147 121.688 49.2255 121.73 49.3132C121.772 49.4008 121.796 49.4959 121.802 49.593C121.807 49.6901 121.793 49.7873 121.761 49.879C121.728 49.9707 121.678 50.0552 121.613 50.1275L113.956 58.62C113.824 58.7666 113.639 58.8549 113.442 58.8656C113.245 58.8763 113.052 58.8084 112.905 58.6769L102.733 49.5944C102.66 49.5296 102.601 49.4511 102.558 49.3632C102.516 49.2754 102.491 49.18 102.486 49.0826C102.481 48.9852 102.495 48.8877 102.528 48.7958C102.56 48.7039 102.611 48.6194 102.676 48.5471C102.807 48.4006 102.875 48.208 102.865 48.0116C102.854 47.8152 102.766 47.6311 102.619 47.4997L99.7732 44.9611C99.6262 44.8296 99.4329 44.7618 99.2359 44.7724C99.0389 44.7831 98.8541 44.8714 98.7221 45.018C98.6565 45.0918 98.5769 45.1519 98.4879 45.1947C98.3989 45.2375 98.3023 45.2623 98.2037 45.2676C98.1051 45.2729 98.0064 45.2586 97.9133 45.2255C97.8203 45.1925 97.7347 45.1413 97.6615 45.075Z" fill="#427C86"/>
<path d="M121.547 49.0829L111.383 39.9985C111.236 39.8675 111.043 39.8 110.846 39.8106C110.649 39.8213 110.464 39.9093 110.332 40.0554C110.2 40.2022 110.015 40.2906 109.817 40.3012C109.62 40.3119 109.427 40.244 109.279 40.1124L106.433 37.5737C106.36 37.5088 106.301 37.4302 106.259 37.3424C106.217 37.2545 106.192 37.1592 106.187 37.0619C106.182 36.9646 106.196 36.8672 106.228 36.7753C106.261 36.6834 106.311 36.5988 106.376 36.5264C106.442 36.4541 106.492 36.3696 106.525 36.2777C106.557 36.1857 106.571 36.0883 106.566 35.9909C106.561 35.8935 106.536 35.7981 106.494 35.7103C106.452 35.6224 106.392 35.5439 106.319 35.4791L99.5952 29.4741C98.7301 28.7005 97.6378 28.2279 96.4817 28.127C98.9482 31.1949 106.376 40.7973 106.376 45.7341C106.376 47.8971 105.708 49.8665 104.858 51.4963L112.901 58.6777C113.048 58.8092 113.241 58.8771 113.438 58.8664C113.635 58.8557 113.82 58.7674 113.952 58.6208L121.61 50.1284C121.674 50.0556 121.724 49.9709 121.756 49.879C121.788 49.7871 121.801 49.6898 121.795 49.5927C121.789 49.4956 121.765 49.4006 121.722 49.3131C121.679 49.2256 121.62 49.1474 121.547 49.0829Z" fill="#427C86"/>
<path d="M138.054 76.7841C137.585 71.7885 130.288 58.9322 128.863 55.8604C127.438 52.7886 132.546 35.9385 132.546 35.9385H132.464C132.299 36.6291 131.895 37.3197 131.195 38.0047C131.195 38.0047 92.981 52.5932 78.4076 48.753C72.3267 47.1517 68.9855 44.1463 68.2436 40.6154L68.0862 40.6268C68.0862 40.6268 70.5717 50.5498 68.0862 52.7848C59.7493 60.2793 65.9403 58.5926 64.8987 63.8842C64.3484 66.6828 59.9656 70.3066 59.7512 73.09C59.6658 74.1601 62.3107 75.7899 62.305 76.7746C62.2879 79.7326 64.7279 85.8818 65.7069 87.2441C65.7069 87.2441 64.652 90.5815 63.9101 96.6283C63.1683 102.675 65.1206 113.626 83.2079 117.33C101.295 121.034 107.607 113.31 128.527 111.5C138.469 108.843 133.891 95.5999 133.633 87.2365C133.633 87.2422 138.335 79.7876 138.054 76.7841Z" fill="#FCB500"/>
<path d="M132.453 35.9879C132.418 36.1258 132.374 36.2614 132.322 36.394C132.132 36.8509 131.848 37.2628 131.489 37.6028C131.129 37.9427 130.702 38.2032 130.235 38.3672C124.239 40.5814 91.6111 52.2385 78.4019 48.7588C72.3209 47.1575 68.9798 44.1522 68.2379 40.6212L68.0804 40.6326C68.0804 40.6326 67.46 48.886 75.7874 53.4415C77.5898 54.4281 76.423 53.7261 77.5765 54.2194C88.342 58.5377 113.878 49.0321 129.169 40.2304C130.789 39.2919 131.991 37.7705 132.529 35.9766L132.453 35.9879Z" fill="#E09D00"/>
<path d="M79.1285 58.6988C74.2269 58.6934 69.3849 59.7728 64.9498 61.8597C65.0685 62.5308 65.0536 63.2188 64.9061 63.8841C64.3559 66.6827 59.9731 70.3066 59.7587 73.09C59.6733 74.1601 62.3182 75.7899 62.3125 76.7746C62.2954 79.7325 64.7354 85.8818 65.7144 87.244C65.7144 87.244 64.6595 90.5814 63.9176 96.6282C63.1758 102.675 65.1281 113.626 83.2153 117.33C96.212 119.986 103.137 116.761 113.762 114.046C117.845 75.2453 94.7397 58.6988 79.1285 58.6988Z" fill="#FCBE21"/>
<path d="M130.356 38.3416C118.024 46.7448 90.4594 56.1138 77.5822 51.5583C76.4287 51.1239 77.66 51.6285 75.793 50.8734C66.388 46.8283 64.7373 36.7915 72.7459 30.1318C71.9984 33.0006 68.6932 40.0548 70.6798 42.2576C73.7667 45.6899 80.267 46.2591 80.2366 46.2591L81.4755 46.3407C92.9487 46.6784 115.829 39.9979 130.356 38.3416Z" fill="#FCB500"/>
<path d="M102.134 99.2593C102.629 99.2953 110.96 102.485 117.44 100.365C120.528 99.3542 123.363 98.7622 122.115 101.597C120.866 104.431 115.174 103.227 114.381 104.022C113.588 104.817 124.221 110.63 127.124 111.123C130.026 111.617 125.266 114.112 124.131 114.112C122.997 114.112 123.906 114.563 122.767 115.702C121.629 116.84 118.887 116.567 117.551 116.84C113.188 117.716 101.614 109.71 99.8627 107.966C98.1115 106.222 102.134 99.2593 102.134 99.2593Z" fill="#FF7446"/>
<path d="M39.6641 44.6338C39.6641 44.6338 44.2746 49.8192 46.9119 55.2588C49.5681 60.7611 64.3578 87.7657 65.9914 87.7657C67.625 87.7657 104.116 99.6487 104.116 99.6487C104.116 99.6487 101.564 104.923 101.564 110.818C101.564 110.818 62.3315 104.47 59.383 104.47C56.4346 104.47 53.0346 99.254 50.0861 96.3113C47.1377 93.3685 32.4865 80.0322 28.2479 69.5722C24.0092 59.1123 26.2879 42.3665 39.6641 44.6338Z" fill="#2D2D2D"/>
<path d="M53.4256 30.2554L58.148 51.1962L39.6681 44.6333L43.2844 30.3256L53.4256 30.2554Z" fill="#FF7446"/>
<g style="mix-blend-mode:multiply" opacity="0.68">
<path d="M53.4255 30.2554L43.2843 30.3256L42.4438 33.6497C45.3429 36.5905 48.8283 38.9622 51.6686 39.6225C52.7956 39.8862 54.1465 39.8995 55.5619 39.7306L53.4255 30.2554Z" fill="#FF7F4C"/>
</g>
<path d="M45.8837 10.1251C45.8837 10.1251 49.0503 10.1536 52.9038 12.6827C56.7573 15.2118 60.2901 22.2623 60.2901 22.2623C60.2901 22.2623 62.0584 26.74 62.288 29.3697C62.5176 31.9994 53.2188 36.2513 48.6026 35.6555C43.9864 35.0598 37.9396 29.8364 36.399 25.0722C34.8583 20.308 43.8251 9.85946 45.8837 10.1251Z" fill="#FF865E"/>
<g style="mix-blend-mode:multiply" opacity="0.68">
<path d="M54.2738 13.766C53.8498 13.367 53.3928 13.0046 52.9077 12.6826C49.0486 10.1535 45.8876 10.125 45.8876 10.125C44.9124 9.99982 42.387 12.2785 40.1653 15.2194L41.7552 15.115C41.7552 15.115 47.0677 16.5741 52.3271 14.6748C53.0014 14.4295 53.6528 14.1254 54.2738 13.766Z" fill="#FF7F4C"/>
</g>
<path d="M41.7512 15.1149C43.0369 18.1254 44.025 21.2544 44.7015 24.4573C45.8702 29.9007 45.2707 35.4087 45.2707 35.4087C41.4096 37.3914 35.1997 37.2036 29.9023 30.339C24.605 23.4745 30.6044 17.8584 31.9458 16.8244C33.2872 15.7903 31.1868 15.4108 32.1355 12.6977C33.0842 9.9845 34.7291 11.6921 36.5316 9.80425C38.3341 7.91641 33.6078 3.97376 36.9604 0.886814C40.313 -2.20014 44.6806 3.76317 44.6806 3.76317C44.6806 3.76317 46.5305 -2.14132 49.9116 1.22264C53.2926 4.5866 53.4311 6.95827 50.6705 10.6182C47.9099 14.2782 41.7512 15.1149 41.7512 15.1149Z" fill="#0D074B"/>
<path d="M44.728 21.9529C44.728 21.9529 40.5387 19.9284 40.5387 23.4707C40.5387 27.013 41.9731 28.9142 44.0469 28.0243C46.1207 27.1345 44.728 21.9529 44.728 21.9529Z" fill="#FF865E"/>
<path d="M193.018 102.508H145.608L158.253 223.759C158.466 225.803 159.429 227.695 160.955 229.071C162.481 230.446 164.462 231.208 166.517 231.208H216.835C218.889 231.208 220.871 230.446 222.397 229.071C223.923 227.695 224.885 225.803 225.098 223.759L237.738 102.508H193.018Z" fill="#2D2D2D"/>
<path d="M239.18 99H144.947C142.767 99 141 100.767 141 102.947V105.523C141 107.703 142.767 109.471 144.947 109.471H239.18C241.36 109.471 243.128 107.703 243.128 105.523V102.947C243.128 100.767 241.36 99 239.18 99Z" fill="#171717"/>
<path opacity="0.2" d="M167.829 109.471L176.648 231.209H208.99L217.157 109.471H167.829Z" fill="white"/>
<g opacity="0.6">
<path opacity="0.6" d="M196.989 132.045L200.607 138.298C200.607 138.298 201.57 139.797 200.95 141.295L204.155 135.896C204.585 135.185 204.746 134.343 204.607 133.524C204.571 133.291 204.5 133.066 204.396 132.854C203.989 132.084 202.191 129.023 202.191 129.023L205.166 127.353L197.695 127.075L194.292 133.584L196.989 132.045Z" fill="white"/>
<path opacity="0.6" d="M199.366 137.185H194.099V143.266H197.61C197.61 143.266 201.377 142.967 200.457 139.283L199.366 137.185Z" fill="white"/>
<path opacity="0.6" d="M188.048 136.874L180.827 136.708C180.827 136.708 179.047 136.751 178.09 135.44L181.026 140.988C181.409 141.725 182.044 142.3 182.816 142.608C183.033 142.699 183.263 142.755 183.497 142.776C184.368 142.83 187.917 142.889 187.917 142.889L187.793 146.3L191.92 140.064L188.136 133.768L188.048 136.874Z" fill="white"/>
<path opacity="0.6" d="M182.425 136.227L185.166 131.73L179.976 128.564L178.147 131.562C178.147 131.562 176.441 134.936 180.063 136.067L182.425 136.227Z" fill="white"/>
<path opacity="0.6" d="M188.452 126.611L192.1 120.376C192.1 120.376 192.928 118.798 194.539 118.597L188.269 118.473C187.438 118.451 186.628 118.727 185.984 119.251C185.799 119.398 185.638 119.572 185.506 119.767C185.036 120.501 183.263 123.578 183.263 123.578L180.342 121.815L183.789 128.45L191.129 128.196L188.452 126.611Z" fill="white"/>
<path opacity="0.6" d="M191.746 122.006L194.348 126.588L199.634 123.584L197.9 120.531C197.9 120.531 195.779 117.402 193.031 120.021L191.746 122.006Z" fill="white"/>
</g>
</svg>
