<svg width="238" height="269" viewBox="0 0 238 269" fill="none" xmlns="http://www.w3.org/2000/svg">
<path d="M42.2258 269C-1.94689 240.878 39.7414 222.69 16.4728 174.381C-14.4361 110.205 -8.88237 29.0826 94.766 29C162.997 28.9455 220.724 76.6936 232.492 133.119C250.078 217.423 219.93 269 219.93 269H42.2258Z" fill="#E73A40"/>
<path d="M103.838 7.16598H104.876C109.842 7.11751 114.645 8.93679 118.333 12.2631C122.021 15.5895 124.324 20.18 124.786 25.1247C125.546 34.547 126.262 44.9536 126.191 50.0092C126.039 60.4605 115.292 62.0711 115.292 62.0711L115.686 71.3592C115.799 74.6955 114.604 77.944 112.355 80.4115C110.107 82.8789 106.983 84.37 103.651 84.5665C101.964 84.6655 100.274 84.4295 98.6793 83.8721C97.0843 83.3146 95.6155 82.4469 94.3576 81.3188C93.0998 80.1907 92.0778 78.8247 91.3507 77.2996C90.6235 75.7745 90.2056 74.1204 90.1211 72.433L87.8752 28.2207C86.9804 17.3578 92.6624 7.77445 103.838 7.16598Z" fill="#FFBE9D"/>
<path d="M115.382 62.0526C110.402 62.0494 105.523 60.6514 101.297 58.0171C101.297 58.0171 104.59 65.5513 115.31 64.6297L115.382 62.0526Z" fill="#EB996E"/>
<path d="M122.513 32.7475C122.511 33.1424 122.354 33.5207 122.077 33.8016C121.799 34.0826 121.423 34.2437 121.028 34.2508C120.835 34.2666 120.642 34.2442 120.458 34.1847C120.274 34.1252 120.105 34.0298 119.958 33.9041C119.812 33.7784 119.691 33.6249 119.605 33.4525C119.518 33.2801 119.466 33.0921 119.453 32.8996C119.453 32.5055 119.607 32.1272 119.884 31.846C120.16 31.5648 120.535 31.4034 120.929 31.3963C121.122 31.3792 121.317 31.4007 121.502 31.4597C121.686 31.5186 121.857 31.6138 122.005 31.7395C122.152 31.8653 122.273 32.0193 122.36 32.1923C122.448 32.3654 122.5 32.5541 122.513 32.7475Z" fill="#263238"/>
<path d="M122.468 30.2336C122.281 30.4305 121.117 29.5894 119.471 29.5894C117.824 29.5894 116.607 30.3947 116.429 30.1978C116.25 30.001 116.536 29.7594 117.064 29.3835C117.785 28.9062 118.633 28.6539 119.498 28.6588C120.353 28.66 121.188 28.9257 121.887 29.4193C122.397 29.7952 122.567 30.1531 122.468 30.2336Z" fill="#263238"/>
<path d="M107.337 32.7475C107.335 33.1424 107.178 33.5207 106.901 33.8016C106.623 34.0826 106.247 34.2437 105.852 34.2508C105.659 34.2666 105.466 34.2442 105.282 34.1847C105.099 34.1252 104.929 34.0298 104.782 33.9041C104.636 33.7784 104.516 33.6249 104.429 33.4525C104.342 33.2801 104.29 33.0921 104.277 32.8996C104.279 32.5062 104.435 32.1292 104.71 31.8485C104.986 31.5678 105.36 31.4056 105.753 31.3963C105.946 31.3792 106.141 31.4007 106.326 31.4597C106.51 31.5186 106.681 31.6138 106.829 31.7395C106.976 31.8653 107.097 32.0193 107.184 32.1923C107.272 32.3654 107.324 32.5541 107.337 32.7475Z" fill="#263238"/>
<path d="M107.06 30.5007C106.872 30.6976 105.709 29.8564 104.062 29.8564C102.416 29.8564 101.199 30.6618 101.02 30.4649C100.841 30.2681 101.127 30.0265 101.655 29.6506C102.377 29.1733 103.224 28.921 104.089 28.9259C104.945 28.923 105.781 29.189 106.478 29.6864C106.979 30.0623 107.158 30.4202 107.06 30.5007Z" fill="#263238"/>
<path d="M112.214 42.4385C113.084 42.1649 113.987 42.0084 114.898 41.9732C115.319 41.9285 115.721 41.8479 115.793 41.5705C115.83 41.1458 115.733 40.7201 115.516 40.3536C115.122 39.3604 114.71 38.3135 114.272 37.2218C112.554 32.7478 111.31 29.1059 111.489 29.0433C111.668 28.9807 113.225 32.533 114.943 36.9892C115.354 38.0808 115.757 39.1277 116.133 40.1299C116.397 40.6233 116.473 41.1954 116.348 41.7406C116.285 41.887 116.189 42.0172 116.068 42.1211C115.947 42.225 115.804 42.2999 115.65 42.3401C115.417 42.4044 115.176 42.4375 114.934 42.4385C114.03 42.5473 113.117 42.5473 112.214 42.4385Z" fill="#263238"/>
<path d="M98.3982 26.0555C98.3982 25.5902 99.9999 25.1607 101.718 24.2659C103.436 23.3711 104.707 22.2883 105.091 22.5568C105.261 22.691 105.163 23.1742 104.724 23.8006C104.136 24.6002 103.37 25.2526 102.487 25.7065C101.607 26.1753 100.63 26.4355 99.633 26.4671C98.8724 26.4581 98.4071 26.2702 98.3982 26.0555Z" fill="#263238"/>
<path d="M117.923 24.6311C118.326 24.4074 119.22 25.2127 120.473 25.7675C121.726 26.3223 122.889 26.546 122.979 27.0023C122.979 27.2171 122.701 27.4855 122.084 27.6018C121.29 27.7226 120.478 27.5977 119.757 27.2439C119.012 26.9258 118.386 26.3811 117.968 25.687C117.726 25.1501 117.726 24.7474 117.923 24.6311Z" fill="#263238"/>
<path d="M89.5039 35.9688C89.3249 35.8883 82.1307 33.8303 82.3454 40.9797C82.5602 48.1292 89.8976 46.438 89.8976 46.2322C89.8976 46.0264 89.5039 35.9688 89.5039 35.9688Z" fill="#FFBE9D"/>
<path d="M88.2243 43.5922C88.2243 43.5922 88.099 43.6816 87.8842 43.7801C87.5839 43.9205 87.241 43.9397 86.9268 43.8338C86.1394 43.5743 85.4504 42.3931 85.3788 41.1493C85.3378 40.5372 85.442 39.924 85.683 39.3597C85.7441 39.1368 85.857 38.9314 86.0125 38.7604C86.168 38.5893 86.3617 38.4575 86.5778 38.3755C86.7236 38.3328 86.8796 38.3414 87.0197 38.4001C87.1598 38.4587 87.2755 38.5638 87.3474 38.6976C87.4458 38.8945 87.4011 39.0376 87.4458 39.0466C87.4905 39.0555 87.5979 38.9213 87.5263 38.626C87.4828 38.4496 87.3782 38.2942 87.231 38.1876C87.021 38.0461 86.7656 37.9887 86.5152 38.0265C86.2181 38.0907 85.9422 38.2296 85.7137 38.43C85.4851 38.6304 85.3114 38.8857 85.2088 39.1718C84.9203 39.7988 84.7912 40.4873 84.833 41.1762C84.9225 42.6168 85.7278 43.9501 86.7926 44.2096C86.9905 44.2599 87.1969 44.2668 87.3978 44.2297C87.5986 44.1926 87.789 44.1125 87.9558 43.9948C88.2153 43.798 88.2422 43.6011 88.2243 43.5922Z" fill="#EB996E"/>
<path d="M94.3176 14.7165L124.938 15.3697C123.895 13.3331 122.356 11.5915 120.464 10.3051C116.457 7.29161 111.615 5.59413 106.603 5.44631C101.61 5.35683 91.4453 11.2804 87.8124 14.636C84.9222 17.3204 84.9401 19.6379 84.9401 19.6379C84.4748 23.5035 86.7297 27.8969 87.6245 31.6909C88.0809 33.6505 88.9667 39.5741 88.9667 39.5741C90.6489 39.5741 91.2753 38.2588 91.0248 36.6392L90.7026 30.2682C92.3825 28.9961 93.5914 27.2013 94.139 25.1666C94.6865 23.1319 94.5416 20.9728 93.7271 19.0294C93.2439 18.4478 92.2954 15.7902 94.3176 14.7165Z" fill="#263238"/>
<path d="M100.751 37.3288C100.701 37.3344 100.65 37.321 100.609 37.2913C100.567 37.2615 100.538 37.2175 100.528 37.1678C100.519 37.1193 100.529 37.0695 100.556 37.0281C100.582 36.9867 100.623 36.9567 100.671 36.9441C100.696 36.9403 100.721 36.9415 100.745 36.9475C100.769 36.9536 100.792 36.9645 100.812 36.9795C100.832 36.9945 100.849 37.0133 100.862 37.0349C100.874 37.0565 100.882 37.0804 100.886 37.1051C100.892 37.1287 100.894 37.1533 100.891 37.1775C100.888 37.2017 100.879 37.2251 100.867 37.246C100.854 37.267 100.838 37.2851 100.818 37.2994C100.798 37.3136 100.775 37.3237 100.751 37.3288Z" fill="#EB996E"/>
<path d="M103.902 36.6401C103.847 36.6428 103.794 36.6249 103.753 36.5901C103.711 36.5552 103.685 36.506 103.678 36.4522C103.67 36.427 103.667 36.4003 103.669 36.3739C103.671 36.3474 103.679 36.3217 103.691 36.2983C103.704 36.2749 103.721 36.2543 103.742 36.2377C103.763 36.2211 103.786 36.2088 103.812 36.2017C103.862 36.2055 103.91 36.2257 103.948 36.2592C103.986 36.2926 104.012 36.3376 104.022 36.3871C104.032 36.4367 104.026 36.4882 104.004 36.5339C103.982 36.5795 103.946 36.6168 103.902 36.6401Z" fill="#EB996E"/>
<path d="M106.022 36.5873C105.924 36.5873 105.825 36.4799 105.807 36.3278C105.789 36.1757 105.852 36.0236 105.95 36.0146C106.049 36.0057 106.147 36.122 106.165 36.2831C106.183 36.4442 106.129 36.5784 106.022 36.5873Z" fill="#EB996E"/>
<path d="M102.291 39.2525C102.192 39.2525 102.112 39.2525 102.112 39.1451C102.112 39.0378 102.192 39.0288 102.291 39.0288C102.389 39.0288 102.479 39.0825 102.479 39.1451C102.479 39.2078 102.398 39.2525 102.291 39.2525Z" fill="#EB996E"/>
<path d="M105.19 38.608C105.148 38.617 105.106 38.6133 105.067 38.5972C105.028 38.5812 104.995 38.5537 104.972 38.5184C104.949 38.4831 104.938 38.4416 104.94 38.3996C104.941 38.3576 104.955 38.3171 104.981 38.2835C105.006 38.2499 105.041 38.2248 105.081 38.2116C105.12 38.1984 105.163 38.1977 105.204 38.2097C105.244 38.2216 105.28 38.2456 105.306 38.2784C105.332 38.3112 105.348 38.3513 105.351 38.3932C105.356 38.4427 105.342 38.4924 105.312 38.5323C105.282 38.5721 105.239 38.5992 105.19 38.608Z" fill="#EB996E"/>
<path d="M120.24 36.8915C120.216 36.8953 120.191 36.8941 120.166 36.8881C120.142 36.882 120.119 36.8711 120.099 36.8561C120.079 36.8411 120.062 36.8223 120.05 36.8007C120.037 36.7791 120.029 36.7553 120.026 36.7305C120.019 36.7064 120.017 36.6812 120.02 36.6564C120.023 36.6315 120.031 36.6076 120.044 36.5859C120.056 36.5643 120.073 36.5453 120.093 36.5302C120.113 36.515 120.136 36.504 120.16 36.4978C120.211 36.4922 120.261 36.5056 120.303 36.5354C120.344 36.5651 120.373 36.6091 120.384 36.6589C120.394 36.7087 120.386 36.7607 120.359 36.8041C120.332 36.8475 120.29 36.8788 120.24 36.8915Z" fill="#EB996E"/>
<path d="M122.388 36.7037C122.339 36.6899 122.297 36.6605 122.266 36.6201C122.236 36.5798 122.219 36.5306 122.219 36.48C122.219 36.4295 122.236 36.3803 122.266 36.3399C122.297 36.2996 122.339 36.2702 122.388 36.2563C122.443 36.2563 122.495 36.278 122.534 36.3166C122.572 36.3552 122.594 36.4076 122.594 36.4621C122.599 36.492 122.598 36.5227 122.59 36.5519C122.582 36.5812 122.568 36.6083 122.548 36.6314C122.528 36.6545 122.504 36.673 122.476 36.6855C122.448 36.698 122.418 36.7042 122.388 36.7037Z" fill="#EB996E"/>
<path d="M118.344 36.9371C118.313 36.9401 118.281 36.934 118.253 36.9193C118.225 36.9047 118.202 36.8823 118.187 36.8548C118.172 36.8273 118.165 36.7959 118.167 36.7645C118.169 36.7331 118.181 36.703 118.2 36.678C118.219 36.653 118.245 36.634 118.275 36.6235C118.304 36.613 118.336 36.6114 118.367 36.6189C118.397 36.6263 118.425 36.6426 118.447 36.6656C118.468 36.6886 118.482 36.7173 118.488 36.7483C118.492 36.7703 118.491 36.7928 118.486 36.8144C118.48 36.8361 118.471 36.8564 118.457 36.8741C118.444 36.8918 118.427 36.9066 118.407 36.9174C118.388 36.9283 118.366 36.935 118.344 36.9371Z" fill="#EB996E"/>
<path d="M119.936 39.0386C119.886 39.0542 119.832 39.051 119.784 39.0296C119.737 39.0082 119.698 38.97 119.677 38.9223C119.665 38.8996 119.657 38.8746 119.655 38.8489C119.653 38.8233 119.657 38.7975 119.665 38.7732C119.673 38.7488 119.687 38.7265 119.704 38.7075C119.722 38.6885 119.743 38.6733 119.766 38.6628C119.815 38.6455 119.868 38.6479 119.915 38.6697C119.962 38.6914 119.999 38.7308 120.017 38.7792C120.039 38.8245 120.043 38.8767 120.028 38.925C120.013 38.9733 119.98 39.014 119.936 39.0386Z" fill="#EB996E"/>
<path d="M121.77 38.6796C121.672 38.6796 121.609 38.5723 121.636 38.4917C121.657 38.457 121.689 38.4299 121.726 38.4145C121.763 38.3991 121.805 38.3962 121.844 38.4063C121.883 38.4163 121.918 38.4388 121.944 38.4703C121.969 38.5019 121.984 38.5407 121.985 38.5812C121.969 38.6223 121.938 38.6555 121.898 38.6738C121.858 38.6922 121.812 38.6943 121.77 38.6796Z" fill="#EB996E"/>
<path d="M87.5979 15.0396C87.2491 13.7187 87.2231 12.3332 87.5221 11.0002C87.8211 9.66708 88.4363 8.42547 89.3159 7.38009C90.2031 6.30592 91.3255 5.45023 92.5963 4.87924C93.867 4.30824 95.2521 4.03725 96.6444 4.08721C98.0582 4.28791 99.4846 4.38659 100.913 4.38249C103.597 4.1051 105.61 2.03811 108.071 1.02698C110.007 0.28675 112.132 0.200944 114.121 0.782674C116.11 1.3644 117.854 2.58166 119.086 4.24828C119.981 5.59943 120.625 7.27271 122.057 8.12277C123.283 8.86546 124.84 8.80282 126.227 9.20548C127.599 9.65498 128.789 10.5388 129.615 11.7236C130.442 12.9083 130.86 14.3298 130.808 15.7733C130.672 17.2105 130.143 18.5824 129.277 19.738C128.412 20.8936 127.245 21.7882 125.904 22.3233C124.538 22.8482 123.073 23.0681 121.612 22.9677C120.152 22.8672 118.731 22.4488 117.449 21.7417C115.14 20.489 113.064 18.3504 110.424 18.422C107.785 18.4935 105.297 21.0169 102.613 20.4979C101.246 20.0761 100.024 19.2794 99.0872 18.1983C98.0582 17.2229 96.8681 16.2297 95.4364 16.1492C94.0047 16.0686 93.2531 17.9835 93.7631 19.2899L87.5979 15.0128" fill="#263238"/>
<path d="M124.339 11.5846C124.339 11.5846 124.339 11.5846 124.294 11.6919C124.24 11.7907 124.18 11.8863 124.115 11.9783C123.865 12.3418 123.563 12.6673 123.22 12.9447C122.696 13.4002 122.088 13.7497 121.431 13.9737C120.533 14.2715 119.573 14.327 118.648 14.1348C117.528 13.9121 116.505 13.346 115.722 12.5152C114.961 11.5072 114.257 10.4588 113.61 9.3744C113.224 8.82862 112.715 8.38113 112.125 8.06799C111.491 7.76445 110.795 7.61425 110.093 7.62954C109.366 7.6497 108.653 7.83643 108.008 8.17537C107.358 8.52998 106.824 9.06428 106.469 9.71443C106.103 10.3676 105.834 11.0924 105.396 11.7277C105.18 12.0584 104.891 12.3352 104.551 12.5369C104.211 12.7385 103.83 12.8596 103.436 12.891C102.679 12.8984 101.937 12.6871 101.297 12.2825C100.699 11.921 100.152 11.4817 99.6689 10.9761C98.8716 10.0082 97.8216 9.28036 96.6355 8.87332C96.102 8.77157 95.5533 8.78104 95.0236 8.90113C94.494 9.02123 93.9948 9.24937 93.5574 9.57126C92.8263 10.0932 92.2435 10.7963 91.8662 11.6114C91.579 12.2213 91.3685 12.8645 91.2398 13.5263C91.1235 14.0721 91.0698 14.5016 91.034 14.7969C91.0232 14.9443 91.0023 15.0908 90.9714 15.2354C90.9714 15.2354 90.9714 15.2354 90.9714 15.128C90.9714 15.0206 90.9714 14.9401 90.9714 14.788C90.997 14.3588 91.0478 13.9316 91.1235 13.5084C91.2381 12.8303 91.4365 12.169 91.7141 11.5398C92.0932 10.6935 92.6851 9.95978 93.4321 9.4102C93.8916 9.06246 94.4187 8.81441 94.9795 8.6819C95.5403 8.5494 96.1226 8.53535 96.6892 8.64066C97.9254 9.04566 99.0229 9.78977 99.8568 10.7882C100.33 11.2737 100.862 11.6976 101.441 12.0499C102.031 12.424 102.719 12.6169 103.418 12.6046C103.765 12.5787 104.101 12.4732 104.401 12.2963C104.7 12.1194 104.955 11.8758 105.145 11.5846C105.557 10.9851 105.825 10.2782 106.201 9.5981C106.583 8.89894 107.157 8.3243 107.856 7.94272C108.541 7.57954 109.301 7.38043 110.075 7.36109C110.824 7.34791 111.566 7.51033 112.241 7.83534C112.869 8.1688 113.409 8.64734 113.816 9.23124C114.452 10.3142 115.145 11.3626 115.892 12.372C116.639 13.1723 117.613 13.7249 118.683 13.9558C119.573 14.1508 120.498 14.1107 121.368 13.8395C122.018 13.6314 122.624 13.307 123.157 12.882C123.608 12.5046 124.005 12.0682 124.339 11.5846Z" fill="#455A64"/>
<path d="M129.931 11.6924C130.001 11.8759 130.043 12.069 130.056 12.2651C130.097 12.8043 130.042 13.3464 129.895 13.8668C129.672 14.6429 129.281 15.3607 128.75 15.9695C128.079 16.7156 127.251 17.3025 126.325 17.6876C124.621 18.3641 122.765 18.5652 120.956 18.2692C120.414 18.197 119.876 18.0954 119.345 17.965C119.15 17.9289 118.96 17.8656 118.782 17.777C118.782 17.7234 119.614 17.9292 120.974 18.0723C122.734 18.2895 124.521 18.065 126.173 17.4191C127.06 17.051 127.856 16.4955 128.508 15.7906C129.026 15.2153 129.419 14.5389 129.663 13.8041C129.871 13.1205 129.962 12.4064 129.931 11.6924Z" fill="#455A64"/>
<path d="M110.854 44.9803C110.13 44.5037 109.36 44.1019 108.554 43.7812C108.28 43.7012 107.991 43.6879 107.711 43.7424C107.431 43.7969 107.168 43.9176 106.944 44.0944C106.598 44.4381 106.391 44.8967 106.362 45.383C106.262 45.9734 106.387 46.5798 106.711 47.0831C107.144 47.5761 107.714 47.9283 108.349 48.0942C108.844 48.3232 109.401 48.3799 109.932 48.2553C110.191 48.1543 110.418 47.987 110.59 47.7701C110.763 47.5533 110.876 47.2947 110.917 47.0204C111.053 46.3447 111.032 45.6464 110.854 44.9803Z" fill="#EB996E"/>
<path d="M108.805 48.1642C108.301 48.2196 107.795 48.096 107.373 47.8152C106.874 47.5464 106.473 47.1267 106.228 46.6162C106.068 46.2962 105.993 45.9405 106.01 45.5832C106.027 45.2259 106.136 44.8791 106.326 44.576C106.538 44.2458 106.852 43.9943 107.221 43.8602C107.548 43.7463 107.9 43.7186 108.241 43.7796C108.774 43.894 109.28 44.1064 109.735 44.406C110.496 44.8802 110.997 45.0503 110.988 45.1129C110.979 45.1755 110.389 45.1129 109.583 44.7013C109.145 44.4615 108.67 44.2952 108.178 44.2092C107.905 44.1555 107.622 44.1857 107.367 44.2959C107.111 44.4061 106.895 44.5911 106.747 44.8266C106.595 45.0733 106.508 45.3545 106.494 45.6439C106.48 45.9333 106.539 46.2216 106.666 46.4819C106.856 46.9225 107.166 47.3008 107.561 47.5736C108.259 48.0031 108.823 48.0837 108.805 48.1642Z" fill="#263238"/>
<path d="M96.4924 27.2447C96.3582 27.2447 96.3224 26.4662 96.3134 25.5267C96.3045 24.5871 96.3134 23.8176 96.4745 23.8087C96.6355 23.7997 96.7787 24.5693 96.7787 25.5267C96.7787 26.4841 96.6177 27.2537 96.4924 27.2447Z" fill="#263238"/>
<path d="M95.4542 27.6917C95.1265 26.2867 95.1081 24.8273 95.4005 23.4146C95.7283 24.8195 95.7466 26.279 95.4542 27.6917Z" fill="#263238"/>
<path d="M44.6743 197.158C43.9038 197.45 43.2288 197.948 42.7236 198.599L41.3993 200.308C40.927 200.907 40.6158 201.617 40.4952 202.37C40.3746 203.124 40.4486 203.895 40.7103 204.612C41.0308 205.505 41.624 206.275 42.4059 206.813C43.1879 207.351 44.1191 207.63 45.068 207.61L84.6988 206.715L80.7169 190.796L78.9989 186.188" fill="#E7AF22"/>
<path d="M61.3173 207.297C61.4426 207.253 61.0936 206.107 61.2368 204.676C61.38 203.244 61.9258 202.188 61.8095 202.125C61.1707 202.808 60.8101 203.705 60.7983 204.64C60.6394 205.559 60.8241 206.505 61.3173 207.297Z" fill="white"/>
<path d="M64.6105 206.429C64.7369 205.691 64.9103 204.962 65.1295 204.246C65.4732 203.583 65.8557 202.94 66.2749 202.322C66.2749 202.215 65.2279 202.805 64.7179 204.112C64.532 204.467 64.4261 204.858 64.4075 205.258C64.389 205.659 64.4583 206.058 64.6105 206.429Z" fill="#263238"/>
<path d="M56.7541 207.548C56.8883 207.548 56.602 206.26 56.7541 204.721C56.9062 203.182 57.4431 202.036 57.3178 201.938C56.7598 202.75 56.4149 203.69 56.3148 204.67C56.2148 205.65 56.3628 206.64 56.7452 207.548H56.7541Z" fill="white"/>
<path d="M52.7363 207.422C52.543 206.51 52.4619 205.579 52.4947 204.648C52.6779 203.719 52.9786 202.817 53.3895 201.963C53.3895 201.963 53.0853 202.142 52.79 202.59C52.4116 203.187 52.1759 203.864 52.101 204.567C52.0122 205.271 52.092 205.985 52.3337 206.652C52.4768 207.189 52.6916 207.449 52.7363 207.422Z" fill="white"/>
<path d="M79.008 189.41V189.839C79.008 189.839 79.5896 189.24 79.008 189.41Z" fill="#263238"/>
<path d="M78.7313 189.509L78.4886 189.608L78.7313 189.509Z" fill="#263238"/>
<path d="M64.7446 190.143L45.3542 196.461C44.2941 196.81 43.3037 197.343 42.4282 198.036C40.8086 199.485 39.4753 201.848 40.2806 204.085C41.3365 207.011 43.1172 207.207 43.1172 207.207C43.1172 207.207 40.9517 204.523 41.5781 202.51C42.2045 200.496 44.5488 198.599 47.4033 197.508L78.793 189.454L79.0077 189.383V186.162L64.7446 190.143Z" fill="#263238"/>
<path d="M48.6828 207.807C49.2592 206.154 49.535 204.412 49.497 202.662C49.3107 200.922 48.8104 199.23 48.0206 197.669C48.4119 198.022 48.7179 198.46 48.9154 198.949C49.5013 200.095 49.8454 201.35 49.9265 202.635C50.0151 203.917 49.8353 205.203 49.3986 206.411C49.2634 206.923 49.0192 207.399 48.6828 207.807Z" fill="white"/>
<path d="M78.7931 195.28C77.5834 195.14 76.4395 194.655 75.4985 193.882C74.5574 193.11 73.859 192.082 73.4869 190.922C74.1766 191.858 74.9493 192.729 75.7955 193.526C76.7389 194.201 77.7423 194.788 78.7931 195.28Z" fill="white"/>
<path d="M120.088 7.11144C120.171 6.49156 120.39 5.89761 120.729 5.37181C121.067 4.846 121.518 4.40123 122.048 4.06911C122.155 4.65968 122.263 5.2592 122.379 5.85872C122.854 5.15942 123.489 4.58356 124.231 4.17894C124.974 3.77432 125.802 3.55261 126.647 3.53223L125.35 5.83187C126.251 5.49297 127.218 5.36444 128.177 5.45606C127.619 6.40136 126.839 7.19671 125.904 7.77359C124.969 8.3624 124.296 9.28832 124.025 10.3596" fill="#263238"/>
<path d="M174.018 68.2536L134.271 100.995C133.6 100.422 121.502 76.62 121.502 76.62L156.229 55.959L126.352 29.2313L134.065 23.3882L171.835 44.4698C173.957 45.6528 175.748 47.352 177.039 49.4103C178.331 51.4686 179.083 53.8194 179.226 56.2454C179.364 58.5156 178.964 60.7863 178.059 62.8729C177.154 64.9595 175.77 66.8031 174.018 68.2536Z" fill="#FFBE9D"/>
<path d="M128.41 30.8316L134.548 23.8074L126.567 16.4074L124.473 11.137C124.558 10.697 124.552 10.244 124.455 9.80636C124.358 9.36871 124.172 8.95571 123.909 8.59309C123.645 8.23048 123.31 7.926 122.923 7.69862C122.537 7.47125 122.108 7.32584 121.663 7.27145L115.194 6.85089C115.194 6.85089 112.142 6.68983 112.429 8.6405C112.454 8.80825 112.526 8.96545 112.637 9.09377C112.748 9.2221 112.893 9.31626 113.055 9.36529L112.429 10.4659C112.366 12.2555 114.63 12.4076 114.63 12.4076L119.999 12.9177L121.063 15.7452C121.063 15.7452 114.594 12.7924 113.529 13.9556C112.464 15.1189 124.428 21.1857 124.428 21.1857L124.911 28.9525L126.173 29.4447L128.41 30.8316Z" fill="#FFBE9D"/>
<path d="M124.464 11.2907C124.161 10.8095 123.769 10.3904 123.309 10.0559C122.79 9.72934 122.208 9.51591 121.6 9.4295C120.841 9.32513 120.074 9.29516 119.31 9.34002C117.303 9.46372 115.29 9.4338 113.288 9.25054C115.28 8.97417 117.29 8.84855 119.301 8.87472C120.097 8.82726 120.895 8.8723 121.681 9.00895C122.33 9.12549 122.943 9.39206 123.47 9.78742C124.419 10.5122 124.562 11.2996 124.464 11.2907Z" fill="#EB996E"/>
<path d="M126.352 18.9313C126.28 18.9313 126.092 18.654 125.681 18.2602C125.145 17.7619 124.543 17.3403 123.891 17.0075C122.9 16.5867 121.94 16.0963 121.019 15.54C122.113 15.6703 123.168 16.0301 124.115 16.5959C124.824 16.9439 125.452 17.4379 125.958 18.0455C126.262 18.5287 126.352 18.9045 126.352 18.9313Z" fill="#EB996E"/>
<path d="M130.611 33.0599C130.14 32.7922 129.705 32.4676 129.313 32.0935C128.535 31.4492 127.461 30.5186 126.235 29.4091H126.468C126.124 29.4954 125.762 29.4649 125.438 29.3223C125.114 29.1797 124.847 28.9331 124.678 28.6216C124.429 28.1352 124.309 27.5929 124.329 27.0468C124.329 26.5457 124.329 26.0804 124.329 25.633C124.329 24.7829 124.383 23.9866 124.41 23.2528C124.403 22.517 124.472 21.7824 124.616 21.0605C124.734 21.7849 124.776 22.5197 124.741 23.2528C124.741 23.9866 124.741 24.7919 124.741 25.6419C124.635 26.5652 124.736 27.5006 125.036 28.38C125.149 28.6044 125.334 28.785 125.56 28.8934C125.787 29.0019 126.043 29.0322 126.289 28.9796H126.414L126.522 29.069C127.73 30.1697 128.768 31.136 129.492 31.8429C129.919 32.1961 130.295 32.6054 130.611 33.0599Z" fill="#EB996E"/>
<path d="M163.12 62.6608C161.843 61.6706 160.646 60.5815 159.54 59.4037C157.643 57.5425 155.961 56.2361 156.006 56.1377C156.051 56.0392 157.948 57.1935 159.862 59.0726C161.083 60.1386 162.176 61.3427 163.12 62.6608Z" fill="#EB996E"/>
<path d="M114.514 12.6153C115 12.0374 115.612 11.5783 116.303 11.2731C116.654 11.1275 117.037 11.0741 117.414 11.1179C117.792 11.1618 118.151 11.3014 118.46 11.5236C118.898 11.8905 119.14 12.4184 119.587 12.8121C119.891 13.0253 120.245 13.1576 120.614 13.1967C120.984 13.2359 121.357 13.1805 121.699 13.0358C122.377 12.7361 122.986 12.3006 123.489 11.7563C123.641 11.6041 123.873 11.4341 124.07 11.5415C124.124 11.5849 124.168 11.6393 124.198 11.7011C124.229 11.7628 124.247 11.8304 124.249 11.8994C124.342 12.5423 124.199 13.1973 123.846 13.7427C124.148 13.8229 124.47 13.7811 124.741 13.6264C124.856 14.0345 124.811 14.4711 124.614 14.8469C124.418 15.2227 124.086 15.5095 123.685 15.6487C122.868 15.895 121.997 15.895 121.18 15.6487C119.24 15.3231 117.386 14.6077 115.731 13.5459" fill="#263238"/>
<path d="M47.5018 86.6866C47.2544 81.2529 48.3496 75.8419 50.6906 70.932C53.0316 66.0222 56.5463 61.7647 60.9238 58.5361C61.5313 64.0313 60.6351 69.5882 58.3311 74.6139C56.0271 79.6395 52.4017 83.9452 47.8418 87.0714" fill="#E7AF22"/>
<g opacity="0.2">
<path opacity="0.2" d="M47.5018 86.6866C47.2544 81.2529 48.3496 75.8419 50.6906 70.932C53.0316 66.0222 56.5463 61.7647 60.9238 58.5361C61.5313 64.0313 60.6351 69.5882 58.3311 74.6139C56.0271 79.6395 52.4017 83.9452 47.8418 87.0714" fill="black"/>
</g>
<path d="M79.0704 75.6355L56.6198 55.6456L83.8487 28.2199L73.2363 20.4619C73.2363 20.4619 41.1307 44.6932 34.6702 51.5295C31.6548 54.7061 30.5541 63.0009 34.2407 66.7412C43.7883 76.4587 63.0087 93.9432 63.0087 93.9432L79.0704 75.6355Z" fill="#FFBE9D"/>
<path d="M107.901 15.3981L98.4964 13.877L103.946 11.1299L106.577 11.0404C106.409 10.2376 105.98 9.51306 105.357 8.98031C104.733 8.44755 103.951 8.13671 103.132 8.09653C100.179 7.90862 99.7044 8.4992 99.7044 8.4992C99.7044 8.4992 98.2638 5.42107 97.4943 5.22421C96.372 4.8635 95.2012 4.67641 94.0224 4.66943C93.0901 5.00734 92.2395 5.53785 91.5259 6.2264C91.5259 6.2264 88.0541 4.35626 87.213 5.52845C86.4064 7.0475 85.7587 8.64573 85.2802 10.2977L80.4662 14.9686L79.6519 15.4608L65.505 26.5205L75.6253 36.6945L87.8751 24.1135L89.8616 24.713C90.3825 24.8014 90.9169 24.7665 91.4219 24.6111C91.927 24.4557 92.3885 24.1842 92.7697 23.8182C93.5277 23.1812 94.2147 22.4642 94.8188 21.6797C95.2841 21.0891 96.1968 19.5232 96.3668 19.3621C96.834 18.9148 97.3684 18.5434 97.9506 18.2615C97.9506 18.2615 107.91 18.1273 108.644 17.662C109.377 17.1967 110.335 15.7918 107.901 15.3981Z" fill="#FFBE9D"/>
<path d="M95.0338 10.5926C95.7947 9.96057 96.6569 9.46142 97.5839 9.11619C98.4513 8.62182 99.4233 8.33972 100.42 8.29297C99.5595 8.77946 98.662 9.1983 97.7361 9.5457C96.8914 10.025 95.9809 10.3778 95.0338 10.5926Z" fill="#EB996E"/>
<path d="M97.1454 7.71089C97.2707 7.71089 97.2259 8.26567 97.047 8.87413C96.868 9.4826 96.6354 9.94789 96.5101 9.9121C96.3848 9.87631 96.4296 9.34838 96.5996 8.74886C96.7696 8.14934 97.0201 7.67509 97.1454 7.71089Z" fill="#EB996E"/>
<path d="M88.5908 9.79567C88.9556 9.01345 89.4554 8.30164 90.0672 7.69288C90.962 6.61912 91.8032 5.8138 91.9016 5.90328C91.5391 6.68683 91.0391 7.39903 90.4252 8.00606C89.5035 9.07983 88.6892 9.88515 88.5908 9.79567Z" fill="#EB996E"/>
<path d="M109.467 16.1579C109.482 16.2377 109.482 16.3197 109.467 16.3995C109.449 16.6315 109.401 16.8602 109.324 17.0795C109.256 17.2651 109.146 17.4326 109.004 17.5692C108.861 17.7057 108.689 17.8076 108.5 17.867C108.033 18.0146 107.549 18.1018 107.06 18.1264C106.004 18.207 104.724 18.2875 103.328 18.3054C101.932 18.3233 100.376 18.3054 98.7828 18.4665C98.0351 18.5011 97.3111 18.7393 96.6889 19.1555C96.1525 19.6137 95.7116 20.1732 95.3915 20.8019C94.8031 21.93 93.99 22.9258 93.0023 23.7279C92.3201 24.2564 91.5122 24.5986 90.658 24.7212C90.3497 24.7999 90.0266 24.7999 89.7184 24.7212C89.7184 24.7212 90.0495 24.7212 90.6132 24.578C91.4131 24.3981 92.1585 24.03 92.7876 23.5042C93.7096 22.6991 94.4637 21.72 95.0067 20.623C95.3488 19.9398 95.8233 19.3314 96.4026 18.8333C97.0895 18.359 97.8953 18.0862 98.7291 18.0459C100.367 17.9028 101.906 17.9206 103.31 17.9206C104.715 17.9206 105.995 17.9206 107.024 17.8401C107.491 17.8322 107.956 17.7752 108.411 17.6701C108.572 17.6305 108.723 17.5541 108.85 17.4471C108.977 17.34 109.078 17.205 109.145 17.0527C109.395 16.489 109.422 16.14 109.467 16.1579Z" fill="#EB996E"/>
<path d="M57.9442 53.8735C57.6051 54.4169 57.1959 54.9133 56.7273 55.35C55.922 56.2448 54.7945 57.417 53.5328 58.7055C52.2712 59.994 51.099 61.1483 50.231 61.9626C49.7966 62.4369 49.3069 62.8575 48.7725 63.2153C49.1179 62.6687 49.533 62.1694 50.0073 61.7299C50.8037 60.8351 51.9311 59.6719 53.1928 58.3834C54.4545 57.0948 55.6267 55.9405 56.4857 55.1263C56.9201 54.6519 57.4098 54.2314 57.9442 53.8735Z" fill="#EB996E"/>
<path d="M97.0561 9.43842C95.8411 8.54423 94.9895 7.24152 94.6581 5.76973C95.0697 6.06501 95.4902 6.35135 95.9108 6.66453C95.5638 5.79027 95.4105 4.85116 95.4614 3.91193C95.5124 2.97269 95.7665 2.05568 96.2061 1.22412L98.3536 4.80334C98.4158 4.40152 98.5712 4.01984 98.8074 3.68887C99.0435 3.3579 99.3539 3.08684 99.7137 2.89741C99.6036 4.7692 99.941 6.64029 100.698 8.35571" fill="#263238"/>
<path d="M90.7207 7.20046C89.7716 6.29023 89.0114 5.20163 88.4837 3.99707C88.6716 3.89864 88.8953 3.99707 89.0743 4.16708C89.2532 4.33709 89.5217 4.38183 89.6649 4.22077C89.808 4.0597 89.7185 3.86285 89.6649 3.68389C89.4963 3.23496 89.429 2.75437 89.4676 2.27641C89.5063 1.79845 89.65 1.33493 89.8886 0.918945L92.3672 5.53613L90.667 7.11099" fill="#263238"/>
<path d="M214.043 212.022C212.11 205.758 209.784 199.495 200.379 194.036L191.431 189.509L192.183 189.813L152.516 169.554H152.015L139.971 163.47L104.564 164.848L102.139 172.785L78.9275 174.279L78.3996 192.452V200.049C74.4087 196.014 65.2459 200.488 65.2459 207.154L88.4661 240.485C100.099 259.402 126.853 252.932 126.853 252.932L127.184 252.744C131.209 250.494 134.364 246.961 136.148 242.709C137.931 238.457 138.241 233.731 137.027 229.283L135.891 225.113C136.043 225.453 136.114 225.641 136.114 225.641L135.81 221.641L135.962 221.73L172.918 231.439C187.575 233.828 197.274 236.727 207.233 230.589C209.077 229.459 210.672 227.968 211.922 226.204C213.335 224.159 214.261 221.818 214.629 219.359C214.996 216.901 214.796 214.391 214.043 212.022Z" fill="#263238"/>
<path d="M202.724 225.596C203.027 225.582 203.328 225.531 203.618 225.444C204.465 225.226 205.28 224.902 206.043 224.477C208.631 223.095 210.566 220.743 211.423 217.937C212.28 215.131 211.99 212.1 210.616 209.507C210.22 208.727 209.724 208.002 209.139 207.351C208.941 207.102 208.705 206.884 208.441 206.707C209.164 207.621 209.797 208.604 210.329 209.641C211.583 212.182 211.817 215.106 210.986 217.814C210.154 220.522 208.319 222.81 205.855 224.209C204.856 224.765 203.807 225.229 202.724 225.596Z" fill="#455A64"/>
<path d="M97.4587 243.751C96.953 240.901 96.3049 238.079 95.5169 235.295C94.8682 232.474 94.0767 229.687 93.1457 226.946C93.6498 229.799 94.2979 232.624 95.0874 235.411C95.7353 238.23 96.5268 241.013 97.4587 243.751Z" fill="#455A64"/>
<path d="M94.7027 233.265C94.7537 233.903 94.9078 234.528 95.159 235.117C96.1971 238.032 97.9655 240.632 100.295 242.669C100.75 243.117 101.272 243.492 101.843 243.779C100.295 242.303 98.8788 240.695 97.6108 238.974C96.4732 237.161 95.5 235.25 94.7027 233.265Z" fill="#455A64"/>
<path d="M113.127 249.22C113.36 249.318 113.608 249.378 113.861 249.398C114.54 249.492 115.226 249.519 115.91 249.479C118.196 249.376 120.409 248.643 122.304 247.361C124.199 246.079 125.702 244.297 126.647 242.213C126.936 241.589 127.164 240.939 127.328 240.272C127.41 240.033 127.449 239.781 127.444 239.529C127.363 239.529 127.14 240.558 126.37 242.07C125.379 244.053 123.895 245.747 122.06 246.99C120.225 248.232 118.101 248.982 115.892 249.166C114.192 249.327 113.136 249.139 113.127 249.22Z" fill="#455A64"/>
<path d="M92.716 188.086C93.1313 187.906 93.5348 187.7 93.924 187.469C95.004 186.901 96.1188 186.402 97.2616 185.975C101.026 184.534 105.066 183.962 109.082 184.301C113.099 184.64 116.986 185.882 120.455 187.934C121.51 188.547 122.526 189.226 123.497 189.966C123.838 190.26 124.2 190.529 124.58 190.771C124.58 190.771 124.508 190.672 124.347 190.511C124.186 190.35 123.945 190.109 123.605 189.831C122.669 189.03 121.669 188.305 120.616 187.666C117.136 185.511 113.197 184.208 109.118 183.863C105.04 183.517 100.938 184.14 97.1453 185.679C95.9993 186.138 94.8921 186.689 93.8345 187.326C93.4587 187.541 93.1903 187.737 92.9934 187.863C92.8906 187.923 92.7971 187.999 92.716 188.086Z" fill="#455A64"/>
<path d="M136.866 175.864C136.328 176.392 135.87 176.994 135.506 177.653C133.585 180.71 132.581 184.253 132.615 187.863C132.583 188.608 132.668 189.354 132.866 190.073C132.678 185.041 134.067 180.077 136.839 175.873L136.866 175.864Z" fill="#455A64"/>
<path d="M93.0471 228.128C92.7776 227.811 92.538 227.469 92.3312 227.108C91.8928 226.446 91.2843 225.453 90.5416 224.218C89.0831 221.757 87.195 218.276 85.2175 214.375C83.24 210.474 81.5488 206.904 80.3319 204.318L78.9271 201.204C78.7269 200.839 78.5707 200.451 78.4618 200.049C78.7033 200.387 78.913 200.747 79.0881 201.123C79.4639 201.83 79.9829 202.859 80.6451 204.139L85.656 214.125C87.6246 218.017 89.4679 221.507 90.8459 223.967L92.4833 226.929C92.7152 227.307 92.9043 227.709 93.0471 228.128Z" fill="#455A64"/>
<path d="M181.83 226.284C181.662 226.28 181.496 226.25 181.337 226.194L179.977 225.836L174.966 224.458L158.565 219.769L142.091 215.063L137.089 213.676L135.729 213.309C135.567 213.279 135.41 213.225 135.264 213.148C135.427 213.155 135.588 213.175 135.747 213.211C136.069 213.273 136.535 213.354 137.134 213.497C138.333 213.765 140.051 214.195 142.181 214.75C146.422 215.859 152.256 217.479 158.69 219.322C165.124 221.165 170.931 222.901 175.128 224.136L180.085 225.666L181.427 226.105C181.565 226.155 181.7 226.214 181.83 226.284Z" fill="#455A64"/>
<path d="M128.75 174.798C128.917 175.654 129.012 176.522 129.036 177.393C129.161 179.004 129.323 181.223 129.457 183.657C129.591 186.091 129.68 188.346 129.663 189.921C129.669 190.563 129.633 191.206 129.555 191.844C129.558 192.085 129.489 192.322 129.358 192.524C129.314 192.524 129.358 192.283 129.358 191.826C129.358 191.37 129.358 190.735 129.358 189.929C129.269 188.14 129.153 186.019 129.018 183.666C128.884 181.313 128.777 178.986 128.732 177.402C128.653 176.536 128.659 175.664 128.75 174.798Z" fill="#455A64"/>
<path d="M123.614 176.972C123.614 176.972 123.73 176.828 124.017 176.739C124.439 176.617 124.891 176.656 125.287 176.846C125.591 176.989 125.848 177.214 126.03 177.495C126.212 177.777 126.311 178.104 126.316 178.439C126.332 178.84 126.226 179.236 126.012 179.575C125.777 179.945 125.414 180.216 124.992 180.336C124.592 180.459 124.163 180.448 123.769 180.306C123.375 180.164 123.038 179.899 122.809 179.549C122.637 179.262 122.541 178.937 122.53 178.604C122.519 178.27 122.593 177.939 122.746 177.643C122.949 177.262 123.26 176.951 123.641 176.748C123.909 176.623 124.061 176.578 124.079 176.605C124.097 176.632 123.963 176.73 123.739 176.909C123.426 177.121 123.173 177.411 123.005 177.75C122.901 177.997 122.859 178.265 122.882 178.532C122.905 178.799 122.994 179.055 123.14 179.28C123.323 179.542 123.585 179.739 123.887 179.842C124.19 179.945 124.517 179.949 124.822 179.853C125.128 179.759 125.394 179.567 125.58 179.306C125.766 179.046 125.861 178.732 125.851 178.412C125.859 178.146 125.794 177.883 125.661 177.652C125.528 177.421 125.334 177.232 125.099 177.106C124.632 176.901 124.11 176.853 123.614 176.972Z" fill="#455A64"/>
<path d="M126.62 194.581C126.858 194.975 127.056 195.392 127.211 195.825C127.56 196.639 128.043 197.82 128.58 199.306C129.68 202.267 131.023 206.419 132.356 211.045C133.689 215.672 134.79 219.904 135.568 222.955C135.926 224.432 136.23 225.64 136.463 226.588C136.596 227.026 136.686 227.475 136.731 227.93C136.547 227.512 136.4 227.078 136.293 226.633L135.255 223.054C134.36 219.94 133.215 215.779 131.917 211.189C130.62 206.598 129.296 202.411 128.276 199.422C127.774 197.928 127.381 196.738 127.05 195.896C126.87 195.471 126.726 195.031 126.62 194.581Z" fill="#455A64"/>
<path d="M182.053 226.563C182.126 226.384 182.18 226.198 182.214 226.008C182.239 225.733 182.204 225.456 182.113 225.195C182.022 224.934 181.877 224.696 181.686 224.496C181.028 223.906 180.202 223.537 179.324 223.44L175.834 222.697C169.094 221.18 162.459 219.232 155.97 216.863C149.478 214.504 143.147 211.724 137.018 208.541C135.837 207.933 134.781 207.369 133.868 206.85C132.955 206.331 132.15 205.902 131.515 205.517L130.047 204.622C129.874 204.527 129.709 204.416 129.555 204.291C129.744 204.351 129.924 204.436 130.092 204.542C130.486 204.738 130.987 205.007 131.604 205.338C132.222 205.669 133.054 206.107 133.984 206.591C134.915 207.074 135.98 207.629 137.17 208.219C143.327 211.309 149.658 214.04 156.131 216.398C162.605 218.753 169.207 220.74 175.906 222.348L179.387 223.153C180.308 223.283 181.163 223.703 181.829 224.353C182.024 224.574 182.168 224.835 182.251 225.118C182.335 225.401 182.356 225.698 182.313 225.99C182.294 226.205 182.202 226.407 182.053 226.563Z" fill="#455A64"/>
<path d="M90.0764 124.689C90.1511 124.797 90.2382 124.897 90.3358 124.985L91.1501 125.799C91.5739 126.227 92.0188 126.633 92.4834 127.016C93.0292 127.463 93.6287 128.009 94.3535 128.519C95.0783 129.029 95.8478 129.629 96.7426 130.183C97.6374 130.738 98.5949 131.302 99.615 131.884C104.137 134.291 109.062 135.847 114.147 136.474C115.319 136.581 116.428 136.715 117.475 136.733C118.522 136.751 119.497 136.733 120.383 136.733C121.269 136.733 122.075 136.626 122.781 136.572C123.381 136.528 123.979 136.454 124.571 136.349L125.698 136.152C125.83 136.134 125.959 136.101 126.083 136.053C126.083 136.053 125.949 136.053 125.681 136.053L124.553 136.161C123.96 136.243 123.362 136.293 122.764 136.313C122.066 136.313 121.269 136.429 120.383 136.411C119.497 136.393 118.54 136.411 117.502 136.349C116.464 136.286 115.363 136.17 114.209 136.044C109.176 135.387 104.299 133.845 99.8029 131.49C98.7828 130.926 97.8075 130.416 96.9395 129.843C96.0715 129.271 95.2573 128.752 94.5414 128.242C93.8256 127.732 93.1992 127.222 92.6444 126.792C92.0897 126.363 91.6333 125.969 91.2664 125.638L90.3716 124.895C90.2016 124.761 90.0853 124.671 90.0764 124.689Z" fill="#263238"/>
<path d="M137.224 133.611L136.579 125.146L137.268 101.612L158.565 84.8528C157.589 77.2917 145.68 61.8832 145.68 61.8832L127.497 69.0416H124.428L121.744 71.6365L115.596 70.7954C113.216 82.7232 98.1386 81.0946 90.0138 71.386L81.1373 72.1645L77.8892 69.2295L73.3346 70.4733L60.8521 58.5098C60.5837 71.1354 55.8949 80.1461 47.4301 86.6513L65.3798 105.979L69.8539 110.453C71.5003 134.067 73.0483 156.741 77.585 179.434L82.2737 178.405C106.21 177.912 142.655 170.602 152.453 169.519L154.466 167.533L150.887 164.365L137.224 133.611Z" fill="#E7AF22"/>
<path d="M79.9206 77.1577C80.0642 77.5896 80.1719 78.0325 80.2428 78.482C80.4128 79.3768 80.6454 80.6027 80.8602 82.1597C81.4267 86.2288 81.6392 90.3394 81.4955 94.4453C81.4146 96.7148 81.1149 98.9712 80.6007 101.183C80.2453 103.05 79.3052 104.754 77.9163 106.051C76.9536 106.88 75.7241 107.335 74.4534 107.33C74.1092 107.315 73.7689 107.252 73.4422 107.143C73.3299 107.103 73.222 107.052 73.1201 106.99C73.5585 107.085 74.005 107.136 74.4534 107.143C75.6747 107.093 76.8386 106.611 77.7373 105.782C79.021 104.497 79.8771 102.847 80.1891 101.058C80.6553 98.867 80.9278 96.6393 81.0033 94.4006C81.137 90.3224 80.9695 86.24 80.5022 82.1865C80.3322 80.6295 80.1533 79.3679 80.037 78.4999C79.9543 78.0574 79.9154 77.6078 79.9206 77.1577Z" fill="#263238"/>
<path d="M89.1815 90.5336C89.038 89.6148 88.9454 88.6887 88.9041 87.7597C88.6878 85.5366 88.3231 83.3305 87.8125 81.156C87.2865 78.9863 86.6139 76.8547 85.7992 74.7761C85.4171 73.9304 85.0825 73.0641 84.797 72.1812C84.797 72.1812 84.967 72.3959 85.1997 72.8165C85.4323 73.237 85.7544 73.8634 86.0945 74.6061C87.929 78.7387 88.9904 83.1727 89.2263 87.6881C89.2263 88.5829 89.2263 89.254 89.2263 89.7372C89.2573 90.0033 89.2422 90.2727 89.1815 90.5336Z" fill="#263238"/>
<path d="M139.971 163.147C139.833 163.251 139.682 163.338 139.524 163.407L138.208 164.051C137.644 164.329 136.938 164.66 136.105 165.009C135.273 165.358 134.316 165.778 133.26 166.163C130.777 167.12 128.248 167.95 125.681 168.65C119.383 170.386 112.901 171.363 106.371 171.559C103.365 171.639 100.653 171.559 98.3894 171.415C97.253 171.362 96.233 171.228 95.3292 171.147C94.4255 171.066 93.6649 170.95 93.0385 170.852L91.5889 170.619C91.4206 170.607 91.255 170.57 91.0968 170.512C91.2661 170.49 91.4375 170.49 91.6068 170.512L93.0564 170.655C93.6917 170.726 94.4613 170.807 95.3561 170.87C96.2509 170.932 97.2709 171.031 98.4073 171.066C100.662 171.192 103.365 171.219 106.353 171.111C109.597 170.98 112.831 170.681 116.044 170.216C119.249 169.714 122.426 169.051 125.565 168.23C128.455 167.451 131.023 166.628 133.144 165.841C134.217 165.483 135.166 165.08 135.998 164.758C136.83 164.436 137.555 164.132 138.137 163.863L139.488 163.3C139.643 163.232 139.805 163.181 139.971 163.147Z" fill="#263238"/>
<g opacity="0.2">
<path opacity="0.2" d="M85.9158 72.9163C88.3855 79.0099 90.3898 86.2131 90.533 92.7899C90.6741 94.1613 90.4454 95.5454 89.8708 96.7986C89.7277 97.0581 89.5219 97.3176 89.2266 97.3266C88.7255 97.3266 88.5734 96.6465 88.5913 96.1365C88.8003 88.2936 87.8965 80.4607 85.9069 72.8716" fill="black"/>
</g>
<g opacity="0.2">
<path opacity="0.2" d="M93.1635 126.496C101.163 131.064 110.206 133.49 119.417 133.538C120.431 133.425 121.455 133.635 122.343 134.137C123.166 134.737 123.39 136.204 122.495 136.696C122.215 136.827 121.91 136.897 121.6 136.902C116.299 137.374 110.958 136.706 105.936 134.944C100.914 133.181 96.3273 130.365 92.4835 126.684" fill="black"/>
</g>
<path d="M135.622 127.213C135.488 127.213 136.088 117.872 136.947 106.364C137.806 94.8572 138.611 85.5423 138.736 85.5513C138.861 85.5602 138.271 94.893 137.412 106.4C136.553 117.907 135.747 127.222 135.622 127.213Z" fill="#263238"/>
<path d="M69.0128 66.1685C69.1418 66.5909 69.2258 67.0258 69.2634 67.4659C69.4157 68.6526 69.4785 69.849 69.4513 71.0451C69.3608 75.0457 68.3441 78.9708 66.481 82.5122C64.6179 86.0536 61.9592 89.1149 58.7136 91.4556C57.7403 92.165 56.7143 92.7992 55.6445 93.3526C55.259 93.5718 54.851 93.7488 54.4275 93.8805C54.7838 93.6204 55.1609 93.3899 55.555 93.1915C56.5801 92.5844 57.569 91.9181 58.5168 91.1961C61.6537 88.8149 64.2271 85.7714 66.0537 82.2822C67.8802 78.793 68.915 74.9441 69.0844 71.0093C69.1566 69.8174 69.1566 68.6221 69.0844 67.4301C69.0291 67.012 69.0051 66.5902 69.0128 66.1685Z" fill="#FAFAFA"/>
<path d="M75.5449 69.9082C75.6368 70.0099 75.7178 70.1208 75.7865 70.2393C75.9976 70.5738 76.1888 70.9204 76.3592 71.2773C76.986 72.5984 77.4199 74.0026 77.6477 75.447C78.292 79.1068 77.9788 84.243 76.9856 89.7639C76.5036 92.3729 75.6855 94.9084 74.5517 97.3071C73.6137 99.2734 72.3794 101.084 70.892 102.676C69.8927 103.743 68.7516 104.667 67.5007 105.423C67.1618 105.629 66.8123 105.817 66.4537 105.987C66.3304 106.049 66.2016 106.1 66.069 106.139C66.069 106.139 66.5522 105.844 67.4022 105.244C68.5951 104.439 69.6858 103.493 70.6504 102.425C72.0745 100.84 73.2592 99.0558 74.1669 97.1281C75.2593 94.7538 76.0528 92.2531 76.5292 89.6834C77.5135 84.2161 77.8804 79.1068 77.3256 75.5097C77.0309 73.5604 76.4299 71.6699 75.5449 69.9082Z" fill="#FAFAFA"/>
<path d="M87.7766 80.7901C86.6004 80.6655 85.4132 80.6865 84.2421 80.8528C83.1011 81.1605 82.0014 81.6052 80.9672 82.1771C80.9672 82.1771 81.1909 81.8102 81.7456 81.4165C82.4696 80.9151 83.2889 80.5679 84.1527 80.3964C85.0178 80.2207 85.9094 80.2207 86.7744 80.3964C87.4277 80.5396 87.7945 80.7365 87.7766 80.7901Z" fill="#FAFAFA"/>
<path d="M88.072 77.0675C88.072 77.0675 88.4836 77.5955 89.2263 78.5529C90.254 79.9069 91.3657 81.195 92.555 82.4095C94.3035 84.2016 96.3201 85.7109 98.5323 86.8835C101.249 88.3268 104.327 88.9486 107.391 88.6731C110.453 88.3654 113.355 87.1573 115.73 85.2013C117.657 83.5923 119.156 81.5331 120.097 79.2061C120.739 77.6359 121.135 75.9758 121.269 74.2847C121.35 73.0857 121.269 72.4146 121.341 72.4146C121.39 72.5709 121.414 72.734 121.412 72.8978C121.439 73.3627 121.439 73.8287 121.412 74.2936C121.331 76.4412 120.806 78.5486 119.87 80.483C118.933 82.4173 117.606 84.1366 115.972 85.5324C113.548 87.5741 110.565 88.8372 107.412 89.1565C104.259 89.4758 101.083 88.8364 98.2996 87.322C96.0759 86.0908 94.0663 84.5073 92.3492 82.6332C91.172 81.389 90.0865 80.0612 89.101 78.6603C88.7521 78.1681 88.5015 77.7655 88.3315 77.497C88.221 77.3698 88.1332 77.2245 88.072 77.0675Z" fill="#FAFAFA"/>
<path d="M90.3719 98.0774C88.791 97.7823 87.1761 97.713 85.5757 97.8715C83.9992 98.1781 82.4745 98.7085 81.048 99.4464C81.048 99.4017 81.4149 99.008 82.1934 98.5516C84.263 97.3828 86.6934 97.0256 89.0118 97.5494C89.4991 97.6209 89.964 97.8013 90.3719 98.0774Z" fill="#FAFAFA"/>
<path d="M136.401 90.1126C136.401 90.1573 135.729 90.0231 134.521 90.1126C132.825 90.2799 131.176 90.7688 129.663 91.5532C127.431 92.7668 125.295 94.1488 123.274 95.6872C122.041 96.5661 120.739 97.3441 119.381 98.0137C117.903 98.7082 116.355 99.2451 114.764 99.6154C111.694 100.296 108.54 100.522 105.405 100.286C102.856 100.088 100.323 99.7144 97.8256 99.168C95.687 98.7206 93.9869 98.2732 92.8057 97.9689L91.4546 97.5931C91.2953 97.5626 91.1414 97.5083 90.9982 97.4321C91.1618 97.4337 91.3244 97.4578 91.4814 97.5036L92.8505 97.79C94.0406 98.0405 95.7586 98.4342 97.8882 98.8459C100.378 99.3459 102.898 99.6836 105.431 99.857C108.524 100.071 111.631 99.8357 114.657 99.159C116.217 98.7968 117.734 98.272 119.185 97.5931C120.526 96.9431 121.813 96.186 123.032 95.3293C125.08 93.7974 127.25 92.4357 129.52 91.2579C131.077 90.4823 132.776 90.0318 134.513 89.9336C134.982 89.9174 135.452 89.9414 135.917 90.0052C136.083 90.0184 136.245 90.0546 136.401 90.1126Z" fill="#FAFAFA"/>
<path d="M139.908 84.1276C139.827 84.1276 139.765 83.0807 139.407 81.4432C138.455 77.1546 136.153 73.2843 132.839 70.4013C131.577 69.3007 130.691 68.7459 130.736 68.6743C130.973 68.7489 131.197 68.8607 131.398 69.0054C131.979 69.3435 132.533 69.7265 133.054 70.1507C136.573 72.963 138.959 76.9504 139.774 81.3805C139.898 82.042 139.969 82.7122 139.988 83.3849C140.006 83.6353 139.978 83.8867 139.908 84.1276Z" fill="#FAFAFA"/>
<path d="M149.733 91.8232C149.692 91.4336 149.692 91.0407 149.733 90.651C149.733 89.8994 149.733 88.8167 149.671 87.4745C149.526 83.9927 148.924 80.545 147.881 77.22C147.272 75.4042 146.521 73.639 145.635 71.9407C144.905 70.5558 144.086 69.2197 143.183 67.9409C141.635 65.7576 140.499 64.5407 140.562 64.478C140.872 64.7162 141.155 64.9894 141.403 65.2923C142.129 66.0724 142.813 66.8908 143.452 67.7441C144.398 69.014 145.256 70.3474 146.02 71.7349C146.937 73.4572 147.709 75.2531 148.328 77.1037C149.409 80.4634 149.987 83.9639 150.046 87.4924C150.071 88.558 150.041 89.6242 149.957 90.6868C149.92 91.072 149.845 91.4526 149.733 91.8232Z" fill="#FAFAFA"/>
<path d="M135.3 112.35C135.11 112.468 134.913 112.572 134.709 112.663C134.126 112.933 133.528 113.172 132.92 113.379C130.675 114.106 128.342 114.525 125.985 114.623C122.508 114.728 119.027 114.638 115.56 114.354C113.52 114.227 111.474 114.203 109.431 114.283C107.244 114.393 105.07 114.692 102.935 115.178C98.5323 116.135 94.3714 117.415 90.4075 117.817C86.9306 118.152 83.4268 118.086 79.9651 117.62C77.0122 117.254 74.6589 116.797 73.0304 116.484L71.1513 116.099C70.932 116.061 70.7165 116.004 70.507 115.929C70.7291 115.944 70.9502 115.97 71.1692 116.01L73.0572 116.305C74.6947 116.565 77.0659 116.967 80.0009 117.289C83.4403 117.707 86.9154 117.744 90.3627 117.397C94.2462 116.967 98.3712 115.688 102.809 114.712C104.971 114.222 107.172 113.922 109.386 113.818C111.442 113.746 113.499 113.779 115.551 113.916C119.008 114.223 122.479 114.346 125.949 114.283C128.279 114.214 130.591 113.85 132.83 113.2C133.618 112.95 134.226 112.726 134.62 112.565C134.837 112.468 135.066 112.396 135.3 112.35Z" fill="#FAFAFA"/>
<path d="M109.467 132.885C108.964 132.928 108.458 132.928 107.955 132.885C106.979 132.885 105.566 132.841 103.83 132.885C94.7415 132.945 85.7063 134.273 76.9855 136.831C75.3122 137.315 73.97 137.726 73.0394 138.039C72.5653 138.221 72.0776 138.364 71.5809 138.469C72.029 138.231 72.4959 138.031 72.9768 137.869C73.8716 137.511 75.2227 137.046 76.8871 136.509C81.2358 135.148 85.6847 134.131 90.1928 133.467C94.6984 132.807 99.2495 132.507 103.803 132.572C105.548 132.572 106.961 132.662 107.937 132.742C108.45 132.745 108.962 132.793 109.467 132.885Z" fill="#FAFAFA"/>
<path d="M135.389 130.595C134.808 131 134.176 131.327 133.51 131.57C131.946 132.247 130.337 132.818 128.696 133.279C127.055 133.739 125.383 134.086 123.694 134.317C123 134.457 122.289 134.502 121.583 134.451C122.255 134.242 122.943 134.089 123.641 133.995C124.92 133.735 126.665 133.36 128.571 132.823C130.477 132.286 132.15 131.713 133.385 131.266C134.031 130.981 134.702 130.756 135.389 130.595Z" fill="#FAFAFA"/>
<path d="M143.559 146.532C143.357 146.661 143.145 146.772 142.923 146.863C142.512 147.069 141.877 147.347 141.062 147.687C138.747 148.638 136.381 149.463 133.975 150.156C126.005 152.335 117.852 153.784 109.619 154.487C101.394 155.235 93.1219 155.301 84.8865 154.684C81.7189 154.451 79.1777 154.156 77.4239 153.923L75.4016 153.628C75.1653 153.605 74.9317 153.56 74.7036 153.494C74.9431 153.487 75.1828 153.502 75.4195 153.539L77.4417 153.744C79.2313 153.914 81.7457 154.165 84.9044 154.362C93.1273 154.876 101.377 154.763 109.583 154.022C117.788 153.319 125.918 151.921 133.886 149.843C136.928 148.993 139.344 148.143 140.991 147.517L142.888 146.774C143.104 146.674 143.329 146.593 143.559 146.532Z" fill="#FAFAFA"/>
<path d="M88.287 170.154C86.1659 170.008 84.0372 170.008 81.916 170.154C79.7998 170.449 77.7068 170.892 75.6524 171.479C76.1783 171.122 76.7585 170.853 77.3704 170.682C78.8185 170.18 80.3198 169.846 81.8444 169.689C83.366 169.531 84.901 169.555 86.4169 169.76C87.0576 169.789 87.6894 169.922 88.287 170.154Z" fill="#FAFAFA"/>
<path d="M146.556 161.832C146.556 161.966 144.937 161.966 142.977 162.315C141.018 162.664 139.523 163.21 139.47 163.076C141.612 161.869 144.103 161.43 146.53 161.832H146.556Z" fill="#FAFAFA"/>
</svg>
