<svg width="247" height="249" viewBox="0 0 247 249" fill="none" xmlns="http://www.w3.org/2000/svg">
<path d="M43.8226 249C-2.02051 219.824 41.2442 200.953 17.0957 150.833C-14.982 84.2498 -9.21826 0.0856903 98.3496 4.84713e-05C169.161 -0.0565622 229.071 49.4821 241.283 108.023C259.535 195.488 228.247 249 228.247 249H43.8226Z" fill="#E73A40"/>
<path d="M139.575 120.092C139.633 119.692 139.538 119.284 139.311 118.95C139.084 118.615 138.74 118.378 138.346 118.284L136.753 118.391L131.036 116.412C130.791 116.347 130.535 116.337 130.286 116.383C130.037 116.429 129.801 116.53 129.596 116.679C129.391 116.827 129.221 117.019 129.099 117.241C128.977 117.463 128.907 117.71 128.892 117.963C128.892 119.599 128.177 124.058 126.884 122.658L126.784 122.565C124.904 120.471 122.732 119.456 121.896 119.578C121.717 119.613 121.551 119.698 121.419 119.824C121.287 119.95 121.194 120.111 121.151 120.289C121.107 120.466 121.115 120.652 121.174 120.825C121.232 120.997 121.339 121.15 121.481 121.264C121.578 121.366 121.695 121.446 121.824 121.5C121.881 121.5 121.953 121.571 122.01 121.6C122.801 122.175 123.531 122.828 124.19 123.551C124.785 124.179 125.268 124.904 125.619 125.695C125.998 126.581 126.298 127.353 126.534 128.017L126.619 133.255L124.347 157.745C124.347 157.745 109.268 141.909 109.619 141.759L110.498 166.428L119.63 173.981C121.322 175.387 123.381 176.278 125.564 176.548C127.746 176.817 129.961 176.454 131.943 175.502C133.925 174.55 135.593 173.049 136.747 171.177C137.901 169.305 138.493 167.14 138.453 164.942L137.932 133.277L138.303 129.125L139.575 120.092Z" fill="#FFBE9D"/>
<path d="M54.9218 154.908L38.407 192.669L25.3724 219.91L15.675 223.169C15.675 223.169 8 225.398 8 226.985C8 228.571 10.0224 228.214 10.0224 228.214C10.394 230.586 13.6812 229.243 15.9823 228.214C18.2834 227.185 23.4 226.899 23.4 226.899C23.1326 227.081 22.9113 227.323 22.754 227.606C22.5966 227.889 22.5074 228.205 22.4936 228.528C22.4797 228.851 22.5415 229.174 22.674 229.469C22.8066 229.764 23.0062 230.024 23.2571 230.229C24.0718 230.801 25.4867 230.107 26.4443 229.086C27.4019 228.064 29.8745 227.592 32.6257 226.606C35.377 225.62 35.8272 221.932 35.8272 221.932L68.8497 166.285L54.9218 154.908Z" fill="#FFBE9D"/>
<path d="M109.69 168.622L113.842 174.103L122.839 154.143C122.839 154.143 114.106 143.488 110.912 139.022C107.718 134.556 105.374 133.82 105.374 133.82C105.374 133.82 99.5711 132.126 96.6769 132.126L82.3417 132.984L67.7849 139.336C64.2097 140.897 61.1638 143.462 59.0166 146.718L45.3102 168.736L64.7192 177.033L71.2294 214.307C72.4728 219.888 73.5662 225.155 78.7186 227.728L114.714 193.133L110.498 186.487L109.69 168.622Z" fill="#E7AF22"/>
<path d="M75.2742 161.797C75.36 161.854 73.1304 165.299 70.3219 169.501C67.5135 173.703 65.1409 177.047 65.0623 176.99C64.9837 176.933 67.2062 173.488 70.0146 169.286C72.8231 165.084 75.1885 161.74 75.2742 161.797Z" fill="#263238"/>
<path d="M105.452 197.156C105.15 197.373 104.829 197.564 104.495 197.727C103.873 198.07 102.958 198.556 101.822 199.157C99.5426 200.336 96.384 201.915 92.8466 203.58C89.3092 205.245 86.0792 206.682 83.7209 207.682C82.5418 208.182 81.5771 208.582 80.9196 208.847C80.5799 208.999 80.2286 209.123 79.8691 209.219C80.1846 209.02 80.517 208.851 80.8625 208.711L83.6137 207.446C85.9434 206.381 89.1592 204.909 92.6894 203.244C96.2196 201.579 99.3997 200.036 101.701 198.957L104.431 197.642C104.757 197.451 105.098 197.288 105.452 197.156Z" fill="#263238"/>
<path d="M74.138 153.736C73.6745 153.239 73.2516 152.706 72.8731 152.142C71.9267 150.829 70.857 149.608 69.6787 148.498C68.4932 147.405 67.0872 146.579 65.5554 146.075C64.3763 145.703 63.5902 145.718 63.5902 145.646C63.7691 145.596 63.956 145.582 64.1405 145.603C64.6421 145.622 65.1404 145.694 65.6269 145.818C67.2257 146.268 68.6951 147.091 69.9146 148.219C71.1148 149.346 72.1753 150.612 73.0732 151.992C73.4854 152.536 73.8421 153.12 74.138 153.736Z" fill="#263238"/>
<path d="M103.738 171.866C103.756 171.999 103.756 172.133 103.738 172.266C103.738 172.523 103.738 172.902 103.738 173.395C103.654 174.783 103.46 176.161 103.159 177.518C102.198 182.031 100.193 186.257 97.3056 189.855C94.4178 193.454 90.7272 196.327 86.5296 198.242C85.2674 198.818 83.963 199.295 82.6278 199.672C82.1561 199.814 81.7774 199.893 81.5272 199.95C81.4021 199.99 81.2725 200.014 81.1414 200.022C81.1414 200.022 81.6559 199.843 82.5706 199.536C83.8796 199.1 85.1591 198.579 86.4009 197.978C90.5235 196.018 94.1489 193.15 97.0053 189.589C99.8617 186.029 101.875 181.868 102.894 177.418C103.217 176.074 103.456 174.712 103.609 173.338C103.673 172.409 103.709 171.866 103.738 171.866Z" fill="#263238"/>
<g opacity="0.3">
<path opacity="0.3" d="M67.2349 191.439C67.1706 191.082 71.8513 166.885 71.8513 166.885L64.7909 177.483" fill="black"/>
</g>
<path d="M108.768 145.396C108.801 145.532 108.818 145.671 108.818 145.81C108.818 146.125 108.861 146.525 108.897 147.011C108.947 148.097 109.026 149.584 109.118 151.406C109.297 155.165 109.547 160.274 109.833 165.913C110.119 171.551 110.319 176.718 110.426 180.434C110.483 182.292 110.519 183.8 110.533 184.836V186.036C110.552 186.174 110.552 186.313 110.533 186.451C110.5 186.315 110.483 186.176 110.483 186.036C110.483 185.722 110.44 185.322 110.405 184.843C110.355 183.757 110.276 182.263 110.183 180.448C110.005 176.689 109.754 171.58 109.469 165.934C109.183 160.289 108.99 155.136 108.875 151.413C108.818 149.555 108.783 148.054 108.768 147.011V145.818C108.75 145.678 108.75 145.536 108.768 145.396Z" fill="#263238"/>
<g opacity="0.2">
<path opacity="0.2" d="M80.0407 209.154C78.8831 208.197 79.1475 206.239 80.1694 205.138C81.1913 204.038 82.7134 203.588 84.1427 203.102C90.9815 200.886 97.8562 197.756 102.365 192.154C102.941 191.352 103.621 190.631 104.388 190.01C104.779 189.701 105.246 189.502 105.739 189.434C106.233 189.366 106.736 189.432 107.196 189.624C108.575 190.338 108.625 192.339 108.047 193.79C107.327 195.57 105.99 197.031 104.281 197.906" fill="black"/>
</g>
<g opacity="0.2">
<path opacity="0.2" d="M108.918 149.691L112.913 172.874L109.805 168.765L108.918 149.691Z" fill="black"/>
</g>
<path d="M146.922 210.584L140.169 233.752L168.947 242.327C169.597 239.526 156.348 229.586 156.348 229.586L161.322 214.893L146.922 210.584Z" fill="#E7AF22"/>
<g opacity="0.6">
<path opacity="0.6" d="M147.822 225.669C147.52 225.669 147.229 225.781 147.005 225.983C146.781 226.185 146.639 226.463 146.607 226.763C146.599 227.064 146.706 227.358 146.906 227.584C147.107 227.81 147.386 227.95 147.686 227.978C148.007 227.974 148.314 227.852 148.55 227.636C148.786 227.42 148.934 227.124 148.966 226.806C148.944 226.489 148.799 226.193 148.563 225.981C148.327 225.769 148.018 225.657 147.701 225.669" fill="white"/>
</g>
<g opacity="0.6">
<path opacity="0.6" d="M140.169 233.752L140.941 231.444L168.246 240.505C168.246 240.505 169.361 241.441 168.961 242.299L140.169 233.752Z" fill="white"/>
</g>
<path d="M156.855 229.55C156.812 229.686 156.09 229.55 155.261 229.793C154.432 230.036 153.896 230.507 153.782 230.422C153.668 230.336 154.118 229.578 155.126 229.3C156.133 229.021 156.926 229.428 156.855 229.55Z" fill="#263238"/>
<path d="M159.506 231.694C159.506 231.844 158.791 231.901 158.163 232.351C157.534 232.801 157.184 233.394 157.048 233.344C156.912 233.294 157.048 232.473 157.877 231.915C158.706 231.358 159.542 231.558 159.506 231.694Z" fill="#263238"/>
<path d="M160.149 235.817C160.006 235.817 160.021 235.045 160.614 234.388C161.207 233.73 161.95 233.616 161.971 233.745C161.993 233.873 161.471 234.174 160.992 234.724C160.514 235.274 160.292 235.846 160.149 235.817Z" fill="#263238"/>
<path d="M157.613 226.084C157.513 226.191 156.898 225.805 156.119 225.627C155.34 225.448 154.611 225.512 154.575 225.369C154.54 225.226 155.29 224.905 156.233 225.126C157.177 225.348 157.748 225.991 157.613 226.084Z" fill="#263238"/>
<path d="M157.941 222.468C157.435 222.452 156.941 222.302 156.512 222.032C156.018 221.787 155.557 221.479 155.14 221.118C154.885 220.897 154.646 220.658 154.425 220.403C154.291 220.267 154.18 220.11 154.097 219.938C154.034 219.811 154.015 219.665 154.043 219.526C154.072 219.386 154.146 219.26 154.254 219.167C154.354 219.09 154.471 219.037 154.595 219.014C154.719 218.99 154.847 218.996 154.968 219.031C155.152 219.085 155.328 219.164 155.49 219.267C155.773 219.434 156.041 219.625 156.29 219.838C156.713 220.203 157.075 220.632 157.362 221.11C157.674 221.523 157.849 222.023 157.863 222.54C157.784 222.54 157.591 222.025 157.062 221.318C156.757 220.902 156.396 220.529 155.99 220.21C155.755 220.022 155.504 219.855 155.24 219.71C154.961 219.538 154.704 219.46 154.583 219.574C154.461 219.688 154.532 219.631 154.583 219.738C154.645 219.865 154.727 219.981 154.825 220.081C155.025 220.315 155.237 220.537 155.461 220.746C155.843 221.098 156.254 221.416 156.691 221.696C157.434 222.168 157.97 222.39 157.941 222.468Z" fill="#263238"/>
<path d="M157.698 222.611C157.547 222.12 157.559 221.594 157.734 221.11C157.863 220.568 158.088 220.052 158.398 219.588C158.579 219.311 158.79 219.054 159.027 218.824C159.161 218.655 159.336 218.525 159.535 218.444C159.734 218.364 159.951 218.337 160.164 218.366C160.289 218.409 160.401 218.486 160.485 218.588C160.57 218.69 160.624 218.814 160.642 218.945C160.668 219.135 160.668 219.327 160.642 219.517C160.597 219.853 160.5 220.181 160.357 220.489C160.113 221.003 159.75 221.451 159.299 221.797C158.513 222.375 157.87 222.368 157.87 222.318C157.87 222.268 158.413 222.111 159.056 221.518C159.428 221.181 159.721 220.766 159.913 220.303C160.029 220.034 160.104 219.75 160.135 219.46C160.185 219.138 160.135 218.859 160.021 218.859C159.906 218.859 159.563 218.974 159.37 219.181C159.158 219.389 158.962 219.614 158.784 219.853C158.483 220.269 158.242 220.726 158.07 221.211C157.791 222.039 157.784 222.611 157.698 222.611Z" fill="#263238"/>
<path d="M176.471 176.089C177.186 181.434 175.371 187.459 173.434 192.525L160.814 222.168L146.843 220.024C146.843 220.024 143.935 223.268 140.212 224.512C138.547 225.062 133.066 226.141 128.556 222.897C128.556 222.897 122.175 231.786 112.12 234.473C102.065 237.16 86.8797 238.647 79.5192 226.898L114.535 193.14C115.25 193.311 144.714 173.445 160.628 168.921C160.657 168.921 175.128 166.263 176.471 176.089Z" fill="#263238"/>
<path d="M145.807 219.909C145.807 219.909 145.864 219.866 145.993 219.795L146.564 219.495C147.072 219.223 147.815 218.845 148.758 218.323C149.91 217.699 151.027 217.012 152.103 216.265C153.528 215.287 154.802 214.105 155.883 212.756C157.176 211.108 158.02 209.153 158.334 207.082C158.691 204.703 158.589 202.277 158.034 199.936C157.561 197.322 156.2 194.952 154.182 193.225C151.891 191.546 149.159 190.572 146.321 190.424C144.882 190.307 143.435 190.319 141.998 190.46C140.6 190.608 139.213 190.847 137.846 191.175C135.267 191.839 132.746 192.712 130.307 193.783C125.64 195.827 121.589 198.028 118.03 199.55C115.245 200.816 112.335 201.786 109.347 202.444C108.818 202.566 108.34 202.644 107.918 202.701C107.496 202.758 107.16 202.823 106.875 202.844L106.231 202.909H106.01L106.231 202.859L106.867 202.766C107.146 202.723 107.496 202.673 107.904 202.587C108.311 202.501 108.783 202.43 109.333 202.301C112.284 201.587 115.156 200.581 117.908 199.3C121.438 197.756 125.476 195.534 130.157 193.461C132.61 192.375 135.149 191.491 137.746 190.817C139.128 190.489 140.529 190.251 141.941 190.103C143.402 189.962 144.873 189.95 146.336 190.067C149.258 190.215 152.072 191.222 154.425 192.961C155.508 193.833 156.401 194.918 157.048 196.148C157.662 197.325 158.112 198.58 158.384 199.879C158.934 202.262 159.026 204.728 158.656 207.146C158.315 209.26 157.436 211.251 156.105 212.927C154.998 214.288 153.692 215.473 152.231 216.443C151.141 217.178 150.01 217.851 148.844 218.459C147.887 218.959 147.129 219.323 146.614 219.566L146.021 219.838C145.953 219.871 145.881 219.895 145.807 219.909Z" fill="#455A64"/>
<path d="M154.568 180.97C153.701 182.628 152.722 184.226 151.638 185.751C150.659 187.344 149.578 188.872 148.401 190.325C149.271 188.668 150.25 187.071 151.331 185.544C152.31 183.951 153.391 182.423 154.568 180.97Z" fill="#455A64"/>
<path d="M144.492 217.552C143.659 217.816 142.812 218.035 141.955 218.209C140.39 218.595 138.239 219.188 135.909 220.003C133.58 220.818 131.529 221.697 130.064 222.368C128.599 223.04 127.699 223.49 127.67 223.44C127.848 223.285 128.045 223.153 128.256 223.047C128.649 222.811 129.228 222.497 129.95 222.132C133.734 220.226 137.75 218.82 141.898 217.952C142.691 217.788 143.327 217.673 143.792 217.616C144.022 217.566 144.257 217.544 144.492 217.552Z" fill="#455A64"/>
<path d="M160.564 220.224C160.5 220.224 160.335 219.595 159.742 218.723C158.987 217.576 157.864 216.719 156.557 216.295C155.251 215.87 153.839 215.903 152.553 216.387C151.56 216.744 151.038 217.18 150.995 217.101C150.952 217.023 151.095 216.958 151.338 216.765C151.681 216.504 152.055 216.288 152.453 216.122C153.79 215.544 155.294 215.476 156.678 215.931C158.062 216.387 159.231 217.335 159.964 218.595C160.188 218.963 160.364 219.36 160.485 219.774C160.607 220.024 160.607 220.224 160.564 220.224Z" fill="#455A64"/>
<path d="M100.122 209.155C100.223 209.363 100.286 209.588 100.307 209.819C100.414 210.44 100.467 211.069 100.465 211.699C100.467 213.802 99.8989 215.867 98.821 217.673C97.7232 219.484 96.031 220.858 94.0331 221.561C93.4332 221.765 92.8079 221.885 92.1751 221.918C91.939 221.963 91.6965 221.963 91.4604 221.918C92.2985 221.806 93.124 221.614 93.9259 221.346C95.8258 220.602 97.428 219.254 98.4851 217.509C99.5247 215.756 100.109 213.771 100.186 211.735C100.272 210.127 100.057 209.162 100.122 209.155Z" fill="#455A64"/>
<path d="M84.3644 225.184C84.2858 225.248 83.9142 224.926 83.564 224.469C83.2138 224.012 83.0281 223.519 83.121 223.469C83.2139 223.419 83.5283 223.776 83.8713 224.247C84.2143 224.719 84.443 225.119 84.3644 225.184Z" fill="#455A64"/>
<path d="M87.3012 228.292C87.2368 228.371 86.8367 228.092 86.4079 227.677C85.9791 227.263 85.6933 226.87 85.7647 226.806C85.8362 226.741 86.2435 227.006 86.6651 227.413C87.0868 227.82 87.3726 228.213 87.3012 228.292Z" fill="#455A64"/>
<path d="M90.7744 230.8C90.7244 230.886 90.2741 230.7 89.7739 230.372C89.2737 230.043 88.9164 229.714 88.9735 229.657C89.0307 229.6 89.4881 229.771 89.974 230.086C90.4599 230.4 90.8244 230.743 90.7744 230.8Z" fill="#455A64"/>
<path d="M94.7046 232.487C94.7046 232.587 94.1972 232.487 93.6327 232.301C93.0681 232.115 92.6465 231.858 92.6894 231.758C92.7323 231.658 93.2111 231.758 93.7542 231.951C94.2973 232.144 94.7332 232.387 94.7046 232.487Z" fill="#455A64"/>
<path d="M98.9279 233.151C98.9279 233.252 98.442 233.294 97.8417 233.237C97.2414 233.18 96.7769 233.059 96.7912 232.959C96.8055 232.858 97.2986 232.816 97.8774 232.873C98.4563 232.93 98.9279 233.051 98.9279 233.151Z" fill="#455A64"/>
<path d="M103.201 232.923C103.201 233.023 102.737 233.137 102.144 233.18C101.877 233.202 101.61 233.202 101.343 233.18C101.165 233.18 101.058 233.137 101.05 233.087C101.043 233.037 101.143 232.987 101.315 232.937C101.573 232.876 101.836 232.838 102.101 232.823C102.723 232.766 103.187 232.816 103.201 232.923Z" fill="#455A64"/>
<path d="M107.411 232.172C107.411 232.272 106.989 232.451 106.403 232.58C105.817 232.708 105.338 232.723 105.324 232.623C105.31 232.523 105.753 232.337 106.332 232.215C106.91 232.094 107.389 232.058 107.411 232.172Z" fill="#455A64"/>
<path d="M111.513 230.908C111.513 231.008 111.119 231.236 110.555 231.429C109.99 231.622 109.504 231.687 109.476 231.594C109.447 231.501 109.876 231.265 110.433 231.072C110.991 230.879 111.477 230.815 111.513 230.908Z" fill="#455A64"/>
<path d="M115.45 229.235C115.5 229.328 115.093 229.607 114.557 229.85C114.021 230.093 113.542 230.222 113.499 230.129C113.456 230.036 113.864 229.757 114.399 229.514C114.935 229.271 115.407 229.142 115.45 229.235Z" fill="#455A64"/>
<path d="M119.209 227.17C119.259 227.256 118.887 227.57 118.373 227.885C117.858 228.199 117.401 228.349 117.358 228.263C117.315 228.178 117.68 227.856 118.187 227.549C118.694 227.242 119.159 227.091 119.209 227.17Z" fill="#455A64"/>
<path d="M122.732 224.762C122.796 224.847 122.453 225.191 121.967 225.541C121.481 225.891 121.045 226.098 120.988 226.012C120.931 225.927 121.274 225.576 121.753 225.233C122.232 224.89 122.682 224.683 122.732 224.762Z" fill="#455A64"/>
<path d="M126.048 222.032C126.119 222.11 125.805 222.489 125.333 222.875C124.862 223.261 124.461 223.518 124.397 223.44C124.333 223.361 124.64 222.982 125.112 222.596C125.583 222.21 125.976 221.96 126.048 222.032Z" fill="#455A64"/>
<path d="M129.163 219.088C129.235 219.166 128.942 219.559 128.513 219.959C128.084 220.36 127.67 220.631 127.606 220.56C127.541 220.488 127.82 220.102 128.256 219.688C128.692 219.273 129.099 219.016 129.163 219.088Z" fill="#455A64"/>
<path d="M132.551 216.451C132.608 216.537 132.272 216.887 131.793 217.23C131.315 217.573 130.879 217.788 130.814 217.709C130.75 217.63 131.093 217.28 131.572 216.93C132.051 216.58 132.494 216.373 132.551 216.451Z" fill="#455A64"/>
<path d="M136.31 214.385C136.353 214.478 135.952 214.764 135.431 215.029C134.909 215.293 134.437 215.429 134.387 215.336C134.337 215.243 134.73 214.957 135.266 214.693C135.802 214.428 136.267 214.307 136.31 214.385Z" fill="#455A64"/>
<path d="M140.398 213.113C140.398 213.213 139.969 213.414 139.404 213.549C138.84 213.685 138.347 213.728 138.318 213.635C138.289 213.542 138.732 213.335 139.311 213.192C139.89 213.049 140.383 213.013 140.398 213.113Z" fill="#455A64"/>
<path d="M144.671 212.878C144.671 212.985 144.178 213.021 143.592 213.007C143.006 212.992 142.534 212.942 142.527 212.842C142.52 212.742 142.999 212.628 143.599 212.635C144.199 212.642 144.678 212.792 144.671 212.878Z" fill="#455A64"/>
<path d="M148.802 213.978C148.752 214.071 148.294 213.935 147.751 213.742C147.208 213.549 146.758 213.356 146.779 213.256C146.801 213.156 147.301 213.185 147.873 213.392C148.444 213.599 148.844 213.885 148.802 213.978Z" fill="#455A64"/>
<path d="M147.894 217.087C147.829 217.001 148.151 216.651 148.53 216.222C148.908 215.793 149.244 215.436 149.309 215.507C149.373 215.579 149.223 216.029 148.808 216.486C148.394 216.944 147.958 217.165 147.894 217.087Z" fill="#455A64"/>
<path d="M144.114 219.052C144.114 218.952 144.492 218.694 145.028 218.473C145.564 218.251 146.043 218.144 146.093 218.237C146.143 218.33 145.729 218.587 145.171 218.816C144.614 219.045 144.171 219.152 144.114 219.052Z" fill="#455A64"/>
<path d="M140.026 220.367C140.026 220.267 140.419 220.038 140.983 219.845C141.548 219.652 142.027 219.581 142.062 219.681C142.098 219.781 141.662 220.01 141.105 220.195C140.547 220.381 140.061 220.46 140.026 220.367Z" fill="#455A64"/>
<path d="M136.024 221.889C135.981 221.796 136.395 221.546 136.953 221.325C137.51 221.103 137.982 221.01 138.018 221.103C138.053 221.196 137.639 221.453 137.089 221.675C136.538 221.896 136.06 221.989 136.024 221.889Z" fill="#455A64"/>
<path d="M132.072 223.598C132.029 223.505 132.437 223.233 132.98 223.004C133.523 222.776 134.002 222.654 134.037 222.747C134.073 222.84 133.673 223.112 133.13 223.34C132.587 223.569 132.108 223.655 132.072 223.598Z" fill="#455A64"/>
<path d="M124.083 101.019C124.083 101.019 128.756 99.5895 134.966 92.6934C141.176 85.7974 143.677 76.9718 144.499 76.9718C145.321 76.9718 148.787 75.0281 156.648 89.3061C164.509 103.584 162.122 107.222 160.771 107.293C159.421 107.365 150.052 105.492 144.335 106.578C138.618 107.665 131.472 111.195 131.472 111.195L124.083 101.019Z" fill="#455A64"/>
<path d="M114.585 109.83L116.436 112.796L117.265 114.118C117.813 114.995 118.677 115.629 119.678 115.888C120.679 116.147 121.742 116.012 122.646 115.511L132.565 111.223L125.626 98.1245L115.85 104.256C115.401 104.538 115.011 104.907 114.705 105.34C114.398 105.773 114.179 106.263 114.062 106.781C113.944 107.298 113.93 107.834 114.02 108.357C114.11 108.881 114.302 109.381 114.585 109.83Z" fill="#263238"/>
<path d="M120.824 114.332L124.547 120.449L126.134 119.877L137.375 127.738L139.883 121.692C139.883 121.692 133.451 119.456 132.094 117.312C130.736 115.168 132.094 114.56 132.094 114.56L128.899 111.402L120.824 114.332Z" fill="#263238"/>
<path d="M156.14 89.6206C160.35 97.3599 162.386 104.385 160.685 105.342C158.985 106.3 154.197 100.747 149.966 93.0078C145.736 85.2685 143.72 78.2438 145.421 77.2862C147.122 76.3287 151.924 81.8741 156.14 89.6206Z" fill="#263238"/>
<path d="M114.049 114.346L116.744 113.274L114.793 110.151L112.82 111.595L114.049 114.346Z" fill="#455A64"/>
<path d="M129.992 112.496L122.925 117.784L121.867 116.04L129.992 112.496Z" fill="#455A64"/>
<path d="M114.792 110.151L116.743 113.274L116.186 113.496L114.557 110.33L114.792 110.151Z" fill="#455A64"/>
<path d="M116.751 110.766C117.795 110.398 118.796 109.919 119.738 109.337C120.736 108.861 121.68 108.278 122.553 107.6C121.51 107.969 120.509 108.448 119.566 109.029C118.568 109.505 117.624 110.088 116.751 110.766Z" fill="#455A64"/>
<path d="M115.757 108.894C116.706 108.54 117.61 108.077 118.452 107.515C119.353 107.048 120.199 106.483 120.974 105.828C119.12 106.64 117.369 107.669 115.757 108.894Z" fill="#455A64"/>
<path d="M117.973 112.717C118.27 112.685 118.558 112.598 118.823 112.459L119.716 112.088C120.045 111.938 120.388 111.738 120.753 111.538C121.659 111.093 122.504 110.533 123.268 109.873C122.328 110.229 121.428 110.682 120.581 111.223C120.217 111.423 119.867 111.638 119.566 111.795C119.266 111.952 118.959 112.102 118.716 112.231C118.244 112.488 117.951 112.667 117.973 112.717Z" fill="#455A64"/>
<path d="M148.63 88.384C148.63 88.384 152.574 85.5256 155.247 90.9281C157.92 96.3306 153.646 97.5812 153.646 97.5812C151.549 94.7672 149.86 91.6708 148.63 88.384Z" fill="#455A64"/>
<path d="M143.749 82.0596C143.791 82.4193 143.87 82.7737 143.985 83.1172C144.171 83.7889 144.428 84.7608 144.785 85.9757C144.999 86.5617 145.242 87.1977 145.5 87.8837L145.9 88.9485C145.971 89.1271 146.036 89.3129 146.107 89.5059C146.179 89.6988 146.279 89.8703 146.364 90.0561L147.479 92.3929C147.572 92.6002 147.672 92.8003 147.772 93.0075C147.872 93.2148 147.994 93.4077 148.108 93.6078L148.823 94.8298L149.537 96.0518C149.659 96.2447 149.766 96.452 149.895 96.6378C150.023 96.8236 150.159 97.0165 150.281 97.2023L151.767 99.3462C151.888 99.5105 151.996 99.6821 152.117 99.8393L152.503 100.304L153.218 101.176L154.525 102.748C155.39 103.648 156.105 104.349 156.598 104.842C156.842 105.104 157.11 105.344 157.398 105.556C157.18 105.265 156.941 104.991 156.683 104.734L154.697 102.591L153.461 100.954L152.746 100.075L152.374 99.6106C152.253 99.4534 152.146 99.2819 152.031 99.1175L150.602 96.9736L150.223 96.4162C150.088 96.2304 149.988 96.0232 149.866 95.8303L149.151 94.6154C148.916 94.2081 148.68 93.8008 148.437 93.4077C148.33 93.2076 148.201 93.0147 148.101 92.8074C148.001 92.6002 147.908 92.4001 147.808 92.2L146.686 89.8918C146.6 89.706 146.5 89.5273 146.429 89.3415C146.357 89.1557 146.279 88.9699 146.207 88.7913C146.064 88.4268 145.928 88.0767 145.793 87.7408L145.042 85.8542C144.664 84.6894 144.363 83.7103 144.142 83.06C144.036 82.7173 143.904 82.3829 143.749 82.0596Z" fill="#263238"/>
<path d="M133.123 114.575C133.425 114.662 133.682 114.864 133.839 115.137C133.995 115.411 134.038 115.735 133.959 116.04C133.651 117.255 133.151 119.163 132.751 120.328C132.64 120.71 132.458 121.069 132.215 121.385C132.096 121.557 131.927 121.687 131.731 121.758C131.534 121.829 131.321 121.836 131.12 121.78C130.919 121.723 130.741 121.605 130.61 121.442C130.48 121.279 130.404 121.079 130.393 120.871C130.346 120.453 130.383 120.031 130.5 119.627C130.75 118.491 131.214 116.769 131.615 115.404C131.658 115.25 131.732 115.106 131.832 114.981C131.931 114.855 132.055 114.751 132.195 114.674C132.335 114.597 132.49 114.548 132.649 114.531C132.808 114.514 132.969 114.529 133.123 114.575Z" fill="#FFBE9D"/>
<path d="M135.059 116.547C135.362 116.634 135.619 116.836 135.776 117.11C135.932 117.383 135.975 117.707 135.895 118.012C135.588 119.227 135.088 121.135 134.681 122.3C134.572 122.684 134.39 123.043 134.145 123.358C134.022 123.514 133.858 123.635 133.672 123.705C133.485 123.776 133.283 123.794 133.087 123.758C132.887 123.691 132.71 123.569 132.576 123.406C132.442 123.243 132.356 123.045 132.33 122.836C132.284 122.419 132.318 121.997 132.43 121.593C132.687 120.463 133.144 118.734 133.544 117.369C133.636 117.058 133.846 116.797 134.13 116.641C134.414 116.486 134.749 116.449 135.059 116.54V116.547Z" fill="#FFBE9D"/>
<path d="M136.924 117.734C137.184 117.813 137.403 117.99 137.536 118.227C137.669 118.463 137.706 118.742 137.639 119.006C137.375 120.056 136.924 121.707 136.589 122.714C136.494 123.048 136.336 123.361 136.124 123.636C136.021 123.784 135.874 123.896 135.705 123.956C135.535 124.016 135.351 124.022 135.177 123.972C135.004 123.923 134.851 123.82 134.739 123.679C134.627 123.538 134.561 123.366 134.552 123.186C134.509 122.824 134.538 122.458 134.638 122.107C134.859 121.128 135.259 119.656 135.602 118.448C135.682 118.181 135.864 117.955 136.109 117.821C136.354 117.688 136.642 117.656 136.91 117.734H136.924Z" fill="#FFBE9D"/>
<path d="M139.047 117.97C139.308 118.049 139.528 118.227 139.661 118.465C139.795 118.704 139.83 118.984 139.761 119.249C139.497 120.306 139.047 121.964 138.704 122.979C138.61 123.314 138.452 123.627 138.239 123.901C138.137 124.051 137.99 124.166 137.819 124.228C137.648 124.29 137.462 124.297 137.287 124.247C137.112 124.197 136.957 124.093 136.845 123.95C136.732 123.807 136.667 123.632 136.66 123.451C136.617 123.086 136.646 122.717 136.746 122.364C136.967 121.385 137.367 119.899 137.718 118.691C137.757 118.558 137.822 118.434 137.909 118.326C137.997 118.218 138.105 118.128 138.227 118.061C138.349 117.995 138.483 117.953 138.621 117.939C138.759 117.924 138.899 117.937 139.032 117.977L139.047 117.97Z" fill="#FFBE9D"/>
<path d="M132.451 121.406C132.502 120.621 132.678 119.849 132.972 119.12C133.152 118.351 133.451 117.616 133.859 116.94C133.807 117.726 133.628 118.498 133.33 119.227C133.151 119.994 132.854 120.729 132.451 121.406Z" fill="#EB996E"/>
<path d="M136.474 123.029C136.799 121.502 137.246 120.004 137.81 118.548C137.728 120.129 137.27 121.668 136.474 123.036V123.029Z" fill="#EB996E"/>
<path d="M134.48 122.771C134.807 121.24 135.254 119.737 135.817 118.276C135.736 119.86 135.278 121.401 134.48 122.771Z" fill="#EB996E"/>
<path d="M170.79 62.3436C170.869 62.4007 167.932 66.3811 164.244 71.2263C160.557 76.0714 157.484 79.9517 157.405 79.8874C157.327 79.8231 160.264 75.8498 163.944 71.0047C167.624 66.1596 170.704 62.2792 170.79 62.3436Z" fill="#263238"/>
<path d="M189.964 73.6844C190.006 73.7773 183.846 76.7286 176.2 80.2732C168.554 83.8177 162.329 86.619 162.286 86.5261C162.243 86.4332 168.403 83.4818 176.043 79.9373C183.682 76.3928 189.906 73.5915 189.964 73.6844Z" fill="#263238"/>
<path d="M187.105 97.2812C187.105 97.3812 182.703 97.0453 177.3 96.5237C171.898 96.002 167.517 95.4946 167.524 95.3946C167.531 95.2945 171.926 95.6304 177.336 96.1521C182.746 96.6737 187.119 97.1811 187.105 97.2812Z" fill="#263238"/>
<path d="M74.438 110.516L79.2903 138.1C79.7135 140.408 81.0142 142.462 82.9195 143.832C84.8249 145.202 87.1866 145.78 89.5093 145.446C90.7013 145.293 91.8503 144.902 92.8883 144.296C93.9262 143.69 94.832 142.882 95.5517 141.92C96.2715 140.957 96.7907 139.86 97.0785 138.693C97.3663 137.527 97.4169 136.314 97.2272 135.127L96.4411 130.382C96.4411 130.382 103.23 128.538 102.522 121.721C102.179 118.434 100.922 111.716 99.7069 105.67C99.0186 102.389 97.09 99.4994 94.3234 97.6049C91.5568 95.7103 88.1657 94.9568 84.8571 95.5015C83.1731 95.7739 81.5613 96.383 80.118 97.2924C78.6747 98.2019 77.4296 99.3929 76.457 100.794C75.4844 102.196 74.8043 103.779 74.4574 105.449C74.1105 107.12 74.1039 108.843 74.438 110.516Z" fill="#FFBE9D"/>
<path d="M96.4553 130.397C93.2778 130.814 90.0479 130.289 87.1653 128.889C87.1653 128.889 89.8594 133.556 96.6768 132.126L96.4553 130.397Z" fill="#EB996E"/>
<path d="M98.2278 110.273C98.2584 110.528 98.1879 110.784 98.0316 110.987C97.8752 111.19 97.6455 111.324 97.3917 111.359C97.2686 111.384 97.1419 111.384 97.0188 111.359C96.8958 111.335 96.7789 111.286 96.6751 111.215C96.5713 111.144 96.4826 111.054 96.4142 110.949C96.3458 110.843 96.2991 110.726 96.2769 110.602C96.2443 110.346 96.3139 110.088 96.4704 109.884C96.6269 109.679 96.8578 109.544 97.113 109.509C97.2366 109.484 97.3638 109.484 97.4873 109.509C97.6107 109.535 97.7279 109.584 97.8318 109.656C97.9357 109.727 98.0243 109.818 98.0923 109.924C98.1603 110.03 98.2064 110.149 98.2278 110.273Z" fill="#263238"/>
<path d="M98.435 108.622C98.3278 108.765 97.5131 108.3 96.4555 108.429C95.3979 108.558 94.6761 109.144 94.5475 109.044C94.4188 108.944 94.5475 108.751 94.8905 108.472C95.3164 108.108 95.8415 107.879 96.3983 107.814C96.9525 107.749 97.5131 107.862 97.9991 108.136C98.3707 108.343 98.5136 108.543 98.435 108.622Z" fill="#263238"/>
<path d="M88.2443 111.473C88.275 111.729 88.2048 111.986 88.0486 112.19C87.8924 112.394 87.6626 112.53 87.4082 112.567C87.2842 112.592 87.1565 112.591 87.0326 112.566C86.9087 112.541 86.7911 112.491 86.6866 112.42C86.5821 112.349 86.4929 112.258 86.4242 112.152C86.3554 112.045 86.3085 111.927 86.2863 111.802C86.2557 111.548 86.3262 111.291 86.4825 111.088C86.6388 110.885 86.8686 110.752 87.1224 110.716C87.2459 110.691 87.3731 110.691 87.4966 110.716C87.6201 110.74 87.7374 110.79 87.8418 110.86C87.9462 110.93 88.0356 111.021 88.1047 111.126C88.1738 111.232 88.2212 111.35 88.2443 111.473Z" fill="#263238"/>
<path d="M88.1945 109.973C88.0873 110.109 87.2798 109.651 86.215 109.773C85.1502 109.894 84.4356 110.487 84.3069 110.394C84.1783 110.302 84.3427 110.101 84.6571 109.816C85.0806 109.448 85.6073 109.221 86.165 109.165C86.7159 109.102 87.2728 109.212 87.7585 109.48C88.1159 109.716 88.2516 109.973 88.1945 109.973Z" fill="#263238"/>
<path d="M92.9538 117.948C93.4967 117.715 94.0652 117.547 94.6474 117.448C94.9118 117.39 95.1619 117.305 95.1905 117.119C95.1781 116.839 95.0809 116.57 94.9118 116.347L93.8756 114.403C92.4464 111.638 91.3387 109.344 91.4531 109.287C91.5674 109.23 92.8394 111.431 94.3115 114.203C94.6617 114.882 95.0262 115.532 95.312 116.161C95.5227 116.461 95.6167 116.827 95.5764 117.19C95.5484 117.29 95.4977 117.382 95.4282 117.459C95.3588 117.536 95.2726 117.595 95.1762 117.633C95.0317 117.691 94.8804 117.729 94.726 117.748C94.1459 117.888 93.5505 117.955 92.9538 117.948Z" fill="#263238"/>
<path d="M89.9165 119.027C90.088 119.027 90.2238 120.127 91.3029 120.828C92.3819 121.528 93.5968 121.256 93.6182 121.414C93.6397 121.571 93.3753 121.664 92.8536 121.735C92.181 121.823 91.4989 121.674 90.9241 121.314C90.3778 120.967 89.9882 120.421 89.8379 119.791C89.7379 119.32 89.8593 119.027 89.9165 119.027Z" fill="#263238"/>
<path d="M87.9944 106.5C87.9229 106.793 86.8439 106.778 85.6147 107.064C84.3856 107.35 83.4208 107.779 83.2279 107.572C83.135 107.457 83.2779 107.164 83.6567 106.857C84.1639 106.461 84.7526 106.183 85.3803 106.042C86.0081 105.901 86.6592 105.901 87.2869 106.042C87.7657 106.157 88.023 106.357 87.9944 106.5Z" fill="#263238"/>
<path d="M97.8706 106.271C97.7134 106.529 96.9487 106.364 96.0697 106.45C95.1907 106.536 94.4618 106.793 94.2617 106.564C94.176 106.457 94.2617 106.2 94.5619 105.943C94.9674 105.61 95.4678 105.415 95.9911 105.385C96.5094 105.336 97.0304 105.445 97.4847 105.7C97.8062 105.914 97.9349 106.143 97.8706 106.271Z" fill="#263238"/>
<path d="M99.7427 94.0224C99.2834 93.6735 98.7141 93.5011 98.1383 93.5365C97.5626 93.5719 97.0187 93.8128 96.6056 94.2153C96.8846 93.7504 96.977 93.197 96.8643 92.6666C96.7516 92.1362 96.4421 91.6682 95.9981 91.3569C95.5433 91.0555 95.0273 90.8587 94.4873 90.7809C93.9472 90.703 93.3967 90.746 92.8753 90.9067C91.8332 91.2298 90.8474 91.7119 89.9525 92.3359C89.9907 92.1236 89.9657 91.9048 89.8806 91.7066C89.7954 91.5084 89.654 91.3395 89.4737 91.2211C89.102 90.9931 88.6798 90.8605 88.2445 90.8352C86.4516 90.7191 84.6631 91.1209 83.0921 91.9929C81.4096 92.9272 79.8144 94.0106 78.3256 95.2301C76.6611 96.571 75.1937 98.1395 73.9664 99.8894L73.9093 99.9394C72.9017 100.84 72.0513 103.555 72.2013 104.885C72.7659 109.794 74.3952 112.631 75.3099 117.276C75.3399 117.592 75.4616 117.893 75.6601 118.141C76.2246 118.727 77.2394 118.227 77.804 117.612C79.0192 116.03 79.6594 114.082 79.6191 112.088C79.6834 110.116 79.3975 108.15 79.4476 106.178V106.035C79.4611 105.532 79.5088 105.031 79.5905 104.534C79.6763 104.213 80.5124 101.397 83.2208 100.961C86.0792 100.475 91.7604 103.262 94.5689 102.819C97.3773 102.376 97.5274 100.397 97.5274 100.397L99.1782 103.755C99.5575 102.391 99.6475 100.962 99.4426 99.5607C100.157 98.9077 100.655 98.0527 100.872 97.1096C100.986 96.5409 100.941 95.9518 100.742 95.4071C100.542 94.8624 100.197 94.3833 99.7427 94.0224Z" fill="#263238"/>
<path d="M77.1324 113.446C77.0109 113.41 72.2229 112.603 72.9161 117.241C73.6093 121.878 78.1971 120.235 78.1828 120.099C78.1686 119.963 77.1324 113.446 77.1324 113.446Z" fill="#FFBE9D"/>
<path d="M76.482 118.548C76.482 118.548 76.4105 118.62 76.2819 118.699C76.098 118.811 75.8784 118.849 75.6673 118.806C75.3373 118.661 75.0517 118.431 74.8395 118.14C74.6273 117.849 74.4962 117.506 74.4596 117.148C74.3912 116.751 74.4108 116.343 74.5168 115.954C74.5388 115.801 74.5986 115.655 74.6909 115.53C74.7833 115.406 74.9051 115.306 75.0456 115.24C75.1357 115.203 75.2357 115.197 75.3292 115.225C75.4227 115.252 75.5042 115.31 75.5601 115.39C75.6387 115.511 75.6244 115.611 75.653 115.611C75.6816 115.611 75.7388 115.519 75.653 115.333C75.6051 115.224 75.5254 115.131 75.4243 115.068C75.2788 114.994 75.1107 114.976 74.9527 115.018C74.7734 115.089 74.6144 115.203 74.4897 115.35C74.3651 115.497 74.2786 115.673 74.2381 115.862C74.1005 116.293 74.071 116.752 74.1523 117.198C74.1948 117.616 74.359 118.012 74.6245 118.337C74.89 118.662 75.2451 118.902 75.6459 119.027C75.775 119.042 75.9058 119.029 76.0292 118.988C76.1526 118.948 76.2657 118.88 76.3605 118.791C76.4891 118.663 76.4963 118.548 76.482 118.548Z" fill="#EB996E"/>
<path d="M66.5628 147.026C66.6913 146.971 66.8312 146.949 66.9702 146.961C67.3773 146.996 67.7557 147.185 68.0278 147.49C68.2471 147.724 68.415 148.001 68.5209 148.304C68.6267 148.607 68.6681 148.928 68.6424 149.248C68.5587 150.067 68.3763 150.874 68.0993 151.649C67.9249 152.092 67.8493 152.568 67.8777 153.043C67.9061 153.518 68.0378 153.981 68.2636 154.4C68.771 155.286 69.8072 155.965 70.2288 157.202C70.4362 157.832 70.4483 158.511 70.2634 159.148C70.0785 159.786 69.7052 160.353 69.1926 160.775C68.645 161.223 67.9695 161.485 67.2632 161.525C66.5619 161.516 65.8658 161.403 65.1979 161.189C64.5765 160.981 63.9111 160.939 63.2684 161.068C62.6753 161.282 62.1717 161.69 61.8392 162.225C61.4854 162.772 61.0785 163.281 60.6243 163.748C60.3842 163.976 60.0999 164.152 59.789 164.267C59.4781 164.381 59.1471 164.43 58.8164 164.412C58.2193 164.361 57.6446 164.161 57.1451 163.831C56.6456 163.5 56.2374 163.048 55.9579 162.518C55.5113 161.61 55.2675 160.615 55.2433 159.603C55.1933 158.688 55.2433 157.866 55.2433 157.152C55.2363 156.541 55.1837 155.932 55.0861 155.329C54.9829 154.818 54.8371 154.316 54.6501 153.829C54.7331 153.938 54.8004 154.058 54.8502 154.186C55.0197 154.541 55.1446 154.915 55.2218 155.301C55.354 155.907 55.4306 156.524 55.4505 157.145C55.4505 157.859 55.4505 158.688 55.5434 159.588C55.577 160.556 55.8208 161.505 56.258 162.368C56.5175 162.843 56.8899 163.247 57.3424 163.543C57.7948 163.84 58.3133 164.02 58.8521 164.069C59.137 164.084 59.4219 164.039 59.6888 163.939C59.9557 163.838 60.1988 163.683 60.4028 163.483C60.8386 163.032 61.2288 162.539 61.5677 162.011C61.9447 161.408 62.5136 160.95 63.1827 160.71C63.895 160.555 64.6363 160.597 65.3265 160.832C65.9612 161.029 66.6202 161.137 67.2846 161.153C67.9144 161.119 68.5173 160.887 69.0068 160.489C69.4674 160.113 69.8038 159.607 69.9721 159.038C70.1404 158.468 70.1328 157.86 69.9501 157.295C69.6 156.201 68.5924 155.508 68.0349 154.543C67.7562 154.075 67.615 153.537 67.6276 152.993C67.6542 152.507 67.7406 152.027 67.8849 151.563C68.1736 150.808 68.3726 150.021 68.478 149.219C68.5116 148.924 68.4831 148.624 68.3945 148.34C68.306 148.056 68.1592 147.793 67.9635 147.569C67.7185 147.28 67.3793 147.088 67.0059 147.026C66.7058 147.004 66.5628 147.047 66.5628 147.026Z" fill="#FAFAFA"/>
<path d="M68.5281 197.042C68.5281 197.042 68.5782 197.213 68.7425 197.485C69.0024 197.871 69.3975 198.147 69.8502 198.257C70.2001 198.356 70.5689 198.368 70.9248 198.294C71.2808 198.219 71.6133 198.059 71.894 197.828C72.6208 197.174 73.1024 196.292 73.2589 195.327C73.4876 194.262 73.4447 193.047 73.652 191.754C73.7512 191.069 73.974 190.408 74.3094 189.803C74.6694 189.136 75.2506 188.615 75.953 188.331C76.688 188.07 77.4771 187.998 78.2469 188.123C79.0259 188.202 79.7905 188.381 80.5623 188.481C81.3406 188.607 82.1369 188.568 82.8991 188.366C83.6731 188.143 84.3865 187.747 84.9858 187.209C85.5838 186.67 86.0277 185.982 86.2721 185.215C86.4905 184.468 86.4755 183.673 86.2292 182.935C86.0225 182.229 85.6214 181.596 85.0717 181.106C84.5221 180.617 83.846 180.293 83.1206 180.17C81.6914 180.013 80.4051 180.706 79.0545 180.734C78.3994 180.754 77.7501 180.606 77.1679 180.306C76.6446 180.038 76.1491 179.72 75.6886 179.355C74.9437 178.713 74.0988 178.196 73.1874 177.826C72.8409 177.694 72.4699 177.638 72.0999 177.663C71.7298 177.687 71.3695 177.792 71.0436 177.969C70.6298 178.18 70.3053 178.532 70.1289 178.962C70.0822 179.119 70.044 179.279 70.0145 179.441C69.9909 179.273 70.0055 179.102 70.0574 178.941C70.2126 178.472 70.5393 178.078 70.9721 177.84C71.2804 177.662 71.6201 177.546 71.9726 177.497C72.392 177.456 72.8154 177.502 73.216 177.633C74.1623 177.988 75.0418 178.5 75.8172 179.148C76.7012 179.932 77.8306 180.385 79.0116 180.427C79.6724 180.371 80.326 180.249 80.9625 180.063C81.6575 179.858 82.3838 179.78 83.1064 179.834C83.8987 179.959 84.6395 180.306 85.2428 180.834C85.8461 181.363 86.2872 182.052 86.5151 182.821C86.7927 183.629 86.8102 184.504 86.5651 185.322C86.3001 186.147 85.8218 186.886 85.1787 187.466C84.5383 188.046 83.773 188.472 82.942 188.709C82.1332 188.925 81.2875 188.964 80.4623 188.824C79.6619 188.717 78.8972 188.545 78.154 188.459C77.4358 188.337 76.6983 188.399 76.0102 188.638C75.3736 188.885 74.8463 189.351 74.5238 189.953C74.2046 190.523 73.987 191.145 73.8806 191.789C73.6734 193.054 73.6948 194.283 73.4447 195.363C73.2609 196.378 72.7336 197.299 71.9512 197.971C71.6441 198.214 71.2821 198.377 70.897 198.447C70.512 198.516 70.1157 198.491 69.743 198.371C69.5055 198.308 69.2828 198.198 69.0878 198.049C68.8929 197.899 68.7294 197.712 68.6067 197.499C68.5465 197.355 68.5197 197.198 68.5281 197.042Z" fill="#FAFAFA"/>
<path d="M92.8037 153.743C92.9321 153.497 93.0985 153.272 93.2968 153.078C93.8778 152.5 94.6295 152.124 95.4407 152.006C96.0792 151.912 96.7313 151.988 97.3311 152.226C97.9309 152.464 98.4571 152.857 98.8566 153.364C99.3657 153.993 99.6677 154.765 99.7213 155.572C99.7179 156.431 99.9033 157.28 100.264 158.059C100.511 158.432 100.88 158.707 101.308 158.838C101.773 158.973 102.253 159.047 102.737 159.06C103.237 159.06 103.752 159.06 104.288 159.131C104.852 159.161 105.396 159.355 105.853 159.688C106.088 159.88 106.274 160.125 106.396 160.403C106.515 160.685 106.564 160.991 106.539 161.296C106.469 161.894 106.22 162.458 105.824 162.911C105.428 163.377 104.942 163.759 104.395 164.033C103.859 164.305 103.294 164.526 102.744 164.784C102.192 165.015 101.678 165.331 101.222 165.72C100.776 166.124 100.464 166.655 100.329 167.242C100.036 168.442 100.329 169.743 100.243 171.101C100.204 171.798 100.019 172.48 99.6998 173.102C99.535 173.432 99.2956 173.72 99.0004 173.942C98.7052 174.164 98.3623 174.314 97.999 174.381C97.626 174.414 97.2502 174.368 96.8966 174.245C96.5429 174.121 96.2196 173.924 95.9481 173.666C95.4002 173.194 94.9384 172.631 94.5831 172.001C94.2507 171.397 93.8832 170.812 93.4826 170.25C93.108 169.709 92.5769 169.295 91.9605 169.064C91.3416 168.883 90.6785 168.926 90.0882 169.186C89.4805 169.443 88.8969 169.754 88.3445 170.115C87.7863 170.481 87.1925 170.79 86.5723 171.037C85.9427 171.265 85.2767 171.376 84.6071 171.365C83.3139 171.33 82.0643 170.89 81.034 170.108C80.0336 169.373 79.337 168.298 79.0759 167.085C78.9311 166.513 78.9331 165.914 79.0817 165.343C79.2304 164.772 79.5209 164.248 79.9263 163.819C80.3475 163.449 80.853 163.189 81.3984 163.061C81.9044 162.94 82.4176 162.852 82.9349 162.797C83.8782 162.753 84.79 162.444 85.5647 161.904C86.2124 161.319 86.7037 160.582 86.9939 159.76C87.3012 158.995 87.5013 158.238 87.7657 157.545C87.9881 156.89 88.3138 156.274 88.7304 155.722C89.1026 155.28 89.5193 154.878 89.9739 154.522C90.5797 153.986 91.3215 153.627 92.1177 153.485C92.2581 153.464 92.4015 153.472 92.5384 153.51C92.6752 153.548 92.8023 153.616 92.9109 153.707C92.6711 153.576 92.3954 153.526 92.1249 153.564C91.3576 153.731 90.6493 154.102 90.0739 154.636C89.6319 154.992 89.2294 155.395 88.8733 155.837C88.4823 156.38 88.1763 156.98 87.9658 157.616C87.7157 158.331 87.5227 159.045 87.2512 159.846C86.9682 160.698 86.4769 161.467 85.8219 162.082C85.0132 162.667 84.0527 163.004 83.0564 163.054C82.0773 163.204 80.984 163.311 80.1979 164.026C79.8386 164.422 79.5848 164.901 79.4598 165.421C79.3349 165.941 79.343 166.483 79.4833 166.999C79.7381 168.129 80.3929 169.129 81.327 169.815C82.3049 170.546 83.4861 170.956 84.7071 170.986C85.3308 170.999 85.9512 170.895 86.5366 170.679C87.1364 170.436 87.7109 170.135 88.2516 169.779C88.7614 169.428 89.2992 169.12 89.8595 168.857C90.5357 168.559 91.2964 168.513 92.0034 168.728C92.6909 168.98 93.2846 169.436 93.7042 170.036C94.118 170.61 94.4951 171.209 94.8333 171.83C95.1711 172.418 95.6032 172.947 96.1124 173.395C96.346 173.614 96.6237 173.78 96.927 173.882C97.2303 173.985 97.552 174.021 97.8704 173.988C98.1778 173.933 98.4677 173.806 98.7163 173.618C98.9648 173.429 99.1648 173.183 99.2996 172.902C99.591 172.328 99.7612 171.7 99.7999 171.058C99.8713 169.779 99.5855 168.442 99.9071 167.135C100.062 166.482 100.41 165.891 100.908 165.441C101.39 165.026 101.935 164.691 102.523 164.448C103.087 164.19 103.645 163.976 104.166 163.733C104.672 163.48 105.122 163.128 105.488 162.697C105.867 162.305 106.116 161.806 106.203 161.268C106.22 161.024 106.181 160.779 106.089 160.553C105.982 160.326 105.826 160.126 105.631 159.967C105.213 159.666 104.716 159.495 104.202 159.474C103.695 159.417 103.18 159.417 102.673 159.388C102.166 159.37 101.664 159.286 101.179 159.138C100.698 158.982 100.285 158.667 100.007 158.245C99.6277 157.431 99.4371 156.542 99.4497 155.644C99.4173 154.865 99.1425 154.115 98.6636 153.5C98.2879 153.014 97.7933 152.633 97.2275 152.394C96.6617 152.155 96.0439 152.066 95.4335 152.135C94.6566 152.241 93.9309 152.583 93.354 153.114C93.1582 153.312 92.9744 153.522 92.8037 153.743Z" fill="#FAFAFA"/>
<path d="M80.7767 141.681C80.3769 142.081 79.8526 142.333 79.2903 142.395C78.6911 142.514 78.0743 142.514 77.4751 142.395C76.7096 142.272 76.0156 141.873 75.5242 141.273C75.0937 140.638 74.8465 139.896 74.8096 139.129C74.7537 138.524 74.7947 137.914 74.9311 137.321C75.0143 136.771 75.2843 136.267 75.6957 135.892C75.4668 136.374 75.2987 136.883 75.1955 137.407C75.0978 137.976 75.0809 138.556 75.1455 139.129C75.2013 139.82 75.4298 140.486 75.8101 141.066C76.2445 141.598 76.8558 141.955 77.5323 142.074C78.0914 142.192 78.6667 142.214 79.2331 142.138C79.7629 142.043 80.2806 141.889 80.7767 141.681Z" fill="#FAFAFA"/>
<path d="M111.541 139.858C111.541 139.858 111.541 139.929 111.491 140.051C111.424 140.235 111.331 140.409 111.213 140.565C110.773 141.153 110.145 141.571 109.433 141.752C108.937 141.867 108.421 141.867 107.925 141.752C107.365 141.594 106.845 141.316 106.403 140.937C105.963 140.541 105.454 140.229 104.902 140.015C104.618 139.937 104.316 139.954 104.042 140.062C103.767 140.17 103.535 140.364 103.38 140.615C103.044 141.173 102.75 141.756 102.501 142.359C102.217 142.941 101.78 143.435 101.237 143.788C100.859 144.044 100.434 144.22 99.9865 144.307C99.5391 144.393 99.0788 144.389 98.6333 144.292C98.1878 144.196 97.7665 144.011 97.3947 143.747C97.0229 143.484 96.7083 143.148 96.47 142.759C96.3086 142.552 96.2072 142.305 96.177 142.045C96.177 142.045 96.2985 142.295 96.5843 142.688C96.9956 143.237 97.5562 143.656 98.1994 143.895C98.9549 144.15 99.7776 144.117 100.51 143.803C101.243 143.489 101.835 142.917 102.173 142.195C102.428 141.575 102.729 140.976 103.073 140.401C103.28 140.084 103.576 139.836 103.923 139.686C104.266 139.555 104.643 139.54 104.995 139.643C105.594 139.872 106.144 140.212 106.618 140.644C107.015 141.002 107.486 141.27 107.997 141.43C108.451 141.533 108.922 141.533 109.376 141.43C110.044 141.286 110.648 140.93 111.098 140.415C111.413 140.108 111.513 139.843 111.541 139.858Z" fill="#FAFAFA"/>
<path d="M116.636 167.914C116.351 167.776 116.085 167.603 115.843 167.399C115.148 166.885 114.496 166.316 113.892 165.699C113.467 165.261 113.087 164.782 112.756 164.269C112.374 163.673 112.129 162.999 112.041 162.297C111.924 161.513 112.051 160.712 112.406 160.003C112.601 159.628 112.876 159.301 113.213 159.045C113.547 158.797 113.898 158.572 114.264 158.374C114.61 158.178 114.93 157.938 115.214 157.659C115.472 157.395 115.661 157.071 115.764 156.716C115.928 156.013 115.952 155.284 115.836 154.572C115.72 153.892 115.669 153.203 115.686 152.514C115.684 151.881 115.922 151.271 116.35 150.806C117.015 150.211 117.867 149.87 118.758 149.841C118.922 149.821 119.087 149.841 119.242 149.898C119.396 149.955 119.534 150.048 119.645 150.17C119.374 150.03 119.07 149.965 118.766 149.984C117.932 150.065 117.148 150.419 116.536 150.992C116.168 151.42 115.975 151.971 115.993 152.535C115.996 153.204 116.056 153.871 116.172 154.529C116.313 155.294 116.293 156.08 116.114 156.837C115.998 157.252 115.78 157.63 115.478 157.938C115.172 158.235 114.826 158.487 114.449 158.688C113.733 159.008 113.133 159.539 112.727 160.21C112.405 160.855 112.283 161.582 112.377 162.297C112.577 163.528 113.174 164.66 114.078 165.52C115.586 167.092 116.679 167.857 116.636 167.914Z" fill="#FAFAFA"/>
<path d="M101.694 182.092C101.802 182.074 101.914 182.074 102.022 182.092C102.342 182.092 102.662 182.111 102.98 182.15C104.162 182.258 105.312 182.592 106.367 183.136C107.162 183.54 107.86 184.111 108.412 184.81C108.965 185.51 109.36 186.321 109.569 187.188C109.816 188.238 109.657 189.343 109.126 190.282C108.84 190.784 108.454 191.221 107.992 191.567C107.53 191.912 107.001 192.159 106.439 192.29C105.86 192.393 105.266 192.361 104.702 192.197C104.22 192.037 103.698 192.037 103.216 192.197C102.759 192.389 102.36 192.697 102.058 193.09C101.769 193.47 101.513 193.874 101.293 194.298C100.903 195.185 100.252 195.932 99.4283 196.442C98.6733 196.832 97.8028 196.936 96.9771 196.735C96.298 196.568 95.6958 196.174 95.2692 195.62C94.9477 195.214 94.7229 194.74 94.6117 194.234C94.5419 193.917 94.525 193.591 94.5617 193.269C94.5685 193.156 94.5926 193.046 94.6332 192.94C94.6218 193.363 94.6626 193.785 94.7547 194.198C94.8827 194.674 95.1145 195.116 95.4335 195.491C95.8387 195.973 96.3913 196.307 97.0057 196.442C97.7687 196.61 98.5668 196.501 99.2567 196.135C100.014 195.644 100.608 194.94 100.965 194.112C101.387 193.118 102.146 192.303 103.109 191.811C103.661 191.629 104.257 191.629 104.809 191.811C105.321 191.966 105.862 191.998 106.389 191.904C106.899 191.782 107.38 191.557 107.8 191.242C108.22 190.928 108.572 190.53 108.833 190.075C109.326 189.208 109.477 188.188 109.254 187.216C109.061 186.392 108.693 185.618 108.177 184.946C107.661 184.274 107.007 183.721 106.26 183.322C105.241 182.773 104.133 182.41 102.987 182.25C102.151 182.15 101.686 182.15 101.694 182.092Z" fill="#FAFAFA"/>
<path d="M88.3089 205.731C88.1709 205.207 87.9463 204.71 87.6443 204.259C87.2918 203.798 86.8334 203.428 86.3079 203.18C85.6798 202.861 84.956 202.786 84.2755 202.968C83.595 203.15 83.0056 203.577 82.6205 204.166C82.2915 204.631 82.0784 205.168 81.9988 205.731C81.9604 206.272 82.0136 206.816 82.156 207.339C82.156 207.339 82.0345 207.218 81.9202 206.946C81.7679 206.55 81.7045 206.126 81.7344 205.703C81.7773 205.071 81.9815 204.461 82.3275 203.931C82.7397 203.25 83.3991 202.756 84.1677 202.55C84.9363 202.345 85.7545 202.446 86.4509 202.83C87.0277 203.109 87.5207 203.536 87.8801 204.066C88.1167 204.416 88.2729 204.814 88.3375 205.231C88.3517 205.531 88.3303 205.731 88.3089 205.731Z" fill="#FAFAFA"/>
<path d="M90.574 216.093C90.574 216.093 90.5096 215.758 90.2524 215.214C89.8941 214.453 89.29 213.833 88.5373 213.457C87.983 213.199 87.372 213.089 86.7627 213.135C86.1534 213.181 85.5662 213.383 85.0571 213.721C84.4767 214.163 83.9908 214.717 83.6279 215.35C83.3945 215.691 83.1209 216.003 82.8132 216.279C82.4636 216.576 82.021 216.74 81.5626 216.744C81.1353 216.688 80.7241 216.545 80.355 216.322C79.986 216.099 79.6672 215.802 79.4188 215.45C78.9979 214.849 78.4869 214.317 77.9038 213.871C77.3479 213.538 76.6902 213.419 76.0529 213.535C75.4886 213.63 74.9534 213.853 74.4879 214.185C73.8201 214.702 73.2614 215.345 72.8443 216.079C72.6997 216.36 72.5349 216.63 72.3512 216.887C72.4298 216.58 72.5525 216.286 72.7156 216.015C73.0986 215.226 73.6499 214.531 74.3307 213.978C74.8224 213.609 75.3961 213.364 76.0029 213.264C76.717 213.118 77.4598 213.24 78.0896 213.607C78.7086 214.064 79.2513 214.616 79.6975 215.243C79.9146 215.553 80.1926 215.816 80.5145 216.015C80.8364 216.214 81.1954 216.345 81.5698 216.401C82.3344 216.401 82.8918 215.779 83.3277 215.164C83.7279 214.501 84.2548 213.923 84.8785 213.464C85.3388 213.152 85.8634 212.948 86.4133 212.867C86.9632 212.786 87.5243 212.83 88.0549 212.995C88.5856 213.161 89.0721 213.444 89.4785 213.823C89.8849 214.202 90.2007 214.668 90.4024 215.186C90.4918 215.416 90.5518 215.656 90.5811 215.901C90.6168 216.008 90.6168 216.093 90.574 216.093Z" fill="#FAFAFA"/>
<path d="M96.0838 190.168C95.4429 189.772 94.7503 189.466 94.0257 189.26C93.2404 189.068 92.426 189.024 91.6246 189.131C90.6441 189.247 89.7094 189.611 88.9091 190.189C88.1215 190.778 87.525 191.586 87.194 192.512C86.9235 193.271 86.8354 194.084 86.9367 194.884C87.0706 195.622 87.3266 196.332 87.6942 196.985C87.6942 196.985 87.5156 196.842 87.294 196.506C86.9839 196.024 86.7726 195.484 86.6723 194.92C86.5198 193.981 86.627 193.019 86.9822 192.138C87.3375 191.256 87.9272 190.488 88.6875 189.917C89.5275 189.308 90.5135 188.931 91.546 188.824C92.3903 188.723 93.2465 188.796 94.0615 189.038C94.6087 189.186 95.1261 189.428 95.5907 189.753C95.9481 190.01 96.0981 190.153 96.0838 190.168Z" fill="#FAFAFA"/>
</svg>
