<svg width="253" height="259" viewBox="0 0 253 259" fill="none" xmlns="http://www.w3.org/2000/svg">
<path d="M43.8226 259C-2.02051 229.824 41.2442 210.953 17.0957 160.833C-14.982 94.2498 -9.21826 10.0857 98.3496 10C169.161 9.94344 229.071 59.4821 241.283 118.023C259.535 205.488 228.247 259 228.247 259H43.8226Z" fill="#E73A40"/>
<path d="M238.768 43.799L236.508 41.122L243.236 37.5095L211.977 26.9307L222.556 57.2241L226.407 52.1785C226.407 52.1785 246.629 87.7663 226.407 109.402C206.325 130.888 182.619 126.24 182.619 126.24L187.187 141.168C187.187 141.168 224.447 143.815 244.41 110.158C264.374 76.5008 238.768 43.799 238.768 43.799Z" fill="#E7AF22"/>
<path d="M145.031 118.477L147.3 121.164L140.562 124.767L171.821 135.345L161.242 105.052L157.401 110.098C157.401 110.098 137.169 74.5099 157.401 52.8746C177.484 31.3885 201.189 36.046 201.189 36.046L196.621 21.1182C196.621 21.1182 159.351 18.4711 139.398 52.1282C119.445 85.7853 145.031 118.477 145.031 118.477Z" fill="#E7AF22"/>
<path d="M238.768 43.799L236.508 41.122L243.236 37.5095L211.977 26.9307L222.556 57.2241L226.407 52.1785C226.407 52.1785 246.629 87.7663 226.407 109.402C206.325 130.888 182.619 126.24 182.619 126.24L187.187 141.168C187.187 141.168 224.447 143.815 244.41 110.158C264.374 76.5008 238.768 43.799 238.768 43.799Z" fill="#E7AF22"/>
<path d="M145.031 118.477L147.3 121.164L140.562 124.767L171.821 135.345L161.242 105.052L157.401 110.098C157.401 110.098 137.169 74.5099 157.401 52.8746C177.484 31.3885 201.189 36.046 201.189 36.046L196.621 21.1182C196.621 21.1182 159.351 18.4711 139.398 52.1282C119.445 85.7853 145.031 118.477 145.031 118.477Z" fill="#E7AF22"/>
<path opacity="0.8" d="M238.768 43.799L236.508 41.122L243.236 37.5095L211.977 26.9307L222.556 57.2241L226.407 52.1785C226.407 52.1785 246.629 87.7663 226.407 109.402C206.325 130.888 182.619 126.24 182.619 126.24L187.187 141.168C187.187 141.168 224.447 143.815 244.41 110.158C264.374 76.5008 238.768 43.799 238.768 43.799Z" fill="white"/>
<path opacity="0.8" d="M145.031 118.477L147.3 121.164L140.562 124.767L171.821 135.345L161.242 105.052L157.401 110.098C157.401 110.098 137.169 74.5099 157.401 52.8746C177.484 31.3885 201.189 36.046 201.189 36.046L196.621 21.1182C196.621 21.1182 159.351 18.4711 139.398 52.1282C119.445 85.7853 145.031 118.477 145.031 118.477Z" fill="white"/>
<path fill-rule="evenodd" clip-rule="evenodd" d="M209.728 63.4632C211.209 65.0492 212.471 66.8265 213.48 68.7476H219.451L221.68 78.4307L216.266 81.048C216.197 83.2156 215.839 85.3642 215.202 87.4371L219.461 91.6667L214.196 100.086L208.524 98.0955C206.939 99.574 205.166 100.836 203.249 101.847V107.818L193.566 110.048L190.959 104.634C188.791 104.565 186.643 104.206 184.57 103.569L180.34 107.828L171.911 102.564L173.901 96.8914C172.42 95.3072 171.155 93.5336 170.14 91.6169H164.168L161.929 81.9338L167.343 79.3264C167.416 77.1584 167.777 75.0098 168.418 72.9373L164.149 68.7078L169.423 60.2786L175.086 62.2689C176.671 60.785 178.449 59.5198 180.37 58.5071V52.536L190.053 50.2969L192.671 55.7107C194.839 55.7834 196.987 56.1448 199.06 56.7855L203.289 52.5161L211.708 57.7906L209.718 63.4532L209.728 63.4632ZM197.875 71.4246C196.088 70.3067 194.01 69.7438 191.903 69.8072C189.795 69.8706 187.755 70.5574 186.038 71.7807C184.321 73.004 183.006 74.7089 182.258 76.6798C181.51 78.6507 181.363 80.7991 181.837 82.8533C182.31 84.9076 183.381 86.7753 184.916 88.2205C186.451 89.6656 188.38 90.6232 190.459 90.9722C192.538 91.3211 194.673 91.0458 196.596 90.181C198.518 89.3161 200.141 87.9007 201.259 86.1135C202.005 84.9253 202.509 83.6017 202.742 82.2185C202.976 80.8352 202.934 79.4195 202.62 78.0524C202.306 76.6852 201.725 75.3935 200.911 74.2511C200.097 73.1087 199.065 72.138 197.875 71.3948V71.4246Z" fill="#E7AF22"/>
<path d="M125.148 163.538L66.3023 163.101L54.8324 257H82.8324L93.5903 199.405L96.3324 257H114.832H125.148V163.538Z" fill="#263238"/>
<path d="M98.3874 178.674C98.7902 178.624 99.1956 178.597 99.6015 178.594L103.144 178.465L115.853 178.106H116.102V178.355C116.102 182.047 116.102 186.177 116.102 190.556V190.676L116.012 190.755L113.803 192.746L107.264 198.717L107.095 198.866L106.926 198.717L98.2481 191.014L98.1685 190.954V190.855C98.1685 187.153 98.2481 184.097 98.2779 181.898C98.2779 180.903 98.2779 180.097 98.2779 179.49C98.2551 179.218 98.2551 178.945 98.2779 178.674C98.2933 178.972 98.2933 179.271 98.2779 179.569C98.2779 180.196 98.2779 181.012 98.3376 182.027C98.3376 184.187 98.3973 187.192 98.4471 190.845L98.3774 190.696L107.145 198.378H106.956C109.026 196.478 111.215 194.467 113.474 192.407L115.694 190.417L115.604 190.616C115.604 186.237 115.604 182.107 115.604 178.415L115.843 178.654L103.274 178.773H98.7357C98.616 178.754 98.499 178.721 98.3874 178.674V178.674Z" fill="#455A64"/>
<path d="M70.6909 177.868C71.0521 177.844 71.4145 177.844 71.7757 177.868L74.9404 178.126L86.385 179.122H86.6238V179.361C86.1859 182.973 85.6983 187.083 85.1709 191.472V191.581L85.0813 191.651L82.5535 193.641L76.2938 198.617L76.0848 198.777L75.9256 198.578L69.0787 189.919V189.85V189.77C69.5763 186.108 69.9744 183.082 70.273 180.903C70.4123 179.908 70.5317 179.122 70.6213 178.515C70.6409 178.241 70.6909 177.971 70.7705 177.708C70.7644 178.008 70.7412 178.307 70.7009 178.604C70.6412 179.228 70.5616 180.044 70.462 181.052L69.4669 189.82V189.661L76.3834 198.249H76.0152L82.2649 193.273L84.8026 191.283L84.7031 191.452C85.2505 187.073 85.768 182.963 86.2158 179.351L86.4248 179.609L75.1096 178.425L71.8553 178.077C71.4633 178.031 71.0745 177.961 70.6909 177.868V177.868Z" fill="#455A64"/>
<path d="M106.687 206.22C105.768 205.861 104.877 205.435 104.02 204.946C102.408 204.1 100.168 202.955 97.6705 201.692C95.1726 200.428 92.9036 199.363 91.2516 198.577C90.3338 198.198 89.4484 197.746 88.6044 197.223C89.5678 197.459 90.5048 197.793 91.4008 198.218C93.0927 198.915 95.3816 199.95 97.9093 201.204C100.437 202.458 102.636 203.682 104.209 204.617C105.088 205.064 105.919 205.601 106.687 206.22V206.22Z" fill="#455A64"/>
<path d="M105.961 210.75C105.257 210.619 104.583 210.363 103.97 209.993C102.406 209.204 100.975 208.173 99.731 206.938C98.4938 205.718 97.4471 204.319 96.626 202.788C96.2574 202.172 95.9919 201.5 95.8398 200.798C95.9991 200.708 97.253 203.783 100.109 206.56C101.888 208.182 103.852 209.589 105.961 210.75V210.75Z" fill="#455A64"/>
<path d="M93.242 200.688C92.413 201.195 91.5237 201.596 90.5948 201.882C86.1787 203.487 81.4978 204.236 76.8016 204.092C75.8307 204.105 74.8617 204.001 73.9155 203.783C74.8749 203.695 75.8391 203.671 76.8016 203.713C79.1348 203.678 81.4626 203.478 83.7678 203.116C86.0516 202.745 88.3064 202.213 90.5152 201.524C91.4048 201.186 92.3157 200.907 93.242 200.688V200.688Z" fill="#455A64"/>
<path d="M91.6297 194.658C91.7789 194.658 91.9083 195.116 91.9183 195.653C91.9282 196.191 91.8088 196.649 91.6595 196.649C91.5102 196.649 91.3809 196.191 91.3809 195.653C91.3809 195.116 91.4804 194.658 91.6297 194.658Z" fill="#455A64"/>
<path d="M91.6397 190.518C91.789 190.518 91.9084 190.986 91.8985 191.513C91.8885 192.041 91.7691 192.508 91.6198 192.508C91.4705 192.508 91.3611 192.051 91.3611 191.513C91.3611 190.976 91.4905 190.518 91.6397 190.518Z" fill="#455A64"/>
<path d="M91.7193 186.386C91.8686 186.386 91.978 186.854 91.9681 187.382C91.9581 187.909 91.8188 188.377 91.6695 188.377C91.5202 188.377 91.4108 187.909 91.4307 187.382C91.4506 186.854 91.57 186.376 91.7193 186.386Z" fill="#455A64"/>
<path d="M91.8887 182.247C92.038 182.247 92.1375 182.724 92.1076 183.292C92.0778 183.859 91.9384 184.287 91.7991 184.287C91.6598 184.287 91.5503 183.809 91.5702 183.292C91.5901 182.774 91.7394 182.237 91.8887 182.247Z" fill="#455A64"/>
<path d="M169.851 77.7234C169.851 77.7234 176.738 67.3934 176.927 67.3038C176.927 67.3038 183.137 56.8345 185.207 56.8345C187.277 56.8345 186.52 58.9542 184.391 62.7061C183.366 64.3378 182.666 66.1526 182.331 68.0502L187.436 71.1253C187.436 71.1253 190.849 69.8117 190.989 72.9863C190.934 74.4417 190.737 75.8882 190.402 77.3054C190.193 78.4399 189.685 79.6441 188.61 79.2162C188.344 79.1252 188.113 78.9537 187.949 78.7254C187.785 78.4971 187.696 78.2234 187.695 77.9423C187.635 76.0614 187.983 75.3648 187.744 75.3648C187.506 75.3648 184.072 85.237 184.072 85.237L169.851 77.7234Z" fill="#FFBE9D"/>
<path d="M183.754 69.602C184.27 69.2208 184.82 68.8876 185.396 68.6068C185.976 68.3348 186.622 68.2347 187.257 68.3182C187.497 68.3388 187.728 68.4169 187.93 68.5459C188.133 68.6748 188.302 68.8508 188.422 69.0589C188.542 69.267 188.61 69.5011 188.62 69.7411C188.631 69.9812 188.583 70.2202 188.481 70.4379C188.285 70.9498 188.002 71.4244 187.645 71.8411" fill="#FFBE9D"/>
<path d="M181.425 67.5323C181.913 67.1768 182.433 66.867 182.978 66.6068C183.527 66.3509 184.138 66.2577 184.739 66.3381C184.965 66.3556 185.184 66.4275 185.376 66.5478C185.568 66.668 185.728 66.833 185.842 67.0286C185.957 67.2242 186.022 67.4447 186.033 67.671C186.043 67.8974 185.999 68.123 185.904 68.3285C185.443 69.0612 184.914 69.7478 184.321 70.3786" fill="#FFBE9D"/>
<path d="M172.25 71.8911L162.298 93.1681L173.245 104.384L178.987 88.5107C178.987 88.5107 182.052 89.1177 183.296 87.0876C184.7 84.8186 186.521 78.2702 186.521 78.2702L172.25 71.8911Z" fill="#FFBE9D"/>
<path d="M179.365 71.3048C179.446 70.2137 179.855 69.1727 180.54 68.3193C180.99 67.6995 181.571 67.1864 182.241 66.8166C182.759 66.5379 183.107 66.4384 183.137 66.4981C183.167 66.5578 181.943 67.2943 180.978 68.6377C180.012 69.9812 179.525 71.3745 179.365 71.3048Z" fill="#EB996E"/>
<path d="M190.402 71.3932C190.402 71.4629 190.014 71.2738 189.407 71.1743C188.666 71.0435 187.903 71.1625 187.237 71.5126C186.584 71.9197 186.03 72.467 185.615 73.1149C185.257 73.6125 185.028 73.921 184.958 73.8812C184.888 73.8414 185.008 73.4831 185.296 72.886C185.661 72.1079 186.246 71.4539 186.978 71.0051C187.363 70.8001 187.785 70.6742 188.219 70.6349C188.653 70.5956 189.091 70.6436 189.506 70.7762C190.163 71.025 190.442 71.3434 190.402 71.3932Z" fill="#EB996E"/>
<path d="M186.7 68.3892C186.7 68.5584 185.466 68.7674 184.361 69.7626C183.256 70.7577 182.699 71.9022 182.55 71.8325C182.692 70.8512 183.214 69.9649 184.003 69.3645C184.52 68.8845 185.15 68.5423 185.834 68.3693C186.361 68.2897 186.69 68.3295 186.7 68.3892Z" fill="#EB996E"/>
<path d="M189.138 72.9855C189.277 72.9358 189.546 73.7618 189.019 74.5878C188.491 75.4138 187.645 75.583 187.635 75.3839C187.625 75.1849 188.173 74.9461 188.561 74.2992C188.949 73.6523 188.989 73.0054 189.138 72.9855Z" fill="#EB996E"/>
<path d="M169.881 77.3052C169.881 77.3052 169.533 70.956 171.065 69.5129C172.598 68.0699 177.036 69.5726 177.036 69.5726" fill="#FFBE9D"/>
<path d="M177.614 66.5464C177.003 67.8382 176.238 69.0512 175.335 70.1589C174.577 71.3736 173.663 72.4843 172.618 73.4629C173.225 72.169 173.991 70.9555 174.897 69.8504C175.656 68.6361 176.569 67.5255 177.614 66.5464V66.5464Z" fill="#EB996E"/>
<path d="M89.5299 18.4007L89.3806 67.9509L110.638 68.946L111.255 56.8944C111.255 56.8944 118.808 58.3971 120.749 51.3811C121.993 46.9027 121.684 12.2803 121.684 12.2803L89.5299 18.4007Z" fill="#FFBE9D"/>
<path d="M124.481 15.7933C121.137 16.7884 120.411 22.2222 120.411 22.2222L115.156 33.826C112.479 31.7262 108.887 31.8356 108.19 36.5528C107.692 39.9464 111.922 40.6331 111.922 40.6331C109.464 44.8228 107.792 48.2064 104.209 52.1871C100.338 56.4963 98.1685 56.9242 93.9589 56.9939H89.3512C89.3512 56.9939 87.0822 49.6295 82.8725 31.2186C78.2151 10.7875 102.378 13.4148 106.856 8.20002C114.151 -0.2889 135.04 12.7679 124.481 15.7933Z" fill="#263238"/>
<path d="M83.32 33.1388C79.3989 30.5115 79.0506 23.187 81.3296 18.7385C82.5035 16.5383 84.2365 14.6862 86.354 13.3689C88.4715 12.0516 90.8987 11.3155 93.3912 11.2348C94.0624 11.2807 94.7364 11.2065 95.3816 11.0159C96.2567 10.5586 96.9899 9.87018 97.5013 9.02551C101.004 4.47752 104.468 0.0091509 110.966 0.0091509C112.4 -0.0620651 113.824 0.283586 115.066 1.00433C116.221 1.79613 117.087 2.94172 117.534 4.26854C118.729 3.62252 120.014 3.15957 121.346 2.89518C122.014 2.76336 122.703 2.77877 123.365 2.94032C124.027 3.10188 124.645 3.40571 125.177 3.83065C125.692 4.27348 126.033 4.88334 126.143 5.55311C126.252 6.22287 126.121 6.90969 125.774 7.49292C126.879 7.47972 127.953 7.86145 128.801 8.56936C129.649 9.27728 130.217 10.2649 130.402 11.3542C130.75 13.5237 127.635 15.0563 127.307 15.2255C127.307 15.2255 129.019 18.8082 124.939 20.9578C123.296 21.8236 121.157 20.7786 120.958 20.6493" fill="#263238"/>
<path d="M98.8451 37.9062C99.236 40.4312 98.6526 43.0104 97.213 45.1213C97.0737 45.0517 97.7604 43.529 98.2082 41.5486C98.656 39.5682 98.6859 37.9162 98.8451 37.9062Z" fill="#455A64"/>
<path d="M101.412 35.478C101.586 36.6868 101.519 37.918 101.213 39.1005C101.075 40.3157 100.693 41.4903 100.089 42.5538C100.183 41.3543 100.383 40.1654 100.686 39.001C100.822 37.8073 101.065 36.6282 101.412 35.478V35.478Z" fill="#455A64"/>
<path d="M108.777 27.2983C108.777 27.368 108.23 27.8059 107.463 28.7015C106.477 29.8869 105.703 31.2336 105.174 32.6823C104.644 34.1328 104.219 35.6195 103.901 37.1307C103.809 37.7784 103.632 38.411 103.373 39.0116C103.325 38.3445 103.376 37.6739 103.522 37.0213C103.737 35.4584 104.121 33.9234 104.667 32.4434C105.225 30.9582 106.082 29.6034 107.185 28.4627C107.609 27.9471 108.157 27.5467 108.777 27.2983V27.2983Z" fill="#455A64"/>
<path d="M111.753 21.7334C112.002 22.1356 112.146 22.5943 112.171 23.067C112.48 25.3483 111.899 27.6613 110.549 29.5257C110.021 30.2223 109.553 30.5209 109.553 30.5209C110.356 29.2076 110.995 27.8004 111.454 26.3312C111.743 24.8168 111.844 23.2724 111.753 21.7334V21.7334Z" fill="#455A64"/>
<path d="M86.3754 34.1054C86.3057 34.2348 85.6589 34.0158 84.9224 33.6078C84.186 33.1998 83.6586 32.7619 83.7382 32.6126C83.8178 32.4634 84.4547 32.7022 85.1911 33.1102C85.9276 33.5182 86.455 33.976 86.3754 34.1054Z" fill="#455A64"/>
<path d="M96.6454 28.8003C96.7947 28.8003 96.7051 29.8651 96.0384 30.9499C95.3716 32.0346 94.4958 32.6119 94.4162 32.4924C94.3366 32.373 94.9835 31.6764 95.5806 30.6712C96.1777 29.6661 96.4962 28.8003 96.6454 28.8003Z" fill="#455A64"/>
<path d="M99.8104 27.1182C99.7877 28.058 99.4553 28.964 98.865 29.6957C98.0091 30.9894 96.9343 31.6861 96.8746 31.5666C97.3531 30.8139 97.8748 30.0895 98.4371 29.3971C98.85 28.6113 99.3085 27.8504 99.8104 27.1182V27.1182Z" fill="#455A64"/>
<path d="M115.504 6.36931C115.504 6.36931 115.106 6.0608 114.34 5.62292C113.24 5.0438 112.02 4.73023 110.777 4.70734C108.937 4.66021 107.122 5.14762 105.552 6.11055C103.66 7.35156 102.126 9.0673 101.104 11.0865C100.332 12.5645 99.7241 14.1231 99.2927 15.734L99.2131 16.0425L98.9245 15.8932C97.4578 15.1257 95.8326 14.71 94.1775 14.6791C92.866 14.6491 91.5594 14.8478 90.3162 15.2662C89.214 15.6831 88.1597 16.2169 87.1714 16.8585C87.3789 16.62 87.6164 16.4093 87.878 16.2316C88.5953 15.7124 89.3784 15.2908 90.2067 14.9776C91.4789 14.4985 92.828 14.2556 94.1874 14.2611C95.9188 14.2558 97.6259 14.669 99.1633 15.4653L98.7951 15.6245C99.2192 13.9701 99.8337 12.3704 100.626 10.8576C101.695 8.75957 103.307 6.98635 105.294 5.72243C106.953 4.73479 108.869 4.26362 110.797 4.36898C112.089 4.4242 113.346 4.80781 114.449 5.4836C114.742 5.67219 115.015 5.88883 115.265 6.13046C115.435 6.25983 115.524 6.3494 115.504 6.36931Z" fill="#455A64"/>
<path d="M126.69 9.06709C126.69 9.06709 127.277 8.90787 127.904 9.61445C128.085 9.82786 128.222 10.0748 128.308 10.3412C128.393 10.6076 128.425 10.8882 128.402 11.1669C128.345 11.538 128.203 11.891 127.987 12.1983C127.772 12.5055 127.488 12.7588 127.158 12.9384C126.376 13.3839 125.452 13.5088 124.58 13.2867C123.613 13.0407 122.705 12.6005 121.913 11.9929C121.081 11.347 120.21 10.7522 119.306 10.2116C118.324 9.68464 117.267 9.31205 116.171 9.10691C114.031 8.72682 111.831 8.87716 109.762 9.54478C108.068 10.1046 106.468 10.9165 105.015 11.9531C103.702 12.9575 102.44 14.027 101.233 15.1576C101.473 14.7741 101.757 14.42 102.079 14.1027C102.911 13.2048 103.82 12.3822 104.796 11.6446C106.251 10.5376 107.874 9.67072 109.603 9.07704C111.747 8.3485 114.042 8.17727 116.271 8.57945C117.423 8.79102 118.535 9.18404 119.565 9.74383C120.481 10.3057 121.362 10.9239 122.202 11.5949C122.938 12.1715 123.78 12.5976 124.68 12.8488C125.446 13.0665 126.267 12.9772 126.969 12.6C127.258 12.4581 127.511 12.2514 127.708 11.996C127.905 11.7405 128.04 11.4433 128.103 11.1271C128.159 10.6376 128.032 10.1447 127.745 9.74383C127.483 9.40245 127.11 9.16314 126.69 9.06709Z" fill="#455A64"/>
<path d="M66.8892 73.1455L47.9011 104.991C45.7814 108.713 43.8109 112.674 41.93 116.784C41.2143 118.847 41.0214 121.055 41.3688 123.21C41.7162 125.366 42.5929 127.401 43.9204 129.135L43.383 128.358C44.4226 129.645 45.7371 130.683 47.2301 131.396C48.7231 132.109 50.3568 132.479 52.0112 132.478H52.4989C54.6581 132.479 56.7705 131.849 58.5771 130.666C60.3837 129.484 61.806 127.8 62.6697 125.821L68.7701 116.555L66.8892 73.1455Z" fill="#E7AF22"/>
<path d="M124.192 67.0541C119.087 64.4467 114.061 63.8596 108.568 63.7003C102.169 63.5113 93.1622 62.6156 86.2655 63.352C86.2655 63.352 66.6306 64.805 65.2672 78.2798L67.9542 141.474L63.4559 168.244L126.371 170.115L125.924 138.528C126.7 122.098 125.038 98.8204 125.038 98.8204C126.033 89.9831 130.85 86.0124 131.536 80.2602C132.144 75.1947 128.74 69.3729 124.192 67.0541Z" fill="#E7AF22"/>
<path d="M106.458 142.359C106.188 142.689 105.877 142.983 105.533 143.235C104.632 143.979 103.67 144.645 102.656 145.225C99.306 147.149 95.5229 148.194 91.6599 148.262C87.7968 148.33 83.9794 147.419 80.5634 145.613C79.5148 145.083 78.5157 144.46 77.5778 143.752C77.2104 143.515 76.8758 143.231 76.5826 142.907C76.6424 142.817 78.0356 144.001 80.643 145.275C84.0352 146.951 87.7794 147.791 91.5625 147.723C95.3456 147.656 99.0575 146.683 102.388 144.887C105.035 143.504 106.388 142.25 106.458 142.359Z" fill="#263238"/>
<path d="M65.1581 78.9868C65.2054 79.1857 65.2288 79.3895 65.2278 79.5939C65.2278 80.0616 65.2875 80.6388 65.3372 81.3653C65.4069 82.9676 65.5164 85.1669 65.6358 87.8639C65.8746 93.407 66.1831 100.96 66.5314 109.3C66.8798 117.64 67.2579 125.223 67.5266 130.736C67.666 133.423 67.7754 135.623 67.855 137.225C67.855 137.951 67.9148 138.529 67.9347 138.996C67.9522 139.202 67.9522 139.408 67.9347 139.613C67.873 139.417 67.8394 139.212 67.8351 139.006C67.8351 138.539 67.7257 137.961 67.656 137.245C67.5067 135.712 67.3475 133.493 67.1584 130.756C66.7802 125.273 66.3822 117.699 66.0239 109.32C65.6656 100.941 65.4268 93.3971 65.2875 87.8738C65.2278 85.1769 65.188 82.9775 65.1581 81.3653C65.1581 80.6488 65.1581 80.0616 65.1581 79.6038C65.1343 79.3989 65.1343 79.1918 65.1581 78.9868V78.9868Z" fill="#263238"/>
<path d="M61.237 82.332C61.1833 82.5025 61.1098 82.6662 61.0181 82.8197L60.3015 84.1831C59.6746 85.3574 58.7292 87.0392 57.515 89.0893C55.1266 93.2193 51.5439 98.7526 47.9016 105.012C46.0903 108.157 44.5577 111.262 43.2242 114.098C41.9613 116.559 41.3319 119.295 41.3931 122.06C41.481 123.923 41.977 125.744 42.846 127.394C43.473 128.558 43.9905 129.106 43.9407 129.136C43.8018 129.023 43.6751 128.896 43.5626 128.757C43.2307 128.361 42.9311 127.938 42.6669 127.493C41.7052 125.841 41.1397 123.988 41.0149 122.08C40.8953 119.242 41.4979 116.42 42.7664 113.879C44.09 111.003 45.6126 107.908 47.4338 104.724C51.0861 98.4142 54.7186 92.9307 57.1866 88.8604L60.1224 84.0338L60.9285 82.7301C61.1176 82.4713 61.1773 82.3221 61.237 82.332Z" fill="#263238"/>
<path d="M176.967 99.6779L162.408 90.154L153.222 106.077C153.222 106.077 140.484 88.3726 134.692 78.0028C129.367 68.4491 122.481 65.8815 119.157 65.1849C118.928 65.1403 118.693 65.1497 118.469 65.2124C118.245 65.2751 118.038 65.3894 117.866 65.546C117.694 65.7026 117.561 65.8973 117.478 66.1146C117.394 66.3318 117.363 66.5655 117.385 66.7971L122.361 101.23C122.998 103.022 133.507 118.258 139.379 125.921C149.182 138.719 163.622 130.529 167.583 121.572C170.777 114.456 175.683 103.659 176.967 99.6779Z" fill="#E7AF22"/>
<path d="M157.411 120.436C157.23 119.693 157.136 118.931 157.133 118.167C157.007 116.346 156.771 114.535 156.426 112.743C156.067 110.963 155.439 109.249 154.565 107.658C153.878 106.453 153.301 105.797 153.371 105.737C153.997 106.198 154.517 106.788 154.893 107.468C155.892 109.049 156.591 110.8 156.953 112.633C157.312 114.45 157.498 116.296 157.511 118.147C157.573 118.911 157.54 119.68 157.411 120.436V120.436Z" fill="#263238"/>
<path d="M161.69 113.321C161.601 113.321 161.531 112.584 161.173 111.46C160.695 110.003 159.899 108.671 158.844 107.558C157.866 106.391 156.484 105.635 154.973 105.439C154.342 105.439 153.715 105.55 153.122 105.767C153.072 105.767 153.679 105.1 154.973 105.061C155.79 105.103 156.59 105.313 157.323 105.678C158.056 106.043 158.706 106.554 159.232 107.18C160.357 108.346 161.154 109.788 161.541 111.36C161.747 111.992 161.798 112.664 161.69 113.321V113.321Z" fill="#263238"/>
<path d="M118.201 69.433C118.201 69.433 118.092 69.5822 117.853 69.831L117.405 70.2888L116.848 70.9655C115.696 72.4173 114.841 74.0808 114.33 75.8618C113.566 78.4977 113.375 81.2669 113.773 83.9825C113.985 85.5833 114.406 87.1492 115.027 88.64C115.727 90.241 116.514 91.8024 117.385 93.3174C120.948 99.5771 124.61 104.991 127.267 108.902L130.462 113.5C130.881 114.042 131.269 114.607 131.626 115.192C131.626 115.192 131.477 115.072 131.258 114.803C131.039 114.535 130.701 114.147 130.263 113.619C129.447 112.624 128.272 111.042 126.929 109.121C124.192 105.26 120.47 99.8756 116.878 93.5861C116.009 92.0479 115.218 90.4668 114.509 88.849C113.873 87.3151 113.451 85.7011 113.255 84.0522C112.867 81.2662 113.098 78.4288 113.932 75.7424C114.493 73.9335 115.421 72.2599 116.659 70.8262L117.266 70.1794L117.753 69.7514C118.052 69.5225 118.191 69.4131 118.201 69.433Z" fill="#263238"/>
<path d="M118.241 160.911C118.241 160.911 118.092 161 117.793 161.11L116.49 161.558C115.922 161.757 115.226 161.975 114.4 162.194C113.574 162.413 112.638 162.712 111.583 162.931C109.135 163.518 106.657 163.974 104.159 164.294C101.095 164.679 98.0117 164.885 94.9239 164.911C91.8341 164.899 88.7475 164.713 85.6786 164.354C83.1796 164.04 80.6984 163.598 78.2446 163.03C77.1897 162.811 76.2542 162.533 75.4282 162.314C74.6022 162.095 73.8956 161.876 73.3284 161.677L72.0247 161.239C71.7261 161.13 71.5669 161.06 71.5769 161.04C71.7384 161.056 71.8982 161.086 72.0545 161.13L73.3881 161.478C73.9653 161.637 74.6719 161.836 75.5078 162.015C76.3438 162.194 77.2693 162.463 78.3242 162.662C80.4141 163.11 82.9319 163.528 85.7383 163.856C88.7889 164.19 91.8551 164.363 94.9239 164.374C97.9901 164.342 101.053 164.153 104.099 163.807C106.896 163.458 109.414 163.03 111.504 162.563C112.559 162.364 113.494 162.105 114.32 161.906C115.146 161.707 115.853 161.518 116.43 161.358L117.763 161C117.918 160.949 118.079 160.919 118.241 160.911V160.911Z" fill="#263238"/>
<g opacity="0.3">
<path opacity="0.3" d="M64.0435 123.81L66.8797 119.401L65.3969 84.6792L64.0435 123.81Z" fill="black"/>
</g>
<g opacity="0.3">
<path opacity="0.3" d="M113.116 82.3315C113.116 82.3315 113.206 94.9803 116.102 99.9961C118.998 105.012 125.865 115.839 125.865 115.193C125.865 114.546 125.476 106.236 125.476 106.236C125.476 106.236 113.176 89.4073 113.116 82.3315Z" fill="black"/>
</g>
<path d="M61.5256 124.865C61.2478 125.022 60.9383 125.114 60.62 125.134C59.7503 125.228 58.8706 125.116 58.0525 124.806C56.8458 124.337 55.7582 123.606 54.8679 122.666C53.8241 121.508 52.9343 120.221 52.2207 118.835C51.5151 117.464 50.7309 116.135 49.872 114.854C49.1449 113.858 48.257 112.99 47.2448 112.286C46.2942 111.658 45.2232 111.234 44.1 111.042C44.4122 110.982 44.7332 110.982 45.0454 111.042C45.8999 111.183 46.7163 111.498 47.4438 111.968C48.5217 112.675 49.4652 113.568 50.2303 114.605C51.1203 115.877 51.9249 117.207 52.6387 118.586C53.3451 119.936 54.2068 121.198 55.2062 122.348C56.0399 123.258 57.0576 123.98 58.1918 124.467C59.2484 124.892 60.3987 125.029 61.5256 124.865V124.865Z" fill="white"/>
<path d="M65.3769 103.059C65.2874 103.059 65.0684 102.303 64.4613 101.188C63.6619 99.7375 62.5652 98.4716 61.243 97.4736C59.9209 96.4755 58.4029 95.7677 56.7885 95.3965C55.5545 95.1178 54.7484 95.1178 54.7384 95.0282C55.4368 94.876 56.1598 94.876 56.8581 95.0282C58.5637 95.2954 60.1771 95.9791 61.5554 97.0186C62.9415 98.0625 64.0517 99.4289 64.7898 100.999C65.1327 101.635 65.3331 102.338 65.3769 103.059V103.059Z" fill="white"/>
<path d="M113.345 84.4203C113.345 84.4701 112.658 84.2909 111.424 84.1914C109.675 84.0705 107.917 84.2318 106.219 84.6691C103.7 85.3077 101.272 86.2641 98.9941 87.5153C96.3867 88.8688 93.6301 90.6104 90.5052 92.0335C87.5747 93.4277 84.408 94.2582 81.1704 94.4816C78.5314 94.6349 75.8844 94.39 73.3184 93.7551C71.5952 93.3369 69.9257 92.7225 68.3425 91.924C67.7752 91.6553 67.3473 91.3866 67.0786 91.2274C66.8099 91.0681 66.6506 90.9587 66.6606 90.9388C66.6705 90.9189 67.2876 91.2373 68.432 91.7349C70.031 92.4537 71.698 93.0104 73.4079 93.3969C75.9428 93.9702 78.5472 94.1747 81.1405 94.0039C84.3144 93.7786 87.4205 92.9759 90.3062 91.6354C93.3912 90.2222 96.1578 88.5105 98.7951 87.1571C101.109 85.8931 103.583 84.9459 106.149 84.3407C107.885 83.9259 109.681 83.8181 111.454 84.0222C111.934 84.078 112.41 84.1677 112.877 84.2909C113.038 84.3137 113.195 84.3572 113.345 84.4203V84.4203Z" fill="white"/>
<path d="M125.576 118.853C125.392 118.941 125.198 119.004 124.998 119.043C124.447 119.216 123.885 119.356 123.316 119.461C121.224 119.88 119.09 120.051 116.957 119.968C113.797 119.841 110.656 119.401 107.583 118.654C104.099 117.858 100.358 116.664 96.4266 115.559C92.7464 114.445 88.9871 113.61 85.181 113.061C82.0798 112.622 78.9337 112.598 75.8263 112.992C73.7323 113.267 71.6862 113.83 69.7457 114.664C68.3823 115.261 67.6558 115.659 67.626 115.659C67.7839 115.53 67.9539 115.417 68.1335 115.321C68.6294 115.018 69.141 114.743 69.6661 114.495C71.6008 113.58 73.6598 112.957 75.7765 112.643C78.9161 112.207 82.1011 112.207 85.2407 112.643C89.0758 113.166 92.8629 113.995 96.5659 115.121C100.547 116.276 104.239 117.43 107.682 118.246C110.725 119.01 113.834 119.483 116.967 119.66C119.076 119.772 121.192 119.658 123.277 119.321C124.759 119.013 125.566 118.804 125.576 118.853Z" fill="white"/>
<path d="M125.924 138.539C123.296 137.37 120.503 136.618 117.644 136.309C114.537 136.06 111.412 136.167 108.329 136.628C104.836 137.106 101.034 137.912 97.0236 138.618C93.013 139.325 89.1616 140.031 85.6287 140.34C82.4977 140.663 79.3409 140.643 76.2143 140.28C74.1032 140.03 72.029 139.532 70.0342 138.797C69.3276 138.559 68.8101 138.27 68.4419 138.121C68.2545 138.052 68.0771 137.958 67.9144 137.842C67.9144 137.792 68.6907 138.131 70.1038 138.608C72.1011 139.263 74.1631 139.7 76.2541 139.912C79.359 140.218 82.4874 140.201 85.5889 139.862C89.0919 139.534 92.9234 138.867 96.924 138.111C100.925 137.354 104.746 136.568 108.269 136.12C111.387 135.668 114.548 135.594 117.684 135.901C119.801 136.128 121.875 136.654 123.844 137.464C124.381 137.674 124.903 137.92 125.406 138.2C125.591 138.293 125.764 138.407 125.924 138.539Z" fill="white"/>
<path d="M93.5802 163.915C93.2242 163.747 92.89 163.537 92.5851 163.288C91.968 162.85 91.0724 162.243 89.9478 161.497C87.0294 159.565 83.9876 157.826 80.8419 156.292C77.6937 154.756 74.4492 153.427 71.1289 152.311C69.8551 151.893 68.8101 151.565 68.1434 151.316C67.7596 151.231 67.3884 151.097 67.0387 150.918C67.4158 150.976 67.7859 151.073 68.1434 151.207C68.8798 151.366 69.9446 151.644 71.2384 152.023C77.9991 154.044 84.3855 157.154 90.1469 161.228C91.2416 162.004 92.1372 162.671 92.6945 163.159C93.0184 163.375 93.3156 163.629 93.5802 163.915V163.915Z" fill="white"/>
<path d="M124.212 163.578C123.585 164.05 122.877 164.404 122.123 164.623C118.509 165.907 114.545 165.786 111.016 164.285C110.291 164.01 109.617 163.613 109.026 163.11C109.026 163.031 109.842 163.458 111.176 163.946C112.917 164.547 114.738 164.882 116.579 164.941C118.426 164.991 120.27 164.752 122.043 164.235C123.367 163.876 124.173 163.498 124.212 163.578Z" fill="white"/>
<path d="M145.987 97.8755C146.021 98.1752 145.984 98.4789 145.877 98.7612C145.64 99.5468 145.244 100.275 144.713 100.901C143.923 101.817 142.976 102.586 141.916 103.17C140.631 103.856 139.301 104.455 137.936 104.961C136.597 105.464 135.326 106.132 134.154 106.952C133.22 107.638 132.449 108.521 131.895 109.539C131.416 110.497 131.196 111.564 131.258 112.634C131.131 112.36 131.067 112.061 131.069 111.758C131.037 110.933 131.208 110.113 131.566 109.37C132.103 108.273 132.887 107.316 133.855 106.573C135.048 105.706 136.354 105.006 137.737 104.493C139.093 103.991 140.422 103.416 141.717 102.772C142.744 102.226 143.675 101.516 144.474 100.672C145.168 99.8555 145.683 98.9029 145.987 97.8755V97.8755Z" fill="white"/>
<path d="M133.766 76.7569C133.749 77.0648 133.692 77.3693 133.597 77.6625C133.516 78.0006 133.413 78.333 133.288 78.6577C133.145 79.1117 132.976 79.557 132.781 79.9912C132.289 81.136 131.686 82.2293 130.979 83.2554C130.107 84.5101 129.106 85.6707 127.994 86.7186C126.876 87.7549 125.655 88.6752 124.351 89.4654C123.283 90.1014 122.157 90.6345 120.988 91.0577C120.541 91.2237 120.086 91.3666 119.624 91.4856C119.282 91.5912 118.933 91.671 118.579 91.7244C118.281 91.8049 117.973 91.8451 117.664 91.8439C117.664 91.7443 118.928 91.4955 120.858 90.7093C121.985 90.2522 123.07 89.6996 124.103 89.0573C126.636 87.4812 128.831 85.4178 130.561 82.9867C131.266 81.9924 131.885 80.9404 132.412 79.8419C133.348 77.9909 133.666 76.727 133.766 76.7569Z" fill="white"/>
<path d="M114.608 63.7012C114.145 63.9545 113.663 64.1708 113.165 64.348C112.22 64.7461 110.837 65.2437 109.095 65.791C107.354 66.3384 105.244 66.8758 102.885 67.3634C100.314 67.8643 97.7151 68.2165 95.1029 68.4183C92.4928 68.6005 89.8743 68.6304 87.2608 68.5079C85.1247 68.4027 82.9954 68.1868 80.8817 67.861C79.0804 67.5724 77.6274 67.2838 76.6422 67.0251C76.1195 66.9384 75.6063 66.8017 75.1096 66.6171C75.6361 66.6533 76.1588 66.7332 76.6721 66.8559C77.6672 67.045 79.1202 67.2838 80.9215 67.5127C82.7228 67.7416 84.9022 67.9506 87.2708 68.0501C89.8654 68.1434 92.4631 68.1002 95.0531 67.9207C97.6461 67.7231 100.227 67.3909 102.786 66.9256C105.134 66.4678 107.234 65.9304 108.976 65.4626C110.717 64.9949 112.13 64.5272 113.086 64.1888C113.578 63.9829 114.088 63.8198 114.608 63.7012V63.7012Z" fill="white"/>
<path d="M153.729 107.021C153.9 107.332 154.021 107.668 154.088 108.016C154.322 108.962 154.465 109.929 154.516 110.902C154.551 114.101 154.217 117.294 153.52 120.416C153.248 122.164 152.795 123.878 152.167 125.531C151.64 126.892 150.856 128.139 149.858 129.204C149.183 129.92 148.38 130.504 147.49 130.925C147.181 131.095 146.844 131.203 146.494 131.244C147.669 130.686 148.726 129.909 149.609 128.955C150.53 127.884 151.251 126.657 151.739 125.332C152.325 123.698 152.755 122.012 153.023 120.297C153.696 117.205 154.072 114.056 154.147 110.892C154.081 109.595 153.942 108.302 153.729 107.021Z" fill="white"/>
<path d="M173.633 109.569C173.543 109.569 173.076 108.573 172.031 107.041C169.287 103.065 165.203 100.211 160.526 98.9998C158.745 98.542 157.541 98.4624 157.601 98.3728C157.66 98.2832 157.889 98.3728 158.417 98.3728C159.153 98.4053 159.886 98.5019 160.606 98.6614C161.687 98.8923 162.743 99.2255 163.761 99.6566C166.259 100.698 168.503 102.266 170.339 104.254C171.08 105.065 171.746 105.941 172.329 106.872C172.718 107.505 173.051 108.171 173.325 108.862C173.462 109.081 173.566 109.319 173.633 109.569V109.569Z" fill="white"/>
<g opacity="0.3">
<path opacity="0.3" d="M115.186 161.697C115.424 161.58 115.634 161.412 115.802 161.206C115.969 161.001 116.09 160.761 116.157 160.504C116.223 160.246 116.233 159.978 116.185 159.717C116.138 159.456 116.035 159.208 115.883 158.99C115.511 158.618 115.06 158.335 114.564 158.163C114.068 157.991 113.538 157.933 113.016 157.995C107.871 158.094 103.383 161.538 98.3276 162.463C94.4762 163.16 90.5154 162.374 86.7735 161.239C83.0316 160.105 79.3793 158.622 75.5379 157.895C74.7394 157.697 73.9069 157.676 73.0997 157.836C72.7006 157.927 72.3363 158.131 72.0503 158.424C71.7644 158.717 71.569 159.086 71.4875 159.488C71.388 160.294 71.577 160.901 72.7812 161.309C72.7812 161.309 85.5096 164.852 94.6753 164.712C101.6 164.438 108.475 163.427 115.186 161.697Z" fill="black"/>
</g>
</svg>
<svg width="253" height="259" viewBox="0 0 253 259" fill="none" xmlns="http://www.w3.org/2000/svg">
<path d="M43.8226 259C-2.02051 229.824 41.2442 210.953 17.0957 160.833C-14.982 94.2498 -9.21826 10.0857 98.3496 10C169.161 9.94344 229.071 59.4821 241.283 118.023C259.535 205.488 228.247 259 228.247 259H43.8226Z" fill="#E73A40"/>
<path d="M238.768 43.799L236.508 41.122L243.236 37.5095L211.977 26.9307L222.556 57.2241L226.407 52.1785C226.407 52.1785 246.629 87.7663 226.407 109.402C206.325 130.888 182.619 126.24 182.619 126.24L187.187 141.168C187.187 141.168 224.447 143.815 244.41 110.158C264.374 76.5008 238.768 43.799 238.768 43.799Z" fill="#E7AF22"/>
<path d="M145.031 118.477L147.3 121.164L140.562 124.767L171.821 135.345L161.242 105.052L157.401 110.098C157.401 110.098 137.169 74.5099 157.401 52.8746C177.484 31.3885 201.189 36.046 201.189 36.046L196.621 21.1182C196.621 21.1182 159.351 18.4711 139.398 52.1282C119.445 85.7853 145.031 118.477 145.031 118.477Z" fill="#E7AF22"/>
<path d="M238.768 43.799L236.508 41.122L243.236 37.5095L211.977 26.9307L222.556 57.2241L226.407 52.1785C226.407 52.1785 246.629 87.7663 226.407 109.402C206.325 130.888 182.619 126.24 182.619 126.24L187.187 141.168C187.187 141.168 224.447 143.815 244.41 110.158C264.374 76.5008 238.768 43.799 238.768 43.799Z" fill="#E7AF22"/>
<path d="M145.031 118.477L147.3 121.164L140.562 124.767L171.821 135.345L161.242 105.052L157.401 110.098C157.401 110.098 137.169 74.5099 157.401 52.8746C177.484 31.3885 201.189 36.046 201.189 36.046L196.621 21.1182C196.621 21.1182 159.351 18.4711 139.398 52.1282C119.445 85.7853 145.031 118.477 145.031 118.477Z" fill="#E7AF22"/>
<path opacity="0.8" d="M238.768 43.799L236.508 41.122L243.236 37.5095L211.977 26.9307L222.556 57.2241L226.407 52.1785C226.407 52.1785 246.629 87.7663 226.407 109.402C206.325 130.888 182.619 126.24 182.619 126.24L187.187 141.168C187.187 141.168 224.447 143.815 244.41 110.158C264.374 76.5008 238.768 43.799 238.768 43.799Z" fill="white"/>
<path opacity="0.8" d="M145.031 118.477L147.3 121.164L140.562 124.767L171.821 135.345L161.242 105.052L157.401 110.098C157.401 110.098 137.169 74.5099 157.401 52.8746C177.484 31.3885 201.189 36.046 201.189 36.046L196.621 21.1182C196.621 21.1182 159.351 18.4711 139.398 52.1282C119.445 85.7853 145.031 118.477 145.031 118.477Z" fill="white"/>
<path fill-rule="evenodd" clip-rule="evenodd" d="M209.728 63.4632C211.209 65.0492 212.471 66.8265 213.48 68.7476H219.451L221.68 78.4307L216.266 81.048C216.197 83.2156 215.839 85.3642 215.202 87.4371L219.461 91.6667L214.196 100.086L208.524 98.0955C206.939 99.574 205.166 100.836 203.249 101.847V107.818L193.566 110.048L190.959 104.634C188.791 104.565 186.643 104.206 184.57 103.569L180.34 107.828L171.911 102.564L173.901 96.8914C172.42 95.3072 171.155 93.5336 170.14 91.6169H164.168L161.929 81.9338L167.343 79.3264C167.416 77.1584 167.777 75.0098 168.418 72.9373L164.149 68.7078L169.423 60.2786L175.086 62.2689C176.671 60.785 178.449 59.5198 180.37 58.5071V52.536L190.053 50.2969L192.671 55.7107C194.839 55.7834 196.987 56.1448 199.06 56.7855L203.289 52.5161L211.708 57.7906L209.718 63.4532L209.728 63.4632ZM197.875 71.4246C196.088 70.3067 194.01 69.7438 191.903 69.8072C189.795 69.8706 187.755 70.5574 186.038 71.7807C184.321 73.004 183.006 74.7089 182.258 76.6798C181.51 78.6507 181.363 80.7991 181.837 82.8533C182.31 84.9076 183.381 86.7753 184.916 88.2205C186.451 89.6656 188.38 90.6232 190.459 90.9722C192.538 91.3211 194.673 91.0458 196.596 90.181C198.518 89.3161 200.141 87.9007 201.259 86.1135C202.005 84.9253 202.509 83.6017 202.742 82.2185C202.976 80.8352 202.934 79.4195 202.62 78.0524C202.306 76.6852 201.725 75.3935 200.911 74.2511C200.097 73.1087 199.065 72.138 197.875 71.3948V71.4246Z" fill="#E7AF22"/>
<path d="M125.148 163.538L66.3023 163.101L54.8324 257H82.8324L93.5903 199.405L96.3324 257H114.832H125.148V163.538Z" fill="#263238"/>
<path d="M98.3874 178.674C98.7902 178.624 99.1956 178.597 99.6015 178.594L103.144 178.465L115.853 178.106H116.102V178.355C116.102 182.047 116.102 186.177 116.102 190.556V190.676L116.012 190.755L113.803 192.746L107.264 198.717L107.095 198.866L106.926 198.717L98.2481 191.014L98.1685 190.954V190.855C98.1685 187.153 98.2481 184.097 98.2779 181.898C98.2779 180.903 98.2779 180.097 98.2779 179.49C98.2551 179.218 98.2551 178.945 98.2779 178.674C98.2933 178.972 98.2933 179.271 98.2779 179.569C98.2779 180.196 98.2779 181.012 98.3376 182.027C98.3376 184.187 98.3973 187.192 98.4471 190.845L98.3774 190.696L107.145 198.378H106.956C109.026 196.478 111.215 194.467 113.474 192.407L115.694 190.417L115.604 190.616C115.604 186.237 115.604 182.107 115.604 178.415L115.843 178.654L103.274 178.773H98.7357C98.616 178.754 98.499 178.721 98.3874 178.674V178.674Z" fill="#455A64"/>
<path d="M70.6909 177.868C71.0521 177.844 71.4145 177.844 71.7757 177.868L74.9404 178.126L86.385 179.122H86.6238V179.361C86.1859 182.973 85.6983 187.083 85.1709 191.472V191.581L85.0813 191.651L82.5535 193.641L76.2938 198.617L76.0848 198.777L75.9256 198.578L69.0787 189.919V189.85V189.77C69.5763 186.108 69.9744 183.082 70.273 180.903C70.4123 179.908 70.5317 179.122 70.6213 178.515C70.6409 178.241 70.6909 177.971 70.7705 177.708C70.7644 178.008 70.7412 178.307 70.7009 178.604C70.6412 179.228 70.5616 180.044 70.462 181.052L69.4669 189.82V189.661L76.3834 198.249H76.0152L82.2649 193.273L84.8026 191.283L84.7031 191.452C85.2505 187.073 85.768 182.963 86.2158 179.351L86.4248 179.609L75.1096 178.425L71.8553 178.077C71.4633 178.031 71.0745 177.961 70.6909 177.868V177.868Z" fill="#455A64"/>
<path d="M106.687 206.22C105.768 205.861 104.877 205.435 104.02 204.946C102.408 204.1 100.168 202.955 97.6705 201.692C95.1726 200.428 92.9036 199.363 91.2516 198.577C90.3338 198.198 89.4484 197.746 88.6044 197.223C89.5678 197.459 90.5048 197.793 91.4008 198.218C93.0927 198.915 95.3816 199.95 97.9093 201.204C100.437 202.458 102.636 203.682 104.209 204.617C105.088 205.064 105.919 205.601 106.687 206.22V206.22Z" fill="#455A64"/>
<path d="M105.961 210.75C105.257 210.619 104.583 210.363 103.97 209.993C102.406 209.204 100.975 208.173 99.731 206.938C98.4938 205.718 97.4471 204.319 96.626 202.788C96.2574 202.172 95.9919 201.5 95.8398 200.798C95.9991 200.708 97.253 203.783 100.109 206.56C101.888 208.182 103.852 209.589 105.961 210.75V210.75Z" fill="#455A64"/>
<path d="M93.242 200.688C92.413 201.195 91.5237 201.596 90.5948 201.882C86.1787 203.487 81.4978 204.236 76.8016 204.092C75.8307 204.105 74.8617 204.001 73.9155 203.783C74.8749 203.695 75.8391 203.671 76.8016 203.713C79.1348 203.678 81.4626 203.478 83.7678 203.116C86.0516 202.745 88.3064 202.213 90.5152 201.524C91.4048 201.186 92.3157 200.907 93.242 200.688V200.688Z" fill="#455A64"/>
<path d="M91.6297 194.658C91.7789 194.658 91.9083 195.116 91.9183 195.653C91.9282 196.191 91.8088 196.649 91.6595 196.649C91.5102 196.649 91.3809 196.191 91.3809 195.653C91.3809 195.116 91.4804 194.658 91.6297 194.658Z" fill="#455A64"/>
<path d="M91.6397 190.518C91.789 190.518 91.9084 190.986 91.8985 191.513C91.8885 192.041 91.7691 192.508 91.6198 192.508C91.4705 192.508 91.3611 192.051 91.3611 191.513C91.3611 190.976 91.4905 190.518 91.6397 190.518Z" fill="#455A64"/>
<path d="M91.7193 186.386C91.8686 186.386 91.978 186.854 91.9681 187.382C91.9581 187.909 91.8188 188.377 91.6695 188.377C91.5202 188.377 91.4108 187.909 91.4307 187.382C91.4506 186.854 91.57 186.376 91.7193 186.386Z" fill="#455A64"/>
<path d="M91.8887 182.247C92.038 182.247 92.1375 182.724 92.1076 183.292C92.0778 183.859 91.9384 184.287 91.7991 184.287C91.6598 184.287 91.5503 183.809 91.5702 183.292C91.5901 182.774 91.7394 182.237 91.8887 182.247Z" fill="#455A64"/>
<path d="M169.851 77.7234C169.851 77.7234 176.738 67.3934 176.927 67.3038C176.927 67.3038 183.137 56.8345 185.207 56.8345C187.277 56.8345 186.52 58.9542 184.391 62.7061C183.366 64.3378 182.666 66.1526 182.331 68.0502L187.436 71.1253C187.436 71.1253 190.849 69.8117 190.989 72.9863C190.934 74.4417 190.737 75.8882 190.402 77.3054C190.193 78.4399 189.685 79.6441 188.61 79.2162C188.344 79.1252 188.113 78.9537 187.949 78.7254C187.785 78.4971 187.696 78.2234 187.695 77.9423C187.635 76.0614 187.983 75.3648 187.744 75.3648C187.506 75.3648 184.072 85.237 184.072 85.237L169.851 77.7234Z" fill="#FFBE9D"/>
<path d="M183.754 69.602C184.27 69.2208 184.82 68.8876 185.396 68.6068C185.976 68.3348 186.622 68.2347 187.257 68.3182C187.497 68.3388 187.728 68.4169 187.93 68.5459C188.133 68.6748 188.302 68.8508 188.422 69.0589C188.542 69.267 188.61 69.5011 188.62 69.7411C188.631 69.9812 188.583 70.2202 188.481 70.4379C188.285 70.9498 188.002 71.4244 187.645 71.8411" fill="#FFBE9D"/>
<path d="M181.425 67.5323C181.913 67.1768 182.433 66.867 182.978 66.6068C183.527 66.3509 184.138 66.2577 184.739 66.3381C184.965 66.3556 185.184 66.4275 185.376 66.5478C185.568 66.668 185.728 66.833 185.842 67.0286C185.957 67.2242 186.022 67.4447 186.033 67.671C186.043 67.8974 185.999 68.123 185.904 68.3285C185.443 69.0612 184.914 69.7478 184.321 70.3786" fill="#FFBE9D"/>
<path d="M172.25 71.8911L162.298 93.1681L173.245 104.384L178.987 88.5107C178.987 88.5107 182.052 89.1177 183.296 87.0876C184.7 84.8186 186.521 78.2702 186.521 78.2702L172.25 71.8911Z" fill="#FFBE9D"/>
<path d="M179.365 71.3048C179.446 70.2137 179.855 69.1727 180.54 68.3193C180.99 67.6995 181.571 67.1864 182.241 66.8166C182.759 66.5379 183.107 66.4384 183.137 66.4981C183.167 66.5578 181.943 67.2943 180.978 68.6377C180.012 69.9812 179.525 71.3745 179.365 71.3048Z" fill="#EB996E"/>
<path d="M190.402 71.3932C190.402 71.4629 190.014 71.2738 189.407 71.1743C188.666 71.0435 187.903 71.1625 187.237 71.5126C186.584 71.9197 186.03 72.467 185.615 73.1149C185.257 73.6125 185.028 73.921 184.958 73.8812C184.888 73.8414 185.008 73.4831 185.296 72.886C185.661 72.1079 186.246 71.4539 186.978 71.0051C187.363 70.8001 187.785 70.6742 188.219 70.6349C188.653 70.5956 189.091 70.6436 189.506 70.7762C190.163 71.025 190.442 71.3434 190.402 71.3932Z" fill="#EB996E"/>
<path d="M186.7 68.3892C186.7 68.5584 185.466 68.7674 184.361 69.7626C183.256 70.7577 182.699 71.9022 182.55 71.8325C182.692 70.8512 183.214 69.9649 184.003 69.3645C184.52 68.8845 185.15 68.5423 185.834 68.3693C186.361 68.2897 186.69 68.3295 186.7 68.3892Z" fill="#EB996E"/>
<path d="M189.138 72.9855C189.277 72.9358 189.546 73.7618 189.019 74.5878C188.491 75.4138 187.645 75.583 187.635 75.3839C187.625 75.1849 188.173 74.9461 188.561 74.2992C188.949 73.6523 188.989 73.0054 189.138 72.9855Z" fill="#EB996E"/>
<path d="M169.881 77.3052C169.881 77.3052 169.533 70.956 171.065 69.5129C172.598 68.0699 177.036 69.5726 177.036 69.5726" fill="#FFBE9D"/>
<path d="M177.614 66.5464C177.003 67.8382 176.238 69.0512 175.335 70.1589C174.577 71.3736 173.663 72.4843 172.618 73.4629C173.225 72.169 173.991 70.9555 174.897 69.8504C175.656 68.6361 176.569 67.5255 177.614 66.5464V66.5464Z" fill="#EB996E"/>
<path d="M89.5299 18.4007L89.3806 67.9509L110.638 68.946L111.255 56.8944C111.255 56.8944 118.808 58.3971 120.749 51.3811C121.993 46.9027 121.684 12.2803 121.684 12.2803L89.5299 18.4007Z" fill="#FFBE9D"/>
<path d="M124.481 15.7933C121.137 16.7884 120.411 22.2222 120.411 22.2222L115.156 33.826C112.479 31.7262 108.887 31.8356 108.19 36.5528C107.692 39.9464 111.922 40.6331 111.922 40.6331C109.464 44.8228 107.792 48.2064 104.209 52.1871C100.338 56.4963 98.1685 56.9242 93.9589 56.9939H89.3512C89.3512 56.9939 87.0822 49.6295 82.8725 31.2186C78.2151 10.7875 102.378 13.4148 106.856 8.20002C114.151 -0.2889 135.04 12.7679 124.481 15.7933Z" fill="#263238"/>
<path d="M83.32 33.1388C79.3989 30.5115 79.0506 23.187 81.3296 18.7385C82.5035 16.5383 84.2365 14.6862 86.354 13.3689C88.4715 12.0516 90.8987 11.3155 93.3912 11.2348C94.0624 11.2807 94.7364 11.2065 95.3816 11.0159C96.2567 10.5586 96.9899 9.87018 97.5013 9.02551C101.004 4.47752 104.468 0.0091509 110.966 0.0091509C112.4 -0.0620651 113.824 0.283586 115.066 1.00433C116.221 1.79613 117.087 2.94172 117.534 4.26854C118.729 3.62252 120.014 3.15957 121.346 2.89518C122.014 2.76336 122.703 2.77877 123.365 2.94032C124.027 3.10188 124.645 3.40571 125.177 3.83065C125.692 4.27348 126.033 4.88334 126.143 5.55311C126.252 6.22287 126.121 6.90969 125.774 7.49292C126.879 7.47972 127.953 7.86145 128.801 8.56936C129.649 9.27728 130.217 10.2649 130.402 11.3542C130.75 13.5237 127.635 15.0563 127.307 15.2255C127.307 15.2255 129.019 18.8082 124.939 20.9578C123.296 21.8236 121.157 20.7786 120.958 20.6493" fill="#263238"/>
<path d="M98.8451 37.9062C99.236 40.4312 98.6526 43.0104 97.213 45.1213C97.0737 45.0517 97.7604 43.529 98.2082 41.5486C98.656 39.5682 98.6859 37.9162 98.8451 37.9062Z" fill="#455A64"/>
<path d="M101.412 35.478C101.586 36.6868 101.519 37.918 101.213 39.1005C101.075 40.3157 100.693 41.4903 100.089 42.5538C100.183 41.3543 100.383 40.1654 100.686 39.001C100.822 37.8073 101.065 36.6282 101.412 35.478V35.478Z" fill="#455A64"/>
<path d="M108.777 27.2983C108.777 27.368 108.23 27.8059 107.463 28.7015C106.477 29.8869 105.703 31.2336 105.174 32.6823C104.644 34.1328 104.219 35.6195 103.901 37.1307C103.809 37.7784 103.632 38.411 103.373 39.0116C103.325 38.3445 103.376 37.6739 103.522 37.0213C103.737 35.4584 104.121 33.9234 104.667 32.4434C105.225 30.9582 106.082 29.6034 107.185 28.4627C107.609 27.9471 108.157 27.5467 108.777 27.2983V27.2983Z" fill="#455A64"/>
<path d="M111.753 21.7334C112.002 22.1356 112.146 22.5943 112.171 23.067C112.48 25.3483 111.899 27.6613 110.549 29.5257C110.021 30.2223 109.553 30.5209 109.553 30.5209C110.356 29.2076 110.995 27.8004 111.454 26.3312C111.743 24.8168 111.844 23.2724 111.753 21.7334V21.7334Z" fill="#455A64"/>
<path d="M86.3754 34.1054C86.3057 34.2348 85.6589 34.0158 84.9224 33.6078C84.186 33.1998 83.6586 32.7619 83.7382 32.6126C83.8178 32.4634 84.4547 32.7022 85.1911 33.1102C85.9276 33.5182 86.455 33.976 86.3754 34.1054Z" fill="#455A64"/>
<path d="M96.6454 28.8003C96.7947 28.8003 96.7051 29.8651 96.0384 30.9499C95.3716 32.0346 94.4958 32.6119 94.4162 32.4924C94.3366 32.373 94.9835 31.6764 95.5806 30.6712C96.1777 29.6661 96.4962 28.8003 96.6454 28.8003Z" fill="#455A64"/>
<path d="M99.8104 27.1182C99.7877 28.058 99.4553 28.964 98.865 29.6957C98.0091 30.9894 96.9343 31.6861 96.8746 31.5666C97.3531 30.8139 97.8748 30.0895 98.4371 29.3971C98.85 28.6113 99.3085 27.8504 99.8104 27.1182V27.1182Z" fill="#455A64"/>
<path d="M115.504 6.36931C115.504 6.36931 115.106 6.0608 114.34 5.62292C113.24 5.0438 112.02 4.73023 110.777 4.70734C108.937 4.66021 107.122 5.14762 105.552 6.11055C103.66 7.35156 102.126 9.0673 101.104 11.0865C100.332 12.5645 99.7241 14.1231 99.2927 15.734L99.2131 16.0425L98.9245 15.8932C97.4578 15.1257 95.8326 14.71 94.1775 14.6791C92.866 14.6491 91.5594 14.8478 90.3162 15.2662C89.214 15.6831 88.1597 16.2169 87.1714 16.8585C87.3789 16.62 87.6164 16.4093 87.878 16.2316C88.5953 15.7124 89.3784 15.2908 90.2067 14.9776C91.4789 14.4985 92.828 14.2556 94.1874 14.2611C95.9188 14.2558 97.6259 14.669 99.1633 15.4653L98.7951 15.6245C99.2192 13.9701 99.8337 12.3704 100.626 10.8576C101.695 8.75957 103.307 6.98635 105.294 5.72243C106.953 4.73479 108.869 4.26362 110.797 4.36898C112.089 4.4242 113.346 4.80781 114.449 5.4836C114.742 5.67219 115.015 5.88883 115.265 6.13046C115.435 6.25983 115.524 6.3494 115.504 6.36931Z" fill="#455A64"/>
<path d="M126.69 9.06709C126.69 9.06709 127.277 8.90787 127.904 9.61445C128.085 9.82786 128.222 10.0748 128.308 10.3412C128.393 10.6076 128.425 10.8882 128.402 11.1669C128.345 11.538 128.203 11.891 127.987 12.1983C127.772 12.5055 127.488 12.7588 127.158 12.9384C126.376 13.3839 125.452 13.5088 124.58 13.2867C123.613 13.0407 122.705 12.6005 121.913 11.9929C121.081 11.347 120.21 10.7522 119.306 10.2116C118.324 9.68464 117.267 9.31205 116.171 9.10691C114.031 8.72682 111.831 8.87716 109.762 9.54478C108.068 10.1046 106.468 10.9165 105.015 11.9531C103.702 12.9575 102.44 14.027 101.233 15.1576C101.473 14.7741 101.757 14.42 102.079 14.1027C102.911 13.2048 103.82 12.3822 104.796 11.6446C106.251 10.5376 107.874 9.67072 109.603 9.07704C111.747 8.3485 114.042 8.17727 116.271 8.57945C117.423 8.79102 118.535 9.18404 119.565 9.74383C120.481 10.3057 121.362 10.9239 122.202 11.5949C122.938 12.1715 123.78 12.5976 124.68 12.8488C125.446 13.0665 126.267 12.9772 126.969 12.6C127.258 12.4581 127.511 12.2514 127.708 11.996C127.905 11.7405 128.04 11.4433 128.103 11.1271C128.159 10.6376 128.032 10.1447 127.745 9.74383C127.483 9.40245 127.11 9.16314 126.69 9.06709Z" fill="#455A64"/>
<path d="M66.8892 73.1455L47.9011 104.991C45.7814 108.713 43.8109 112.674 41.93 116.784C41.2143 118.847 41.0214 121.055 41.3688 123.21C41.7162 125.366 42.5929 127.401 43.9204 129.135L43.383 128.358C44.4226 129.645 45.7371 130.683 47.2301 131.396C48.7231 132.109 50.3568 132.479 52.0112 132.478H52.4989C54.6581 132.479 56.7705 131.849 58.5771 130.666C60.3837 129.484 61.806 127.8 62.6697 125.821L68.7701 116.555L66.8892 73.1455Z" fill="#E7AF22"/>
<path d="M124.192 67.0541C119.087 64.4467 114.061 63.8596 108.568 63.7003C102.169 63.5113 93.1622 62.6156 86.2655 63.352C86.2655 63.352 66.6306 64.805 65.2672 78.2798L67.9542 141.474L63.4559 168.244L126.371 170.115L125.924 138.528C126.7 122.098 125.038 98.8204 125.038 98.8204C126.033 89.9831 130.85 86.0124 131.536 80.2602C132.144 75.1947 128.74 69.3729 124.192 67.0541Z" fill="#E7AF22"/>
<path d="M106.458 142.359C106.188 142.689 105.877 142.983 105.533 143.235C104.632 143.979 103.67 144.645 102.656 145.225C99.306 147.149 95.5229 148.194 91.6599 148.262C87.7968 148.33 83.9794 147.419 80.5634 145.613C79.5148 145.083 78.5157 144.46 77.5778 143.752C77.2104 143.515 76.8758 143.231 76.5826 142.907C76.6424 142.817 78.0356 144.001 80.643 145.275C84.0352 146.951 87.7794 147.791 91.5625 147.723C95.3456 147.656 99.0575 146.683 102.388 144.887C105.035 143.504 106.388 142.25 106.458 142.359Z" fill="#263238"/>
<path d="M65.1581 78.9868C65.2054 79.1857 65.2288 79.3895 65.2278 79.5939C65.2278 80.0616 65.2875 80.6388 65.3372 81.3653C65.4069 82.9676 65.5164 85.1669 65.6358 87.8639C65.8746 93.407 66.1831 100.96 66.5314 109.3C66.8798 117.64 67.2579 125.223 67.5266 130.736C67.666 133.423 67.7754 135.623 67.855 137.225C67.855 137.951 67.9148 138.529 67.9347 138.996C67.9522 139.202 67.9522 139.408 67.9347 139.613C67.873 139.417 67.8394 139.212 67.8351 139.006C67.8351 138.539 67.7257 137.961 67.656 137.245C67.5067 135.712 67.3475 133.493 67.1584 130.756C66.7802 125.273 66.3822 117.699 66.0239 109.32C65.6656 100.941 65.4268 93.3971 65.2875 87.8738C65.2278 85.1769 65.188 82.9775 65.1581 81.3653C65.1581 80.6488 65.1581 80.0616 65.1581 79.6038C65.1343 79.3989 65.1343 79.1918 65.1581 78.9868V78.9868Z" fill="#263238"/>
<path d="M61.237 82.332C61.1833 82.5025 61.1098 82.6662 61.0181 82.8197L60.3015 84.1831C59.6746 85.3574 58.7292 87.0392 57.515 89.0893C55.1266 93.2193 51.5439 98.7526 47.9016 105.012C46.0903 108.157 44.5577 111.262 43.2242 114.098C41.9613 116.559 41.3319 119.295 41.3931 122.06C41.481 123.923 41.977 125.744 42.846 127.394C43.473 128.558 43.9905 129.106 43.9407 129.136C43.8018 129.023 43.6751 128.896 43.5626 128.757C43.2307 128.361 42.9311 127.938 42.6669 127.493C41.7052 125.841 41.1397 123.988 41.0149 122.08C40.8953 119.242 41.4979 116.42 42.7664 113.879C44.09 111.003 45.6126 107.908 47.4338 104.724C51.0861 98.4142 54.7186 92.9307 57.1866 88.8604L60.1224 84.0338L60.9285 82.7301C61.1176 82.4713 61.1773 82.3221 61.237 82.332Z" fill="#263238"/>
<path d="M176.967 99.6779L162.408 90.154L153.222 106.077C153.222 106.077 140.484 88.3726 134.692 78.0028C129.367 68.4491 122.481 65.8815 119.157 65.1849C118.928 65.1403 118.693 65.1497 118.469 65.2124C118.245 65.2751 118.038 65.3894 117.866 65.546C117.694 65.7026 117.561 65.8973 117.478 66.1146C117.394 66.3318 117.363 66.5655 117.385 66.7971L122.361 101.23C122.998 103.022 133.507 118.258 139.379 125.921C149.182 138.719 163.622 130.529 167.583 121.572C170.777 114.456 175.683 103.659 176.967 99.6779Z" fill="#E7AF22"/>
<path d="M157.411 120.436C157.23 119.693 157.136 118.931 157.133 118.167C157.007 116.346 156.771 114.535 156.426 112.743C156.067 110.963 155.439 109.249 154.565 107.658C153.878 106.453 153.301 105.797 153.371 105.737C153.997 106.198 154.517 106.788 154.893 107.468C155.892 109.049 156.591 110.8 156.953 112.633C157.312 114.45 157.498 116.296 157.511 118.147C157.573 118.911 157.54 119.68 157.411 120.436V120.436Z" fill="#263238"/>
<path d="M161.69 113.321C161.601 113.321 161.531 112.584 161.173 111.46C160.695 110.003 159.899 108.671 158.844 107.558C157.866 106.391 156.484 105.635 154.973 105.439C154.342 105.439 153.715 105.55 153.122 105.767C153.072 105.767 153.679 105.1 154.973 105.061C155.79 105.103 156.59 105.313 157.323 105.678C158.056 106.043 158.706 106.554 159.232 107.18C160.357 108.346 161.154 109.788 161.541 111.36C161.747 111.992 161.798 112.664 161.69 113.321V113.321Z" fill="#263238"/>
<path d="M118.201 69.433C118.201 69.433 118.092 69.5822 117.853 69.831L117.405 70.2888L116.848 70.9655C115.696 72.4173 114.841 74.0808 114.33 75.8618C113.566 78.4977 113.375 81.2669 113.773 83.9825C113.985 85.5833 114.406 87.1492 115.027 88.64C115.727 90.241 116.514 91.8024 117.385 93.3174C120.948 99.5771 124.61 104.991 127.267 108.902L130.462 113.5C130.881 114.042 131.269 114.607 131.626 115.192C131.626 115.192 131.477 115.072 131.258 114.803C131.039 114.535 130.701 114.147 130.263 113.619C129.447 112.624 128.272 111.042 126.929 109.121C124.192 105.26 120.47 99.8756 116.878 93.5861C116.009 92.0479 115.218 90.4668 114.509 88.849C113.873 87.3151 113.451 85.7011 113.255 84.0522C112.867 81.2662 113.098 78.4288 113.932 75.7424C114.493 73.9335 115.421 72.2599 116.659 70.8262L117.266 70.1794L117.753 69.7514C118.052 69.5225 118.191 69.4131 118.201 69.433Z" fill="#263238"/>
<path d="M118.241 160.911C118.241 160.911 118.092 161 117.793 161.11L116.49 161.558C115.922 161.757 115.226 161.975 114.4 162.194C113.574 162.413 112.638 162.712 111.583 162.931C109.135 163.518 106.657 163.974 104.159 164.294C101.095 164.679 98.0117 164.885 94.9239 164.911C91.8341 164.899 88.7475 164.713 85.6786 164.354C83.1796 164.04 80.6984 163.598 78.2446 163.03C77.1897 162.811 76.2542 162.533 75.4282 162.314C74.6022 162.095 73.8956 161.876 73.3284 161.677L72.0247 161.239C71.7261 161.13 71.5669 161.06 71.5769 161.04C71.7384 161.056 71.8982 161.086 72.0545 161.13L73.3881 161.478C73.9653 161.637 74.6719 161.836 75.5078 162.015C76.3438 162.194 77.2693 162.463 78.3242 162.662C80.4141 163.11 82.9319 163.528 85.7383 163.856C88.7889 164.19 91.8551 164.363 94.9239 164.374C97.9901 164.342 101.053 164.153 104.099 163.807C106.896 163.458 109.414 163.03 111.504 162.563C112.559 162.364 113.494 162.105 114.32 161.906C115.146 161.707 115.853 161.518 116.43 161.358L117.763 161C117.918 160.949 118.079 160.919 118.241 160.911V160.911Z" fill="#263238"/>
<g opacity="0.3">
<path opacity="0.3" d="M64.0435 123.81L66.8797 119.401L65.3969 84.6792L64.0435 123.81Z" fill="black"/>
</g>
<g opacity="0.3">
<path opacity="0.3" d="M113.116 82.3315C113.116 82.3315 113.206 94.9803 116.102 99.9961C118.998 105.012 125.865 115.839 125.865 115.193C125.865 114.546 125.476 106.236 125.476 106.236C125.476 106.236 113.176 89.4073 113.116 82.3315Z" fill="black"/>
</g>
<path d="M61.5256 124.865C61.2478 125.022 60.9383 125.114 60.62 125.134C59.7503 125.228 58.8706 125.116 58.0525 124.806C56.8458 124.337 55.7582 123.606 54.8679 122.666C53.8241 121.508 52.9343 120.221 52.2207 118.835C51.5151 117.464 50.7309 116.135 49.872 114.854C49.1449 113.858 48.257 112.99 47.2448 112.286C46.2942 111.658 45.2232 111.234 44.1 111.042C44.4122 110.982 44.7332 110.982 45.0454 111.042C45.8999 111.183 46.7163 111.498 47.4438 111.968C48.5217 112.675 49.4652 113.568 50.2303 114.605C51.1203 115.877 51.9249 117.207 52.6387 118.586C53.3451 119.936 54.2068 121.198 55.2062 122.348C56.0399 123.258 57.0576 123.98 58.1918 124.467C59.2484 124.892 60.3987 125.029 61.5256 124.865V124.865Z" fill="white"/>
<path d="M65.3769 103.059C65.2874 103.059 65.0684 102.303 64.4613 101.188C63.6619 99.7375 62.5652 98.4716 61.243 97.4736C59.9209 96.4755 58.4029 95.7677 56.7885 95.3965C55.5545 95.1178 54.7484 95.1178 54.7384 95.0282C55.4368 94.876 56.1598 94.876 56.8581 95.0282C58.5637 95.2954 60.1771 95.9791 61.5554 97.0186C62.9415 98.0625 64.0517 99.4289 64.7898 100.999C65.1327 101.635 65.3331 102.338 65.3769 103.059V103.059Z" fill="white"/>
<path d="M113.345 84.4203C113.345 84.4701 112.658 84.2909 111.424 84.1914C109.675 84.0705 107.917 84.2318 106.219 84.6691C103.7 85.3077 101.272 86.2641 98.9941 87.5153C96.3867 88.8688 93.6301 90.6104 90.5052 92.0335C87.5747 93.4277 84.408 94.2582 81.1704 94.4816C78.5314 94.6349 75.8844 94.39 73.3184 93.7551C71.5952 93.3369 69.9257 92.7225 68.3425 91.924C67.7752 91.6553 67.3473 91.3866 67.0786 91.2274C66.8099 91.0681 66.6506 90.9587 66.6606 90.9388C66.6705 90.9189 67.2876 91.2373 68.432 91.7349C70.031 92.4537 71.698 93.0104 73.4079 93.3969C75.9428 93.9702 78.5472 94.1747 81.1405 94.0039C84.3144 93.7786 87.4205 92.9759 90.3062 91.6354C93.3912 90.2222 96.1578 88.5105 98.7951 87.1571C101.109 85.8931 103.583 84.9459 106.149 84.3407C107.885 83.9259 109.681 83.8181 111.454 84.0222C111.934 84.078 112.41 84.1677 112.877 84.2909C113.038 84.3137 113.195 84.3572 113.345 84.4203V84.4203Z" fill="white"/>
<path d="M125.576 118.853C125.392 118.941 125.198 119.004 124.998 119.043C124.447 119.216 123.885 119.356 123.316 119.461C121.224 119.88 119.09 120.051 116.957 119.968C113.797 119.841 110.656 119.401 107.583 118.654C104.099 117.858 100.358 116.664 96.4266 115.559C92.7464 114.445 88.9871 113.61 85.181 113.061C82.0798 112.622 78.9337 112.598 75.8263 112.992C73.7323 113.267 71.6862 113.83 69.7457 114.664C68.3823 115.261 67.6558 115.659 67.626 115.659C67.7839 115.53 67.9539 115.417 68.1335 115.321C68.6294 115.018 69.141 114.743 69.6661 114.495C71.6008 113.58 73.6598 112.957 75.7765 112.643C78.9161 112.207 82.1011 112.207 85.2407 112.643C89.0758 113.166 92.8629 113.995 96.5659 115.121C100.547 116.276 104.239 117.43 107.682 118.246C110.725 119.01 113.834 119.483 116.967 119.66C119.076 119.772 121.192 119.658 123.277 119.321C124.759 119.013 125.566 118.804 125.576 118.853Z" fill="white"/>
<path d="M125.924 138.539C123.296 137.37 120.503 136.618 117.644 136.309C114.537 136.06 111.412 136.167 108.329 136.628C104.836 137.106 101.034 137.912 97.0236 138.618C93.013 139.325 89.1616 140.031 85.6287 140.34C82.4977 140.663 79.3409 140.643 76.2143 140.28C74.1032 140.03 72.029 139.532 70.0342 138.797C69.3276 138.559 68.8101 138.27 68.4419 138.121C68.2545 138.052 68.0771 137.958 67.9144 137.842C67.9144 137.792 68.6907 138.131 70.1038 138.608C72.1011 139.263 74.1631 139.7 76.2541 139.912C79.359 140.218 82.4874 140.201 85.5889 139.862C89.0919 139.534 92.9234 138.867 96.924 138.111C100.925 137.354 104.746 136.568 108.269 136.12C111.387 135.668 114.548 135.594 117.684 135.901C119.801 136.128 121.875 136.654 123.844 137.464C124.381 137.674 124.903 137.92 125.406 138.2C125.591 138.293 125.764 138.407 125.924 138.539Z" fill="white"/>
<path d="M93.5802 163.915C93.2242 163.747 92.89 163.537 92.5851 163.288C91.968 162.85 91.0724 162.243 89.9478 161.497C87.0294 159.565 83.9876 157.826 80.8419 156.292C77.6937 154.756 74.4492 153.427 71.1289 152.311C69.8551 151.893 68.8101 151.565 68.1434 151.316C67.7596 151.231 67.3884 151.097 67.0387 150.918C67.4158 150.976 67.7859 151.073 68.1434 151.207C68.8798 151.366 69.9446 151.644 71.2384 152.023C77.9991 154.044 84.3855 157.154 90.1469 161.228C91.2416 162.004 92.1372 162.671 92.6945 163.159C93.0184 163.375 93.3156 163.629 93.5802 163.915V163.915Z" fill="white"/>
<path d="M124.212 163.578C123.585 164.05 122.877 164.404 122.123 164.623C118.509 165.907 114.545 165.786 111.016 164.285C110.291 164.01 109.617 163.613 109.026 163.11C109.026 163.031 109.842 163.458 111.176 163.946C112.917 164.547 114.738 164.882 116.579 164.941C118.426 164.991 120.27 164.752 122.043 164.235C123.367 163.876 124.173 163.498 124.212 163.578Z" fill="white"/>
<path d="M145.987 97.8755C146.021 98.1752 145.984 98.4789 145.877 98.7612C145.64 99.5468 145.244 100.275 144.713 100.901C143.923 101.817 142.976 102.586 141.916 103.17C140.631 103.856 139.301 104.455 137.936 104.961C136.597 105.464 135.326 106.132 134.154 106.952C133.22 107.638 132.449 108.521 131.895 109.539C131.416 110.497 131.196 111.564 131.258 112.634C131.131 112.36 131.067 112.061 131.069 111.758C131.037 110.933 131.208 110.113 131.566 109.37C132.103 108.273 132.887 107.316 133.855 106.573C135.048 105.706 136.354 105.006 137.737 104.493C139.093 103.991 140.422 103.416 141.717 102.772C142.744 102.226 143.675 101.516 144.474 100.672C145.168 99.8555 145.683 98.9029 145.987 97.8755V97.8755Z" fill="white"/>
<path d="M133.766 76.7569C133.749 77.0648 133.692 77.3693 133.597 77.6625C133.516 78.0006 133.413 78.333 133.288 78.6577C133.145 79.1117 132.976 79.557 132.781 79.9912C132.289 81.136 131.686 82.2293 130.979 83.2554C130.107 84.5101 129.106 85.6707 127.994 86.7186C126.876 87.7549 125.655 88.6752 124.351 89.4654C123.283 90.1014 122.157 90.6345 120.988 91.0577C120.541 91.2237 120.086 91.3666 119.624 91.4856C119.282 91.5912 118.933 91.671 118.579 91.7244C118.281 91.8049 117.973 91.8451 117.664 91.8439C117.664 91.7443 118.928 91.4955 120.858 90.7093C121.985 90.2522 123.07 89.6996 124.103 89.0573C126.636 87.4812 128.831 85.4178 130.561 82.9867C131.266 81.9924 131.885 80.9404 132.412 79.8419C133.348 77.9909 133.666 76.727 133.766 76.7569Z" fill="white"/>
<path d="M114.608 63.7012C114.145 63.9545 113.663 64.1708 113.165 64.348C112.22 64.7461 110.837 65.2437 109.095 65.791C107.354 66.3384 105.244 66.8758 102.885 67.3634C100.314 67.8643 97.7151 68.2165 95.1029 68.4183C92.4928 68.6005 89.8743 68.6304 87.2608 68.5079C85.1247 68.4027 82.9954 68.1868 80.8817 67.861C79.0804 67.5724 77.6274 67.2838 76.6422 67.0251C76.1195 66.9384 75.6063 66.8017 75.1096 66.6171C75.6361 66.6533 76.1588 66.7332 76.6721 66.8559C77.6672 67.045 79.1202 67.2838 80.9215 67.5127C82.7228 67.7416 84.9022 67.9506 87.2708 68.0501C89.8654 68.1434 92.4631 68.1002 95.0531 67.9207C97.6461 67.7231 100.227 67.3909 102.786 66.9256C105.134 66.4678 107.234 65.9304 108.976 65.4626C110.717 64.9949 112.13 64.5272 113.086 64.1888C113.578 63.9829 114.088 63.8198 114.608 63.7012V63.7012Z" fill="white"/>
<path d="M153.729 107.021C153.9 107.332 154.021 107.668 154.088 108.016C154.322 108.962 154.465 109.929 154.516 110.902C154.551 114.101 154.217 117.294 153.52 120.416C153.248 122.164 152.795 123.878 152.167 125.531C151.64 126.892 150.856 128.139 149.858 129.204C149.183 129.92 148.38 130.504 147.49 130.925C147.181 131.095 146.844 131.203 146.494 131.244C147.669 130.686 148.726 129.909 149.609 128.955C150.53 127.884 151.251 126.657 151.739 125.332C152.325 123.698 152.755 122.012 153.023 120.297C153.696 117.205 154.072 114.056 154.147 110.892C154.081 109.595 153.942 108.302 153.729 107.021Z" fill="white"/>
<path d="M173.633 109.569C173.543 109.569 173.076 108.573 172.031 107.041C169.287 103.065 165.203 100.211 160.526 98.9998C158.745 98.542 157.541 98.4624 157.601 98.3728C157.66 98.2832 157.889 98.3728 158.417 98.3728C159.153 98.4053 159.886 98.5019 160.606 98.6614C161.687 98.8923 162.743 99.2255 163.761 99.6566C166.259 100.698 168.503 102.266 170.339 104.254C171.08 105.065 171.746 105.941 172.329 106.872C172.718 107.505 173.051 108.171 173.325 108.862C173.462 109.081 173.566 109.319 173.633 109.569V109.569Z" fill="white"/>
<g opacity="0.3">
<path opacity="0.3" d="M115.186 161.697C115.424 161.58 115.634 161.412 115.802 161.206C115.969 161.001 116.09 160.761 116.157 160.504C116.223 160.246 116.233 159.978 116.185 159.717C116.138 159.456 116.035 159.208 115.883 158.99C115.511 158.618 115.06 158.335 114.564 158.163C114.068 157.991 113.538 157.933 113.016 157.995C107.871 158.094 103.383 161.538 98.3276 162.463C94.4762 163.16 90.5154 162.374 86.7735 161.239C83.0316 160.105 79.3793 158.622 75.5379 157.895C74.7394 157.697 73.9069 157.676 73.0997 157.836C72.7006 157.927 72.3363 158.131 72.0503 158.424C71.7644 158.717 71.569 159.086 71.4875 159.488C71.388 160.294 71.577 160.901 72.7812 161.309C72.7812 161.309 85.5096 164.852 94.6753 164.712C101.6 164.438 108.475 163.427 115.186 161.697Z" fill="black"/>
</g>
</svg>
