<svg width="247" height="264" viewBox="0 0 247 264" fill="none" xmlns="http://www.w3.org/2000/svg">
<path d="M43.8226 264C-2.02051 234.824 41.2442 215.953 17.0957 165.833C-14.982 99.2498 -9.21826 15.0857 98.3496 15C169.161 14.9434 229.071 64.4821 241.283 123.023C259.535 210.488 228.247 264 228.247 264H43.8226Z" fill="#E73A40"/>
<path d="M119.637 40.1327L220.985 39.1895L223.95 108.086L119.001 107.335L119.637 40.1327Z" fill="#E7AF22"/>
<path d="M119.63 40.1472L167.509 1.23621C168.493 0.436548 169.722 0 170.99 0C172.257 0 173.486 0.436548 174.47 1.23621L220.977 39.1967" fill="#E7AF22"/>
<g opacity="0.3">
<path opacity="0.3" d="M119.63 40.1472L167.509 1.23621C168.493 0.436548 169.722 0 170.99 0C172.257 0 173.486 0.436548 174.47 1.23621L220.977 39.1967" fill="black"/>
</g>
<path d="M119.001 107.321C118.88 107.2 126.969 98.324 137.081 87.4975C147.193 76.671 155.497 68.017 155.626 68.1171C155.754 68.2171 147.658 77.107 137.539 87.9406C127.42 98.7742 119.13 107.45 119.001 107.321Z" fill="#263238"/>
<path d="M223.95 108.086C223.821 108.207 215.904 99.5104 206.263 88.7411C196.623 77.9718 188.912 69.0891 189.041 68.9747C189.17 68.8604 197.088 77.5502 206.735 88.3266C216.382 99.1031 224.079 107.971 223.95 108.086Z" fill="#263238"/>
<g opacity="0.5">
<path opacity="0.5" d="M220.985 39.1895L170.175 79.9513L119.637 40.1327" fill="black"/>
</g>
<path d="M124.747 43.8914L124.518 12.2338L213.266 10.9976L214.338 44.3059L170.168 79.4151L124.747 43.8914Z" fill="#FAFAFA"/>
<path d="M124.747 43.8916C124.747 43.8916 125.04 44.0988 125.59 44.5205L128.005 46.3856L137.195 53.5318C145.113 59.7133 156.49 68.5388 170.261 79.3152H170.075L214.217 44.1775L214.153 44.3275C213.945 37.9746 213.731 31.3072 213.517 24.5254C213.367 19.959 213.224 15.4427 213.081 11.0192L213.266 11.1978L124.525 12.3698L124.64 12.2483C124.682 22.2029 124.725 30.1138 124.747 35.5306C124.747 38.239 124.747 40.3256 124.747 41.7477C124.747 42.4624 124.747 42.984 124.747 43.3556C124.747 43.7272 124.747 43.9059 124.747 43.9059C124.747 43.9059 124.747 43.7272 124.747 43.3699C124.747 43.0126 124.747 42.4695 124.747 41.7763C124.747 40.3471 124.704 38.2747 124.675 35.5734C124.625 30.1352 124.547 22.2244 124.454 12.2483V12.134H124.568L213.259 10.8477H213.445V11.0335C213.588 15.4569 213.731 19.9662 213.881 24.5326C214.095 31.3143 214.31 37.9817 214.51 44.3347V44.4276L214.438 44.4847L170.246 79.5725L170.154 79.6511L170.061 79.5725L137.031 53.6533L127.912 46.4642L125.533 44.5776L124.747 43.8916Z" fill="#263238"/>
<path d="M199.274 26.9694C199.274 27.0694 185.696 27.2624 168.96 27.3982C152.224 27.5339 138.646 27.5625 138.646 27.4625C138.646 27.3624 152.224 27.1695 168.96 27.0265C185.696 26.8836 199.274 26.8622 199.274 26.9694Z" fill="#263238"/>
<path d="M199.289 35.9093C199.289 36.0093 185.711 36.2094 168.982 36.3452C152.252 36.481 138.668 36.5096 138.668 36.4024C138.668 36.2952 152.245 36.1094 168.982 35.9736C185.718 35.8378 199.289 35.8093 199.289 35.9093Z" fill="#263238"/>
<path d="M199.31 46.214C199.31 46.3212 185.732 46.5141 169.003 46.6499C152.274 46.7857 138.689 46.8143 138.689 46.7071C138.689 46.5999 152.267 46.4141 169.003 46.2783C185.739 46.1425 199.31 46.1139 199.31 46.214Z" fill="#263238"/>
<path d="M199.332 56.5189C199.332 56.6261 186.39 56.8119 170.418 56.9405C154.446 57.0691 141.498 57.0977 141.498 56.9905C141.498 56.8833 154.439 56.6975 170.418 56.5689C186.397 56.4403 199.332 56.4188 199.332 56.5189Z" fill="#263238"/>
<path d="M188.012 65.5875C187.896 65.62 187.775 65.6345 187.655 65.6304L186.633 65.6733L182.888 65.7662L170.518 65.9948C165.687 66.0806 161.307 66.1092 158.141 66.1092H154.396H153.375C153.254 66.1123 153.134 66.1003 153.017 66.0734C153.133 66.0409 153.254 66.0265 153.375 66.0306L154.389 65.9877L158.141 65.8948L170.511 65.6733C175.342 65.5804 179.715 65.5518 182.881 65.5518H186.633H187.655C187.775 65.5519 187.894 65.5639 188.012 65.5875Z" fill="#263238"/>
<path d="M176.578 74.3059C174.44 74.4984 172.292 74.5652 170.146 74.506C168.001 74.5737 165.853 74.5164 163.715 74.3345C165.853 74.1462 168 74.0794 170.146 74.1344C172.292 74.071 174.439 74.1282 176.578 74.3059Z" fill="#263238"/>
<path d="M139.575 135.092C139.633 134.692 139.538 134.284 139.311 133.95C139.084 133.615 138.74 133.378 138.346 133.284L136.753 133.391L131.036 131.412C130.791 131.347 130.535 131.337 130.286 131.383C130.037 131.429 129.801 131.53 129.596 131.679C129.391 131.827 129.221 132.019 129.099 132.241C128.977 132.463 128.907 132.71 128.892 132.963C128.892 134.599 128.177 139.058 126.884 137.658L126.784 137.565C124.904 135.471 122.732 134.456 121.896 134.578C121.717 134.613 121.551 134.698 121.419 134.824C121.287 134.95 121.194 135.111 121.151 135.289C121.107 135.466 121.115 135.652 121.174 135.825C121.232 135.997 121.339 136.15 121.481 136.264C121.578 136.366 121.695 136.446 121.824 136.5C121.881 136.5 121.953 136.571 122.01 136.6C122.801 137.175 123.531 137.828 124.19 138.551C124.785 139.179 125.268 139.904 125.619 140.695C125.998 141.581 126.298 142.353 126.534 143.017L126.619 148.255L124.347 172.745C124.347 172.745 109.268 156.909 109.619 156.759L110.498 181.428L119.63 188.981C121.322 190.387 123.381 191.278 125.564 191.548C127.746 191.817 129.961 191.454 131.943 190.502C133.925 189.55 135.593 188.049 136.747 186.177C137.901 184.305 138.493 182.14 138.453 179.942L137.932 148.277L138.303 144.125L139.575 135.092Z" fill="#FFBE9D"/>
<path d="M54.9218 169.908L38.407 207.669L25.3724 234.91L15.675 238.169C15.675 238.169 8 240.398 8 241.985C8 243.571 10.0224 243.214 10.0224 243.214C10.394 245.586 13.6812 244.243 15.9823 243.214C18.2834 242.185 23.4 241.899 23.4 241.899C23.1326 242.081 22.9113 242.323 22.754 242.606C22.5966 242.889 22.5074 243.205 22.4936 243.528C22.4797 243.851 22.5415 244.174 22.674 244.469C22.8066 244.764 23.0062 245.024 23.2571 245.229C24.0718 245.801 25.4867 245.107 26.4443 244.086C27.4019 243.064 29.8745 242.592 32.6257 241.606C35.377 240.62 35.8272 236.932 35.8272 236.932L68.8497 181.285L54.9218 169.908Z" fill="#FFBE9D"/>
<path d="M109.69 183.622L113.842 189.103L122.839 169.143C122.839 169.143 114.106 158.488 110.912 154.022C107.718 149.556 105.374 148.82 105.374 148.82C105.374 148.82 99.5711 147.126 96.6769 147.126L82.3417 147.984L67.7849 154.336C64.2097 155.897 61.1638 158.462 59.0166 161.718L45.3102 183.736L64.7192 192.033L71.2294 229.307C72.4728 234.888 73.5662 240.155 78.7186 242.728L114.714 208.133L110.498 201.487L109.69 183.622Z" fill="#E7AF22"/>
<path d="M75.2742 176.797C75.36 176.854 73.1304 180.299 70.3219 184.501C67.5135 188.703 65.1409 192.047 65.0623 191.99C64.9837 191.933 67.2062 188.488 70.0146 184.286C72.8231 180.084 75.1885 176.74 75.2742 176.797Z" fill="#263238"/>
<path d="M105.452 212.156C105.15 212.373 104.829 212.564 104.495 212.727C103.873 213.07 102.958 213.556 101.822 214.157C99.5426 215.336 96.384 216.915 92.8466 218.58C89.3092 220.245 86.0792 221.682 83.7209 222.682C82.5418 223.182 81.5771 223.582 80.9196 223.847C80.5799 223.999 80.2286 224.123 79.8691 224.219C80.1846 224.02 80.517 223.851 80.8625 223.711L83.6137 222.446C85.9434 221.381 89.1592 219.909 92.6894 218.244C96.2196 216.579 99.3997 215.036 101.701 213.957L104.431 212.642C104.757 212.451 105.098 212.288 105.452 212.156Z" fill="#263238"/>
<path d="M74.138 168.736C73.6745 168.239 73.2516 167.706 72.8731 167.142C71.9267 165.829 70.857 164.608 69.6787 163.498C68.4932 162.405 67.0872 161.579 65.5554 161.075C64.3763 160.703 63.5902 160.718 63.5902 160.646C63.7691 160.596 63.956 160.582 64.1405 160.603C64.6421 160.622 65.1404 160.694 65.6269 160.818C67.2257 161.268 68.6951 162.091 69.9146 163.219C71.1148 164.346 72.1753 165.612 73.0732 166.992C73.4854 167.536 73.8421 168.12 74.138 168.736Z" fill="#263238"/>
<path d="M103.738 186.866C103.756 186.999 103.756 187.133 103.738 187.266C103.738 187.523 103.738 187.902 103.738 188.395C103.654 189.783 103.46 191.161 103.159 192.518C102.198 197.031 100.193 201.257 97.3056 204.855C94.4178 208.454 90.7272 211.327 86.5296 213.242C85.2674 213.818 83.963 214.295 82.6278 214.672C82.1561 214.814 81.7774 214.893 81.5272 214.95C81.4021 214.99 81.2725 215.014 81.1414 215.022C81.1414 215.022 81.6559 214.843 82.5706 214.536C83.8796 214.1 85.1591 213.579 86.4009 212.978C90.5235 211.018 94.1489 208.15 97.0053 204.589C99.8617 201.029 101.875 196.868 102.894 192.418C103.217 191.074 103.456 189.712 103.609 188.338C103.673 187.409 103.709 186.866 103.738 186.866Z" fill="#263238"/>
<g opacity="0.3">
<path opacity="0.3" d="M67.2349 206.439C67.1706 206.082 71.8513 181.885 71.8513 181.885L64.7909 192.483" fill="black"/>
</g>
<path d="M108.768 160.396C108.801 160.532 108.818 160.671 108.818 160.81C108.818 161.125 108.861 161.525 108.897 162.011C108.947 163.097 109.026 164.584 109.118 166.406C109.297 170.165 109.547 175.274 109.833 180.913C110.119 186.551 110.319 191.718 110.426 195.434C110.483 197.292 110.519 198.8 110.533 199.836V201.036C110.552 201.174 110.552 201.313 110.533 201.451C110.5 201.315 110.483 201.176 110.483 201.036C110.483 200.722 110.44 200.322 110.405 199.843C110.355 198.757 110.276 197.263 110.183 195.448C110.005 191.689 109.754 186.58 109.469 180.934C109.183 175.289 108.99 170.136 108.875 166.413C108.818 164.555 108.783 163.054 108.768 162.011V160.818C108.75 160.678 108.75 160.536 108.768 160.396Z" fill="#263238"/>
<g opacity="0.2">
<path opacity="0.2" d="M80.0407 224.154C78.8831 223.197 79.1475 221.239 80.1694 220.138C81.1913 219.038 82.7134 218.588 84.1427 218.102C90.9815 215.886 97.8562 212.756 102.365 207.154C102.941 206.352 103.621 205.631 104.388 205.01C104.779 204.701 105.246 204.502 105.739 204.434C106.233 204.366 106.736 204.432 107.196 204.624C108.575 205.338 108.625 207.339 108.047 208.79C107.327 210.57 105.99 212.031 104.281 212.906" fill="black"/>
</g>
<g opacity="0.2">
<path opacity="0.2" d="M108.918 164.691L112.913 187.874L109.805 183.765L108.918 164.691Z" fill="black"/>
</g>
<path d="M146.922 225.584L140.169 248.752L168.947 257.327C169.597 254.526 156.348 244.586 156.348 244.586L161.322 229.893L146.922 225.584Z" fill="#E7AF22"/>
<g opacity="0.6">
<path opacity="0.6" d="M147.822 240.669C147.52 240.669 147.229 240.781 147.005 240.983C146.781 241.185 146.639 241.463 146.607 241.763C146.599 242.064 146.706 242.358 146.906 242.584C147.107 242.81 147.386 242.95 147.686 242.978C148.007 242.974 148.314 242.852 148.55 242.636C148.786 242.42 148.934 242.124 148.966 241.806C148.944 241.489 148.799 241.193 148.563 240.981C148.327 240.769 148.018 240.657 147.701 240.669" fill="white"/>
</g>
<g opacity="0.6">
<path opacity="0.6" d="M140.169 248.752L140.941 246.444L168.246 255.505C168.246 255.505 169.361 256.441 168.961 257.299L140.169 248.752Z" fill="white"/>
</g>
<path d="M156.855 244.55C156.812 244.686 156.09 244.55 155.261 244.793C154.432 245.036 153.896 245.507 153.782 245.422C153.668 245.336 154.118 244.578 155.126 244.3C156.133 244.021 156.926 244.428 156.855 244.55Z" fill="#263238"/>
<path d="M159.506 246.694C159.506 246.844 158.791 246.901 158.163 247.351C157.534 247.801 157.184 248.394 157.048 248.344C156.912 248.294 157.048 247.473 157.877 246.915C158.706 246.358 159.542 246.558 159.506 246.694Z" fill="#263238"/>
<path d="M160.149 250.817C160.006 250.817 160.021 250.045 160.614 249.388C161.207 248.73 161.95 248.616 161.971 248.745C161.993 248.873 161.471 249.174 160.992 249.724C160.514 250.274 160.292 250.846 160.149 250.817Z" fill="#263238"/>
<path d="M157.613 241.084C157.513 241.191 156.898 240.805 156.119 240.627C155.34 240.448 154.611 240.512 154.575 240.369C154.54 240.226 155.29 239.905 156.233 240.126C157.177 240.348 157.748 240.991 157.613 241.084Z" fill="#263238"/>
<path d="M157.941 237.468C157.435 237.452 156.941 237.302 156.512 237.032C156.018 236.787 155.557 236.479 155.14 236.118C154.885 235.897 154.646 235.658 154.425 235.403C154.291 235.267 154.18 235.11 154.097 234.938C154.034 234.811 154.015 234.665 154.043 234.526C154.072 234.386 154.146 234.26 154.254 234.167C154.354 234.09 154.471 234.037 154.595 234.014C154.719 233.99 154.847 233.996 154.968 234.031C155.152 234.085 155.328 234.164 155.49 234.267C155.773 234.434 156.041 234.625 156.29 234.838C156.713 235.203 157.075 235.632 157.362 236.11C157.674 236.523 157.849 237.023 157.863 237.54C157.784 237.54 157.591 237.025 157.062 236.318C156.757 235.902 156.396 235.529 155.99 235.21C155.755 235.022 155.504 234.855 155.24 234.71C154.961 234.538 154.704 234.46 154.583 234.574C154.461 234.688 154.532 234.631 154.583 234.738C154.645 234.865 154.727 234.981 154.825 235.081C155.025 235.315 155.237 235.537 155.461 235.746C155.843 236.098 156.254 236.416 156.691 236.696C157.434 237.168 157.97 237.39 157.941 237.468Z" fill="#263238"/>
<path d="M157.698 237.611C157.547 237.12 157.559 236.594 157.734 236.11C157.863 235.568 158.088 235.052 158.398 234.588C158.579 234.311 158.79 234.054 159.027 233.824C159.161 233.655 159.336 233.525 159.535 233.444C159.734 233.364 159.951 233.337 160.164 233.366C160.289 233.409 160.401 233.486 160.485 233.588C160.57 233.69 160.624 233.814 160.642 233.945C160.668 234.135 160.668 234.327 160.642 234.517C160.597 234.853 160.5 235.181 160.357 235.489C160.113 236.003 159.75 236.451 159.299 236.797C158.513 237.375 157.87 237.368 157.87 237.318C157.87 237.268 158.413 237.111 159.056 236.518C159.428 236.181 159.721 235.766 159.913 235.303C160.029 235.034 160.104 234.75 160.135 234.46C160.185 234.138 160.135 233.859 160.021 233.859C159.906 233.859 159.563 233.974 159.37 234.181C159.158 234.389 158.962 234.614 158.784 234.853C158.483 235.269 158.242 235.726 158.07 236.211C157.791 237.039 157.784 237.611 157.698 237.611Z" fill="#263238"/>
<path d="M176.471 191.089C177.186 196.434 175.371 202.459 173.434 207.525L160.814 237.168L146.843 235.024C146.843 235.024 143.935 238.268 140.212 239.512C138.547 240.062 133.066 241.141 128.556 237.897C128.556 237.897 122.175 246.786 112.12 249.473C102.065 252.16 86.8797 253.647 79.5192 241.898L114.535 208.14C115.25 208.311 144.714 188.445 160.628 183.921C160.657 183.921 175.128 181.263 176.471 191.089Z" fill="#263238"/>
<path d="M145.807 234.909C145.807 234.909 145.864 234.866 145.993 234.795L146.564 234.495C147.072 234.223 147.815 233.845 148.758 233.323C149.91 232.699 151.027 232.012 152.103 231.265C153.528 230.287 154.802 229.105 155.883 227.756C157.176 226.108 158.02 224.153 158.334 222.082C158.691 219.703 158.589 217.277 158.034 214.936C157.561 212.322 156.2 209.952 154.182 208.225C151.891 206.546 149.159 205.572 146.321 205.424C144.882 205.307 143.435 205.319 141.998 205.46C140.6 205.608 139.213 205.847 137.846 206.175C135.267 206.839 132.746 207.712 130.307 208.783C125.64 210.827 121.589 213.028 118.03 214.55C115.245 215.816 112.335 216.786 109.347 217.444C108.818 217.566 108.34 217.644 107.918 217.701C107.496 217.758 107.16 217.823 106.875 217.844L106.231 217.909H106.01L106.231 217.859L106.867 217.766C107.146 217.723 107.496 217.673 107.904 217.587C108.311 217.501 108.783 217.43 109.333 217.301C112.284 216.587 115.156 215.581 117.908 214.3C121.438 212.756 125.476 210.534 130.157 208.461C132.61 207.375 135.149 206.491 137.746 205.817C139.128 205.489 140.529 205.251 141.941 205.103C143.402 204.962 144.873 204.95 146.336 205.067C149.258 205.215 152.072 206.222 154.425 207.961C155.508 208.833 156.401 209.918 157.048 211.148C157.662 212.325 158.112 213.58 158.384 214.879C158.934 217.262 159.026 219.728 158.656 222.146C158.315 224.26 157.436 226.251 156.105 227.927C154.998 229.288 153.692 230.473 152.231 231.443C151.141 232.178 150.01 232.851 148.844 233.459C147.887 233.959 147.129 234.323 146.614 234.566L146.021 234.838C145.953 234.871 145.881 234.895 145.807 234.909Z" fill="#455A64"/>
<path d="M154.568 195.97C153.701 197.628 152.722 199.226 151.638 200.751C150.659 202.344 149.578 203.872 148.401 205.325C149.271 203.668 150.25 202.071 151.331 200.544C152.31 198.951 153.391 197.423 154.568 195.97Z" fill="#455A64"/>
<path d="M144.492 232.552C143.659 232.816 142.812 233.035 141.955 233.209C140.39 233.595 138.239 234.188 135.909 235.003C133.58 235.818 131.529 236.697 130.064 237.368C128.599 238.04 127.699 238.49 127.67 238.44C127.848 238.285 128.045 238.153 128.256 238.047C128.649 237.811 129.228 237.497 129.95 237.132C133.734 235.226 137.75 233.82 141.898 232.952C142.691 232.788 143.327 232.673 143.792 232.616C144.022 232.566 144.257 232.544 144.492 232.552Z" fill="#455A64"/>
<path d="M160.564 235.224C160.5 235.224 160.335 234.595 159.742 233.723C158.987 232.576 157.864 231.719 156.557 231.295C155.251 230.87 153.839 230.903 152.553 231.387C151.56 231.744 151.038 232.18 150.995 232.101C150.952 232.023 151.095 231.958 151.338 231.765C151.681 231.504 152.055 231.288 152.453 231.122C153.79 230.544 155.294 230.476 156.678 230.931C158.062 231.387 159.231 232.335 159.964 233.595C160.188 233.963 160.364 234.36 160.485 234.774C160.607 235.024 160.607 235.224 160.564 235.224Z" fill="#455A64"/>
<path d="M100.122 224.155C100.223 224.363 100.286 224.588 100.307 224.819C100.414 225.44 100.467 226.069 100.465 226.699C100.467 228.802 99.8989 230.867 98.821 232.673C97.7232 234.484 96.031 235.858 94.0331 236.561C93.4332 236.765 92.8079 236.885 92.1751 236.918C91.939 236.963 91.6965 236.963 91.4604 236.918C92.2985 236.806 93.124 236.614 93.9259 236.346C95.8258 235.602 97.428 234.254 98.4851 232.509C99.5247 230.756 100.109 228.771 100.186 226.735C100.272 225.127 100.057 224.162 100.122 224.155Z" fill="#455A64"/>
<path d="M84.3644 240.184C84.2858 240.248 83.9142 239.926 83.564 239.469C83.2138 239.012 83.0281 238.519 83.121 238.469C83.2139 238.419 83.5283 238.776 83.8713 239.247C84.2143 239.719 84.443 240.119 84.3644 240.184Z" fill="#455A64"/>
<path d="M87.3012 243.292C87.2368 243.371 86.8367 243.092 86.4079 242.677C85.9791 242.263 85.6933 241.87 85.7647 241.806C85.8362 241.741 86.2435 242.006 86.6651 242.413C87.0868 242.82 87.3726 243.213 87.3012 243.292Z" fill="#455A64"/>
<path d="M90.7744 245.8C90.7244 245.886 90.2741 245.7 89.7739 245.372C89.2737 245.043 88.9164 244.714 88.9735 244.657C89.0307 244.6 89.4881 244.771 89.974 245.086C90.4599 245.4 90.8244 245.743 90.7744 245.8Z" fill="#455A64"/>
<path d="M94.7046 247.487C94.7046 247.587 94.1972 247.487 93.6327 247.301C93.0681 247.115 92.6465 246.858 92.6894 246.758C92.7323 246.658 93.2111 246.758 93.7542 246.951C94.2973 247.144 94.7332 247.387 94.7046 247.487Z" fill="#455A64"/>
<path d="M98.9279 248.151C98.9279 248.252 98.442 248.294 97.8417 248.237C97.2414 248.18 96.7769 248.059 96.7912 247.959C96.8055 247.858 97.2986 247.816 97.8774 247.873C98.4563 247.93 98.9279 248.051 98.9279 248.151Z" fill="#455A64"/>
<path d="M103.201 247.923C103.201 248.023 102.737 248.137 102.144 248.18C101.877 248.202 101.61 248.202 101.343 248.18C101.165 248.18 101.058 248.137 101.05 248.087C101.043 248.037 101.143 247.987 101.315 247.937C101.573 247.876 101.836 247.838 102.101 247.823C102.723 247.766 103.187 247.816 103.201 247.923Z" fill="#455A64"/>
<path d="M107.411 247.172C107.411 247.272 106.989 247.451 106.403 247.58C105.817 247.708 105.338 247.723 105.324 247.623C105.31 247.523 105.753 247.337 106.332 247.215C106.91 247.094 107.389 247.058 107.411 247.172Z" fill="#455A64"/>
<path d="M111.513 245.908C111.513 246.008 111.119 246.236 110.555 246.429C109.99 246.622 109.504 246.687 109.476 246.594C109.447 246.501 109.876 246.265 110.433 246.072C110.991 245.879 111.477 245.815 111.513 245.908Z" fill="#455A64"/>
<path d="M115.45 244.235C115.5 244.328 115.093 244.607 114.557 244.85C114.021 245.093 113.542 245.222 113.499 245.129C113.456 245.036 113.864 244.757 114.399 244.514C114.935 244.271 115.407 244.142 115.45 244.235Z" fill="#455A64"/>
<path d="M119.209 242.17C119.259 242.256 118.887 242.57 118.373 242.885C117.858 243.199 117.401 243.349 117.358 243.263C117.315 243.178 117.68 242.856 118.187 242.549C118.694 242.242 119.159 242.091 119.209 242.17Z" fill="#455A64"/>
<path d="M122.732 239.762C122.796 239.847 122.453 240.191 121.967 240.541C121.481 240.891 121.045 241.098 120.988 241.012C120.931 240.927 121.274 240.576 121.753 240.233C122.232 239.89 122.682 239.683 122.732 239.762Z" fill="#455A64"/>
<path d="M126.048 237.032C126.119 237.11 125.805 237.489 125.333 237.875C124.862 238.261 124.461 238.518 124.397 238.44C124.333 238.361 124.64 237.982 125.112 237.596C125.583 237.21 125.976 236.96 126.048 237.032Z" fill="#455A64"/>
<path d="M129.163 234.088C129.235 234.166 128.942 234.559 128.513 234.959C128.084 235.36 127.67 235.631 127.606 235.56C127.541 235.488 127.82 235.102 128.256 234.688C128.692 234.273 129.099 234.016 129.163 234.088Z" fill="#455A64"/>
<path d="M132.551 231.451C132.608 231.537 132.272 231.887 131.793 232.23C131.315 232.573 130.879 232.788 130.814 232.709C130.75 232.63 131.093 232.28 131.572 231.93C132.051 231.58 132.494 231.373 132.551 231.451Z" fill="#455A64"/>
<path d="M136.31 229.385C136.353 229.478 135.952 229.764 135.431 230.029C134.909 230.293 134.437 230.429 134.387 230.336C134.337 230.243 134.73 229.957 135.266 229.693C135.802 229.428 136.267 229.307 136.31 229.385Z" fill="#455A64"/>
<path d="M140.398 228.113C140.398 228.213 139.969 228.414 139.404 228.549C138.84 228.685 138.347 228.728 138.318 228.635C138.289 228.542 138.732 228.335 139.311 228.192C139.89 228.049 140.383 228.013 140.398 228.113Z" fill="#455A64"/>
<path d="M144.671 227.878C144.671 227.985 144.178 228.021 143.592 228.007C143.006 227.992 142.534 227.942 142.527 227.842C142.52 227.742 142.999 227.628 143.599 227.635C144.199 227.642 144.678 227.792 144.671 227.878Z" fill="#455A64"/>
<path d="M148.802 228.978C148.752 229.071 148.294 228.935 147.751 228.742C147.208 228.549 146.758 228.356 146.779 228.256C146.801 228.156 147.301 228.185 147.873 228.392C148.444 228.599 148.844 228.885 148.802 228.978Z" fill="#455A64"/>
<path d="M147.894 232.087C147.829 232.001 148.151 231.651 148.53 231.222C148.908 230.793 149.244 230.436 149.309 230.507C149.373 230.579 149.223 231.029 148.808 231.486C148.394 231.944 147.958 232.165 147.894 232.087Z" fill="#455A64"/>
<path d="M144.114 234.052C144.114 233.952 144.492 233.694 145.028 233.473C145.564 233.251 146.043 233.144 146.093 233.237C146.143 233.33 145.729 233.587 145.171 233.816C144.614 234.045 144.171 234.152 144.114 234.052Z" fill="#455A64"/>
<path d="M140.026 235.367C140.026 235.267 140.419 235.038 140.983 234.845C141.548 234.652 142.027 234.581 142.062 234.681C142.098 234.781 141.662 235.01 141.105 235.195C140.547 235.381 140.061 235.46 140.026 235.367Z" fill="#455A64"/>
<path d="M136.024 236.889C135.981 236.796 136.395 236.546 136.953 236.325C137.51 236.103 137.982 236.01 138.018 236.103C138.053 236.196 137.639 236.453 137.089 236.675C136.538 236.896 136.06 236.989 136.024 236.889Z" fill="#455A64"/>
<path d="M132.072 238.598C132.029 238.505 132.437 238.233 132.98 238.004C133.523 237.776 134.002 237.654 134.037 237.747C134.073 237.84 133.673 238.112 133.13 238.34C132.587 238.569 132.108 238.655 132.072 238.598Z" fill="#455A64"/>
<path d="M124.083 116.019C124.083 116.019 128.756 114.589 134.966 107.693C141.176 100.797 143.677 91.9718 144.499 91.9718C145.321 91.9718 148.787 90.0281 156.648 104.306C164.509 118.584 162.122 122.222 160.771 122.293C159.421 122.365 150.052 120.492 144.335 121.578C138.618 122.665 131.472 126.195 131.472 126.195L124.083 116.019Z" fill="#455A64"/>
<path d="M114.585 124.83L116.436 127.796L117.265 129.118C117.813 129.995 118.677 130.629 119.678 130.888C120.679 131.147 121.742 131.012 122.646 130.511L132.565 126.223L125.626 113.125L115.85 119.256C115.401 119.538 115.011 119.907 114.705 120.34C114.398 120.773 114.179 121.263 114.062 121.781C113.944 122.298 113.93 122.834 114.02 123.357C114.11 123.881 114.302 124.381 114.585 124.83Z" fill="#263238"/>
<path d="M120.824 129.332L124.547 135.449L126.134 134.877L137.375 142.738L139.883 136.692C139.883 136.692 133.451 134.456 132.094 132.312C130.736 130.168 132.094 129.56 132.094 129.56L128.899 126.402L120.824 129.332Z" fill="#263238"/>
<path d="M156.14 104.621C160.35 112.36 162.386 119.385 160.685 120.342C158.985 121.3 154.197 115.747 149.966 108.008C145.736 100.269 143.72 93.2438 145.421 92.2862C147.122 91.3287 151.924 96.8741 156.14 104.621Z" fill="#263238"/>
<path d="M114.049 129.346L116.744 128.274L114.793 125.151L112.82 126.595L114.049 129.346Z" fill="#455A64"/>
<path d="M129.992 127.496L122.925 132.784L121.867 131.04L129.992 127.496Z" fill="#455A64"/>
<path d="M114.792 125.151L116.743 128.274L116.186 128.496L114.557 125.33L114.792 125.151Z" fill="#455A64"/>
<path d="M116.751 125.766C117.795 125.398 118.796 124.919 119.738 124.337C120.736 123.861 121.68 123.278 122.553 122.6C121.51 122.969 120.509 123.448 119.566 124.029C118.568 124.505 117.624 125.088 116.751 125.766Z" fill="#455A64"/>
<path d="M115.757 123.894C116.706 123.54 117.61 123.077 118.452 122.515C119.353 122.048 120.199 121.483 120.974 120.828C119.12 121.64 117.369 122.669 115.757 123.894Z" fill="#455A64"/>
<path d="M117.973 127.717C118.27 127.685 118.558 127.598 118.823 127.459L119.716 127.088C120.045 126.938 120.388 126.738 120.753 126.538C121.659 126.093 122.504 125.533 123.268 124.873C122.328 125.229 121.428 125.682 120.581 126.223C120.217 126.423 119.867 126.638 119.566 126.795C119.266 126.952 118.959 127.102 118.716 127.231C118.244 127.488 117.951 127.667 117.973 127.717Z" fill="#455A64"/>
<path d="M148.63 103.384C148.63 103.384 152.574 100.526 155.247 105.928C157.92 111.331 153.646 112.581 153.646 112.581C151.549 109.767 149.86 106.671 148.63 103.384Z" fill="#455A64"/>
<path d="M143.749 97.0596C143.791 97.4193 143.87 97.7737 143.985 98.1172C144.171 98.7889 144.428 99.7608 144.785 100.976C144.999 101.562 145.242 102.198 145.5 102.884L145.9 103.948C145.971 104.127 146.036 104.313 146.107 104.506C146.179 104.699 146.279 104.87 146.364 105.056L147.479 107.393C147.572 107.6 147.672 107.8 147.772 108.008C147.872 108.215 147.994 108.408 148.108 108.608L148.823 109.83L149.537 111.052C149.659 111.245 149.766 111.452 149.895 111.638C150.023 111.824 150.159 112.017 150.281 112.202L151.767 114.346C151.888 114.511 151.996 114.682 152.117 114.839L152.503 115.304L153.218 116.176L154.525 117.748C155.39 118.648 156.105 119.349 156.598 119.842C156.842 120.104 157.11 120.344 157.398 120.556C157.18 120.265 156.941 119.991 156.683 119.734L154.697 117.591L153.461 115.954L152.746 115.075L152.374 114.611C152.253 114.453 152.146 114.282 152.031 114.118L150.602 111.974L150.223 111.416C150.088 111.23 149.988 111.023 149.866 110.83L149.151 109.615C148.916 109.208 148.68 108.801 148.437 108.408C148.33 108.208 148.201 108.015 148.101 107.807C148.001 107.6 147.908 107.4 147.808 107.2L146.686 104.892C146.6 104.706 146.5 104.527 146.429 104.342C146.357 104.156 146.279 103.97 146.207 103.791C146.064 103.427 145.928 103.077 145.793 102.741L145.042 100.854C144.664 99.6894 144.363 98.7103 144.142 98.06C144.036 97.7173 143.904 97.3829 143.749 97.0596Z" fill="#263238"/>
<path d="M133.123 129.575C133.425 129.662 133.682 129.864 133.839 130.137C133.995 130.411 134.038 130.735 133.959 131.04C133.651 132.255 133.151 134.163 132.751 135.328C132.64 135.71 132.458 136.069 132.215 136.385C132.096 136.557 131.927 136.687 131.731 136.758C131.534 136.829 131.321 136.836 131.12 136.78C130.919 136.723 130.741 136.605 130.61 136.442C130.48 136.279 130.404 136.079 130.393 135.871C130.346 135.453 130.383 135.031 130.5 134.627C130.75 133.491 131.214 131.769 131.615 130.404C131.658 130.25 131.732 130.106 131.832 129.981C131.931 129.855 132.055 129.751 132.195 129.674C132.335 129.597 132.49 129.548 132.649 129.531C132.808 129.514 132.969 129.529 133.123 129.575Z" fill="#FFBE9D"/>
<path d="M135.059 131.547C135.362 131.634 135.619 131.836 135.776 132.11C135.932 132.383 135.975 132.707 135.895 133.012C135.588 134.227 135.088 136.135 134.681 137.3C134.572 137.684 134.39 138.043 134.145 138.358C134.022 138.514 133.858 138.635 133.672 138.705C133.485 138.776 133.283 138.794 133.087 138.758C132.887 138.691 132.71 138.569 132.576 138.406C132.442 138.243 132.356 138.045 132.33 137.836C132.284 137.419 132.318 136.997 132.43 136.593C132.687 135.463 133.144 133.734 133.544 132.369C133.636 132.058 133.846 131.797 134.13 131.641C134.414 131.486 134.749 131.449 135.059 131.54V131.547Z" fill="#FFBE9D"/>
<path d="M136.924 132.734C137.184 132.813 137.403 132.99 137.536 133.227C137.669 133.463 137.706 133.742 137.639 134.006C137.375 135.056 136.924 136.707 136.589 137.714C136.494 138.048 136.336 138.361 136.124 138.636C136.021 138.784 135.874 138.896 135.705 138.956C135.535 139.016 135.351 139.022 135.177 138.972C135.004 138.923 134.851 138.82 134.739 138.679C134.627 138.538 134.561 138.366 134.552 138.186C134.509 137.824 134.538 137.458 134.638 137.107C134.859 136.128 135.259 134.656 135.602 133.448C135.682 133.181 135.864 132.955 136.109 132.821C136.354 132.688 136.642 132.656 136.91 132.734H136.924Z" fill="#FFBE9D"/>
<path d="M139.047 132.97C139.308 133.049 139.528 133.227 139.661 133.465C139.795 133.704 139.83 133.984 139.761 134.249C139.497 135.306 139.047 136.964 138.704 137.979C138.61 138.314 138.452 138.627 138.239 138.901C138.137 139.051 137.99 139.166 137.819 139.228C137.648 139.29 137.462 139.297 137.287 139.247C137.112 139.197 136.957 139.093 136.845 138.95C136.732 138.807 136.667 138.632 136.66 138.451C136.617 138.086 136.646 137.717 136.746 137.364C136.967 136.385 137.367 134.899 137.718 133.691C137.757 133.558 137.822 133.434 137.909 133.326C137.997 133.218 138.105 133.128 138.227 133.061C138.349 132.995 138.483 132.953 138.621 132.939C138.759 132.924 138.899 132.937 139.032 132.977L139.047 132.97Z" fill="#FFBE9D"/>
<path d="M132.451 136.406C132.502 135.621 132.678 134.849 132.972 134.12C133.152 133.351 133.451 132.616 133.859 131.94C133.807 132.726 133.628 133.498 133.33 134.227C133.151 134.994 132.854 135.729 132.451 136.406Z" fill="#EB996E"/>
<path d="M136.474 138.029C136.799 136.502 137.246 135.004 137.81 133.548C137.728 135.129 137.27 136.668 136.474 138.036V138.029Z" fill="#EB996E"/>
<path d="M134.48 137.771C134.807 136.24 135.254 134.737 135.817 133.276C135.736 134.86 135.278 136.401 134.48 137.771Z" fill="#EB996E"/>
<path d="M170.79 77.3436C170.869 77.4007 167.932 81.3811 164.244 86.2263C160.557 91.0714 157.484 94.9517 157.405 94.8874C157.327 94.8231 160.264 90.8498 163.944 86.0047C167.624 81.1596 170.704 77.2792 170.79 77.3436Z" fill="#263238"/>
<path d="M189.964 88.6844C190.006 88.7773 183.846 91.7286 176.2 95.2732C168.554 98.8177 162.329 101.619 162.286 101.526C162.243 101.433 168.403 98.4818 176.043 94.9373C183.682 91.3928 189.906 88.5915 189.964 88.6844Z" fill="#263238"/>
<path d="M187.105 112.281C187.105 112.381 182.703 112.045 177.3 111.524C171.898 111.002 167.517 110.495 167.524 110.395C167.531 110.295 171.926 110.63 177.336 111.152C182.746 111.674 187.119 112.181 187.105 112.281Z" fill="#263238"/>
<path d="M74.438 125.516L79.2903 153.1C79.7135 155.408 81.0142 157.462 82.9195 158.832C84.8249 160.202 87.1866 160.78 89.5093 160.446C90.7013 160.293 91.8503 159.902 92.8883 159.296C93.9262 158.69 94.832 157.882 95.5517 156.92C96.2715 155.957 96.7907 154.86 97.0785 153.693C97.3663 152.527 97.4169 151.314 97.2272 150.127L96.4411 145.382C96.4411 145.382 103.23 143.538 102.522 136.721C102.179 133.434 100.922 126.716 99.7069 120.67C99.0186 117.389 97.09 114.499 94.3234 112.605C91.5568 110.71 88.1657 109.957 84.8571 110.501C83.1731 110.774 81.5613 111.383 80.118 112.292C78.6747 113.202 77.4296 114.393 76.457 115.794C75.4844 117.196 74.8043 118.779 74.4574 120.449C74.1105 122.12 74.1039 123.843 74.438 125.516Z" fill="#FFBE9D"/>
<path d="M96.4553 145.397C93.2778 145.814 90.0479 145.289 87.1653 143.889C87.1653 143.889 89.8594 148.556 96.6768 147.126L96.4553 145.397Z" fill="#EB996E"/>
<path d="M98.2278 125.273C98.2584 125.528 98.1879 125.784 98.0316 125.987C97.8752 126.19 97.6455 126.324 97.3917 126.359C97.2686 126.384 97.1419 126.384 97.0188 126.359C96.8958 126.335 96.7789 126.286 96.6751 126.215C96.5713 126.144 96.4826 126.054 96.4142 125.949C96.3458 125.843 96.2991 125.726 96.2769 125.602C96.2443 125.346 96.3139 125.088 96.4704 124.884C96.6269 124.679 96.8578 124.544 97.113 124.509C97.2366 124.484 97.3638 124.484 97.4873 124.509C97.6107 124.535 97.7279 124.584 97.8318 124.656C97.9357 124.727 98.0243 124.818 98.0923 124.924C98.1603 125.03 98.2064 125.149 98.2278 125.273Z" fill="#263238"/>
<path d="M98.435 123.622C98.3278 123.765 97.5131 123.3 96.4555 123.429C95.3979 123.558 94.6761 124.144 94.5475 124.044C94.4188 123.944 94.5475 123.751 94.8905 123.472C95.3164 123.108 95.8415 122.879 96.3983 122.814C96.9525 122.749 97.5131 122.862 97.9991 123.136C98.3707 123.343 98.5136 123.543 98.435 123.622Z" fill="#263238"/>
<path d="M88.2443 126.473C88.275 126.729 88.2048 126.986 88.0486 127.19C87.8924 127.394 87.6626 127.53 87.4082 127.567C87.2842 127.592 87.1565 127.591 87.0326 127.566C86.9087 127.541 86.7911 127.491 86.6866 127.42C86.5821 127.349 86.4929 127.258 86.4242 127.152C86.3554 127.045 86.3085 126.927 86.2863 126.802C86.2557 126.548 86.3262 126.291 86.4825 126.088C86.6388 125.885 86.8686 125.752 87.1224 125.716C87.2459 125.691 87.3731 125.691 87.4966 125.716C87.6201 125.74 87.7374 125.79 87.8418 125.86C87.9462 125.93 88.0356 126.021 88.1047 126.126C88.1738 126.232 88.2212 126.35 88.2443 126.473Z" fill="#263238"/>
<path d="M88.1945 124.973C88.0873 125.109 87.2798 124.651 86.215 124.773C85.1502 124.894 84.4356 125.487 84.3069 125.394C84.1783 125.302 84.3427 125.101 84.6571 124.816C85.0806 124.448 85.6073 124.221 86.165 124.165C86.7159 124.102 87.2728 124.212 87.7585 124.48C88.1159 124.716 88.2516 124.973 88.1945 124.973Z" fill="#263238"/>
<path d="M92.9538 132.948C93.4967 132.715 94.0652 132.547 94.6474 132.448C94.9118 132.39 95.1619 132.305 95.1905 132.119C95.1781 131.839 95.0809 131.57 94.9118 131.347L93.8756 129.403C92.4464 126.638 91.3387 124.344 91.4531 124.287C91.5674 124.23 92.8394 126.431 94.3115 129.203C94.6617 129.882 95.0262 130.532 95.312 131.161C95.5227 131.461 95.6167 131.827 95.5764 132.19C95.5484 132.29 95.4977 132.382 95.4282 132.459C95.3588 132.536 95.2726 132.595 95.1762 132.633C95.0317 132.691 94.8804 132.729 94.726 132.748C94.1459 132.888 93.5505 132.955 92.9538 132.948Z" fill="#263238"/>
<path d="M89.9165 134.027C90.088 134.027 90.2238 135.127 91.3029 135.828C92.3819 136.528 93.5968 136.256 93.6182 136.414C93.6397 136.571 93.3753 136.664 92.8536 136.735C92.181 136.823 91.4989 136.674 90.9241 136.314C90.3778 135.967 89.9882 135.421 89.8379 134.791C89.7379 134.32 89.8593 134.027 89.9165 134.027Z" fill="#263238"/>
<path d="M87.9944 121.5C87.9229 121.793 86.8439 121.778 85.6147 122.064C84.3856 122.35 83.4208 122.779 83.2279 122.572C83.135 122.457 83.2779 122.164 83.6567 121.857C84.1639 121.461 84.7526 121.183 85.3803 121.042C86.0081 120.901 86.6592 120.901 87.2869 121.042C87.7657 121.157 88.023 121.357 87.9944 121.5Z" fill="#263238"/>
<path d="M97.8706 121.271C97.7134 121.529 96.9487 121.364 96.0697 121.45C95.1907 121.536 94.4618 121.793 94.2617 121.564C94.176 121.457 94.2617 121.2 94.5619 120.943C94.9674 120.61 95.4678 120.415 95.9911 120.385C96.5094 120.336 97.0304 120.445 97.4847 120.7C97.8062 120.914 97.9349 121.143 97.8706 121.271Z" fill="#263238"/>
<path d="M99.7427 109.022C99.2834 108.674 98.7141 108.501 98.1383 108.537C97.5626 108.572 97.0187 108.813 96.6056 109.215C96.8846 108.75 96.977 108.197 96.8643 107.667C96.7516 107.136 96.4421 106.668 95.9981 106.357C95.5433 106.055 95.0273 105.859 94.4873 105.781C93.9472 105.703 93.3967 105.746 92.8753 105.907C91.8332 106.23 90.8474 106.712 89.9525 107.336C89.9907 107.124 89.9657 106.905 89.8806 106.707C89.7954 106.508 89.654 106.34 89.4737 106.221C89.102 105.993 88.6798 105.861 88.2445 105.835C86.4516 105.719 84.6631 106.121 83.0921 106.993C81.4096 107.927 79.8144 109.011 78.3256 110.23C76.6611 111.571 75.1937 113.139 73.9664 114.889L73.9093 114.939C72.9017 115.84 72.0513 118.555 72.2013 119.885C72.7659 124.794 74.3952 127.631 75.3099 132.276C75.3399 132.592 75.4616 132.893 75.6601 133.141C76.2246 133.727 77.2394 133.227 77.804 132.612C79.0192 131.03 79.6594 129.082 79.6191 127.088C79.6834 125.116 79.3975 123.15 79.4476 121.178V121.035C79.4611 120.532 79.5088 120.031 79.5905 119.534C79.6763 119.213 80.5124 116.397 83.2208 115.961C86.0792 115.475 91.7604 118.262 94.5689 117.819C97.3773 117.376 97.5274 115.397 97.5274 115.397L99.1782 118.755C99.5575 117.391 99.6475 115.962 99.4426 114.561C100.157 113.908 100.655 113.053 100.872 112.11C100.986 111.541 100.941 110.952 100.742 110.407C100.542 109.862 100.197 109.383 99.7427 109.022Z" fill="#263238"/>
<path d="M77.1324 128.446C77.0109 128.41 72.2229 127.603 72.9161 132.241C73.6093 136.878 78.1971 135.235 78.1828 135.099C78.1686 134.963 77.1324 128.446 77.1324 128.446Z" fill="#FFBE9D"/>
<path d="M76.482 133.548C76.482 133.548 76.4105 133.62 76.2819 133.699C76.098 133.811 75.8784 133.849 75.6673 133.806C75.3373 133.661 75.0517 133.431 74.8395 133.14C74.6273 132.849 74.4962 132.506 74.4596 132.148C74.3912 131.751 74.4108 131.343 74.5168 130.954C74.5388 130.801 74.5986 130.655 74.6909 130.53C74.7833 130.406 74.9051 130.306 75.0456 130.24C75.1357 130.203 75.2357 130.197 75.3292 130.225C75.4227 130.252 75.5042 130.31 75.5601 130.39C75.6387 130.511 75.6244 130.611 75.653 130.611C75.6816 130.611 75.7388 130.519 75.653 130.333C75.6051 130.224 75.5254 130.131 75.4243 130.068C75.2788 129.994 75.1107 129.976 74.9527 130.018C74.7734 130.089 74.6144 130.203 74.4897 130.35C74.3651 130.497 74.2786 130.673 74.2381 130.862C74.1005 131.293 74.071 131.752 74.1523 132.198C74.1948 132.616 74.359 133.012 74.6245 133.337C74.89 133.662 75.2451 133.902 75.6459 134.027C75.775 134.042 75.9058 134.029 76.0292 133.988C76.1526 133.948 76.2657 133.88 76.3605 133.791C76.4891 133.663 76.4963 133.548 76.482 133.548Z" fill="#EB996E"/>
<path d="M66.5628 162.026C66.6913 161.971 66.8312 161.949 66.9702 161.961C67.3773 161.996 67.7557 162.185 68.0278 162.49C68.2471 162.724 68.415 163.001 68.5209 163.304C68.6267 163.607 68.6681 163.928 68.6424 164.248C68.5587 165.067 68.3763 165.874 68.0993 166.649C67.9249 167.092 67.8493 167.568 67.8777 168.043C67.9061 168.518 68.0378 168.981 68.2636 169.4C68.771 170.286 69.8072 170.965 70.2288 172.202C70.4362 172.832 70.4483 173.511 70.2634 174.148C70.0785 174.786 69.7052 175.353 69.1926 175.775C68.645 176.223 67.9695 176.485 67.2632 176.525C66.5619 176.516 65.8658 176.403 65.1979 176.189C64.5765 175.981 63.9111 175.939 63.2684 176.068C62.6753 176.282 62.1717 176.69 61.8392 177.225C61.4854 177.772 61.0785 178.281 60.6243 178.748C60.3842 178.976 60.0999 179.152 59.789 179.267C59.4781 179.381 59.1471 179.43 58.8164 179.412C58.2193 179.361 57.6446 179.161 57.1451 178.831C56.6456 178.5 56.2374 178.048 55.9579 177.518C55.5113 176.61 55.2675 175.615 55.2433 174.603C55.1933 173.688 55.2433 172.866 55.2433 172.152C55.2363 171.541 55.1837 170.932 55.0861 170.329C54.9829 169.818 54.8371 169.316 54.6501 168.829C54.7331 168.938 54.8004 169.058 54.8502 169.186C55.0197 169.541 55.1446 169.915 55.2218 170.301C55.354 170.907 55.4306 171.524 55.4505 172.145C55.4505 172.859 55.4505 173.688 55.5434 174.588C55.577 175.556 55.8208 176.505 56.258 177.368C56.5175 177.843 56.8899 178.247 57.3424 178.543C57.7948 178.84 58.3133 179.02 58.8521 179.069C59.137 179.084 59.4219 179.039 59.6888 178.939C59.9557 178.838 60.1988 178.683 60.4028 178.483C60.8386 178.032 61.2288 177.539 61.5677 177.011C61.9447 176.408 62.5136 175.95 63.1827 175.71C63.895 175.555 64.6363 175.597 65.3265 175.832C65.9612 176.029 66.6202 176.137 67.2846 176.153C67.9144 176.119 68.5173 175.887 69.0068 175.489C69.4674 175.113 69.8038 174.607 69.9721 174.038C70.1404 173.468 70.1328 172.86 69.9501 172.295C69.6 171.201 68.5924 170.508 68.0349 169.543C67.7562 169.075 67.615 168.537 67.6276 167.993C67.6542 167.507 67.7406 167.027 67.8849 166.563C68.1736 165.808 68.3726 165.021 68.478 164.219C68.5116 163.924 68.4831 163.624 68.3945 163.34C68.306 163.056 68.1592 162.793 67.9635 162.569C67.7185 162.28 67.3793 162.088 67.0059 162.026C66.7058 162.004 66.5628 162.047 66.5628 162.026Z" fill="#FAFAFA"/>
<path d="M68.5281 212.042C68.5281 212.042 68.5782 212.213 68.7425 212.485C69.0024 212.871 69.3975 213.147 69.8502 213.257C70.2001 213.356 70.5689 213.368 70.9248 213.294C71.2808 213.219 71.6133 213.059 71.894 212.828C72.6208 212.174 73.1024 211.292 73.2589 210.327C73.4876 209.262 73.4447 208.047 73.652 206.754C73.7512 206.069 73.974 205.408 74.3094 204.803C74.6694 204.136 75.2506 203.615 75.953 203.331C76.688 203.07 77.4771 202.998 78.2469 203.123C79.0259 203.202 79.7905 203.381 80.5623 203.481C81.3406 203.607 82.1369 203.568 82.8991 203.366C83.6731 203.143 84.3865 202.747 84.9858 202.209C85.5838 201.67 86.0277 200.982 86.2721 200.215C86.4905 199.468 86.4755 198.673 86.2292 197.935C86.0225 197.229 85.6214 196.596 85.0717 196.106C84.5221 195.617 83.846 195.293 83.1206 195.17C81.6914 195.013 80.4051 195.706 79.0545 195.734C78.3994 195.754 77.7501 195.606 77.1679 195.306C76.6446 195.038 76.1491 194.72 75.6886 194.355C74.9437 193.713 74.0988 193.196 73.1874 192.826C72.8409 192.694 72.4699 192.638 72.0999 192.663C71.7298 192.687 71.3695 192.792 71.0436 192.969C70.6298 193.18 70.3053 193.532 70.1289 193.962C70.0822 194.119 70.044 194.279 70.0145 194.441C69.9909 194.273 70.0055 194.102 70.0574 193.941C70.2126 193.472 70.5393 193.078 70.9721 192.84C71.2804 192.662 71.6201 192.546 71.9726 192.497C72.392 192.456 72.8154 192.502 73.216 192.633C74.1623 192.988 75.0418 193.5 75.8172 194.148C76.7012 194.932 77.8306 195.385 79.0116 195.427C79.6724 195.371 80.326 195.249 80.9625 195.063C81.6575 194.858 82.3838 194.78 83.1064 194.834C83.8987 194.959 84.6395 195.306 85.2428 195.834C85.8461 196.363 86.2872 197.052 86.5151 197.821C86.7927 198.629 86.8102 199.504 86.5651 200.322C86.3001 201.147 85.8218 201.886 85.1787 202.466C84.5383 203.046 83.773 203.472 82.942 203.709C82.1332 203.925 81.2875 203.964 80.4623 203.824C79.6619 203.717 78.8972 203.545 78.154 203.459C77.4358 203.337 76.6983 203.399 76.0102 203.638C75.3736 203.885 74.8463 204.351 74.5238 204.953C74.2046 205.523 73.987 206.145 73.8806 206.789C73.6734 208.054 73.6948 209.283 73.4447 210.363C73.2609 211.378 72.7336 212.299 71.9512 212.971C71.6441 213.214 71.2821 213.377 70.897 213.447C70.512 213.516 70.1157 213.491 69.743 213.371C69.5055 213.308 69.2828 213.198 69.0878 213.049C68.8929 212.899 68.7294 212.712 68.6067 212.499C68.5465 212.355 68.5197 212.198 68.5281 212.042Z" fill="#FAFAFA"/>
<path d="M92.8037 168.743C92.9321 168.497 93.0985 168.272 93.2968 168.078C93.8778 167.5 94.6295 167.124 95.4407 167.006C96.0792 166.912 96.7313 166.988 97.3311 167.226C97.9309 167.464 98.4571 167.857 98.8566 168.364C99.3657 168.993 99.6677 169.765 99.7213 170.572C99.7179 171.431 99.9033 172.28 100.264 173.059C100.511 173.432 100.88 173.707 101.308 173.838C101.773 173.973 102.253 174.047 102.737 174.06C103.237 174.06 103.752 174.06 104.288 174.131C104.852 174.161 105.396 174.355 105.853 174.688C106.088 174.88 106.274 175.125 106.396 175.403C106.515 175.685 106.564 175.991 106.539 176.296C106.469 176.894 106.22 177.458 105.824 177.911C105.428 178.377 104.942 178.759 104.395 179.033C103.859 179.305 103.294 179.526 102.744 179.784C102.192 180.015 101.678 180.331 101.222 180.72C100.776 181.124 100.464 181.655 100.329 182.242C100.036 183.442 100.329 184.743 100.243 186.101C100.204 186.798 100.019 187.48 99.6998 188.102C99.535 188.432 99.2956 188.72 99.0004 188.942C98.7052 189.164 98.3623 189.314 97.999 189.381C97.626 189.414 97.2502 189.368 96.8966 189.245C96.5429 189.121 96.2196 188.924 95.9481 188.666C95.4002 188.194 94.9384 187.631 94.5831 187.001C94.2507 186.397 93.8832 185.812 93.4826 185.25C93.108 184.709 92.5769 184.295 91.9605 184.064C91.3416 183.883 90.6785 183.926 90.0882 184.186C89.4805 184.443 88.8969 184.754 88.3445 185.115C87.7863 185.481 87.1925 185.79 86.5723 186.037C85.9427 186.265 85.2767 186.376 84.6071 186.365C83.3139 186.33 82.0643 185.89 81.034 185.108C80.0336 184.373 79.337 183.298 79.0759 182.085C78.9311 181.513 78.9331 180.914 79.0817 180.343C79.2304 179.772 79.5209 179.248 79.9263 178.819C80.3475 178.449 80.853 178.189 81.3984 178.061C81.9044 177.94 82.4176 177.852 82.9349 177.797C83.8782 177.753 84.79 177.444 85.5647 176.904C86.2124 176.319 86.7037 175.582 86.9939 174.76C87.3012 173.995 87.5013 173.238 87.7657 172.545C87.9881 171.89 88.3138 171.274 88.7304 170.722C89.1026 170.28 89.5193 169.878 89.9739 169.522C90.5797 168.986 91.3215 168.627 92.1177 168.485C92.2581 168.464 92.4015 168.472 92.5384 168.51C92.6752 168.548 92.8023 168.616 92.9109 168.707C92.6711 168.576 92.3954 168.526 92.1249 168.564C91.3576 168.731 90.6493 169.102 90.0739 169.636C89.6319 169.992 89.2294 170.395 88.8733 170.837C88.4823 171.38 88.1763 171.98 87.9658 172.616C87.7157 173.331 87.5227 174.045 87.2512 174.846C86.9682 175.698 86.4769 176.467 85.8219 177.082C85.0132 177.667 84.0527 178.004 83.0564 178.054C82.0773 178.204 80.984 178.311 80.1979 179.026C79.8386 179.422 79.5848 179.901 79.4598 180.421C79.3349 180.941 79.343 181.483 79.4833 181.999C79.7381 183.129 80.3929 184.129 81.327 184.815C82.3049 185.546 83.4861 185.956 84.7071 185.986C85.3308 185.999 85.9512 185.895 86.5366 185.679C87.1364 185.436 87.7109 185.135 88.2516 184.779C88.7614 184.428 89.2992 184.12 89.8595 183.857C90.5357 183.559 91.2964 183.513 92.0034 183.728C92.6909 183.98 93.2846 184.436 93.7042 185.036C94.118 185.61 94.4951 186.209 94.8333 186.83C95.1711 187.418 95.6032 187.947 96.1124 188.395C96.346 188.614 96.6237 188.78 96.927 188.882C97.2303 188.985 97.552 189.021 97.8704 188.988C98.1778 188.933 98.4677 188.806 98.7163 188.618C98.9648 188.429 99.1648 188.183 99.2996 187.902C99.591 187.328 99.7612 186.7 99.7999 186.058C99.8713 184.779 99.5855 183.442 99.9071 182.135C100.062 181.482 100.41 180.891 100.908 180.441C101.39 180.026 101.935 179.691 102.523 179.448C103.087 179.19 103.645 178.976 104.166 178.733C104.672 178.48 105.122 178.128 105.488 177.697C105.867 177.305 106.116 176.806 106.203 176.268C106.22 176.024 106.181 175.779 106.089 175.553C105.982 175.326 105.826 175.126 105.631 174.967C105.213 174.666 104.716 174.495 104.202 174.474C103.695 174.417 103.18 174.417 102.673 174.388C102.166 174.37 101.664 174.286 101.179 174.138C100.698 173.982 100.285 173.667 100.007 173.245C99.6277 172.431 99.4371 171.542 99.4497 170.644C99.4173 169.865 99.1425 169.115 98.6636 168.5C98.2879 168.014 97.7933 167.633 97.2275 167.394C96.6617 167.155 96.0439 167.066 95.4335 167.135C94.6566 167.241 93.9309 167.583 93.354 168.114C93.1582 168.312 92.9744 168.522 92.8037 168.743Z" fill="#FAFAFA"/>
<path d="M80.7767 156.681C80.3769 157.081 79.8526 157.333 79.2903 157.395C78.6911 157.514 78.0743 157.514 77.4751 157.395C76.7096 157.272 76.0156 156.873 75.5242 156.273C75.0937 155.638 74.8465 154.896 74.8096 154.129C74.7537 153.524 74.7947 152.914 74.9311 152.321C75.0143 151.771 75.2843 151.267 75.6957 150.892C75.4668 151.374 75.2987 151.883 75.1955 152.407C75.0978 152.976 75.0809 153.556 75.1455 154.129C75.2013 154.82 75.4298 155.486 75.8101 156.066C76.2445 156.598 76.8558 156.955 77.5323 157.074C78.0914 157.192 78.6667 157.214 79.2331 157.138C79.7629 157.043 80.2806 156.889 80.7767 156.681Z" fill="#FAFAFA"/>
<path d="M111.541 154.858C111.541 154.858 111.541 154.929 111.491 155.051C111.424 155.235 111.331 155.409 111.213 155.565C110.773 156.153 110.145 156.571 109.433 156.752C108.937 156.867 108.421 156.867 107.925 156.752C107.365 156.594 106.845 156.316 106.403 155.937C105.963 155.541 105.454 155.229 104.902 155.015C104.618 154.937 104.316 154.954 104.042 155.062C103.767 155.17 103.535 155.364 103.38 155.615C103.044 156.173 102.75 156.756 102.501 157.359C102.217 157.941 101.78 158.435 101.237 158.788C100.859 159.044 100.434 159.22 99.9865 159.307C99.5391 159.393 99.0788 159.389 98.6333 159.292C98.1878 159.196 97.7665 159.011 97.3947 158.747C97.0229 158.484 96.7083 158.148 96.47 157.759C96.3086 157.552 96.2072 157.305 96.177 157.045C96.177 157.045 96.2985 157.295 96.5843 157.688C96.9956 158.237 97.5562 158.656 98.1994 158.895C98.9549 159.15 99.7776 159.117 100.51 158.803C101.243 158.489 101.835 157.917 102.173 157.195C102.428 156.575 102.729 155.976 103.073 155.401C103.28 155.084 103.576 154.836 103.923 154.686C104.266 154.555 104.643 154.54 104.995 154.643C105.594 154.872 106.144 155.212 106.618 155.644C107.015 156.002 107.486 156.27 107.997 156.43C108.451 156.533 108.922 156.533 109.376 156.43C110.044 156.286 110.648 155.93 111.098 155.415C111.413 155.108 111.513 154.843 111.541 154.858Z" fill="#FAFAFA"/>
<path d="M116.636 182.914C116.351 182.776 116.085 182.603 115.843 182.399C115.148 181.885 114.496 181.316 113.892 180.699C113.467 180.261 113.087 179.782 112.756 179.269C112.374 178.673 112.129 177.999 112.041 177.297C111.924 176.513 112.051 175.712 112.406 175.003C112.601 174.628 112.876 174.301 113.213 174.045C113.547 173.797 113.898 173.572 114.264 173.374C114.61 173.178 114.93 172.938 115.214 172.659C115.472 172.395 115.661 172.071 115.764 171.716C115.928 171.013 115.952 170.284 115.836 169.572C115.72 168.892 115.669 168.203 115.686 167.514C115.684 166.881 115.922 166.271 116.35 165.806C117.015 165.211 117.867 164.87 118.758 164.841C118.922 164.821 119.087 164.841 119.242 164.898C119.396 164.955 119.534 165.048 119.645 165.17C119.374 165.03 119.07 164.965 118.766 164.984C117.932 165.065 117.148 165.419 116.536 165.992C116.168 166.42 115.975 166.971 115.993 167.535C115.996 168.204 116.056 168.871 116.172 169.529C116.313 170.294 116.293 171.08 116.114 171.837C115.998 172.252 115.78 172.63 115.478 172.938C115.172 173.235 114.826 173.487 114.449 173.688C113.733 174.008 113.133 174.539 112.727 175.21C112.405 175.855 112.283 176.582 112.377 177.297C112.577 178.528 113.174 179.66 114.078 180.52C115.586 182.092 116.679 182.857 116.636 182.914Z" fill="#FAFAFA"/>
<path d="M101.694 197.092C101.802 197.074 101.914 197.074 102.022 197.092C102.342 197.092 102.662 197.111 102.98 197.15C104.162 197.258 105.312 197.592 106.367 198.136C107.162 198.54 107.86 199.111 108.412 199.81C108.965 200.51 109.36 201.321 109.569 202.188C109.816 203.238 109.657 204.343 109.126 205.282C108.84 205.784 108.454 206.221 107.992 206.567C107.53 206.912 107.001 207.159 106.439 207.29C105.86 207.393 105.266 207.361 104.702 207.197C104.22 207.037 103.698 207.037 103.216 207.197C102.759 207.389 102.36 207.697 102.058 208.09C101.769 208.47 101.513 208.874 101.293 209.298C100.903 210.185 100.252 210.932 99.4283 211.442C98.6733 211.832 97.8028 211.936 96.9771 211.735C96.298 211.568 95.6958 211.174 95.2692 210.62C94.9477 210.214 94.7229 209.74 94.6117 209.234C94.5419 208.917 94.525 208.591 94.5617 208.269C94.5685 208.156 94.5926 208.046 94.6332 207.94C94.6218 208.363 94.6626 208.785 94.7547 209.198C94.8827 209.674 95.1145 210.116 95.4335 210.491C95.8387 210.973 96.3913 211.307 97.0057 211.442C97.7687 211.61 98.5668 211.501 99.2567 211.135C100.014 210.644 100.608 209.94 100.965 209.112C101.387 208.118 102.146 207.303 103.109 206.811C103.661 206.629 104.257 206.629 104.809 206.811C105.321 206.966 105.862 206.998 106.389 206.904C106.899 206.782 107.38 206.557 107.8 206.242C108.22 205.928 108.572 205.53 108.833 205.075C109.326 204.208 109.477 203.188 109.254 202.216C109.061 201.392 108.693 200.618 108.177 199.946C107.661 199.274 107.007 198.721 106.26 198.322C105.241 197.773 104.133 197.41 102.987 197.25C102.151 197.15 101.686 197.15 101.694 197.092Z" fill="#FAFAFA"/>
<path d="M88.3089 220.731C88.1709 220.207 87.9463 219.71 87.6443 219.259C87.2918 218.798 86.8334 218.428 86.3079 218.18C85.6798 217.861 84.956 217.786 84.2755 217.968C83.595 218.15 83.0056 218.577 82.6205 219.166C82.2915 219.631 82.0784 220.168 81.9988 220.731C81.9604 221.272 82.0136 221.816 82.156 222.339C82.156 222.339 82.0345 222.218 81.9202 221.946C81.7679 221.55 81.7045 221.126 81.7344 220.703C81.7773 220.071 81.9815 219.461 82.3275 218.931C82.7397 218.25 83.3991 217.756 84.1677 217.55C84.9363 217.345 85.7545 217.446 86.4509 217.83C87.0277 218.109 87.5207 218.536 87.8801 219.066C88.1167 219.416 88.2729 219.814 88.3375 220.231C88.3517 220.531 88.3303 220.731 88.3089 220.731Z" fill="#FAFAFA"/>
<path d="M90.574 231.093C90.574 231.093 90.5096 230.758 90.2524 230.214C89.8941 229.453 89.29 228.833 88.5373 228.457C87.983 228.199 87.372 228.089 86.7627 228.135C86.1534 228.181 85.5662 228.383 85.0571 228.721C84.4767 229.163 83.9908 229.717 83.6279 230.35C83.3945 230.691 83.1209 231.003 82.8132 231.279C82.4636 231.576 82.021 231.74 81.5626 231.744C81.1353 231.688 80.7241 231.545 80.355 231.322C79.986 231.099 79.6672 230.802 79.4188 230.45C78.9979 229.849 78.4869 229.317 77.9038 228.871C77.3479 228.538 76.6902 228.419 76.0529 228.535C75.4886 228.63 74.9534 228.853 74.4879 229.185C73.8201 229.702 73.2614 230.345 72.8443 231.079C72.6997 231.36 72.5349 231.63 72.3512 231.887C72.4298 231.58 72.5525 231.286 72.7156 231.015C73.0986 230.226 73.6499 229.531 74.3307 228.978C74.8224 228.609 75.3961 228.364 76.0029 228.264C76.717 228.118 77.4598 228.24 78.0896 228.607C78.7086 229.064 79.2513 229.616 79.6975 230.243C79.9146 230.553 80.1926 230.816 80.5145 231.015C80.8364 231.214 81.1954 231.345 81.5698 231.401C82.3344 231.401 82.8918 230.779 83.3277 230.164C83.7279 229.501 84.2548 228.923 84.8785 228.464C85.3388 228.152 85.8634 227.948 86.4133 227.867C86.9632 227.786 87.5243 227.83 88.0549 227.995C88.5856 228.161 89.0721 228.444 89.4785 228.823C89.8849 229.202 90.2007 229.668 90.4024 230.186C90.4918 230.416 90.5518 230.656 90.5811 230.901C90.6168 231.008 90.6168 231.093 90.574 231.093Z" fill="#FAFAFA"/>
<path d="M96.0838 205.168C95.4429 204.772 94.7503 204.466 94.0257 204.26C93.2404 204.068 92.426 204.024 91.6246 204.131C90.6441 204.247 89.7094 204.611 88.9091 205.189C88.1215 205.778 87.525 206.586 87.194 207.512C86.9235 208.271 86.8354 209.084 86.9367 209.884C87.0706 210.622 87.3266 211.332 87.6942 211.985C87.6942 211.985 87.5156 211.842 87.294 211.506C86.9839 211.024 86.7726 210.484 86.6723 209.92C86.5198 208.981 86.627 208.019 86.9822 207.138C87.3375 206.256 87.9272 205.488 88.6875 204.917C89.5275 204.308 90.5135 203.931 91.546 203.824C92.3903 203.723 93.2465 203.796 94.0615 204.038C94.6087 204.186 95.1261 204.428 95.5907 204.753C95.9481 205.01 96.0981 205.153 96.0838 205.168Z" fill="#FAFAFA"/>
</svg>
