<svg width="216" height="258" viewBox="0 0 216 258" fill="none" xmlns="http://www.w3.org/2000/svg">
<path d="M111.637 40.1327L212.985 39.1895L215.95 108.086L111.001 107.335L111.637 40.1327Z" fill="#E7AF22"/>
<path d="M111.63 40.1472L159.509 1.23621C160.493 0.436548 161.722 0 162.99 0C164.257 0 165.486 0.436548 166.47 1.23621L212.977 39.1967" fill="#E7AF22"/>
<g opacity="0.3">
<path opacity="0.3" d="M111.63 40.1472L159.509 1.23621C160.493 0.436548 161.722 0 162.99 0C164.257 0 165.486 0.436548 166.47 1.23621L212.977 39.1967" fill="black"/>
</g>
<path d="M111.001 107.321C110.88 107.2 118.969 98.324 129.081 87.4975C139.193 76.671 147.497 68.017 147.626 68.1171C147.754 68.2171 139.658 77.107 129.539 87.9406C119.42 98.7742 111.13 107.45 111.001 107.321Z" fill="#263238"/>
<path d="M215.95 108.086C215.821 108.207 207.904 99.5104 198.263 88.7411C188.623 77.9718 180.912 69.0891 181.041 68.9747C181.17 68.8604 189.088 77.5502 198.735 88.3266C208.382 99.1031 216.079 107.971 215.95 108.086Z" fill="#263238"/>
<g opacity="0.5">
<path opacity="0.5" d="M212.985 39.1895L162.175 79.9513L111.637 40.1327" fill="black"/>
</g>
<path d="M116.747 43.8914L116.518 12.2338L205.266 10.9976L206.338 44.3059L162.168 79.4151L116.747 43.8914Z" fill="#FAFAFA"/>
<path d="M116.747 43.8916C116.747 43.8916 117.04 44.0988 117.59 44.5205L120.005 46.3856L129.195 53.5318C137.113 59.7133 148.49 68.5388 162.261 79.3152H162.075L206.217 44.1775L206.153 44.3275C205.945 37.9746 205.731 31.3072 205.517 24.5254C205.367 19.959 205.224 15.4427 205.081 11.0192L205.266 11.1978L116.525 12.3698L116.64 12.2483C116.682 22.2029 116.725 30.1138 116.747 35.5306C116.747 38.239 116.747 40.3256 116.747 41.7477C116.747 42.4624 116.747 42.984 116.747 43.3556C116.747 43.7272 116.747 43.9059 116.747 43.9059C116.747 43.9059 116.747 43.7272 116.747 43.3699C116.747 43.0126 116.747 42.4695 116.747 41.7763C116.747 40.3471 116.704 38.2747 116.675 35.5734C116.625 30.1352 116.547 22.2244 116.454 12.2483V12.134H116.568L205.259 10.8477H205.445V11.0335C205.588 15.4569 205.731 19.9662 205.881 24.5326C206.095 31.3143 206.31 37.9817 206.51 44.3347V44.4276L206.438 44.4847L162.246 79.5725L162.154 79.6511L162.061 79.5725L129.031 53.6533L119.912 46.4642L117.533 44.5776L116.747 43.8916Z" fill="#263238"/>
<path d="M191.274 26.9694C191.274 27.0694 177.696 27.2624 160.96 27.3982C144.224 27.5339 130.646 27.5625 130.646 27.4625C130.646 27.3624 144.224 27.1695 160.96 27.0265C177.696 26.8836 191.274 26.8622 191.274 26.9694Z" fill="#263238"/>
<path d="M191.289 35.9093C191.289 36.0093 177.711 36.2094 160.982 36.3452C144.252 36.481 130.668 36.5096 130.668 36.4024C130.668 36.2952 144.245 36.1094 160.982 35.9736C177.718 35.8378 191.289 35.8093 191.289 35.9093Z" fill="#263238"/>
<path d="M191.31 46.214C191.31 46.3212 177.732 46.5141 161.003 46.6499C144.274 46.7857 130.689 46.8143 130.689 46.7071C130.689 46.5999 144.267 46.4141 161.003 46.2783C177.739 46.1425 191.31 46.1139 191.31 46.214Z" fill="#263238"/>
<path d="M191.332 56.5189C191.332 56.6261 178.39 56.8119 162.418 56.9405C146.446 57.0691 133.498 57.0977 133.498 56.9905C133.498 56.8833 146.439 56.6975 162.418 56.5689C178.397 56.4403 191.332 56.4188 191.332 56.5189Z" fill="#263238"/>
<path d="M180.012 65.5875C179.896 65.62 179.775 65.6345 179.655 65.6304L178.633 65.6733L174.888 65.7662L162.518 65.9948C157.687 66.0806 153.307 66.1092 150.141 66.1092H146.396H145.375C145.254 66.1123 145.134 66.1003 145.017 66.0734C145.133 66.0409 145.254 66.0265 145.375 66.0306L146.389 65.9877L150.141 65.8948L162.511 65.6733C167.342 65.5804 171.715 65.5518 174.881 65.5518H178.633H179.655C179.775 65.5519 179.894 65.5639 180.012 65.5875Z" fill="#263238"/>
<path d="M168.578 74.3059C166.44 74.4984 164.292 74.5652 162.146 74.506C160.001 74.5737 157.853 74.5164 155.715 74.3345C157.853 74.1462 160 74.0794 162.146 74.1344C164.292 74.071 166.439 74.1282 168.578 74.3059Z" fill="#263238"/>
<path d="M131.575 135.092C131.633 134.692 131.538 134.284 131.311 133.95C131.084 133.615 130.74 133.378 130.346 133.284L128.753 133.391L123.036 131.412C122.791 131.347 122.535 131.337 122.286 131.383C122.037 131.429 121.801 131.53 121.596 131.679C121.391 131.827 121.221 132.019 121.099 132.241C120.977 132.463 120.907 132.71 120.892 132.963C120.892 134.599 120.177 139.058 118.884 137.658L118.784 137.565C116.904 135.471 114.732 134.456 113.896 134.578C113.717 134.613 113.551 134.698 113.419 134.824C113.287 134.95 113.194 135.111 113.151 135.289C113.107 135.466 113.115 135.652 113.174 135.825C113.232 135.997 113.339 136.15 113.481 136.264C113.578 136.366 113.695 136.446 113.824 136.5C113.881 136.5 113.953 136.571 114.01 136.6C114.801 137.175 115.531 137.828 116.19 138.551C116.785 139.179 117.268 139.904 117.619 140.695C117.998 141.581 118.298 142.353 118.534 143.017L118.619 148.255L116.347 172.745C116.347 172.745 101.268 156.909 101.619 156.759L102.498 181.428L111.63 188.981C113.322 190.387 115.381 191.278 117.564 191.548C119.746 191.817 121.961 191.454 123.943 190.502C125.925 189.55 127.593 188.049 128.747 186.177C129.901 184.305 130.493 182.14 130.453 179.942L129.932 148.277L130.303 144.125L131.575 135.092Z" fill="#FFBE9D"/>
<path d="M46.9218 169.908L30.407 207.669L17.3724 234.91L7.675 238.169C7.675 238.169 0 240.398 0 241.985C0 243.571 2.02237 243.214 2.02237 243.214C2.39397 245.586 5.68121 244.243 7.98228 243.214C10.2834 242.185 15.4 241.899 15.4 241.899C15.1326 242.081 14.9113 242.323 14.754 242.606C14.5966 242.889 14.5074 243.205 14.4936 243.528C14.4797 243.851 14.5415 244.174 14.674 244.469C14.8066 244.764 15.0062 245.024 15.2571 245.229C16.0718 245.801 17.4867 245.107 18.4443 244.086C19.4019 243.064 21.8745 242.592 24.6257 241.606C27.377 240.62 27.8272 236.932 27.8272 236.932L60.8497 181.285L46.9218 169.908Z" fill="#FFBE9D"/>
<path d="M101.69 183.622L105.842 189.103L114.839 169.143C114.839 169.143 106.106 158.488 102.912 154.022C99.7178 149.556 97.3738 148.82 97.3738 148.82C97.3738 148.82 91.5711 147.126 88.6769 147.126L74.3417 147.984L59.7849 154.336C56.2097 155.897 53.1638 158.462 51.0166 161.718L37.3102 183.736L56.7192 192.033L63.2294 229.307C64.4728 234.888 65.5662 240.155 70.7186 242.728L106.714 208.133L102.498 201.487L101.69 183.622Z" fill="#E7AF22"/>
<path d="M67.2742 176.797C67.36 176.854 65.1304 180.299 62.3219 184.501C59.5135 188.703 57.1409 192.047 57.0623 191.99C56.9837 191.933 59.2062 188.488 62.0146 184.286C64.8231 180.084 67.1885 176.74 67.2742 176.797Z" fill="#263238"/>
<path d="M97.4525 212.156C97.1497 212.373 96.8294 212.564 96.4949 212.727C95.8732 213.07 94.9585 213.556 93.8222 214.157C91.5426 215.336 88.384 216.915 84.8466 218.58C81.3092 220.245 78.0792 221.682 75.7209 222.682C74.5418 223.182 73.5771 223.582 72.9196 223.847C72.5799 223.999 72.2286 224.123 71.8691 224.219C72.1846 224.02 72.517 223.851 72.8625 223.711L75.6137 222.446C77.9434 221.381 81.1592 219.909 84.6894 218.244C88.2196 216.579 91.3997 215.036 93.7007 213.957L96.4306 212.642C96.7566 212.451 97.0985 212.288 97.4525 212.156Z" fill="#263238"/>
<path d="M66.138 168.736C65.6745 168.239 65.2516 167.706 64.8731 167.142C63.9267 165.829 62.857 164.608 61.6787 163.498C60.4932 162.405 59.0872 161.579 57.5554 161.075C56.3763 160.703 55.5902 160.718 55.5902 160.646C55.7691 160.596 55.956 160.582 56.1405 160.603C56.6421 160.622 57.1404 160.694 57.6269 160.818C59.2257 161.268 60.6951 162.091 61.9146 163.219C63.1148 164.346 64.1753 165.612 65.0732 166.992C65.4854 167.536 65.8421 168.12 66.138 168.736Z" fill="#263238"/>
<path d="M95.7376 186.866C95.7557 186.999 95.7557 187.133 95.7376 187.266C95.7376 187.523 95.7376 187.902 95.7376 188.395C95.6536 189.783 95.4601 191.161 95.1587 192.518C94.1979 197.031 92.1933 201.257 89.3056 204.855C86.4178 208.454 82.7272 211.327 78.5296 213.242C77.2674 213.818 75.963 214.295 74.6278 214.672C74.1561 214.814 73.7774 214.893 73.5272 214.95C73.4021 214.99 73.2725 215.014 73.1414 215.022C73.1414 215.022 73.6559 214.843 74.5706 214.536C75.8796 214.1 77.1591 213.579 78.4009 212.978C82.5235 211.018 86.1489 208.15 89.0053 204.589C91.8617 201.029 93.875 196.868 94.8943 192.418C95.2175 191.074 95.4562 189.712 95.609 188.338C95.6733 187.409 95.709 186.866 95.7376 186.866Z" fill="#263238"/>
<g opacity="0.3">
<path opacity="0.3" d="M59.2349 206.439C59.1706 206.082 63.8513 181.885 63.8513 181.885L56.7909 192.483" fill="black"/>
</g>
<path d="M100.768 160.396C100.801 160.532 100.818 160.671 100.818 160.81C100.818 161.125 100.861 161.525 100.897 162.011C100.947 163.097 101.026 164.584 101.118 166.406C101.297 170.165 101.547 175.274 101.833 180.913C102.119 186.551 102.319 191.718 102.426 195.434C102.483 197.292 102.519 198.8 102.533 199.836V201.036C102.552 201.174 102.552 201.313 102.533 201.451C102.5 201.315 102.483 201.176 102.483 201.036C102.483 200.722 102.44 200.322 102.405 199.843C102.355 198.757 102.276 197.263 102.183 195.448C102.005 191.689 101.754 186.58 101.469 180.934C101.183 175.289 100.99 170.136 100.875 166.413C100.818 164.555 100.783 163.054 100.768 162.011V160.818C100.75 160.678 100.75 160.536 100.768 160.396Z" fill="#263238"/>
<g opacity="0.2">
<path opacity="0.2" d="M72.0407 224.154C70.8831 223.197 71.1475 221.239 72.1694 220.138C73.1913 219.038 74.7134 218.588 76.1427 218.102C82.9815 215.886 89.8562 212.756 94.3654 207.154C94.9407 206.352 95.6209 205.631 96.3878 205.01C96.7789 204.701 97.2456 204.502 97.7394 204.434C98.2333 204.366 98.7362 204.432 99.1962 204.624C100.575 205.338 100.625 207.339 100.047 208.79C99.3267 210.57 97.9898 212.031 96.2806 212.906" fill="black"/>
</g>
<g opacity="0.2">
<path opacity="0.2" d="M100.918 164.691L104.913 187.874L101.805 183.765L100.918 164.691Z" fill="black"/>
</g>
<path d="M138.922 225.584L132.169 248.752L160.947 257.327C161.597 254.526 148.348 244.586 148.348 244.586L153.322 229.893L138.922 225.584Z" fill="#E7AF22"/>
<g opacity="0.6">
<path opacity="0.6" d="M139.822 240.669C139.52 240.669 139.229 240.781 139.005 240.983C138.781 241.185 138.639 241.463 138.607 241.763C138.599 242.064 138.706 242.358 138.906 242.584C139.107 242.81 139.386 242.95 139.686 242.978C140.007 242.974 140.314 242.852 140.55 242.636C140.786 242.42 140.934 242.124 140.966 241.806C140.944 241.489 140.799 241.193 140.563 240.981C140.327 240.769 140.018 240.657 139.701 240.669" fill="white"/>
</g>
<g opacity="0.6">
<path opacity="0.6" d="M132.169 248.752L132.941 246.444L160.246 255.505C160.246 255.505 161.361 256.441 160.961 257.299L132.169 248.752Z" fill="white"/>
</g>
<path d="M148.855 244.55C148.812 244.686 148.09 244.55 147.261 244.793C146.432 245.036 145.896 245.507 145.782 245.422C145.668 245.336 146.118 244.578 147.126 244.3C148.133 244.021 148.926 244.428 148.855 244.55Z" fill="#263238"/>
<path d="M151.506 246.694C151.506 246.844 150.791 246.901 150.163 247.351C149.534 247.801 149.184 248.394 149.048 248.344C148.912 248.294 149.048 247.473 149.877 246.915C150.706 246.358 151.542 246.558 151.506 246.694Z" fill="#263238"/>
<path d="M152.149 250.817C152.006 250.817 152.021 250.045 152.614 249.388C153.207 248.73 153.95 248.616 153.971 248.745C153.993 248.873 153.471 249.174 152.992 249.724C152.514 250.274 152.292 250.846 152.149 250.817Z" fill="#263238"/>
<path d="M149.613 241.084C149.513 241.191 148.898 240.805 148.119 240.627C147.34 240.448 146.611 240.512 146.575 240.369C146.54 240.226 147.29 239.905 148.233 240.126C149.177 240.348 149.748 240.991 149.613 241.084Z" fill="#263238"/>
<path d="M149.941 237.468C149.435 237.452 148.941 237.302 148.512 237.032C148.018 236.787 147.557 236.479 147.14 236.118C146.885 235.897 146.646 235.658 146.425 235.403C146.291 235.267 146.18 235.11 146.097 234.938C146.034 234.811 146.015 234.665 146.043 234.526C146.072 234.386 146.146 234.26 146.254 234.167C146.354 234.09 146.471 234.037 146.595 234.014C146.719 233.99 146.847 233.996 146.968 234.031C147.152 234.085 147.328 234.164 147.49 234.267C147.773 234.434 148.041 234.625 148.29 234.838C148.713 235.203 149.075 235.632 149.362 236.11C149.674 236.523 149.849 237.023 149.863 237.54C149.784 237.54 149.591 237.025 149.062 236.318C148.757 235.902 148.396 235.529 147.99 235.21C147.755 235.022 147.504 234.855 147.24 234.71C146.961 234.538 146.704 234.46 146.583 234.574C146.461 234.688 146.532 234.631 146.583 234.738C146.645 234.865 146.727 234.981 146.825 235.081C147.025 235.315 147.237 235.537 147.461 235.746C147.843 236.098 148.254 236.416 148.691 236.696C149.434 237.168 149.97 237.39 149.941 237.468Z" fill="#263238"/>
<path d="M149.698 237.611C149.547 237.12 149.559 236.594 149.734 236.11C149.863 235.568 150.088 235.052 150.398 234.588C150.579 234.311 150.79 234.054 151.027 233.824C151.161 233.655 151.336 233.525 151.535 233.444C151.734 233.364 151.951 233.337 152.164 233.366C152.289 233.409 152.401 233.486 152.485 233.588C152.57 233.69 152.624 233.814 152.642 233.945C152.668 234.135 152.668 234.327 152.642 234.517C152.597 234.853 152.5 235.181 152.357 235.489C152.113 236.003 151.75 236.451 151.299 236.797C150.513 237.375 149.87 237.368 149.87 237.318C149.87 237.268 150.413 237.111 151.056 236.518C151.428 236.181 151.721 235.766 151.913 235.303C152.029 235.034 152.104 234.75 152.135 234.46C152.185 234.138 152.135 233.859 152.021 233.859C151.906 233.859 151.563 233.974 151.37 234.181C151.158 234.389 150.962 234.614 150.784 234.853C150.483 235.269 150.242 235.726 150.07 236.211C149.791 237.039 149.784 237.611 149.698 237.611Z" fill="#263238"/>
<path d="M168.471 191.089C169.186 196.434 167.371 202.459 165.434 207.525L152.814 237.168L138.843 235.024C138.843 235.024 135.935 238.268 132.212 239.512C130.547 240.062 125.066 241.141 120.556 237.897C120.556 237.897 114.175 246.786 104.12 249.473C94.0654 252.16 78.8797 253.647 71.5192 241.898L106.535 208.14C107.25 208.311 136.714 188.445 152.628 183.921C152.657 183.921 167.128 181.263 168.471 191.089Z" fill="#263238"/>
<path d="M137.807 234.909C137.807 234.909 137.864 234.866 137.993 234.795L138.564 234.495C139.072 234.223 139.815 233.845 140.758 233.323C141.91 232.699 143.027 232.012 144.103 231.265C145.528 230.287 146.802 229.105 147.883 227.756C149.176 226.108 150.02 224.153 150.334 222.082C150.691 219.703 150.589 217.277 150.034 214.936C149.561 212.322 148.2 209.952 146.182 208.225C143.891 206.546 141.159 205.572 138.321 205.424C136.882 205.307 135.435 205.319 133.998 205.46C132.6 205.608 131.213 205.847 129.846 206.175C127.267 206.839 124.746 207.712 122.307 208.783C117.64 210.827 113.589 213.028 110.03 214.55C107.245 215.816 104.335 216.786 101.347 217.444C100.818 217.566 100.34 217.644 99.9179 217.701C99.4963 217.758 99.1604 217.823 98.8746 217.844L98.2314 217.909H98.0099L98.2314 217.859L98.8674 217.766C99.1461 217.723 99.4963 217.673 99.9036 217.587C100.311 217.501 100.783 217.43 101.333 217.301C104.284 216.587 107.156 215.581 109.908 214.3C113.438 212.756 117.476 210.534 122.157 208.461C124.61 207.375 127.149 206.491 129.746 205.817C131.128 205.489 132.529 205.251 133.941 205.103C135.402 204.962 136.873 204.95 138.336 205.067C141.258 205.215 144.072 206.222 146.425 207.961C147.508 208.833 148.401 209.918 149.048 211.148C149.662 212.325 150.112 213.58 150.384 214.879C150.934 217.262 151.026 219.728 150.656 222.146C150.315 224.26 149.436 226.251 148.105 227.927C146.998 229.288 145.692 230.473 144.231 231.443C143.141 232.178 142.01 232.851 140.844 233.459C139.887 233.959 139.129 234.323 138.614 234.566L138.021 234.838C137.953 234.871 137.881 234.895 137.807 234.909Z" fill="#455A64"/>
<path d="M146.568 195.97C145.701 197.628 144.722 199.226 143.638 200.751C142.659 202.344 141.578 203.872 140.401 205.325C141.271 203.668 142.25 202.071 143.331 200.544C144.31 198.951 145.391 197.423 146.568 195.97Z" fill="#455A64"/>
<path d="M136.492 232.552C135.659 232.816 134.812 233.035 133.955 233.209C132.39 233.595 130.239 234.188 127.909 235.003C125.58 235.818 123.529 236.697 122.064 237.368C120.599 238.04 119.699 238.49 119.67 238.44C119.848 238.285 120.045 238.153 120.256 238.047C120.649 237.811 121.228 237.497 121.95 237.132C125.734 235.226 129.75 233.82 133.898 232.952C134.691 232.788 135.327 232.673 135.792 232.616C136.022 232.566 136.257 232.544 136.492 232.552Z" fill="#455A64"/>
<path d="M152.564 235.224C152.5 235.224 152.335 234.595 151.742 233.723C150.987 232.576 149.864 231.719 148.557 231.295C147.251 230.87 145.839 230.903 144.553 231.387C143.56 231.744 143.038 232.18 142.995 232.101C142.952 232.023 143.095 231.958 143.338 231.765C143.681 231.504 144.055 231.288 144.453 231.122C145.79 230.544 147.294 230.476 148.678 230.931C150.062 231.387 151.231 232.335 151.964 233.595C152.188 233.963 152.364 234.36 152.485 234.774C152.607 235.024 152.607 235.224 152.564 235.224Z" fill="#455A64"/>
<path d="M92.1216 224.155C92.2231 224.363 92.2861 224.588 92.3074 224.819C92.4143 225.44 92.4669 226.069 92.4646 226.699C92.4669 228.802 91.8989 230.867 90.821 232.673C89.7232 234.484 88.031 235.858 86.0331 236.561C85.4332 236.765 84.8079 236.885 84.1751 236.918C83.939 236.963 83.6965 236.963 83.4604 236.918C84.2985 236.806 85.124 236.614 85.9259 236.346C87.8258 235.602 89.428 234.254 90.4851 232.509C91.5247 230.756 92.1093 228.771 92.1859 226.735C92.2717 225.127 92.0573 224.162 92.1216 224.155Z" fill="#455A64"/>
<path d="M76.3644 240.184C76.2858 240.248 75.9142 239.926 75.564 239.469C75.2138 239.012 75.0281 238.519 75.121 238.469C75.2139 238.419 75.5283 238.776 75.8713 239.247C76.2143 239.719 76.443 240.119 76.3644 240.184Z" fill="#455A64"/>
<path d="M79.3012 243.292C79.2368 243.371 78.8367 243.092 78.4079 242.677C77.9791 242.263 77.6933 241.87 77.7647 241.806C77.8362 241.741 78.2435 242.006 78.6651 242.413C79.0868 242.82 79.3726 243.213 79.3012 243.292Z" fill="#455A64"/>
<path d="M82.7744 245.8C82.7244 245.886 82.2741 245.7 81.7739 245.372C81.2737 245.043 80.9164 244.714 80.9735 244.657C81.0307 244.6 81.4881 244.771 81.974 245.086C82.4599 245.4 82.8244 245.743 82.7744 245.8Z" fill="#455A64"/>
<path d="M86.7046 247.487C86.7046 247.587 86.1972 247.487 85.6327 247.301C85.0681 247.115 84.6465 246.858 84.6894 246.758C84.7323 246.658 85.2111 246.758 85.7542 246.951C86.2973 247.144 86.7332 247.387 86.7046 247.487Z" fill="#455A64"/>
<path d="M90.9279 248.151C90.9279 248.252 90.442 248.294 89.8417 248.237C89.2414 248.18 88.7769 248.059 88.7912 247.959C88.8055 247.858 89.2986 247.816 89.8774 247.873C90.4563 247.93 90.9279 248.051 90.9279 248.151Z" fill="#455A64"/>
<path d="M95.2014 247.923C95.2014 248.023 94.7369 248.137 94.1438 248.18C93.8774 248.202 93.6097 248.202 93.3434 248.18C93.1647 248.18 93.0576 248.137 93.0504 248.087C93.0433 248.037 93.1433 247.987 93.3148 247.937C93.573 247.876 93.836 247.838 94.1009 247.823C94.7226 247.766 95.1871 247.816 95.2014 247.923Z" fill="#455A64"/>
<path d="M99.4106 247.172C99.4106 247.272 98.989 247.451 98.403 247.58C97.817 247.708 97.3382 247.723 97.3239 247.623C97.3097 247.523 97.7527 247.337 98.3316 247.215C98.9104 247.094 99.3892 247.058 99.4106 247.172Z" fill="#455A64"/>
<path d="M103.513 245.908C103.513 246.008 103.119 246.236 102.555 246.429C101.99 246.622 101.504 246.687 101.476 246.594C101.447 246.501 101.876 246.265 102.433 246.072C102.991 245.879 103.477 245.815 103.513 245.908Z" fill="#455A64"/>
<path d="M107.45 244.235C107.5 244.328 107.093 244.607 106.557 244.85C106.021 245.093 105.542 245.222 105.499 245.129C105.456 245.036 105.864 244.757 106.399 244.514C106.935 244.271 107.407 244.142 107.45 244.235Z" fill="#455A64"/>
<path d="M111.209 242.17C111.259 242.256 110.887 242.57 110.373 242.885C109.858 243.199 109.401 243.349 109.358 243.263C109.315 243.178 109.68 242.856 110.187 242.549C110.694 242.242 111.159 242.091 111.209 242.17Z" fill="#455A64"/>
<path d="M114.732 239.762C114.796 239.847 114.453 240.191 113.967 240.541C113.481 240.891 113.045 241.098 112.988 241.012C112.931 240.927 113.274 240.576 113.753 240.233C114.232 239.89 114.682 239.683 114.732 239.762Z" fill="#455A64"/>
<path d="M118.048 237.032C118.119 237.11 117.805 237.489 117.333 237.875C116.862 238.261 116.461 238.518 116.397 238.44C116.333 238.361 116.64 237.982 117.112 237.596C117.583 237.21 117.976 236.96 118.048 237.032Z" fill="#455A64"/>
<path d="M121.163 234.088C121.235 234.166 120.942 234.559 120.513 234.959C120.084 235.36 119.67 235.631 119.606 235.56C119.541 235.488 119.82 235.102 120.256 234.688C120.692 234.273 121.099 234.016 121.163 234.088Z" fill="#455A64"/>
<path d="M124.551 231.451C124.608 231.537 124.272 231.887 123.793 232.23C123.315 232.573 122.879 232.788 122.814 232.709C122.75 232.63 123.093 232.28 123.572 231.93C124.051 231.58 124.494 231.373 124.551 231.451Z" fill="#455A64"/>
<path d="M128.31 229.385C128.353 229.478 127.952 229.764 127.431 230.029C126.909 230.293 126.437 230.429 126.387 230.336C126.337 230.243 126.73 229.957 127.266 229.693C127.802 229.428 128.267 229.307 128.31 229.385Z" fill="#455A64"/>
<path d="M132.398 228.113C132.398 228.213 131.969 228.414 131.404 228.549C130.84 228.685 130.347 228.728 130.318 228.635C130.289 228.542 130.732 228.335 131.311 228.192C131.89 228.049 132.383 228.013 132.398 228.113Z" fill="#455A64"/>
<path d="M136.671 227.878C136.671 227.985 136.178 228.021 135.592 228.007C135.006 227.992 134.534 227.942 134.527 227.842C134.52 227.742 134.999 227.628 135.599 227.635C136.199 227.642 136.678 227.792 136.671 227.878Z" fill="#455A64"/>
<path d="M140.802 228.978C140.752 229.071 140.294 228.935 139.751 228.742C139.208 228.549 138.758 228.356 138.779 228.256C138.801 228.156 139.301 228.185 139.873 228.392C140.444 228.599 140.844 228.885 140.802 228.978Z" fill="#455A64"/>
<path d="M139.894 232.087C139.829 232.001 140.151 231.651 140.53 231.222C140.908 230.793 141.244 230.436 141.309 230.507C141.373 230.579 141.223 231.029 140.808 231.486C140.394 231.944 139.958 232.165 139.894 232.087Z" fill="#455A64"/>
<path d="M136.114 234.052C136.114 233.952 136.492 233.694 137.028 233.473C137.564 233.251 138.043 233.144 138.093 233.237C138.143 233.33 137.729 233.587 137.171 233.816C136.614 234.045 136.171 234.152 136.114 234.052Z" fill="#455A64"/>
<path d="M132.026 235.367C132.026 235.267 132.419 235.038 132.983 234.845C133.548 234.652 134.027 234.581 134.062 234.681C134.098 234.781 133.662 235.01 133.105 235.195C132.547 235.381 132.061 235.46 132.026 235.367Z" fill="#455A64"/>
<path d="M128.024 236.889C127.981 236.796 128.395 236.546 128.953 236.325C129.51 236.103 129.982 236.01 130.018 236.103C130.053 236.196 129.639 236.453 129.089 236.675C128.538 236.896 128.06 236.989 128.024 236.889Z" fill="#455A64"/>
<path d="M124.072 238.598C124.029 238.505 124.437 238.233 124.98 238.004C125.523 237.776 126.002 237.654 126.037 237.747C126.073 237.84 125.673 238.112 125.13 238.34C124.587 238.569 124.108 238.655 124.072 238.598Z" fill="#455A64"/>
<path d="M116.083 116.019C116.083 116.019 120.756 114.589 126.966 107.693C133.176 100.797 135.677 91.9718 136.499 91.9718C137.321 91.9718 140.787 90.0281 148.648 104.306C156.509 118.584 154.122 122.222 152.771 122.293C151.421 122.365 142.052 120.492 136.335 121.578C130.618 122.665 123.472 126.195 123.472 126.195L116.083 116.019Z" fill="#455A64"/>
<path d="M106.585 124.83L108.436 127.796L109.265 129.118C109.813 129.995 110.677 130.629 111.678 130.888C112.679 131.147 113.742 131.012 114.646 130.511L124.565 126.223L117.626 113.125L107.85 119.256C107.401 119.538 107.011 119.907 106.705 120.34C106.398 120.773 106.179 121.263 106.062 121.781C105.944 122.298 105.93 122.834 106.02 123.357C106.11 123.881 106.302 124.381 106.585 124.83Z" fill="#263238"/>
<path d="M112.824 129.332L116.547 135.449L118.134 134.877L129.375 142.738L131.883 136.692C131.883 136.692 125.451 134.456 124.094 132.312C122.736 130.168 124.094 129.56 124.094 129.56L120.899 126.402L112.824 129.332Z" fill="#263238"/>
<path d="M148.14 104.621C152.35 112.36 154.386 119.385 152.685 120.342C150.985 121.3 146.197 115.747 141.966 108.008C137.736 100.269 135.72 93.2438 137.421 92.2862C139.122 91.3287 143.924 96.8741 148.14 104.621Z" fill="#263238"/>
<path d="M106.049 129.346L108.744 128.274L106.793 125.151L104.82 126.595L106.049 129.346Z" fill="#455A64"/>
<path d="M121.992 127.496L114.925 132.784L113.867 131.04L121.992 127.496Z" fill="#455A64"/>
<path d="M106.792 125.151L108.743 128.274L108.186 128.496L106.557 125.33L106.792 125.151Z" fill="#455A64"/>
<path d="M108.751 125.766C109.795 125.398 110.796 124.919 111.738 124.337C112.736 123.861 113.68 123.278 114.553 122.6C113.51 122.969 112.509 123.448 111.566 124.029C110.568 124.505 109.624 125.088 108.751 125.766Z" fill="#455A64"/>
<path d="M107.757 123.894C108.706 123.54 109.61 123.077 110.452 122.515C111.353 122.048 112.199 121.483 112.974 120.828C111.12 121.64 109.369 122.669 107.757 123.894Z" fill="#455A64"/>
<path d="M109.973 127.717C110.27 127.685 110.558 127.598 110.823 127.459L111.716 127.088C112.045 126.938 112.388 126.738 112.753 126.538C113.659 126.093 114.504 125.533 115.268 124.873C114.328 125.229 113.428 125.682 112.581 126.223C112.217 126.423 111.867 126.638 111.566 126.795C111.266 126.952 110.959 127.102 110.716 127.231C110.244 127.488 109.951 127.667 109.973 127.717Z" fill="#455A64"/>
<path d="M140.63 103.384C140.63 103.384 144.574 100.526 147.247 105.928C149.92 111.331 145.646 112.581 145.646 112.581C143.549 109.767 141.86 106.671 140.63 103.384Z" fill="#455A64"/>
<path d="M135.749 97.0596C135.791 97.4193 135.87 97.7737 135.985 98.1172C136.171 98.7889 136.428 99.7608 136.785 100.976C136.999 101.562 137.242 102.198 137.5 102.884L137.9 103.948C137.971 104.127 138.036 104.313 138.107 104.506C138.179 104.699 138.279 104.87 138.364 105.056L139.479 107.393C139.572 107.6 139.672 107.8 139.772 108.008C139.872 108.215 139.994 108.408 140.108 108.608L140.823 109.83L141.537 111.052C141.659 111.245 141.766 111.452 141.895 111.638C142.023 111.824 142.159 112.017 142.281 112.202L143.767 114.346C143.888 114.511 143.996 114.682 144.117 114.839L144.503 115.304L145.218 116.176L146.525 117.748C147.39 118.648 148.105 119.349 148.598 119.842C148.842 120.104 149.11 120.344 149.398 120.556C149.18 120.265 148.941 119.991 148.683 119.734L146.697 117.591L145.461 115.954L144.746 115.075L144.374 114.611C144.253 114.453 144.146 114.282 144.031 114.118L142.602 111.974L142.223 111.416C142.088 111.23 141.988 111.023 141.866 110.83L141.151 109.615C140.916 109.208 140.68 108.801 140.437 108.408C140.33 108.208 140.201 108.015 140.101 107.807C140.001 107.6 139.908 107.4 139.808 107.2L138.686 104.892C138.6 104.706 138.5 104.527 138.429 104.342C138.357 104.156 138.279 103.97 138.207 103.791C138.064 103.427 137.928 103.077 137.793 102.741L137.042 100.854C136.664 99.6894 136.363 98.7103 136.142 98.06C136.036 97.7173 135.904 97.3829 135.749 97.0596Z" fill="#263238"/>
<path d="M125.123 129.575C125.425 129.662 125.682 129.864 125.839 130.137C125.995 130.411 126.038 130.735 125.959 131.04C125.651 132.255 125.151 134.163 124.751 135.328C124.64 135.71 124.458 136.069 124.215 136.385C124.096 136.557 123.927 136.687 123.731 136.758C123.534 136.829 123.321 136.836 123.12 136.78C122.919 136.723 122.741 136.605 122.61 136.442C122.48 136.279 122.404 136.079 122.393 135.871C122.346 135.453 122.383 135.031 122.5 134.627C122.75 133.491 123.214 131.769 123.615 130.404C123.658 130.25 123.732 130.106 123.832 129.981C123.931 129.855 124.055 129.751 124.195 129.674C124.335 129.597 124.49 129.548 124.649 129.531C124.808 129.514 124.969 129.529 125.123 129.575Z" fill="#FFBE9D"/>
<path d="M127.059 131.547C127.362 131.634 127.619 131.836 127.776 132.11C127.932 132.383 127.975 132.707 127.895 133.012C127.588 134.227 127.088 136.135 126.681 137.3C126.572 137.684 126.39 138.043 126.145 138.358C126.022 138.514 125.858 138.635 125.672 138.705C125.485 138.776 125.283 138.794 125.087 138.758C124.887 138.691 124.71 138.569 124.576 138.406C124.442 138.243 124.356 138.045 124.33 137.836C124.284 137.419 124.318 136.997 124.43 136.593C124.687 135.463 125.144 133.734 125.544 132.369C125.636 132.058 125.846 131.797 126.13 131.641C126.414 131.486 126.749 131.449 127.059 131.54V131.547Z" fill="#FFBE9D"/>
<path d="M128.924 132.734C129.184 132.813 129.403 132.99 129.536 133.227C129.669 133.463 129.706 133.742 129.639 134.006C129.375 135.056 128.924 136.707 128.589 137.714C128.494 138.048 128.336 138.361 128.124 138.636C128.021 138.784 127.874 138.896 127.705 138.956C127.535 139.016 127.351 139.022 127.177 138.972C127.004 138.923 126.851 138.82 126.739 138.679C126.627 138.538 126.561 138.366 126.552 138.186C126.509 137.824 126.538 137.458 126.638 137.107C126.859 136.128 127.259 134.656 127.602 133.448C127.682 133.181 127.864 132.955 128.109 132.821C128.354 132.688 128.642 132.656 128.91 132.734H128.924Z" fill="#FFBE9D"/>
<path d="M131.047 132.97C131.308 133.049 131.528 133.227 131.661 133.465C131.795 133.704 131.83 133.984 131.761 134.249C131.497 135.306 131.047 136.964 130.704 137.979C130.61 138.314 130.452 138.627 130.239 138.901C130.137 139.051 129.99 139.166 129.819 139.228C129.648 139.29 129.462 139.297 129.287 139.247C129.112 139.197 128.957 139.093 128.845 138.95C128.732 138.807 128.667 138.632 128.66 138.451C128.617 138.086 128.646 137.717 128.746 137.364C128.967 136.385 129.367 134.899 129.718 133.691C129.757 133.558 129.822 133.434 129.909 133.326C129.997 133.218 130.105 133.128 130.227 133.061C130.349 132.995 130.483 132.953 130.621 132.939C130.759 132.924 130.899 132.937 131.032 132.977L131.047 132.97Z" fill="#FFBE9D"/>
<path d="M124.451 136.406C124.502 135.621 124.678 134.849 124.972 134.12C125.152 133.351 125.451 132.616 125.859 131.94C125.807 132.726 125.628 133.498 125.33 134.227C125.151 134.994 124.854 135.729 124.451 136.406Z" fill="#EB996E"/>
<path d="M128.474 138.029C128.799 136.502 129.246 135.004 129.81 133.548C129.728 135.129 129.27 136.668 128.474 138.036V138.029Z" fill="#EB996E"/>
<path d="M126.48 137.771C126.807 136.24 127.254 134.737 127.817 133.276C127.736 134.86 127.278 136.401 126.48 137.771Z" fill="#EB996E"/>
<path d="M162.79 77.3436C162.869 77.4007 159.932 81.3811 156.244 86.2263C152.557 91.0714 149.484 94.9517 149.405 94.8874C149.327 94.8231 152.264 90.8498 155.944 86.0047C159.624 81.1596 162.704 77.2792 162.79 77.3436Z" fill="#263238"/>
<path d="M181.964 88.6844C182.006 88.7773 175.846 91.7286 168.2 95.2732C160.554 98.8177 154.329 101.619 154.286 101.526C154.243 101.433 160.403 98.4818 168.043 94.9373C175.682 91.3928 181.906 88.5915 181.964 88.6844Z" fill="#263238"/>
<path d="M179.105 112.281C179.105 112.381 174.703 112.045 169.3 111.524C163.898 111.002 159.517 110.495 159.524 110.395C159.531 110.295 163.926 110.63 169.336 111.152C174.746 111.674 179.119 112.181 179.105 112.281Z" fill="#263238"/>
<path d="M66.438 125.516L71.2903 153.1C71.7135 155.408 73.0142 157.462 74.9195 158.832C76.8249 160.202 79.1866 160.78 81.5093 160.446C82.7013 160.293 83.8503 159.902 84.8883 159.296C85.9262 158.69 86.832 157.882 87.5517 156.92C88.2715 155.957 88.7907 154.86 89.0785 153.693C89.3663 152.527 89.4169 151.314 89.2272 150.127L88.4411 145.382C88.4411 145.382 95.23 143.538 94.5225 136.721C94.1795 133.434 92.9217 126.716 91.7069 120.67C91.0186 117.389 89.09 114.499 86.3234 112.605C83.5568 110.71 80.1657 109.957 76.8571 110.501C75.1731 110.774 73.5613 111.383 72.118 112.292C70.6747 113.202 69.4296 114.393 68.457 115.794C67.4844 117.196 66.8043 118.779 66.4574 120.449C66.1105 122.12 66.1039 123.843 66.438 125.516Z" fill="#FFBE9D"/>
<path d="M88.4553 145.397C85.2778 145.814 82.0479 145.289 79.1653 143.889C79.1653 143.889 81.8594 148.556 88.6768 147.126L88.4553 145.397Z" fill="#EB996E"/>
<path d="M90.2278 125.273C90.2584 125.528 90.1879 125.784 90.0316 125.987C89.8752 126.19 89.6455 126.324 89.3917 126.359C89.2686 126.384 89.1419 126.384 89.0188 126.359C88.8958 126.335 88.7789 126.286 88.6751 126.215C88.5713 126.144 88.4826 126.054 88.4142 125.949C88.3458 125.843 88.2991 125.726 88.2769 125.602C88.2443 125.346 88.3139 125.088 88.4704 124.884C88.6269 124.679 88.8578 124.544 89.113 124.509C89.2366 124.484 89.3638 124.484 89.4873 124.509C89.6107 124.535 89.7279 124.584 89.8318 124.656C89.9357 124.727 90.0243 124.818 90.0923 124.924C90.1603 125.03 90.2064 125.149 90.2278 125.273Z" fill="#263238"/>
<path d="M90.435 123.622C90.3278 123.765 89.5131 123.3 88.4555 123.429C87.3979 123.558 86.6761 124.144 86.5475 124.044C86.4188 123.944 86.5475 123.751 86.8905 123.472C87.3164 123.108 87.8415 122.879 88.3983 122.814C88.9525 122.749 89.5131 122.862 89.9991 123.136C90.3707 123.343 90.5136 123.543 90.435 123.622Z" fill="#263238"/>
<path d="M80.2443 126.473C80.275 126.729 80.2048 126.986 80.0486 127.19C79.8924 127.394 79.6626 127.53 79.4082 127.567C79.2842 127.592 79.1565 127.591 79.0326 127.566C78.9087 127.541 78.7911 127.491 78.6866 127.42C78.5821 127.349 78.4929 127.258 78.4242 127.152C78.3554 127.045 78.3085 126.927 78.2863 126.802C78.2557 126.548 78.3262 126.291 78.4825 126.088C78.6388 125.885 78.8686 125.752 79.1224 125.716C79.2459 125.691 79.3731 125.691 79.4966 125.716C79.6201 125.74 79.7374 125.79 79.8418 125.86C79.9462 125.93 80.0356 126.021 80.1047 126.126C80.1738 126.232 80.2212 126.35 80.2443 126.473Z" fill="#263238"/>
<path d="M80.1945 124.973C80.0873 125.109 79.2798 124.651 78.215 124.773C77.1502 124.894 76.4356 125.487 76.3069 125.394C76.1783 125.302 76.3427 125.101 76.6571 124.816C77.0806 124.448 77.6073 124.221 78.165 124.165C78.7159 124.102 79.2728 124.212 79.7585 124.48C80.1159 124.716 80.2516 124.973 80.1945 124.973Z" fill="#263238"/>
<path d="M84.9538 132.948C85.4967 132.715 86.0652 132.547 86.6474 132.448C86.9118 132.39 87.1619 132.305 87.1905 132.119C87.1781 131.839 87.0809 131.57 86.9118 131.347L85.8756 129.403C84.4464 126.638 83.3387 124.344 83.4531 124.287C83.5674 124.23 84.8394 126.431 86.3115 129.203C86.6617 129.882 87.0262 130.532 87.312 131.161C87.5227 131.461 87.6167 131.827 87.5764 132.19C87.5484 132.29 87.4977 132.382 87.4282 132.459C87.3588 132.536 87.2726 132.595 87.1762 132.633C87.0317 132.691 86.8804 132.729 86.726 132.748C86.1459 132.888 85.5505 132.955 84.9538 132.948Z" fill="#263238"/>
<path d="M81.9165 134.027C82.088 134.027 82.2238 135.127 83.3029 135.828C84.3819 136.528 85.5968 136.256 85.6182 136.414C85.6397 136.571 85.3753 136.664 84.8536 136.735C84.181 136.823 83.4989 136.674 82.9241 136.314C82.3778 135.967 81.9882 135.421 81.8379 134.791C81.7379 134.32 81.8593 134.027 81.9165 134.027Z" fill="#263238"/>
<path d="M79.9944 121.5C79.9229 121.793 78.8439 121.778 77.6147 122.064C76.3856 122.35 75.4208 122.779 75.2279 122.572C75.135 122.457 75.2779 122.164 75.6567 121.857C76.1639 121.461 76.7526 121.183 77.3803 121.042C78.0081 120.901 78.6592 120.901 79.2869 121.042C79.7657 121.157 80.023 121.357 79.9944 121.5Z" fill="#263238"/>
<path d="M89.8706 121.271C89.7134 121.529 88.9487 121.364 88.0697 121.45C87.1907 121.536 86.4618 121.793 86.2617 121.564C86.176 121.457 86.2617 121.2 86.5619 120.943C86.9674 120.61 87.4678 120.415 87.9911 120.385C88.5094 120.336 89.0304 120.445 89.4847 120.7C89.8062 120.914 89.9349 121.143 89.8706 121.271Z" fill="#263238"/>
<path d="M91.7427 109.022C91.2834 108.674 90.7141 108.501 90.1383 108.537C89.5626 108.572 89.0187 108.813 88.6056 109.215C88.8846 108.75 88.977 108.197 88.8643 107.667C88.7516 107.136 88.4421 106.668 87.9981 106.357C87.5433 106.055 87.0273 105.859 86.4873 105.781C85.9472 105.703 85.3967 105.746 84.8753 105.907C83.8332 106.23 82.8474 106.712 81.9525 107.336C81.9907 107.124 81.9657 106.905 81.8806 106.707C81.7954 106.508 81.654 106.34 81.4737 106.221C81.102 105.993 80.6798 105.861 80.2445 105.835C78.4516 105.719 76.6631 106.121 75.0921 106.993C73.4096 107.927 71.8144 109.011 70.3256 110.23C68.6611 111.571 67.1937 113.139 65.9664 114.889L65.9093 114.939C64.9017 115.84 64.0513 118.555 64.2013 119.885C64.7659 124.794 66.3952 127.631 67.3099 132.276C67.3399 132.592 67.4616 132.893 67.6601 133.141C68.2246 133.727 69.2394 133.227 69.804 132.612C71.0192 131.03 71.6594 129.082 71.6191 127.088C71.6834 125.116 71.3975 123.15 71.4476 121.178V121.035C71.4611 120.532 71.5088 120.031 71.5905 119.534C71.6763 119.213 72.5124 116.397 75.2208 115.961C78.0792 115.475 83.7604 118.262 86.5689 117.819C89.3773 117.376 89.5274 115.397 89.5274 115.397L91.1782 118.755C91.5575 117.391 91.6475 115.962 91.4426 114.561C92.1568 113.908 92.6553 113.053 92.8718 112.11C92.9859 111.541 92.9409 110.952 92.7417 110.407C92.5424 109.862 92.1968 109.383 91.7427 109.022Z" fill="#263238"/>
<path d="M69.1324 128.446C69.0109 128.41 64.2229 127.603 64.9161 132.241C65.6093 136.878 70.1971 135.235 70.1828 135.099C70.1686 134.963 69.1324 128.446 69.1324 128.446Z" fill="#FFBE9D"/>
<path d="M68.482 133.548C68.482 133.548 68.4105 133.62 68.2819 133.699C68.098 133.811 67.8784 133.849 67.6673 133.806C67.3373 133.661 67.0517 133.431 66.8395 133.14C66.6273 132.849 66.4962 132.506 66.4596 132.148C66.3912 131.751 66.4108 131.343 66.5168 130.954C66.5388 130.801 66.5986 130.655 66.6909 130.53C66.7833 130.406 66.9051 130.306 67.0456 130.24C67.1357 130.203 67.2357 130.197 67.3292 130.225C67.4227 130.252 67.5042 130.31 67.5601 130.39C67.6387 130.511 67.6244 130.611 67.653 130.611C67.6816 130.611 67.7388 130.519 67.653 130.333C67.6051 130.224 67.5254 130.131 67.4243 130.068C67.2788 129.994 67.1107 129.976 66.9527 130.018C66.7734 130.089 66.6144 130.203 66.4897 130.35C66.3651 130.497 66.2786 130.673 66.2381 130.862C66.1005 131.293 66.071 131.752 66.1523 132.198C66.1948 132.616 66.359 133.012 66.6245 133.337C66.89 133.662 67.2451 133.902 67.6459 134.027C67.775 134.042 67.9058 134.029 68.0292 133.988C68.1526 133.948 68.2657 133.88 68.3605 133.791C68.4891 133.663 68.4963 133.548 68.482 133.548Z" fill="#EB996E"/>
<path d="M58.5628 162.026C58.6913 161.971 58.8312 161.949 58.9702 161.961C59.3773 161.996 59.7557 162.185 60.0278 162.49C60.2471 162.724 60.415 163.001 60.5209 163.304C60.6267 163.607 60.6681 163.928 60.6424 164.248C60.5587 165.067 60.3763 165.874 60.0993 166.649C59.9249 167.092 59.8493 167.568 59.8777 168.043C59.9061 168.518 60.0378 168.981 60.2636 169.4C60.771 170.286 61.8072 170.965 62.2288 172.202C62.4362 172.832 62.4483 173.511 62.2634 174.148C62.0785 174.786 61.7052 175.353 61.1926 175.775C60.645 176.223 59.9695 176.485 59.2632 176.525C58.5619 176.516 57.8658 176.403 57.1979 176.189C56.5765 175.981 55.9111 175.939 55.2684 176.068C54.6753 176.282 54.1717 176.69 53.8392 177.225C53.4854 177.772 53.0785 178.281 52.6243 178.748C52.3842 178.976 52.0999 179.152 51.789 179.267C51.4781 179.381 51.1471 179.43 50.8164 179.412C50.2193 179.361 49.6446 179.161 49.1451 178.831C48.6456 178.5 48.2374 178.048 47.9579 177.518C47.5113 176.61 47.2675 175.615 47.2433 174.603C47.1933 173.688 47.2433 172.866 47.2433 172.152C47.2363 171.541 47.1837 170.932 47.0861 170.329C46.9829 169.818 46.8371 169.316 46.6501 168.829C46.7331 168.938 46.8004 169.058 46.8502 169.186C47.0197 169.541 47.1446 169.915 47.2218 170.301C47.354 170.907 47.4306 171.524 47.4505 172.145C47.4505 172.859 47.4505 173.688 47.5434 174.588C47.577 175.556 47.8208 176.505 48.258 177.368C48.5175 177.843 48.8899 178.247 49.3424 178.543C49.7948 178.84 50.3133 179.02 50.8521 179.069C51.137 179.084 51.4219 179.039 51.6888 178.939C51.9557 178.838 52.1988 178.683 52.4028 178.483C52.8386 178.032 53.2288 177.539 53.5677 177.011C53.9447 176.408 54.5136 175.95 55.1827 175.71C55.895 175.555 56.6363 175.597 57.3265 175.832C57.9612 176.029 58.6202 176.137 59.2846 176.153C59.9144 176.119 60.5173 175.887 61.0068 175.489C61.4674 175.113 61.8038 174.607 61.9721 174.038C62.1404 173.468 62.1328 172.86 61.9501 172.295C61.6 171.201 60.5924 170.508 60.0349 169.543C59.7562 169.075 59.615 168.537 59.6276 167.993C59.6542 167.507 59.7406 167.027 59.8849 166.563C60.1736 165.808 60.3726 165.021 60.478 164.219C60.5116 163.924 60.4831 163.624 60.3945 163.34C60.306 163.056 60.1592 162.793 59.9635 162.569C59.7185 162.28 59.3793 162.088 59.0059 162.026C58.7058 162.004 58.5628 162.047 58.5628 162.026Z" fill="#FAFAFA"/>
<path d="M60.5281 212.042C60.5281 212.042 60.5782 212.213 60.7425 212.485C61.0024 212.871 61.3975 213.147 61.8502 213.257C62.2001 213.356 62.5689 213.368 62.9248 213.294C63.2808 213.219 63.6133 213.059 63.894 212.828C64.6208 212.174 65.1024 211.292 65.2589 210.327C65.4876 209.262 65.4447 208.047 65.652 206.754C65.7512 206.069 65.974 205.408 66.3094 204.803C66.6694 204.136 67.2506 203.615 67.953 203.331C68.688 203.07 69.4771 202.998 70.2469 203.123C71.0259 203.202 71.7905 203.381 72.5623 203.481C73.3406 203.607 74.1369 203.568 74.8991 203.366C75.6731 203.143 76.3865 202.747 76.9858 202.209C77.5838 201.67 78.0277 200.982 78.2721 200.215C78.4905 199.468 78.4755 198.673 78.2292 197.935C78.0225 197.229 77.6214 196.596 77.0717 196.106C76.5221 195.617 75.846 195.293 75.1206 195.17C73.6914 195.013 72.4051 195.706 71.0545 195.734C70.3994 195.754 69.7501 195.606 69.1679 195.306C68.6446 195.038 68.1491 194.72 67.6886 194.355C66.9437 193.713 66.0988 193.196 65.1874 192.826C64.8409 192.694 64.4699 192.638 64.0999 192.663C63.7298 192.687 63.3695 192.792 63.0436 192.969C62.6298 193.18 62.3053 193.532 62.1289 193.962C62.0822 194.119 62.044 194.279 62.0145 194.441C61.9909 194.273 62.0055 194.102 62.0574 193.941C62.2126 193.472 62.5393 193.078 62.9721 192.84C63.2804 192.662 63.6201 192.546 63.9726 192.497C64.392 192.456 64.8154 192.502 65.216 192.633C66.1623 192.988 67.0418 193.5 67.8172 194.148C68.7012 194.932 69.8306 195.385 71.0116 195.427C71.6724 195.371 72.326 195.249 72.9625 195.063C73.6575 194.858 74.3838 194.78 75.1064 194.834C75.8987 194.959 76.6395 195.306 77.2428 195.834C77.8461 196.363 78.2872 197.052 78.5151 197.821C78.7927 198.629 78.8102 199.504 78.5651 200.322C78.3001 201.147 77.8218 201.886 77.1787 202.466C76.5383 203.046 75.773 203.472 74.942 203.709C74.1332 203.925 73.2875 203.964 72.4623 203.824C71.6619 203.717 70.8972 203.545 70.154 203.459C69.4358 203.337 68.6983 203.399 68.0102 203.638C67.3736 203.885 66.8463 204.351 66.5238 204.953C66.2046 205.523 65.987 206.145 65.8806 206.789C65.6734 208.054 65.6948 209.283 65.4447 210.363C65.2609 211.378 64.7336 212.299 63.9512 212.971C63.6441 213.214 63.2821 213.377 62.897 213.447C62.512 213.516 62.1157 213.491 61.743 213.371C61.5055 213.308 61.2828 213.198 61.0878 213.049C60.8929 212.899 60.7294 212.712 60.6067 212.499C60.5465 212.355 60.5197 212.198 60.5281 212.042Z" fill="#FAFAFA"/>
<path d="M84.8037 168.743C84.9321 168.497 85.0985 168.272 85.2968 168.078C85.8778 167.5 86.6295 167.124 87.4407 167.006C88.0792 166.912 88.7313 166.988 89.3311 167.226C89.9309 167.464 90.4571 167.857 90.8566 168.364C91.3657 168.993 91.6677 169.765 91.7213 170.572C91.7179 171.431 91.9033 172.28 92.2644 173.059C92.5114 173.432 92.8802 173.707 93.3077 173.838C93.7726 173.973 94.253 174.047 94.7369 174.06C95.2372 174.06 95.7517 174.06 96.2877 174.131C96.8524 174.161 97.3961 174.355 97.8527 174.688C98.0876 174.88 98.2737 175.125 98.3958 175.403C98.5146 175.685 98.5636 175.991 98.5387 176.296C98.4692 176.894 98.22 177.458 97.8241 177.911C97.4276 178.377 96.9416 178.759 96.3948 179.033C95.8589 179.305 95.2943 179.526 94.7441 179.784C94.1915 180.015 93.6781 180.331 93.2219 180.72C92.7759 181.124 92.4642 181.655 92.3287 182.242C92.0357 183.442 92.3287 184.743 92.2429 186.101C92.2036 186.798 92.0186 187.48 91.6998 188.102C91.535 188.432 91.2956 188.72 91.0004 188.942C90.7052 189.164 90.3623 189.314 89.999 189.381C89.626 189.414 89.2502 189.368 88.8966 189.245C88.5429 189.121 88.2196 188.924 87.9481 188.666C87.4002 188.194 86.9384 187.631 86.5831 187.001C86.2507 186.397 85.8832 185.812 85.4826 185.25C85.108 184.709 84.5769 184.295 83.9605 184.064C83.3416 183.883 82.6785 183.926 82.0882 184.186C81.4805 184.443 80.8969 184.754 80.3445 185.115C79.7863 185.481 79.1925 185.79 78.5723 186.037C77.9427 186.265 77.2767 186.376 76.6071 186.365C75.3139 186.33 74.0643 185.89 73.034 185.108C72.0336 184.373 71.337 183.298 71.0759 182.085C70.9311 181.513 70.9331 180.914 71.0817 180.343C71.2304 179.772 71.5209 179.248 71.9263 178.819C72.3475 178.449 72.853 178.189 73.3984 178.061C73.9044 177.94 74.4176 177.852 74.9349 177.797C75.8782 177.753 76.79 177.444 77.5647 176.904C78.2124 176.319 78.7037 175.582 78.9939 174.76C79.3012 173.995 79.5013 173.238 79.7657 172.545C79.9881 171.89 80.3138 171.274 80.7304 170.722C81.1026 170.28 81.5193 169.878 81.9739 169.522C82.5797 168.986 83.3215 168.627 84.1177 168.485C84.2581 168.464 84.4015 168.472 84.5384 168.51C84.6752 168.548 84.8023 168.616 84.9109 168.707C84.6711 168.576 84.3954 168.526 84.1249 168.564C83.3576 168.731 82.6493 169.102 82.0739 169.636C81.6319 169.992 81.2294 170.395 80.8733 170.837C80.4823 171.38 80.1763 171.98 79.9658 172.616C79.7157 173.331 79.5227 174.045 79.2512 174.846C78.9682 175.698 78.4769 176.467 77.8219 177.082C77.0132 177.667 76.0527 178.004 75.0564 178.054C74.0773 178.204 72.984 178.311 72.1979 179.026C71.8386 179.422 71.5848 179.901 71.4598 180.421C71.3349 180.941 71.343 181.483 71.4833 181.999C71.7381 183.129 72.3929 184.129 73.327 184.815C74.3049 185.546 75.4861 185.956 76.7071 185.986C77.3308 185.999 77.9512 185.895 78.5366 185.679C79.1364 185.436 79.7109 185.135 80.2516 184.779C80.7614 184.428 81.2992 184.12 81.8595 183.857C82.5357 183.559 83.2964 183.513 84.0034 183.728C84.6909 183.98 85.2846 184.436 85.7042 185.036C86.118 185.61 86.4951 186.209 86.8333 186.83C87.1711 187.418 87.6032 187.947 88.1124 188.395C88.346 188.614 88.6237 188.78 88.927 188.882C89.2303 188.985 89.552 189.021 89.8704 188.988C90.1778 188.933 90.4677 188.806 90.7163 188.618C90.9648 188.429 91.1648 188.183 91.2996 187.902C91.591 187.328 91.7612 186.7 91.7999 186.058C91.8713 184.779 91.5855 183.442 91.9071 182.135C92.0616 181.482 92.4104 180.891 92.9075 180.441C93.3896 180.026 93.9348 179.691 94.5226 179.448C95.0871 179.19 95.6445 178.976 96.1662 178.733C96.6722 178.48 97.1219 178.128 97.4882 177.697C97.867 177.305 98.1164 176.806 98.2028 176.268C98.2198 176.024 98.1807 175.779 98.0885 175.553C97.9819 175.326 97.8256 175.126 97.6311 174.967C97.2133 174.666 96.7163 174.495 96.2019 174.474C95.6945 174.417 95.18 174.417 94.6726 174.388C94.166 174.37 93.6639 174.286 93.1791 174.138C92.6985 173.982 92.2852 173.667 92.0071 173.245C91.6277 172.431 91.4371 171.542 91.4497 170.644C91.4173 169.865 91.1425 169.115 90.6636 168.5C90.2879 168.014 89.7933 167.633 89.2275 167.394C88.6617 167.155 88.0439 167.066 87.4335 167.135C86.6566 167.241 85.9309 167.583 85.354 168.114C85.1582 168.312 84.9744 168.522 84.8037 168.743Z" fill="#FAFAFA"/>
<path d="M72.7767 156.681C72.3769 157.081 71.8526 157.333 71.2903 157.395C70.6911 157.514 70.0743 157.514 69.4751 157.395C68.7096 157.272 68.0156 156.873 67.5242 156.273C67.0937 155.638 66.8465 154.896 66.8096 154.129C66.7537 153.524 66.7947 152.914 66.9311 152.321C67.0143 151.771 67.2843 151.267 67.6957 150.892C67.4668 151.374 67.2987 151.883 67.1955 152.407C67.0978 152.976 67.0809 153.556 67.1455 154.129C67.2013 154.82 67.4298 155.486 67.8101 156.066C68.2445 156.598 68.8558 156.955 69.5323 157.074C70.0914 157.192 70.6667 157.214 71.2331 157.138C71.7629 157.043 72.2806 156.889 72.7767 156.681Z" fill="#FAFAFA"/>
<path d="M103.541 154.858C103.541 154.858 103.541 154.929 103.491 155.051C103.424 155.235 103.331 155.409 103.213 155.565C102.773 156.153 102.145 156.571 101.433 156.752C100.937 156.867 100.421 156.867 99.9253 156.752C99.3647 156.594 98.8452 156.316 98.4032 155.937C97.9628 155.541 97.4543 155.229 96.9025 155.015C96.618 154.937 96.3159 154.954 96.0415 155.062C95.7671 155.17 95.5351 155.364 95.3804 155.615C95.0436 156.173 94.7498 156.756 94.5014 157.359C94.2171 157.941 93.7799 158.435 93.2365 158.788C92.8592 159.044 92.4339 159.22 91.9865 159.307C91.5391 159.393 91.0788 159.389 90.6333 159.292C90.1878 159.196 89.7665 159.011 89.3947 158.747C89.0229 158.484 88.7083 158.148 88.47 157.759C88.3086 157.552 88.2072 157.305 88.177 157.045C88.177 157.045 88.2985 157.295 88.5843 157.688C88.9956 158.237 89.5562 158.656 90.1994 158.895C90.9549 159.15 91.7776 159.117 92.5105 158.803C93.2433 158.489 93.835 157.917 94.1726 157.195C94.4281 156.575 94.7291 155.976 95.0731 155.401C95.28 155.084 95.5759 154.836 95.9235 154.686C96.2664 154.555 96.6431 154.54 96.9954 154.643C97.5939 154.872 98.1442 155.212 98.6176 155.644C99.0155 156.002 99.4859 156.27 99.9968 156.43C100.451 156.533 100.922 156.533 101.376 156.43C102.044 156.286 102.648 155.93 103.098 155.415C103.413 155.108 103.513 154.843 103.541 154.858Z" fill="#FAFAFA"/>
<path d="M108.636 182.914C108.351 182.776 108.085 182.603 107.843 182.399C107.148 181.885 106.496 181.316 105.892 180.699C105.467 180.261 105.087 179.782 104.756 179.269C104.374 178.673 104.129 177.999 104.041 177.297C103.924 176.513 104.051 175.712 104.406 175.003C104.601 174.628 104.876 174.301 105.213 174.045C105.547 173.797 105.898 173.572 106.264 173.374C106.61 173.178 106.93 172.938 107.214 172.659C107.472 172.395 107.661 172.071 107.764 171.716C107.928 171.013 107.952 170.284 107.836 169.572C107.72 168.892 107.669 168.203 107.686 167.514C107.684 166.881 107.922 166.271 108.35 165.806C109.015 165.211 109.867 164.87 110.758 164.841C110.922 164.821 111.087 164.841 111.242 164.898C111.396 164.955 111.534 165.048 111.645 165.17C111.374 165.03 111.07 164.965 110.766 164.984C109.932 165.065 109.148 165.419 108.536 165.992C108.168 166.42 107.975 166.971 107.993 167.535C107.996 168.204 108.056 168.871 108.172 169.529C108.313 170.294 108.293 171.08 108.114 171.837C107.998 172.252 107.78 172.63 107.478 172.938C107.172 173.235 106.826 173.487 106.449 173.688C105.733 174.008 105.133 174.539 104.727 175.21C104.405 175.855 104.283 176.582 104.377 177.297C104.577 178.528 105.174 179.66 106.078 180.52C107.586 182.092 108.679 182.857 108.636 182.914Z" fill="#FAFAFA"/>
<path d="M93.6936 197.092C93.8024 197.074 93.9135 197.074 94.0223 197.092C94.3424 197.092 94.6622 197.111 94.9799 197.15C96.1619 197.258 97.312 197.592 98.3672 198.136C99.162 198.54 99.8598 199.111 100.412 199.81C100.965 200.51 101.36 201.321 101.569 202.188C101.816 203.238 101.657 204.343 101.126 205.282C100.84 205.784 100.454 206.221 99.992 206.567C99.5296 206.912 99.0008 207.159 98.4387 207.29C97.8604 207.393 97.2662 207.361 96.7021 207.197C96.2196 207.037 95.6983 207.037 95.2157 207.197C94.7589 207.389 94.36 207.697 94.0581 208.09C93.7688 208.47 93.513 208.874 93.2934 209.298C92.9026 210.185 92.2523 210.932 91.4283 211.442C90.6733 211.832 89.8028 211.936 88.9771 211.735C88.298 211.568 87.6958 211.174 87.2692 210.62C86.9477 210.214 86.7229 209.74 86.6117 209.234C86.5419 208.917 86.525 208.591 86.5617 208.269C86.5685 208.156 86.5926 208.046 86.6332 207.94C86.6218 208.363 86.6626 208.785 86.7547 209.198C86.8827 209.674 87.1145 210.116 87.4335 210.491C87.8387 210.973 88.3913 211.307 89.0057 211.442C89.7687 211.61 90.5668 211.501 91.2567 211.135C92.0135 210.644 92.6079 209.94 92.9647 209.112C93.3874 208.118 94.1463 207.303 95.1085 206.811C95.6608 206.629 96.257 206.629 96.8093 206.811C97.3211 206.966 97.8623 206.998 98.3886 206.904C98.8993 206.782 99.3797 206.557 99.8 206.242C100.22 205.928 100.572 205.53 100.833 205.075C101.326 204.208 101.477 203.188 101.254 202.216C101.061 201.392 100.693 200.618 100.177 199.946C99.6608 199.274 99.0072 198.721 98.26 198.322C97.2413 197.773 96.133 197.41 94.9871 197.25C94.151 197.15 93.6865 197.15 93.6936 197.092Z" fill="#FAFAFA"/>
<path d="M80.3089 220.731C80.1709 220.207 79.9463 219.71 79.6443 219.259C79.2918 218.798 78.8334 218.428 78.3079 218.18C77.6798 217.861 76.956 217.786 76.2755 217.968C75.595 218.15 75.0056 218.577 74.6205 219.166C74.2915 219.631 74.0784 220.168 73.9988 220.731C73.9604 221.272 74.0136 221.816 74.156 222.339C74.156 222.339 74.0345 222.218 73.9202 221.946C73.7679 221.55 73.7045 221.126 73.7344 220.703C73.7773 220.071 73.9815 219.461 74.3275 218.931C74.7397 218.25 75.3991 217.756 76.1677 217.55C76.9363 217.345 77.7545 217.446 78.4509 217.83C79.0277 218.109 79.5207 218.536 79.8801 219.066C80.1167 219.416 80.2729 219.814 80.3375 220.231C80.3517 220.531 80.3303 220.731 80.3089 220.731Z" fill="#FAFAFA"/>
<path d="M82.574 231.093C82.574 231.093 82.5096 230.758 82.2524 230.214C81.8941 229.453 81.29 228.833 80.5373 228.457C79.983 228.199 79.372 228.089 78.7627 228.135C78.1534 228.181 77.5662 228.383 77.0571 228.721C76.4767 229.163 75.9908 229.717 75.6279 230.35C75.3945 230.691 75.1209 231.003 74.8132 231.279C74.4636 231.576 74.021 231.74 73.5626 231.744C73.1353 231.688 72.7241 231.545 72.355 231.322C71.986 231.099 71.6672 230.802 71.4188 230.45C70.9979 229.849 70.4869 229.317 69.9038 228.871C69.3479 228.538 68.6902 228.419 68.0529 228.535C67.4886 228.63 66.9534 228.853 66.4879 229.185C65.8201 229.702 65.2614 230.345 64.8443 231.079C64.6997 231.36 64.5349 231.63 64.3512 231.887C64.4298 231.58 64.5525 231.286 64.7156 231.015C65.0986 230.226 65.6499 229.531 66.3307 228.978C66.8224 228.609 67.3961 228.364 68.0029 228.264C68.717 228.118 69.4598 228.24 70.0896 228.607C70.7086 229.064 71.2513 229.616 71.6975 230.243C71.9146 230.553 72.1926 230.816 72.5145 231.015C72.8364 231.214 73.1954 231.345 73.5698 231.401C74.3344 231.401 74.8918 230.779 75.3277 230.164C75.7279 229.501 76.2548 228.923 76.8785 228.464C77.3388 228.152 77.8634 227.948 78.4133 227.867C78.9632 227.786 79.5243 227.83 80.0549 227.995C80.5856 228.161 81.0721 228.444 81.4785 228.823C81.8849 229.202 82.2007 229.668 82.4024 230.186C82.4918 230.416 82.5518 230.656 82.5811 230.901C82.6168 231.008 82.6168 231.093 82.574 231.093Z" fill="#FAFAFA"/>
<path d="M88.0838 205.168C87.4429 204.772 86.7503 204.466 86.0257 204.26C85.2404 204.068 84.426 204.024 83.6246 204.131C82.6441 204.247 81.7094 204.611 80.9091 205.189C80.1215 205.778 79.525 206.586 79.194 207.512C78.9235 208.271 78.8354 209.084 78.9367 209.884C79.0706 210.622 79.3266 211.332 79.6942 211.985C79.6942 211.985 79.5156 211.842 79.294 211.506C78.9839 211.024 78.7726 210.484 78.6723 209.92C78.5198 208.981 78.627 208.019 78.9822 207.138C79.3375 206.256 79.9272 205.488 80.6875 204.917C81.5275 204.308 82.5135 203.931 83.546 203.824C84.3903 203.723 85.2465 203.796 86.0615 204.038C86.6087 204.186 87.1261 204.428 87.5907 204.753C87.9481 205.01 88.0981 205.153 88.0838 205.168Z" fill="#FAFAFA"/>
</svg>
