<svg width="341" height="38" viewBox="0 0 341 38" fill="none" xmlns="http://www.w3.org/2000/svg">
<path d="M5.552 19.628C5.748 19.628 5.91133 19.6933 6.042 19.824C6.182 19.9547 6.252 20.118 6.252 20.314C6.252 20.51 6.182 20.6733 6.042 20.804C5.91133 20.9347 5.748 21 5.552 21H0.848C0.642667 21 0.47 20.9347 0.33 20.804C0.199333 20.664 0.134 20.4913 0.134 20.286V11.914C0.134 11.7087 0.204 11.5407 0.344 11.41C0.484 11.27 0.666 11.2 0.89 11.2C1.07667 11.2 1.24 11.27 1.38 11.41C1.52933 11.5407 1.604 11.7087 1.604 11.914V19.866L1.31 19.628H5.552ZM11.8066 11.2C12.3013 11.2 12.7586 11.3353 13.1786 11.606C13.5986 11.8673 13.9346 12.2267 14.1866 12.684C14.4386 13.1413 14.5646 13.6547 14.5646 14.224C14.5646 14.7933 14.4386 15.3113 14.1866 15.778C13.9346 16.2353 13.5986 16.604 13.1786 16.884C12.7586 17.1547 12.3013 17.29 11.8066 17.29H9.10461L9.21661 17.066V20.286C9.21661 20.4913 9.15128 20.664 9.02061 20.804C8.89928 20.9347 8.73594 21 8.53061 21C8.33461 21 8.17128 20.9347 8.04061 20.804C7.91928 20.664 7.85861 20.4913 7.85861 20.286V11.914C7.85861 11.7087 7.92861 11.5407 8.06861 11.41C8.20861 11.27 8.37661 11.2 8.57261 11.2H11.8066ZM11.8066 15.946C12.0493 15.946 12.2686 15.8667 12.4646 15.708C12.6699 15.5493 12.8333 15.3393 12.9546 15.078C13.0853 14.8167 13.1506 14.532 13.1506 14.224C13.1506 13.916 13.0853 13.636 12.9546 13.384C12.8333 13.132 12.6699 12.9313 12.4646 12.782C12.2686 12.6233 12.0493 12.544 11.8066 12.544H9.07661L9.21661 12.334V16.128L9.09061 15.946H11.8066ZM24.3258 15.708C24.1298 15.708 23.9618 15.6427 23.8218 15.512C23.6911 15.3813 23.6258 15.2227 23.6258 15.036C23.6258 14.8587 23.6911 14.7093 23.8218 14.588C23.9618 14.4667 24.1298 14.406 24.3258 14.406H29.7298C29.9351 14.406 30.1031 14.4667 30.2338 14.588C30.3644 14.7093 30.4298 14.8633 30.4298 15.05C30.4298 15.2273 30.3644 15.3813 30.2338 15.512C30.1031 15.6427 29.9351 15.708 29.7298 15.708H24.3258ZM24.3258 18.368C24.1298 18.368 23.9618 18.3027 23.8218 18.172C23.6911 18.0413 23.6258 17.8873 23.6258 17.71C23.6258 17.5233 23.6911 17.3693 23.8218 17.248C23.9618 17.1267 24.1298 17.066 24.3258 17.066H29.7298C29.9351 17.066 30.1031 17.1313 30.2338 17.262C30.3644 17.3833 30.4298 17.5327 30.4298 17.71C30.4298 17.8873 30.3644 18.0413 30.2338 18.172C30.1031 18.3027 29.9351 18.368 29.7298 18.368H24.3258Z" fill="black"/>
<path d="M136.855 9C136.743 9 136.651 8.964 136.579 8.892C136.507 8.82 136.471 8.736 136.471 8.64V1.416L136.603 1.536L135.007 2.604C134.943 2.652 134.875 2.676 134.803 2.676C134.707 2.676 134.619 2.636 134.539 2.556C134.467 2.476 134.431 2.388 134.431 2.292C134.431 2.164 134.495 2.064 134.623 1.992L136.627 0.659999C136.675 0.627999 136.723 0.607999 136.771 0.599999C136.827 0.592 136.875 0.592 136.915 0.599999C137.019 0.607999 137.099 0.647999 137.155 0.719999C137.211 0.783999 137.239 0.864 137.239 0.96V8.64C137.239 8.736 137.203 8.82 137.131 8.892C137.059 8.964 136.967 9 136.855 9ZM142.148 9.12C141.508 9.12 140.972 8.928 140.54 8.544C140.108 8.16 139.784 7.644 139.568 6.996C139.352 6.34 139.244 5.608 139.244 4.8C139.244 3.984 139.352 3.252 139.568 2.604C139.784 1.948 140.108 1.432 140.54 1.056C140.972 0.671999 141.508 0.48 142.148 0.48C142.804 0.48 143.344 0.671999 143.768 1.056C144.2 1.432 144.524 1.948 144.74 2.604C144.956 3.252 145.064 3.984 145.064 4.8C145.064 5.608 144.956 6.34 144.74 6.996C144.524 7.644 144.2 8.16 143.768 8.544C143.344 8.928 142.804 9.12 142.148 9.12ZM142.148 8.376C142.62 8.376 143.012 8.228 143.324 7.932C143.644 7.636 143.884 7.22 144.044 6.684C144.212 6.14 144.296 5.512 144.296 4.8C144.296 4.08 144.212 3.452 144.044 2.916C143.884 2.372 143.644 1.952 143.324 1.656C143.012 1.36 142.62 1.212 142.148 1.212C141.684 1.212 141.292 1.36 140.972 1.656C140.66 1.952 140.42 2.372 140.252 2.916C140.092 3.452 140.012 4.08 140.012 4.8C140.012 5.512 140.092 6.14 140.252 6.684C140.42 7.22 140.66 7.636 140.972 7.932C141.292 8.228 141.684 8.376 142.148 8.376ZM149.285 9.12C148.645 9.12 148.109 8.928 147.677 8.544C147.245 8.16 146.921 7.644 146.705 6.996C146.489 6.34 146.381 5.608 146.381 4.8C146.381 3.984 146.489 3.252 146.705 2.604C146.921 1.948 147.245 1.432 147.677 1.056C148.109 0.671999 148.645 0.48 149.285 0.48C149.941 0.48 150.481 0.671999 150.905 1.056C151.337 1.432 151.661 1.948 151.877 2.604C152.093 3.252 152.201 3.984 152.201 4.8C152.201 5.608 152.093 6.34 151.877 6.996C151.661 7.644 151.337 8.16 150.905 8.544C150.481 8.928 149.941 9.12 149.285 9.12ZM149.285 8.376C149.757 8.376 150.149 8.228 150.461 7.932C150.781 7.636 151.021 7.22 151.181 6.684C151.349 6.14 151.433 5.512 151.433 4.8C151.433 4.08 151.349 3.452 151.181 2.916C151.021 2.372 150.781 1.952 150.461 1.656C150.149 1.36 149.757 1.212 149.285 1.212C148.821 1.212 148.429 1.36 148.109 1.656C147.797 1.952 147.557 2.372 147.389 2.916C147.229 3.452 147.149 4.08 147.149 4.8C147.149 5.512 147.229 6.14 147.389 6.684C147.557 7.22 147.797 7.636 148.109 7.932C148.429 8.228 148.821 8.376 149.285 8.376Z" fill="black"/>
<path d="M245.923 24C245.811 24 245.719 23.964 245.647 23.892C245.575 23.82 245.539 23.736 245.539 23.64V16.416L245.671 16.536L244.075 17.604C244.011 17.652 243.943 17.676 243.871 17.676C243.775 17.676 243.687 17.636 243.607 17.556C243.535 17.476 243.499 17.388 243.499 17.292C243.499 17.164 243.563 17.064 243.691 16.992L245.695 15.66C245.743 15.628 245.791 15.608 245.839 15.6C245.895 15.592 245.943 15.592 245.983 15.6C246.087 15.608 246.167 15.648 246.223 15.72C246.279 15.784 246.307 15.864 246.307 15.96V23.64C246.307 23.736 246.271 23.82 246.199 23.892C246.127 23.964 246.035 24 245.923 24ZM251.216 24.12C250.576 24.12 250.04 23.928 249.608 23.544C249.176 23.16 248.852 22.644 248.636 21.996C248.42 21.34 248.312 20.608 248.312 19.8C248.312 18.984 248.42 18.252 248.636 17.604C248.852 16.948 249.176 16.432 249.608 16.056C250.04 15.672 250.576 15.48 251.216 15.48C251.872 15.48 252.412 15.672 252.836 16.056C253.268 16.432 253.592 16.948 253.808 17.604C254.024 18.252 254.132 18.984 254.132 19.8C254.132 20.608 254.024 21.34 253.808 21.996C253.592 22.644 253.268 23.16 252.836 23.544C252.412 23.928 251.872 24.12 251.216 24.12ZM251.216 23.376C251.688 23.376 252.08 23.228 252.392 22.932C252.712 22.636 252.952 22.22 253.112 21.684C253.28 21.14 253.364 20.512 253.364 19.8C253.364 19.08 253.28 18.452 253.112 17.916C252.952 17.372 252.712 16.952 252.392 16.656C252.08 16.36 251.688 16.212 251.216 16.212C250.752 16.212 250.36 16.36 250.04 16.656C249.728 16.952 249.488 17.372 249.32 17.916C249.16 18.452 249.08 19.08 249.08 19.8C249.08 20.512 249.16 21.14 249.32 21.684C249.488 22.22 249.728 22.636 250.04 22.932C250.36 23.228 250.752 23.376 251.216 23.376Z" fill="black"/>
<path d="M273.848 8.2C273.768 8.2 273.704 8.172 273.656 8.116C273.608 8.06 273.588 7.988 273.596 7.9L273.68 6.784C273.688 6.76 273.684 6.744 273.668 6.736C273.652 6.72 273.636 6.72 273.62 6.736L272.684 7.384C272.628 7.416 272.572 7.432 272.516 7.432C272.412 7.432 272.336 7.388 272.288 7.3C272.256 7.236 272.24 7.188 272.24 7.156C272.24 7.052 272.3 6.968 272.42 6.904L273.452 6.424C273.476 6.416 273.488 6.404 273.488 6.388C273.488 6.372 273.476 6.36 273.452 6.352L272.42 5.86C272.308 5.812 272.252 5.728 272.252 5.608C272.252 5.56 272.264 5.512 272.288 5.464C272.336 5.376 272.412 5.332 272.516 5.332C272.572 5.332 272.628 5.348 272.684 5.38L273.62 6.028C273.636 6.044 273.652 6.048 273.668 6.04C273.684 6.032 273.688 6.016 273.68 5.992L273.596 4.876C273.588 4.788 273.612 4.716 273.668 4.66C273.724 4.604 273.792 4.576 273.872 4.576C273.952 4.576 274.016 4.604 274.064 4.66C274.112 4.716 274.132 4.788 274.124 4.876L274.04 5.992C274.032 6.016 274.036 6.032 274.052 6.04C274.068 6.048 274.088 6.044 274.112 6.028L275.036 5.392C275.092 5.352 275.148 5.332 275.204 5.332C275.316 5.332 275.396 5.38 275.444 5.476C275.468 5.524 275.48 5.572 275.48 5.62C275.48 5.732 275.42 5.812 275.3 5.86L274.28 6.352C274.256 6.36 274.244 6.372 274.244 6.388C274.244 6.404 274.256 6.416 274.28 6.424L275.3 6.904C275.42 6.96 275.48 7.048 275.48 7.168C275.48 7.208 275.468 7.252 275.444 7.3C275.396 7.388 275.316 7.432 275.204 7.432C275.148 7.432 275.092 7.416 275.036 7.384L274.112 6.736C274.088 6.72 274.068 6.72 274.052 6.736C274.036 6.744 274.032 6.76 274.04 6.784L274.124 7.9C274.132 7.988 274.108 8.06 274.052 8.116C273.996 8.172 273.928 8.2 273.848 8.2Z" fill="black"/>
<path d="M282.624 13C282.512 13 282.42 12.964 282.348 12.892C282.284 12.82 282.252 12.736 282.252 12.64V4.996H282.996V12.64C282.996 12.736 282.96 12.82 282.888 12.892C282.816 12.964 282.728 13 282.624 13ZM279.768 5.284C279.672 5.284 279.588 5.252 279.516 5.188C279.444 5.124 279.408 5.04 279.408 4.936C279.408 4.84 279.444 4.76 279.516 4.696C279.588 4.632 279.672 4.6 279.768 4.6H285.48C285.576 4.6 285.66 4.632 285.732 4.696C285.804 4.76 285.84 4.844 285.84 4.948C285.84 5.052 285.804 5.136 285.732 5.2C285.66 5.256 285.576 5.284 285.48 5.284H279.768ZM291.461 9.928C291.461 10.536 291.329 11.084 291.065 11.572C290.801 12.052 290.441 12.432 289.985 12.712C289.529 12.984 289.009 13.12 288.425 13.12C287.857 13.12 287.341 12.984 286.877 12.712C286.421 12.432 286.057 12.052 285.785 11.572C285.521 11.084 285.389 10.536 285.389 9.928C285.389 9.312 285.521 8.764 285.785 8.284C286.057 7.804 286.421 7.424 286.877 7.144C287.341 6.864 287.857 6.724 288.425 6.724C289.009 6.724 289.529 6.864 289.985 7.144C290.441 7.424 290.801 7.804 291.065 8.284C291.329 8.764 291.461 9.312 291.461 9.928ZM290.741 9.928C290.741 9.44 290.641 9.008 290.441 8.632C290.241 8.248 289.965 7.948 289.613 7.732C289.269 7.508 288.873 7.396 288.425 7.396C287.993 7.396 287.601 7.508 287.249 7.732C286.897 7.948 286.617 8.248 286.409 8.632C286.209 9.008 286.109 9.44 286.109 9.928C286.109 10.416 286.209 10.848 286.409 11.224C286.617 11.6 286.897 11.9 287.249 12.124C287.601 12.34 287.993 12.448 288.425 12.448C288.873 12.448 289.269 12.34 289.613 12.124C289.965 11.9 290.241 11.6 290.441 11.224C290.641 10.848 290.741 10.416 290.741 9.928ZM292.595 6.892H295.391C295.487 6.892 295.567 6.928 295.631 7C295.695 7.064 295.727 7.144 295.727 7.24C295.727 7.328 295.695 7.404 295.631 7.468C295.567 7.532 295.487 7.564 295.391 7.564H292.595C292.499 7.564 292.415 7.532 292.343 7.468C292.279 7.396 292.247 7.316 292.247 7.228C292.247 7.132 292.279 7.052 292.343 6.988C292.415 6.924 292.499 6.892 292.595 6.892ZM293.831 5.2C293.935 5.2 294.019 5.236 294.083 5.308C294.155 5.38 294.191 5.464 294.191 5.56V11.584C294.191 11.808 294.219 11.976 294.275 12.088C294.339 12.2 294.419 12.276 294.515 12.316C294.611 12.348 294.707 12.364 294.803 12.364C294.867 12.364 294.923 12.356 294.971 12.34C295.027 12.316 295.087 12.304 295.151 12.304C295.223 12.304 295.283 12.332 295.331 12.388C295.387 12.444 295.415 12.516 295.415 12.604C295.415 12.716 295.351 12.812 295.223 12.892C295.095 12.964 294.943 13 294.767 13C294.695 13 294.587 12.996 294.443 12.988C294.299 12.972 294.151 12.928 293.999 12.856C293.847 12.776 293.719 12.64 293.615 12.448C293.519 12.256 293.471 11.98 293.471 11.62V5.56C293.471 5.464 293.503 5.38 293.567 5.308C293.639 5.236 293.727 5.2 293.831 5.2ZM302.085 6.868C302.189 6.868 302.273 6.904 302.337 6.976C302.409 7.048 302.445 7.136 302.445 7.24V12.64C302.445 12.736 302.409 12.82 302.337 12.892C302.265 12.964 302.181 13 302.085 13C301.981 13 301.893 12.964 301.821 12.892C301.757 12.82 301.725 12.736 301.725 12.64V11.212L301.929 11.116C301.929 11.34 301.865 11.568 301.737 11.8C301.617 12.032 301.449 12.248 301.233 12.448C301.017 12.648 300.761 12.812 300.465 12.94C300.177 13.06 299.865 13.12 299.529 13.12C298.985 13.12 298.497 12.98 298.065 12.7C297.641 12.42 297.305 12.036 297.057 11.548C296.817 11.06 296.697 10.512 296.697 9.904C296.697 9.28 296.821 8.732 297.069 8.26C297.317 7.78 297.653 7.404 298.077 7.132C298.501 6.86 298.981 6.724 299.517 6.724C299.861 6.724 300.181 6.784 300.477 6.904C300.781 7.024 301.045 7.188 301.269 7.396C301.493 7.604 301.665 7.844 301.785 8.116C301.913 8.38 301.977 8.656 301.977 8.944L301.725 8.764V7.24C301.725 7.136 301.757 7.048 301.821 6.976C301.893 6.904 301.981 6.868 302.085 6.868ZM299.589 12.448C300.013 12.448 300.389 12.34 300.717 12.124C301.045 11.9 301.301 11.596 301.485 11.212C301.677 10.82 301.773 10.384 301.773 9.904C301.773 9.432 301.677 9.008 301.485 8.632C301.301 8.256 301.045 7.956 300.717 7.732C300.389 7.508 300.013 7.396 299.589 7.396C299.173 7.396 298.797 7.504 298.461 7.72C298.133 7.936 297.873 8.232 297.681 8.608C297.497 8.984 297.405 9.416 297.405 9.904C297.405 10.384 297.497 10.82 297.681 11.212C297.873 11.596 298.133 11.9 298.461 12.124C298.789 12.34 299.165 12.448 299.589 12.448ZM305.127 12.64C305.127 12.736 305.091 12.82 305.019 12.892C304.947 12.964 304.863 13 304.767 13C304.663 13 304.575 12.964 304.503 12.892C304.439 12.82 304.407 12.736 304.407 12.64V4.48C304.407 4.384 304.443 4.3 304.515 4.228C304.587 4.156 304.671 4.12 304.767 4.12C304.871 4.12 304.955 4.156 305.019 4.228C305.091 4.3 305.127 4.384 305.127 4.48V12.64ZM316.562 13.048C316.458 13.048 316.37 13.004 316.298 12.916L312.89 8.632L313.454 8.068L316.886 12.412C316.942 12.492 316.97 12.576 316.97 12.664C316.97 12.792 316.922 12.888 316.826 12.952C316.738 13.016 316.65 13.048 316.562 13.048ZM316.43 4.624C316.526 4.624 316.606 4.66 316.67 4.732C316.742 4.804 316.778 4.884 316.778 4.972C316.778 5.068 316.742 5.152 316.67 5.224L311.222 10.324L311.126 9.508L316.166 4.744C316.246 4.664 316.334 4.624 316.43 4.624ZM310.934 13C310.822 13 310.73 12.964 310.658 12.892C310.594 12.82 310.562 12.732 310.562 12.628V4.972C310.562 4.868 310.598 4.78 310.67 4.708C310.742 4.636 310.834 4.6 310.946 4.6C311.05 4.6 311.138 4.636 311.21 4.708C311.282 4.78 311.318 4.868 311.318 4.972V12.628C311.31 12.732 311.27 12.82 311.198 12.892C311.126 12.964 311.038 13 310.934 13ZM319.271 12.64C319.271 12.736 319.235 12.82 319.163 12.892C319.091 12.964 319.007 13 318.911 13C318.807 13 318.719 12.964 318.647 12.892C318.583 12.82 318.551 12.736 318.551 12.64V4.48C318.551 4.384 318.587 4.3 318.659 4.228C318.731 4.156 318.815 4.12 318.911 4.12C319.015 4.12 319.099 4.156 319.163 4.228C319.235 4.3 319.271 4.384 319.271 4.48V12.64ZM321.941 12.64C321.941 12.736 321.905 12.82 321.833 12.892C321.761 12.964 321.677 13 321.581 13C321.477 13 321.389 12.964 321.317 12.892C321.253 12.82 321.221 12.736 321.221 12.64V7.12C321.221 7.024 321.253 6.94 321.317 6.868C321.389 6.796 321.477 6.76 321.581 6.76C321.685 6.76 321.769 6.796 321.833 6.868C321.905 6.94 321.941 7.024 321.941 7.12V12.64ZM321.581 5.956C321.413 5.956 321.285 5.92 321.197 5.848C321.117 5.768 321.077 5.656 321.077 5.512V5.392C321.077 5.248 321.121 5.14 321.209 5.068C321.305 4.988 321.433 4.948 321.593 4.948C321.745 4.948 321.861 4.988 321.941 5.068C322.029 5.14 322.073 5.248 322.073 5.392V5.512C322.073 5.656 322.029 5.768 321.941 5.848C321.861 5.92 321.741 5.956 321.581 5.956ZM326.511 6.724C326.895 6.724 327.247 6.768 327.567 6.856C327.887 6.936 328.143 7.048 328.335 7.192C328.535 7.336 328.635 7.492 328.635 7.66C328.635 7.74 328.607 7.82 328.551 7.9C328.495 7.972 328.419 8.008 328.323 8.008C328.227 8.008 328.147 7.984 328.083 7.936C328.027 7.888 327.967 7.832 327.903 7.768C327.847 7.704 327.763 7.644 327.651 7.588C327.547 7.54 327.399 7.496 327.207 7.456C327.015 7.416 326.795 7.396 326.547 7.396C326.099 7.396 325.695 7.508 325.335 7.732C324.975 7.956 324.691 8.26 324.483 8.644C324.275 9.02 324.171 9.444 324.171 9.916C324.171 10.396 324.271 10.828 324.471 11.212C324.671 11.596 324.947 11.9 325.299 12.124C325.651 12.34 326.063 12.448 326.535 12.448C326.855 12.448 327.103 12.42 327.279 12.364C327.455 12.308 327.607 12.244 327.735 12.172C327.887 12.084 327.995 12 328.059 11.92C328.131 11.832 328.223 11.788 328.335 11.788C328.439 11.788 328.515 11.82 328.563 11.884C328.619 11.94 328.647 12.016 328.647 12.112C328.647 12.24 328.551 12.384 328.359 12.544C328.175 12.696 327.919 12.832 327.591 12.952C327.263 13.064 326.887 13.12 326.463 13.12C325.863 13.12 325.335 12.98 324.879 12.7C324.431 12.42 324.079 12.04 323.823 11.56C323.575 11.072 323.451 10.524 323.451 9.916C323.451 9.332 323.579 8.8 323.835 8.32C324.091 7.84 324.447 7.456 324.903 7.168C325.367 6.872 325.903 6.724 326.511 6.724ZM330.454 13C330.35 13 330.262 12.964 330.19 12.892C330.126 12.82 330.094 12.736 330.094 12.64V4.48C330.094 4.384 330.126 4.3 330.19 4.228C330.262 4.156 330.35 4.12 330.454 4.12C330.558 4.12 330.642 4.156 330.706 4.228C330.778 4.3 330.814 4.384 330.814 4.48V12.64C330.814 12.736 330.778 12.82 330.706 12.892C330.642 12.964 330.558 13 330.454 13ZM334.534 6.844C334.622 6.844 334.702 6.884 334.774 6.964C334.846 7.036 334.882 7.116 334.882 7.204C334.882 7.308 334.838 7.4 334.75 7.48L330.718 10.912L330.682 10.06L334.282 6.964C334.354 6.884 334.438 6.844 334.534 6.844ZM334.63 13C334.526 13 334.438 12.956 334.366 12.868L331.63 9.964L332.17 9.472L334.882 12.364C334.954 12.444 334.99 12.536 334.99 12.64C334.99 12.752 334.946 12.84 334.858 12.904C334.77 12.968 334.694 13 334.63 13ZM336.038 12.028C335.974 11.932 335.942 11.84 335.942 11.752C335.95 11.656 336.002 11.58 336.098 11.524C336.162 11.468 336.234 11.444 336.314 11.452C336.402 11.46 336.482 11.5 336.554 11.572C336.77 11.852 337.03 12.08 337.334 12.256C337.646 12.424 338.014 12.508 338.438 12.508C338.662 12.508 338.882 12.472 339.098 12.4C339.322 12.32 339.506 12.204 339.65 12.052C339.794 11.892 339.866 11.692 339.866 11.452C339.866 11.204 339.794 11.004 339.65 10.852C339.506 10.7 339.318 10.58 339.086 10.492C338.862 10.404 338.622 10.328 338.366 10.264C338.094 10.192 337.83 10.112 337.574 10.024C337.318 9.928 337.09 9.812 336.89 9.676C336.698 9.532 336.542 9.36 336.422 9.16C336.302 8.96 336.242 8.716 336.242 8.428C336.242 8.092 336.334 7.796 336.518 7.54C336.702 7.284 336.95 7.084 337.262 6.94C337.582 6.796 337.942 6.724 338.342 6.724C338.542 6.724 338.758 6.752 338.99 6.808C339.222 6.856 339.45 6.94 339.674 7.06C339.898 7.18 340.098 7.344 340.274 7.552C340.346 7.624 340.382 7.708 340.382 7.804C340.382 7.892 340.342 7.972 340.262 8.044C340.198 8.092 340.122 8.116 340.034 8.116C339.954 8.116 339.886 8.084 339.83 8.02C339.638 7.804 339.41 7.64 339.146 7.528C338.882 7.416 338.598 7.36 338.294 7.36C338.062 7.36 337.842 7.4 337.634 7.48C337.434 7.552 337.266 7.664 337.13 7.816C336.994 7.968 336.926 8.168 336.926 8.416C336.942 8.648 337.022 8.836 337.166 8.98C337.318 9.124 337.514 9.244 337.754 9.34C338.002 9.436 338.278 9.524 338.582 9.604C338.838 9.668 339.082 9.744 339.314 9.832C339.554 9.92 339.762 10.032 339.938 10.168C340.122 10.296 340.266 10.46 340.37 10.66C340.482 10.86 340.538 11.112 340.538 11.416C340.538 11.768 340.438 12.072 340.238 12.328C340.046 12.584 339.786 12.78 339.458 12.916C339.13 13.052 338.766 13.12 338.366 13.12C337.934 13.12 337.514 13.036 337.106 12.868C336.706 12.7 336.35 12.42 336.038 12.028Z" fill="black"/>
<path d="M66.6833 26.6C66.7393 26.6 66.7953 26.612 66.8513 26.636C66.9153 26.66 66.9673 26.7 67.0073 26.756L70.3193 31.724L69.9953 31.712L73.3193 26.756C73.4073 26.636 73.5153 26.584 73.6433 26.6C73.7393 26.6 73.8193 26.636 73.8833 26.708C73.9553 26.772 73.9913 26.856 73.9913 26.96V34.64C73.9913 34.736 73.9553 34.82 73.8833 34.892C73.8113 34.964 73.7233 35 73.6193 35C73.5073 35 73.4153 34.964 73.3433 34.892C73.2713 34.82 73.2353 34.736 73.2353 34.64V27.692L73.4513 27.716L70.4153 32.312C70.3913 32.36 70.3553 32.4 70.3073 32.432C70.2593 32.456 70.2033 32.464 70.1393 32.456C70.0833 32.464 70.0273 32.456 69.9713 32.432C69.9233 32.4 69.8833 32.36 69.8513 32.312L66.8033 27.668L67.0313 27.512V34.64C67.0313 34.736 66.9953 34.82 66.9233 34.892C66.8593 34.964 66.7753 35 66.6713 35C66.5673 35 66.4833 34.964 66.4193 34.892C66.3553 34.82 66.3233 34.736 66.3233 34.64V26.96C66.3233 26.864 66.3553 26.78 66.4193 26.708C66.4913 26.636 66.5793 26.6 66.6833 26.6ZM78.8411 35.12C78.2251 35.12 77.6811 34.988 77.2091 34.724C76.7371 34.46 76.3691 34.092 76.1051 33.62C75.8411 33.148 75.7091 32.596 75.7091 31.964C75.7091 31.284 75.8411 30.704 76.1051 30.224C76.3771 29.744 76.7251 29.376 77.1491 29.12C77.5811 28.856 78.0371 28.724 78.5171 28.724C78.8691 28.724 79.2091 28.788 79.5371 28.916C79.8731 29.036 80.1691 29.22 80.4251 29.468C80.6891 29.708 80.8971 30.004 81.0491 30.356C81.2091 30.708 81.2971 31.116 81.3131 31.58C81.3051 31.676 81.2651 31.76 81.1931 31.832C81.1211 31.896 81.0371 31.928 80.9411 31.928H76.1291L75.9851 31.28H80.7131L80.5571 31.424V31.184C80.5251 30.808 80.4051 30.488 80.1971 30.224C79.9891 29.96 79.7371 29.76 79.4411 29.624C79.1451 29.488 78.8371 29.42 78.5171 29.42C78.2771 29.42 78.0291 29.468 77.7731 29.564C77.5251 29.66 77.2971 29.812 77.0891 30.02C76.8891 30.22 76.7251 30.48 76.5971 30.8C76.4691 31.112 76.4051 31.484 76.4051 31.916C76.4051 32.388 76.5011 32.816 76.6931 33.2C76.8851 33.584 77.1611 33.888 77.5211 34.112C77.8891 34.336 78.3251 34.448 78.8291 34.448C79.1091 34.448 79.3611 34.408 79.5851 34.328C79.8091 34.248 80.0051 34.144 80.1731 34.016C80.3411 33.88 80.4811 33.74 80.5931 33.596C80.6811 33.524 80.7691 33.488 80.8571 33.488C80.9371 33.488 81.0051 33.52 81.0611 33.584C81.1251 33.648 81.1571 33.72 81.1571 33.8C81.1571 33.896 81.1171 33.98 81.0371 34.052C80.7971 34.34 80.4851 34.592 80.1011 34.808C79.7171 35.016 79.2971 35.12 78.8411 35.12ZM87.8823 26.12C87.9863 26.12 88.0703 26.156 88.1343 26.228C88.2063 26.292 88.2422 26.376 88.2422 26.48V34.64C88.2422 34.736 88.2063 34.82 88.1343 34.892C88.0623 34.964 87.9783 35 87.8823 35C87.7783 35 87.6903 34.964 87.6183 34.892C87.5543 34.82 87.5223 34.736 87.5223 34.64V33.212L87.7263 33.044C87.7263 33.268 87.6663 33.504 87.5463 33.752C87.4263 33.992 87.2543 34.216 87.0303 34.424C86.8143 34.632 86.5583 34.8 86.2623 34.928C85.9743 35.056 85.6623 35.12 85.3263 35.12C84.7903 35.12 84.3063 34.98 83.8743 34.7C83.4503 34.42 83.1143 34.04 82.8663 33.56C82.6183 33.08 82.4943 32.532 82.4943 31.916C82.4943 31.308 82.6183 30.764 82.8663 30.284C83.1143 29.796 83.4503 29.416 83.8743 29.144C84.2983 28.864 84.7783 28.724 85.3143 28.724C85.6423 28.724 85.9543 28.784 86.2503 28.904C86.5463 29.024 86.8063 29.188 87.0303 29.396C87.2623 29.604 87.4423 29.844 87.5703 30.116C87.7063 30.38 87.7743 30.656 87.7743 30.944L87.5223 30.764V26.48C87.5223 26.384 87.5543 26.3 87.6183 26.228C87.6903 26.156 87.7783 26.12 87.8823 26.12ZM85.3863 34.448C85.8183 34.448 86.1943 34.34 86.5143 34.124C86.8423 33.9 87.0983 33.6 87.2823 33.224C87.4743 32.84 87.5703 32.404 87.5703 31.916C87.5703 31.436 87.4743 31.008 87.2823 30.632C87.0983 30.248 86.8423 29.948 86.5143 29.732C86.1863 29.508 85.8103 29.396 85.3863 29.396C84.9703 29.396 84.5943 29.508 84.2583 29.732C83.9303 29.948 83.6703 30.248 83.4783 30.632C83.2943 31.008 83.2023 31.436 83.2023 31.916C83.2023 32.396 83.2943 32.828 83.4783 33.212C83.6703 33.596 83.9303 33.9 84.2583 34.124C84.5943 34.34 84.9703 34.448 85.3863 34.448ZM90.8276 34.64C90.8276 34.736 90.7916 34.82 90.7196 34.892C90.6476 34.964 90.5636 35 90.4676 35C90.3636 35 90.2756 34.964 90.2036 34.892C90.1396 34.82 90.1076 34.736 90.1076 34.64V29.12C90.1076 29.024 90.1396 28.94 90.2036 28.868C90.2756 28.796 90.3636 28.76 90.4676 28.76C90.5716 28.76 90.6556 28.796 90.7196 28.868C90.7916 28.94 90.8276 29.024 90.8276 29.12V34.64ZM90.4676 27.956C90.2996 27.956 90.1716 27.92 90.0836 27.848C90.0036 27.768 89.9636 27.656 89.9636 27.512V27.392C89.9636 27.248 90.0076 27.14 90.0956 27.068C90.1916 26.988 90.3196 26.948 90.4796 26.948C90.6316 26.948 90.7476 26.988 90.8276 27.068C90.9156 27.14 90.9596 27.248 90.9596 27.392V27.512C90.9596 27.656 90.9156 27.768 90.8276 27.848C90.7476 27.92 90.6276 27.956 90.4676 27.956ZM97.726 28.868C97.83 28.868 97.914 28.904 97.978 28.976C98.05 29.048 98.086 29.136 98.086 29.24V34.64C98.086 34.736 98.05 34.82 97.978 34.892C97.906 34.964 97.822 35 97.726 35C97.622 35 97.534 34.964 97.462 34.892C97.398 34.82 97.366 34.736 97.366 34.64V33.212L97.57 33.116C97.57 33.34 97.506 33.568 97.378 33.8C97.258 34.032 97.09 34.248 96.874 34.448C96.658 34.648 96.402 34.812 96.106 34.94C95.818 35.06 95.506 35.12 95.17 35.12C94.626 35.12 94.138 34.98 93.706 34.7C93.282 34.42 92.946 34.036 92.698 33.548C92.458 33.06 92.338 32.512 92.338 31.904C92.338 31.28 92.462 30.732 92.71 30.26C92.958 29.78 93.294 29.404 93.718 29.132C94.142 28.86 94.622 28.724 95.158 28.724C95.502 28.724 95.822 28.784 96.118 28.904C96.422 29.024 96.686 29.188 96.91 29.396C97.134 29.604 97.306 29.844 97.426 30.116C97.554 30.38 97.618 30.656 97.618 30.944L97.366 30.764V29.24C97.366 29.136 97.398 29.048 97.462 28.976C97.534 28.904 97.622 28.868 97.726 28.868ZM95.23 34.448C95.654 34.448 96.03 34.34 96.358 34.124C96.686 33.9 96.942 33.596 97.126 33.212C97.318 32.82 97.414 32.384 97.414 31.904C97.414 31.432 97.318 31.008 97.126 30.632C96.942 30.256 96.686 29.956 96.358 29.732C96.03 29.508 95.654 29.396 95.23 29.396C94.814 29.396 94.438 29.504 94.102 29.72C93.774 29.936 93.514 30.232 93.322 30.608C93.138 30.984 93.046 31.416 93.046 31.904C93.046 32.384 93.138 32.82 93.322 33.212C93.514 33.596 93.774 33.9 94.102 34.124C94.43 34.34 94.806 34.448 95.23 34.448ZM102.867 28.724C103.395 28.724 103.815 28.832 104.127 29.048C104.447 29.256 104.675 29.544 104.811 29.912C104.955 30.272 105.027 30.672 105.027 31.112V34.64C105.027 34.736 104.991 34.82 104.919 34.892C104.847 34.964 104.763 35 104.667 35C104.555 35 104.467 34.964 104.403 34.892C104.339 34.82 104.307 34.736 104.307 34.64V31.148C104.307 30.828 104.255 30.536 104.151 30.272C104.047 30.008 103.875 29.796 103.635 29.636C103.403 29.476 103.095 29.396 102.711 29.396C102.367 29.396 102.039 29.476 101.727 29.636C101.423 29.796 101.175 30.008 100.983 30.272C100.791 30.536 100.695 30.828 100.695 31.148V34.64C100.695 34.736 100.659 34.82 100.587 34.892C100.515 34.964 100.431 35 100.335 35C100.223 35 100.135 34.964 100.071 34.892C100.007 34.82 99.9753 34.736 99.9753 34.64V29.264C99.9753 29.168 100.007 29.084 100.071 29.012C100.143 28.94 100.231 28.904 100.335 28.904C100.439 28.904 100.523 28.94 100.587 29.012C100.659 29.084 100.695 29.168 100.695 29.264V30.272L100.419 30.704C100.435 30.448 100.515 30.204 100.659 29.972C100.811 29.732 101.003 29.52 101.235 29.336C101.467 29.144 101.723 28.996 102.003 28.892C102.291 28.78 102.579 28.724 102.867 28.724ZM116.374 35.048C116.27 35.048 116.182 35.004 116.11 34.916L112.702 30.632L113.266 30.068L116.698 34.412C116.754 34.492 116.782 34.576 116.782 34.664C116.782 34.792 116.734 34.888 116.638 34.952C116.55 35.016 116.462 35.048 116.374 35.048ZM116.242 26.624C116.338 26.624 116.418 26.66 116.482 26.732C116.554 26.804 116.59 26.884 116.59 26.972C116.59 27.068 116.554 27.152 116.482 27.224L111.034 32.324L110.938 31.508L115.978 26.744C116.058 26.664 116.146 26.624 116.242 26.624ZM110.746 35C110.634 35 110.542 34.964 110.47 34.892C110.406 34.82 110.374 34.732 110.374 34.628V26.972C110.374 26.868 110.41 26.78 110.482 26.708C110.554 26.636 110.646 26.6 110.758 26.6C110.862 26.6 110.95 26.636 111.022 26.708C111.094 26.78 111.13 26.868 111.13 26.972V34.628C111.122 34.732 111.082 34.82 111.01 34.892C110.938 34.964 110.85 35 110.746 35ZM119.084 34.64C119.084 34.736 119.048 34.82 118.976 34.892C118.904 34.964 118.82 35 118.724 35C118.62 35 118.532 34.964 118.46 34.892C118.396 34.82 118.364 34.736 118.364 34.64V26.48C118.364 26.384 118.4 26.3 118.472 26.228C118.544 26.156 118.628 26.12 118.724 26.12C118.828 26.12 118.912 26.156 118.976 26.228C119.048 26.3 119.084 26.384 119.084 26.48V34.64ZM121.753 34.64C121.753 34.736 121.717 34.82 121.645 34.892C121.573 34.964 121.489 35 121.393 35C121.289 35 121.201 34.964 121.129 34.892C121.065 34.82 121.033 34.736 121.033 34.64V29.12C121.033 29.024 121.065 28.94 121.129 28.868C121.201 28.796 121.289 28.76 121.393 28.76C121.497 28.76 121.581 28.796 121.645 28.868C121.717 28.94 121.753 29.024 121.753 29.12V34.64ZM121.393 27.956C121.225 27.956 121.097 27.92 121.009 27.848C120.929 27.768 120.889 27.656 120.889 27.512V27.392C120.889 27.248 120.933 27.14 121.021 27.068C121.117 26.988 121.245 26.948 121.405 26.948C121.557 26.948 121.673 26.988 121.753 27.068C121.841 27.14 121.885 27.248 121.885 27.392V27.512C121.885 27.656 121.841 27.768 121.753 27.848C121.673 27.92 121.553 27.956 121.393 27.956ZM126.324 28.724C126.708 28.724 127.06 28.768 127.38 28.856C127.7 28.936 127.956 29.048 128.148 29.192C128.348 29.336 128.448 29.492 128.448 29.66C128.448 29.74 128.42 29.82 128.364 29.9C128.308 29.972 128.232 30.008 128.136 30.008C128.04 30.008 127.96 29.984 127.896 29.936C127.84 29.888 127.78 29.832 127.716 29.768C127.66 29.704 127.576 29.644 127.464 29.588C127.36 29.54 127.212 29.496 127.02 29.456C126.828 29.416 126.608 29.396 126.36 29.396C125.912 29.396 125.508 29.508 125.148 29.732C124.788 29.956 124.504 30.26 124.296 30.644C124.088 31.02 123.984 31.444 123.984 31.916C123.984 32.396 124.084 32.828 124.284 33.212C124.484 33.596 124.76 33.9 125.112 34.124C125.464 34.34 125.876 34.448 126.348 34.448C126.668 34.448 126.916 34.42 127.092 34.364C127.268 34.308 127.42 34.244 127.548 34.172C127.7 34.084 127.808 34 127.872 33.92C127.944 33.832 128.036 33.788 128.148 33.788C128.252 33.788 128.328 33.82 128.376 33.884C128.432 33.94 128.46 34.016 128.46 34.112C128.46 34.24 128.364 34.384 128.172 34.544C127.988 34.696 127.732 34.832 127.404 34.952C127.076 35.064 126.7 35.12 126.276 35.12C125.676 35.12 125.148 34.98 124.692 34.7C124.244 34.42 123.892 34.04 123.636 33.56C123.388 33.072 123.264 32.524 123.264 31.916C123.264 31.332 123.392 30.8 123.648 30.32C123.904 29.84 124.26 29.456 124.716 29.168C125.18 28.872 125.716 28.724 126.324 28.724ZM130.267 35C130.163 35 130.075 34.964 130.003 34.892C129.939 34.82 129.907 34.736 129.907 34.64V26.48C129.907 26.384 129.939 26.3 130.003 26.228C130.075 26.156 130.163 26.12 130.267 26.12C130.371 26.12 130.455 26.156 130.519 26.228C130.591 26.3 130.627 26.384 130.627 26.48V34.64C130.627 34.736 130.591 34.82 130.519 34.892C130.455 34.964 130.371 35 130.267 35ZM134.347 28.844C134.435 28.844 134.515 28.884 134.587 28.964C134.659 29.036 134.695 29.116 134.695 29.204C134.695 29.308 134.651 29.4 134.563 29.48L130.531 32.912L130.495 32.06L134.095 28.964C134.167 28.884 134.251 28.844 134.347 28.844ZM134.443 35C134.339 35 134.251 34.956 134.179 34.868L131.443 31.964L131.983 31.472L134.695 34.364C134.767 34.444 134.803 34.536 134.803 34.64C134.803 34.752 134.759 34.84 134.671 34.904C134.583 34.968 134.507 35 134.443 35ZM135.85 34.028C135.786 33.932 135.754 33.84 135.754 33.752C135.762 33.656 135.814 33.58 135.91 33.524C135.974 33.468 136.046 33.444 136.126 33.452C136.214 33.46 136.294 33.5 136.366 33.572C136.582 33.852 136.842 34.08 137.146 34.256C137.458 34.424 137.826 34.508 138.25 34.508C138.474 34.508 138.694 34.472 138.91 34.4C139.134 34.32 139.318 34.204 139.462 34.052C139.606 33.892 139.678 33.692 139.678 33.452C139.678 33.204 139.606 33.004 139.462 32.852C139.318 32.7 139.13 32.58 138.898 32.492C138.674 32.404 138.434 32.328 138.178 32.264C137.906 32.192 137.642 32.112 137.386 32.024C137.13 31.928 136.902 31.812 136.702 31.676C136.51 31.532 136.354 31.36 136.234 31.16C136.114 30.96 136.054 30.716 136.054 30.428C136.054 30.092 136.146 29.796 136.33 29.54C136.514 29.284 136.762 29.084 137.074 28.94C137.394 28.796 137.754 28.724 138.154 28.724C138.354 28.724 138.57 28.752 138.802 28.808C139.034 28.856 139.262 28.94 139.486 29.06C139.71 29.18 139.91 29.344 140.086 29.552C140.158 29.624 140.194 29.708 140.194 29.804C140.194 29.892 140.154 29.972 140.074 30.044C140.01 30.092 139.934 30.116 139.846 30.116C139.766 30.116 139.698 30.084 139.642 30.02C139.45 29.804 139.222 29.64 138.958 29.528C138.694 29.416 138.41 29.36 138.106 29.36C137.874 29.36 137.654 29.4 137.446 29.48C137.246 29.552 137.078 29.664 136.942 29.816C136.806 29.968 136.738 30.168 136.738 30.416C136.754 30.648 136.834 30.836 136.978 30.98C137.13 31.124 137.326 31.244 137.566 31.34C137.814 31.436 138.09 31.524 138.394 31.604C138.65 31.668 138.894 31.744 139.126 31.832C139.366 31.92 139.574 32.032 139.75 32.168C139.934 32.296 140.078 32.46 140.182 32.66C140.294 32.86 140.35 33.112 140.35 33.416C140.35 33.768 140.25 34.072 140.05 34.328C139.858 34.584 139.598 34.78 139.27 34.916C138.942 35.052 138.578 35.12 138.178 35.12C137.746 35.12 137.326 35.036 136.918 34.868C136.518 34.7 136.162 34.42 135.85 34.028ZM146.004 30.2C145.932 30.2 145.868 30.172 145.812 30.116C145.764 30.052 145.744 29.98 145.752 29.9L145.836 28.784C145.844 28.76 145.84 28.744 145.824 28.736C145.808 28.72 145.792 28.72 145.776 28.736L144.84 29.384C144.776 29.432 144.704 29.448 144.624 29.432C144.544 29.416 144.484 29.372 144.444 29.3C144.396 29.22 144.384 29.144 144.408 29.072C144.44 29 144.496 28.944 144.576 28.904L145.608 28.424C145.632 28.416 145.644 28.404 145.644 28.388C145.644 28.372 145.632 28.36 145.608 28.352L144.576 27.86C144.496 27.82 144.444 27.764 144.42 27.692C144.396 27.612 144.404 27.536 144.444 27.464C144.492 27.384 144.552 27.34 144.624 27.332C144.704 27.324 144.776 27.34 144.84 27.38L145.776 28.028C145.792 28.044 145.808 28.048 145.824 28.04C145.84 28.032 145.844 28.016 145.836 27.992L145.752 26.876C145.744 26.796 145.768 26.728 145.824 26.672C145.88 26.608 145.948 26.576 146.028 26.576C146.108 26.576 146.172 26.608 146.22 26.672C146.268 26.728 146.288 26.796 146.28 26.876L146.196 27.992C146.188 28.016 146.192 28.032 146.208 28.04C146.224 28.048 146.244 28.044 146.268 28.028L147.192 27.392C147.264 27.344 147.34 27.328 147.42 27.344C147.5 27.36 147.56 27.404 147.6 27.476C147.648 27.548 147.656 27.62 147.624 27.692C147.592 27.764 147.536 27.82 147.456 27.86L146.436 28.352C146.412 28.36 146.4 28.372 146.4 28.388C146.4 28.404 146.412 28.416 146.436 28.424L147.456 28.904C147.544 28.944 147.6 29 147.624 29.072C147.648 29.144 147.64 29.22 147.6 29.3C147.56 29.372 147.5 29.416 147.42 29.432C147.34 29.448 147.264 29.432 147.192 29.384L146.268 28.736C146.244 28.72 146.224 28.72 146.208 28.736C146.192 28.744 146.188 28.76 146.196 28.784L146.28 29.9C146.288 29.98 146.264 30.052 146.208 30.116C146.16 30.172 146.092 30.2 146.004 30.2ZM154.765 35C154.653 35 154.561 34.964 154.489 34.892C154.425 34.82 154.393 34.736 154.393 34.64V26.996H155.137V34.64C155.137 34.736 155.101 34.82 155.029 34.892C154.957 34.964 154.869 35 154.765 35ZM151.909 27.284C151.813 27.284 151.729 27.252 151.657 27.188C151.585 27.124 151.549 27.04 151.549 26.936C151.549 26.84 151.585 26.76 151.657 26.696C151.729 26.632 151.813 26.6 151.909 26.6H157.621C157.717 26.6 157.801 26.632 157.873 26.696C157.945 26.76 157.981 26.844 157.981 26.948C157.981 27.052 157.945 27.136 157.873 27.2C157.801 27.256 157.717 27.284 157.621 27.284H151.909ZM163.601 31.928C163.601 32.536 163.469 33.084 163.205 33.572C162.941 34.052 162.581 34.432 162.125 34.712C161.669 34.984 161.149 35.12 160.565 35.12C159.997 35.12 159.481 34.984 159.017 34.712C158.561 34.432 158.197 34.052 157.925 33.572C157.661 33.084 157.529 32.536 157.529 31.928C157.529 31.312 157.661 30.764 157.925 30.284C158.197 29.804 158.561 29.424 159.017 29.144C159.481 28.864 159.997 28.724 160.565 28.724C161.149 28.724 161.669 28.864 162.125 29.144C162.581 29.424 162.941 29.804 163.205 30.284C163.469 30.764 163.601 31.312 163.601 31.928ZM162.881 31.928C162.881 31.44 162.781 31.008 162.581 30.632C162.381 30.248 162.105 29.948 161.753 29.732C161.409 29.508 161.013 29.396 160.565 29.396C160.133 29.396 159.741 29.508 159.389 29.732C159.037 29.948 158.757 30.248 158.549 30.632C158.349 31.008 158.249 31.44 158.249 31.928C158.249 32.416 158.349 32.848 158.549 33.224C158.757 33.6 159.037 33.9 159.389 34.124C159.741 34.34 160.133 34.448 160.565 34.448C161.013 34.448 161.409 34.34 161.753 34.124C162.105 33.9 162.381 33.6 162.581 33.224C162.781 32.848 162.881 32.416 162.881 31.928ZM164.736 28.892H167.532C167.628 28.892 167.708 28.928 167.772 29C167.836 29.064 167.868 29.144 167.868 29.24C167.868 29.328 167.836 29.404 167.772 29.468C167.708 29.532 167.628 29.564 167.532 29.564H164.736C164.64 29.564 164.556 29.532 164.484 29.468C164.42 29.396 164.388 29.316 164.388 29.228C164.388 29.132 164.42 29.052 164.484 28.988C164.556 28.924 164.64 28.892 164.736 28.892ZM165.972 27.2C166.076 27.2 166.16 27.236 166.224 27.308C166.296 27.38 166.332 27.464 166.332 27.56V33.584C166.332 33.808 166.36 33.976 166.416 34.088C166.48 34.2 166.56 34.276 166.656 34.316C166.752 34.348 166.848 34.364 166.944 34.364C167.008 34.364 167.064 34.356 167.112 34.34C167.168 34.316 167.228 34.304 167.292 34.304C167.364 34.304 167.424 34.332 167.472 34.388C167.528 34.444 167.556 34.516 167.556 34.604C167.556 34.716 167.492 34.812 167.364 34.892C167.236 34.964 167.084 35 166.908 35C166.836 35 166.728 34.996 166.584 34.988C166.44 34.972 166.292 34.928 166.14 34.856C165.988 34.776 165.86 34.64 165.756 34.448C165.66 34.256 165.612 33.98 165.612 33.62V27.56C165.612 27.464 165.644 27.38 165.708 27.308C165.78 27.236 165.868 27.2 165.972 27.2ZM174.226 28.868C174.33 28.868 174.414 28.904 174.478 28.976C174.55 29.048 174.586 29.136 174.586 29.24V34.64C174.586 34.736 174.55 34.82 174.478 34.892C174.406 34.964 174.322 35 174.226 35C174.122 35 174.034 34.964 173.962 34.892C173.898 34.82 173.866 34.736 173.866 34.64V33.212L174.07 33.116C174.07 33.34 174.006 33.568 173.878 33.8C173.758 34.032 173.59 34.248 173.374 34.448C173.158 34.648 172.902 34.812 172.606 34.94C172.318 35.06 172.006 35.12 171.67 35.12C171.126 35.12 170.638 34.98 170.206 34.7C169.782 34.42 169.446 34.036 169.198 33.548C168.958 33.06 168.838 32.512 168.838 31.904C168.838 31.28 168.962 30.732 169.21 30.26C169.458 29.78 169.794 29.404 170.218 29.132C170.642 28.86 171.122 28.724 171.658 28.724C172.002 28.724 172.322 28.784 172.618 28.904C172.922 29.024 173.186 29.188 173.41 29.396C173.634 29.604 173.806 29.844 173.926 30.116C174.054 30.38 174.118 30.656 174.118 30.944L173.866 30.764V29.24C173.866 29.136 173.898 29.048 173.962 28.976C174.034 28.904 174.122 28.868 174.226 28.868ZM171.73 34.448C172.154 34.448 172.53 34.34 172.858 34.124C173.186 33.9 173.442 33.596 173.626 33.212C173.818 32.82 173.914 32.384 173.914 31.904C173.914 31.432 173.818 31.008 173.626 30.632C173.442 30.256 173.186 29.956 172.858 29.732C172.53 29.508 172.154 29.396 171.73 29.396C171.314 29.396 170.938 29.504 170.602 29.72C170.274 29.936 170.014 30.232 169.822 30.608C169.638 30.984 169.546 31.416 169.546 31.904C169.546 32.384 169.638 32.82 169.822 33.212C170.014 33.596 170.274 33.9 170.602 34.124C170.93 34.34 171.306 34.448 171.73 34.448ZM177.267 34.64C177.267 34.736 177.231 34.82 177.159 34.892C177.087 34.964 177.003 35 176.907 35C176.803 35 176.715 34.964 176.643 34.892C176.579 34.82 176.547 34.736 176.547 34.64V26.48C176.547 26.384 176.583 26.3 176.655 26.228C176.727 26.156 176.811 26.12 176.907 26.12C177.011 26.12 177.095 26.156 177.159 26.228C177.231 26.3 177.267 26.384 177.267 26.48V34.64ZM186.122 26.6C186.714 26.6 187.23 26.712 187.67 26.936C188.118 27.16 188.486 27.472 188.774 27.872C189.062 28.264 189.274 28.712 189.41 29.216C189.554 29.72 189.626 30.248 189.626 30.8C189.626 31.568 189.498 32.272 189.242 32.912C188.994 33.544 188.61 34.052 188.09 34.436C187.578 34.812 186.922 35 186.122 35H183.062C182.966 35 182.882 34.964 182.81 34.892C182.738 34.82 182.702 34.736 182.702 34.64V26.96C182.702 26.864 182.738 26.78 182.81 26.708C182.882 26.636 182.966 26.6 183.062 26.6H186.122ZM186.002 34.292C186.682 34.292 187.23 34.136 187.646 33.824C188.062 33.512 188.366 33.092 188.558 32.564C188.758 32.028 188.858 31.44 188.858 30.8C188.858 30.336 188.802 29.896 188.69 29.48C188.586 29.056 188.418 28.684 188.186 28.364C187.962 28.036 187.666 27.78 187.298 27.596C186.938 27.404 186.506 27.308 186.002 27.308H183.374L183.458 27.2V34.412L183.386 34.292H186.002ZM196.175 28.868C196.279 28.868 196.363 28.904 196.427 28.976C196.499 29.048 196.535 29.136 196.535 29.24V34.64C196.535 34.736 196.499 34.82 196.427 34.892C196.355 34.964 196.271 35 196.175 35C196.071 35 195.983 34.964 195.911 34.892C195.847 34.82 195.815 34.736 195.815 34.64V33.212L196.019 33.116C196.019 33.34 195.955 33.568 195.827 33.8C195.707 34.032 195.539 34.248 195.323 34.448C195.107 34.648 194.851 34.812 194.555 34.94C194.267 35.06 193.955 35.12 193.619 35.12C193.075 35.12 192.587 34.98 192.155 34.7C191.731 34.42 191.395 34.036 191.147 33.548C190.907 33.06 190.787 32.512 190.787 31.904C190.787 31.28 190.911 30.732 191.159 30.26C191.407 29.78 191.743 29.404 192.167 29.132C192.591 28.86 193.071 28.724 193.607 28.724C193.951 28.724 194.271 28.784 194.567 28.904C194.871 29.024 195.135 29.188 195.359 29.396C195.583 29.604 195.755 29.844 195.875 30.116C196.003 30.38 196.067 30.656 196.067 30.944L195.815 30.764V29.24C195.815 29.136 195.847 29.048 195.911 28.976C195.983 28.904 196.071 28.868 196.175 28.868ZM193.679 34.448C194.103 34.448 194.479 34.34 194.807 34.124C195.135 33.9 195.391 33.596 195.575 33.212C195.767 32.82 195.863 32.384 195.863 31.904C195.863 31.432 195.767 31.008 195.575 30.632C195.391 30.256 195.135 29.956 194.807 29.732C194.479 29.508 194.103 29.396 193.679 29.396C193.263 29.396 192.887 29.504 192.551 29.72C192.223 29.936 191.963 30.232 191.771 30.608C191.587 30.984 191.495 31.416 191.495 31.904C191.495 32.384 191.587 32.82 191.771 33.212C191.963 33.596 192.223 33.9 192.551 34.124C192.879 34.34 193.255 34.448 193.679 34.448ZM202.997 28.76C203.101 28.76 203.185 28.796 203.249 28.868C203.321 28.94 203.357 29.024 203.357 29.12V34.412C203.357 35.06 203.229 35.604 202.973 36.044C202.717 36.492 202.373 36.828 201.941 37.052C201.509 37.284 201.017 37.4 200.465 37.4C200.121 37.4 199.801 37.36 199.505 37.28C199.217 37.208 198.981 37.112 198.797 36.992C198.701 36.936 198.629 36.868 198.581 36.788C198.533 36.708 198.529 36.624 198.569 36.536C198.609 36.424 198.669 36.348 198.749 36.308C198.837 36.276 198.925 36.28 199.013 36.32C199.149 36.392 199.345 36.48 199.601 36.584C199.857 36.688 200.149 36.74 200.477 36.74C200.917 36.74 201.297 36.648 201.617 36.464C201.945 36.28 202.197 36.012 202.373 35.66C202.549 35.316 202.637 34.904 202.637 34.424V33.56L202.721 33.848C202.601 34.096 202.429 34.316 202.205 34.508C201.989 34.7 201.737 34.852 201.449 34.964C201.169 35.068 200.869 35.12 200.549 35.12C200.069 35.12 199.669 35.024 199.349 34.832C199.037 34.632 198.805 34.36 198.653 34.016C198.501 33.672 198.425 33.268 198.425 32.804V29.12C198.425 29.024 198.457 28.94 198.521 28.868C198.585 28.796 198.673 28.76 198.785 28.76C198.889 28.76 198.973 28.796 199.037 28.868C199.109 28.94 199.145 29.024 199.145 29.12V32.696C199.145 33.256 199.265 33.688 199.505 33.992C199.753 34.296 200.153 34.448 200.705 34.448C201.049 34.448 201.365 34.368 201.653 34.208C201.941 34.04 202.177 33.824 202.361 33.56C202.545 33.288 202.637 33 202.637 32.696V29.12C202.637 29.024 202.669 28.94 202.733 28.868C202.805 28.796 202.893 28.76 202.997 28.76ZM204.78 34.028C204.716 33.932 204.684 33.84 204.684 33.752C204.692 33.656 204.744 33.58 204.84 33.524C204.904 33.468 204.976 33.444 205.056 33.452C205.144 33.46 205.224 33.5 205.296 33.572C205.512 33.852 205.772 34.08 206.076 34.256C206.388 34.424 206.756 34.508 207.18 34.508C207.404 34.508 207.624 34.472 207.84 34.4C208.064 34.32 208.248 34.204 208.392 34.052C208.536 33.892 208.608 33.692 208.608 33.452C208.608 33.204 208.536 33.004 208.392 32.852C208.248 32.7 208.06 32.58 207.828 32.492C207.604 32.404 207.364 32.328 207.108 32.264C206.836 32.192 206.572 32.112 206.316 32.024C206.06 31.928 205.832 31.812 205.632 31.676C205.44 31.532 205.284 31.36 205.164 31.16C205.044 30.96 204.984 30.716 204.984 30.428C204.984 30.092 205.076 29.796 205.26 29.54C205.444 29.284 205.692 29.084 206.004 28.94C206.324 28.796 206.684 28.724 207.084 28.724C207.284 28.724 207.5 28.752 207.732 28.808C207.964 28.856 208.192 28.94 208.416 29.06C208.64 29.18 208.84 29.344 209.016 29.552C209.088 29.624 209.124 29.708 209.124 29.804C209.124 29.892 209.084 29.972 209.004 30.044C208.94 30.092 208.864 30.116 208.776 30.116C208.696 30.116 208.628 30.084 208.572 30.02C208.38 29.804 208.152 29.64 207.888 29.528C207.624 29.416 207.34 29.36 207.036 29.36C206.804 29.36 206.584 29.4 206.376 29.48C206.176 29.552 206.008 29.664 205.872 29.816C205.736 29.968 205.668 30.168 205.668 30.416C205.684 30.648 205.764 30.836 205.908 30.98C206.06 31.124 206.256 31.244 206.496 31.34C206.744 31.436 207.02 31.524 207.324 31.604C207.58 31.668 207.824 31.744 208.056 31.832C208.296 31.92 208.504 32.032 208.68 32.168C208.864 32.296 209.008 32.46 209.112 32.66C209.224 32.86 209.28 33.112 209.28 33.416C209.28 33.768 209.18 34.072 208.98 34.328C208.788 34.584 208.528 34.78 208.2 34.916C207.872 35.052 207.508 35.12 207.108 35.12C206.676 35.12 206.256 35.036 205.848 34.868C205.448 34.7 205.092 34.42 204.78 34.028Z" fill="black"/>
<line x1="63" y1="18.5" x2="213" y2="18.5" stroke="black"/>
<path d="M232.972 17.688C233.116 17.688 233.236 17.736 233.332 17.832C233.428 17.928 233.476 18.048 233.476 18.192C233.476 18.32 233.428 18.432 233.332 18.528C233.236 18.608 233.116 18.648 232.972 18.648H228.508V23.472C228.508 23.632 228.46 23.76 228.364 23.856C228.268 23.952 228.148 24 228.004 24C227.86 24 227.74 23.952 227.644 23.856C227.548 23.76 227.5 23.64 227.5 23.496V18.648H223.036C222.892 18.648 222.772 18.6 222.676 18.504C222.58 18.408 222.532 18.288 222.532 18.144C222.532 18.016 222.58 17.912 222.676 17.832C222.772 17.736 222.892 17.688 223.036 17.688H227.5V13.056C227.5 12.896 227.548 12.768 227.644 12.672C227.74 12.576 227.86 12.528 228.004 12.528C228.164 12.528 228.284 12.576 228.364 12.672C228.46 12.768 228.508 12.888 228.508 13.032V17.688H232.972Z" fill="black"/>
<path d="M55.2754 37.02C55.1554 37.02 55.0234 36.984 54.8794 36.912C52.8634 36 51.1474 34.704 49.7314 33.024C48.3394 31.344 47.2834 29.448 46.5634 27.336C45.8674 25.224 45.5194 23.04 45.5194 20.784C45.5194 17.424 46.3354 14.316 47.9674 11.46C49.6234 8.604 51.9394 6.324 54.9154 4.62C55.0354 4.548 55.1554 4.512 55.2754 4.512C55.4674 4.512 55.6234 4.584 55.7434 4.728C55.8634 4.848 55.9234 5.004 55.9234 5.196C55.9234 5.46 55.8034 5.664 55.5634 5.808C53.8114 6.744 52.2754 8.004 50.9554 9.588C49.6594 11.172 48.6634 12.936 47.9674 14.88C47.2954 16.824 46.9594 18.792 46.9594 20.784C46.9594 22.8 47.2954 24.792 47.9674 26.76C48.6394 28.704 49.6234 30.468 50.9194 32.052C52.2154 33.636 53.7634 34.872 55.5634 35.76C55.7794 35.88 55.8874 36.084 55.8874 36.372C55.8874 36.804 55.6834 37.02 55.2754 37.02Z" fill="black"/>
<path d="M255.087 36.984C254.895 36.984 254.739 36.912 254.619 36.768C254.499 36.648 254.439 36.492 254.439 36.3C254.439 36.036 254.559 35.832 254.799 35.688C256.551 34.752 258.075 33.492 259.371 31.908C260.691 30.324 261.687 28.56 262.359 26.616C263.055 24.672 263.403 22.704 263.403 20.712C263.403 18.696 263.067 16.716 262.395 14.772C261.723 12.804 260.739 11.028 259.443 9.444C258.147 7.86 256.599 6.624 254.799 5.736C254.583 5.616 254.475 5.412 254.475 5.124C254.475 4.692 254.679 4.476 255.087 4.476C255.207 4.476 255.339 4.512 255.483 4.584C257.499 5.52 259.203 6.828 260.595 8.508C262.011 10.164 263.067 12.048 263.763 14.16C264.483 16.272 264.843 18.456 264.843 20.712C264.843 24.072 264.015 27.192 262.359 30.072C260.703 32.976 258.399 35.244 255.447 36.876C255.327 36.948 255.207 36.984 255.087 36.984Z" fill="black"/>
</svg>
