<svg width="325" height="35" viewBox="0 0 325 35" fill="none" xmlns="http://www.w3.org/2000/svg">
<path d="M5.552 16.628C5.748 16.628 5.91133 16.6933 6.042 16.824C6.182 16.9547 6.252 17.118 6.252 17.314C6.252 17.51 6.182 17.6733 6.042 17.804C5.91133 17.9347 5.748 18 5.552 18H0.848C0.642667 18 0.47 17.9347 0.33 17.804C0.199333 17.664 0.134 17.4913 0.134 17.286V8.914C0.134 8.70867 0.204 8.54067 0.344 8.41C0.484 8.27 0.666 8.2 0.89 8.2C1.07667 8.2 1.24 8.27 1.38 8.41C1.52933 8.54067 1.604 8.70867 1.604 8.914V16.866L1.31 16.628H5.552ZM11.8066 8.2C12.3013 8.2 12.7586 8.33533 13.1786 8.606C13.5986 8.86733 13.9346 9.22667 14.1866 9.684C14.4386 10.1413 14.5646 10.6547 14.5646 11.224C14.5646 11.7933 14.4386 12.3113 14.1866 12.778C13.9346 13.2353 13.5986 13.604 13.1786 13.884C12.7586 14.1547 12.3013 14.29 11.8066 14.29H9.10461L9.21661 14.066V17.286C9.21661 17.4913 9.15128 17.664 9.02061 17.804C8.89928 17.9347 8.73594 18 8.53061 18C8.33461 18 8.17128 17.9347 8.04061 17.804C7.91928 17.664 7.85861 17.4913 7.85861 17.286V8.914C7.85861 8.70867 7.92861 8.54067 8.06861 8.41C8.20861 8.27 8.37661 8.2 8.57261 8.2H11.8066ZM11.8066 12.946C12.0493 12.946 12.2686 12.8667 12.4646 12.708C12.6699 12.5493 12.8333 12.3393 12.9546 12.078C13.0853 11.8167 13.1506 11.532 13.1506 11.224C13.1506 10.916 13.0853 10.636 12.9546 10.384C12.8333 10.132 12.6699 9.93133 12.4646 9.782C12.2686 9.62333 12.0493 9.544 11.8066 9.544H9.07661L9.21661 9.334V13.128L9.09061 12.946H11.8066ZM24.3258 12.708C24.1298 12.708 23.9618 12.6427 23.8218 12.512C23.6911 12.3813 23.6258 12.2227 23.6258 12.036C23.6258 11.8587 23.6911 11.7093 23.8218 11.588C23.9618 11.4667 24.1298 11.406 24.3258 11.406H29.7298C29.9351 11.406 30.1031 11.4667 30.2338 11.588C30.3644 11.7093 30.4298 11.8633 30.4298 12.05C30.4298 12.2273 30.3644 12.3813 30.2338 12.512C30.1031 12.6427 29.9351 12.708 29.7298 12.708H24.3258ZM24.3258 15.368C24.1298 15.368 23.9618 15.3027 23.8218 15.172C23.6911 15.0413 23.6258 14.8873 23.6258 14.71C23.6258 14.5233 23.6911 14.3693 23.8218 14.248C23.9618 14.1267 24.1298 14.066 24.3258 14.066H29.7298C29.9351 14.066 30.1031 14.1313 30.2338 14.262C30.3644 14.3833 30.4298 14.5327 30.4298 14.71C30.4298 14.8873 30.3644 15.0413 30.2338 15.172C30.1031 15.3027 29.9351 15.368 29.7298 15.368H24.3258Z" fill="black"/>
<path d="M85.5542 0.599999C85.6582 0.599999 85.7422 0.631999 85.8062 0.696C85.8782 0.76 85.9142 0.844 85.9142 0.948C85.9142 1.052 85.8782 1.136 85.8062 1.2C85.7422 1.256 85.6582 1.284 85.5542 1.284H83.0702V8.64C83.0702 8.744 83.0342 8.832 82.9622 8.904C82.8902 8.968 82.8022 9 82.6982 9C82.5862 9 82.4942 8.968 82.4222 8.904C82.3582 8.832 82.3262 8.744 82.3262 8.64V1.284H79.8422C79.7382 1.284 79.6502 1.252 79.5782 1.188C79.5142 1.124 79.4822 1.04 79.4822 0.935999C79.4822 0.84 79.5142 0.76 79.5782 0.696C79.6502 0.631999 79.7382 0.599999 79.8422 0.599999H85.5542ZM91.487 5.928C91.487 6.528 91.355 7.072 91.091 7.56C90.827 8.048 90.463 8.432 89.999 8.712C89.535 8.984 89.019 9.12 88.451 9.12C87.883 9.12 87.367 8.984 86.903 8.712C86.439 8.432 86.075 8.048 85.811 7.56C85.547 7.072 85.415 6.528 85.415 5.928C85.415 5.328 85.547 4.784 85.811 4.296C86.075 3.808 86.439 3.424 86.903 3.144C87.367 2.864 87.883 2.724 88.451 2.724C89.019 2.724 89.535 2.864 89.999 3.144C90.463 3.424 90.827 3.808 91.091 4.296C91.355 4.784 91.487 5.328 91.487 5.928ZM90.767 5.928C90.767 5.448 90.667 5.016 90.467 4.632C90.267 4.248 89.987 3.948 89.627 3.732C89.275 3.508 88.883 3.396 88.451 3.396C88.019 3.396 87.627 3.508 87.275 3.732C86.923 3.948 86.643 4.248 86.435 4.632C86.235 5.016 86.135 5.448 86.135 5.928C86.135 6.4 86.235 6.828 86.435 7.212C86.643 7.596 86.923 7.9 87.275 8.124C87.627 8.34 88.019 8.448 88.451 8.448C88.883 8.448 89.275 8.34 89.627 8.124C89.987 7.908 90.267 7.608 90.467 7.224C90.667 6.84 90.767 6.408 90.767 5.928ZM94.1597 3.564V7.584C94.1597 7.888 94.2157 8.096 94.3277 8.208C94.4397 8.312 94.5877 8.364 94.7717 8.364C94.8197 8.364 94.8797 8.356 94.9517 8.34C95.0237 8.316 95.0797 8.304 95.1197 8.304C95.1917 8.304 95.2517 8.336 95.2997 8.4C95.3557 8.456 95.3837 8.524 95.3837 8.604C95.3837 8.716 95.3197 8.812 95.1917 8.892C95.0637 8.964 94.9117 9 94.7357 9C94.5197 9 94.3277 8.98 94.1597 8.94C93.9917 8.9 93.8277 8.78 93.6677 8.58C93.5157 8.38 93.4397 8.06 93.4397 7.62V3.564H92.5637C92.4677 3.564 92.3837 3.532 92.3117 3.468C92.2477 3.404 92.2157 3.324 92.2157 3.228C92.2157 3.132 92.2477 3.052 92.3117 2.988C92.3837 2.924 92.4677 2.892 92.5637 2.892H93.4397V1.56C93.4397 1.456 93.4717 1.372 93.5357 1.308C93.6077 1.236 93.6957 1.2 93.7997 1.2C93.9037 1.2 93.9877 1.236 94.0517 1.308C94.1237 1.372 94.1597 1.456 94.1597 1.56V2.892H95.3597C95.4477 2.892 95.5237 2.928 95.5877 3C95.6597 3.072 95.6957 3.152 95.6957 3.24C95.6957 3.336 95.6637 3.416 95.5997 3.48C95.5357 3.536 95.4557 3.564 95.3597 3.564H94.1597ZM102.006 2.868C102.11 2.868 102.194 2.904 102.258 2.976C102.33 3.048 102.366 3.136 102.366 3.24V8.64C102.366 8.744 102.33 8.832 102.258 8.904C102.194 8.968 102.11 9 102.006 9C101.902 9 101.814 8.968 101.742 8.904C101.678 8.832 101.646 8.744 101.646 8.64V7.836C101.446 8.196 101.146 8.5 100.746 8.748C100.346 8.996 99.9101 9.12 99.4381 9.12C98.9021 9.12 98.4181 8.98 97.9861 8.7C97.5621 8.42 97.2261 8.036 96.9781 7.548C96.7381 7.06 96.6181 6.512 96.6181 5.904C96.6181 5.296 96.7421 4.752 96.9901 4.272C97.2381 3.784 97.5741 3.404 97.9981 3.132C98.4301 2.86 98.9061 2.724 99.4261 2.724C99.9061 2.724 100.346 2.84 100.746 3.072C101.146 3.304 101.446 3.608 101.646 3.984V3.24C101.646 3.136 101.678 3.048 101.742 2.976C101.814 2.904 101.902 2.868 102.006 2.868ZM99.5101 8.448C99.9261 8.448 100.298 8.34 100.626 8.124C100.962 7.9 101.222 7.596 101.406 7.212C101.598 6.82 101.694 6.384 101.694 5.904C101.694 5.44 101.598 5.016 101.406 4.632C101.222 4.248 100.962 3.948 100.626 3.732C100.298 3.508 99.9261 3.396 99.5101 3.396C99.0941 3.396 98.7181 3.504 98.3821 3.72C98.0541 3.936 97.7941 4.236 97.6021 4.62C97.4181 4.996 97.3261 5.424 97.3261 5.904C97.3261 6.384 97.4181 6.82 97.6021 7.212C97.7861 7.596 98.0421 7.9 98.3701 8.124C98.7061 8.34 99.0861 8.448 99.5101 8.448ZM105.037 8.64C105.037 8.744 105.001 8.832 104.929 8.904C104.865 8.968 104.781 9 104.677 9C104.573 9 104.485 8.968 104.413 8.904C104.349 8.832 104.317 8.744 104.317 8.64V0.48C104.317 0.375999 104.349 0.292 104.413 0.228C104.485 0.156 104.573 0.12 104.677 0.12C104.781 0.12 104.865 0.156 104.929 0.228C105.001 0.292 105.037 0.375999 105.037 0.48V8.64ZM116.796 8.412C116.852 8.492 116.88 8.576 116.88 8.664C116.88 8.784 116.836 8.88 116.748 8.952C116.668 9.016 116.576 9.048 116.472 9.048C116.368 9.048 116.28 9.004 116.208 8.916L112.86 4.704L111.228 6.24V8.628C111.22 8.74 111.18 8.832 111.108 8.904C111.036 8.968 110.948 9 110.844 9C110.732 9 110.64 8.968 110.568 8.904C110.504 8.832 110.472 8.74 110.472 8.628V0.972C110.472 0.86 110.508 0.772 110.58 0.707999C110.652 0.635999 110.744 0.599999 110.856 0.599999C110.968 0.599999 111.056 0.635999 111.12 0.707999C111.192 0.772 111.228 0.86 111.228 0.972V5.328L116.076 0.744C116.148 0.664 116.236 0.624 116.34 0.624C116.436 0.624 116.516 0.66 116.58 0.732C116.652 0.804 116.688 0.884 116.688 0.972C116.688 1.068 116.652 1.152 116.58 1.224L113.436 4.164L116.796 8.412ZM119.181 8.64C119.181 8.744 119.145 8.832 119.073 8.904C119.009 8.968 118.925 9 118.821 9C118.717 9 118.629 8.968 118.557 8.904C118.493 8.832 118.461 8.744 118.461 8.64V0.48C118.461 0.375999 118.493 0.292 118.557 0.228C118.629 0.156 118.717 0.12 118.821 0.12C118.925 0.12 119.009 0.156 119.073 0.228C119.145 0.292 119.181 0.375999 119.181 0.48V8.64ZM121.851 8.64C121.851 8.744 121.815 8.832 121.743 8.904C121.679 8.968 121.595 9 121.491 9C121.387 9 121.299 8.968 121.227 8.904C121.163 8.832 121.131 8.744 121.131 8.64V3.12C121.131 3.016 121.163 2.932 121.227 2.868C121.299 2.796 121.387 2.76 121.491 2.76C121.595 2.76 121.679 2.796 121.743 2.868C121.815 2.932 121.851 3.016 121.851 3.12V8.64ZM121.491 1.956C121.331 1.956 121.207 1.92 121.119 1.848C121.031 1.768 120.987 1.656 120.987 1.512V1.392C120.987 1.248 121.031 1.14 121.119 1.068C121.215 0.988 121.343 0.948 121.503 0.948C121.823 0.948 121.983 1.096 121.983 1.392V1.512C121.983 1.656 121.939 1.768 121.851 1.848C121.771 1.92 121.651 1.956 121.491 1.956ZM126.373 2.724C126.749 2.724 127.097 2.768 127.417 2.856C127.745 2.936 128.005 3.048 128.197 3.192C128.397 3.336 128.497 3.492 128.497 3.66C128.497 3.748 128.465 3.828 128.401 3.9C128.345 3.972 128.273 4.008 128.185 4.008C128.105 4.008 128.037 3.992 127.981 3.96C127.933 3.928 127.877 3.88 127.813 3.816C127.709 3.712 127.609 3.636 127.513 3.588C127.393 3.532 127.233 3.488 127.033 3.456C126.841 3.416 126.633 3.396 126.409 3.396C125.969 3.396 125.565 3.508 125.197 3.732C124.837 3.956 124.553 4.26 124.345 4.644C124.137 5.028 124.033 5.452 124.033 5.916C124.033 6.396 124.133 6.828 124.333 7.212C124.533 7.596 124.809 7.9 125.161 8.124C125.521 8.34 125.929 8.448 126.385 8.448C126.673 8.448 126.901 8.424 127.069 8.376C127.245 8.328 127.417 8.26 127.585 8.172C127.641 8.14 127.737 8.068 127.873 7.956C127.937 7.9 127.993 7.86 128.041 7.836C128.089 7.804 128.141 7.788 128.197 7.788C128.293 7.788 128.369 7.82 128.425 7.884C128.481 7.94 128.509 8.016 128.509 8.112C128.509 8.248 128.413 8.396 128.221 8.556C128.029 8.708 127.765 8.84 127.429 8.952C127.093 9.064 126.721 9.12 126.313 9.12C125.729 9.12 125.209 8.984 124.753 8.712C124.297 8.432 123.941 8.048 123.685 7.56C123.437 7.072 123.313 6.524 123.313 5.916C123.313 5.332 123.441 4.8 123.697 4.32C123.953 3.832 124.313 3.444 124.777 3.156C125.241 2.868 125.773 2.724 126.373 2.724ZM134.746 8.364C134.818 8.444 134.854 8.536 134.854 8.64C134.854 8.744 134.81 8.832 134.722 8.904C134.642 8.968 134.566 9 134.494 9C134.39 9 134.302 8.956 134.23 8.868L131.578 6.06L130.678 6.828V8.64C130.678 8.744 130.642 8.832 130.57 8.904C130.506 8.968 130.422 9 130.318 9C130.214 9 130.126 8.968 130.054 8.904C129.99 8.832 129.958 8.744 129.958 8.64V0.48C129.958 0.375999 129.99 0.292 130.054 0.228C130.126 0.156 130.214 0.12 130.318 0.12C130.422 0.12 130.506 0.156 130.57 0.228C130.642 0.292 130.678 0.375999 130.678 0.48V5.952L134.146 2.964C134.218 2.884 134.302 2.844 134.398 2.844C134.486 2.844 134.566 2.884 134.638 2.964C134.71 3.036 134.746 3.116 134.746 3.204C134.746 3.3 134.702 3.392 134.614 3.48L132.142 5.58L134.746 8.364ZM135.901 8.028C135.837 7.924 135.805 7.836 135.805 7.764C135.805 7.66 135.857 7.58 135.961 7.524C136.009 7.476 136.073 7.452 136.153 7.452C136.249 7.452 136.337 7.492 136.417 7.572C136.889 8.196 137.517 8.508 138.301 8.508C138.685 8.508 139.017 8.42 139.297 8.244C139.585 8.06 139.729 7.796 139.729 7.452C139.729 7.116 139.597 6.864 139.333 6.696C139.069 6.528 138.701 6.384 138.229 6.264C137.565 6.096 137.045 5.88 136.669 5.616C136.293 5.344 136.105 4.948 136.105 4.428C136.105 4.1 136.197 3.808 136.381 3.552C136.565 3.288 136.813 3.084 137.125 2.94C137.445 2.796 137.805 2.724 138.205 2.724C138.549 2.724 138.893 2.792 139.237 2.928C139.589 3.056 139.889 3.264 140.137 3.552C140.209 3.608 140.245 3.688 140.245 3.792C140.245 3.888 140.205 3.972 140.125 4.044C140.069 4.092 139.997 4.116 139.909 4.116C139.829 4.116 139.757 4.084 139.693 4.02C139.501 3.804 139.273 3.64 139.009 3.528C138.745 3.416 138.461 3.36 138.157 3.36C137.781 3.36 137.457 3.448 137.185 3.624C136.921 3.8 136.789 4.064 136.789 4.416C136.805 4.736 136.949 4.98 137.221 5.148C137.501 5.316 137.909 5.468 138.445 5.604C138.861 5.708 139.205 5.824 139.477 5.952C139.749 6.08 139.969 6.26 140.137 6.492C140.313 6.724 140.401 7.032 140.401 7.416C140.401 7.936 140.193 8.352 139.777 8.664C139.361 8.968 138.845 9.12 138.229 9.12C137.253 9.12 136.477 8.756 135.901 8.028Z" fill="black"/>
<path d="M211.472 8.52C211.488 8.584 211.496 8.632 211.496 8.664C211.496 8.768 211.46 8.852 211.388 8.916C211.316 8.98 211.232 9.012 211.136 9.012C211.056 9.012 210.984 8.992 210.92 8.952C210.864 8.904 210.82 8.844 210.788 8.772L209.888 6.576H205.988L205.1 8.772C205.036 8.932 204.928 9.012 204.776 9.012C204.664 9.012 204.58 8.984 204.524 8.928C204.468 8.872 204.436 8.796 204.428 8.7V8.664C204.428 8.616 204.432 8.58 204.44 8.556L207.608 0.804C207.672 0.644 207.792 0.564 207.968 0.564C208.048 0.564 208.116 0.588 208.172 0.636C208.236 0.676 208.284 0.732 208.316 0.804L211.472 8.52ZM206.264 5.868H209.6L207.92 1.764L206.264 5.868ZM215.45 2.724C215.826 2.724 216.174 2.768 216.494 2.856C216.822 2.936 217.082 3.048 217.274 3.192C217.474 3.336 217.574 3.492 217.574 3.66C217.574 3.748 217.542 3.828 217.478 3.9C217.422 3.972 217.35 4.008 217.262 4.008C217.182 4.008 217.114 3.992 217.058 3.96C217.01 3.928 216.954 3.88 216.89 3.816C216.786 3.712 216.686 3.636 216.59 3.588C216.47 3.532 216.31 3.488 216.11 3.456C215.918 3.416 215.71 3.396 215.486 3.396C215.046 3.396 214.642 3.508 214.274 3.732C213.914 3.956 213.63 4.26 213.422 4.644C213.214 5.028 213.11 5.452 213.11 5.916C213.11 6.396 213.21 6.828 213.41 7.212C213.61 7.596 213.886 7.9 214.238 8.124C214.598 8.34 215.006 8.448 215.462 8.448C215.75 8.448 215.978 8.424 216.146 8.376C216.322 8.328 216.494 8.26 216.662 8.172C216.718 8.14 216.814 8.068 216.95 7.956C217.014 7.9 217.07 7.86 217.118 7.836C217.166 7.804 217.218 7.788 217.274 7.788C217.37 7.788 217.446 7.82 217.502 7.884C217.558 7.94 217.586 8.016 217.586 8.112C217.586 8.248 217.49 8.396 217.298 8.556C217.106 8.708 216.842 8.84 216.506 8.952C216.17 9.064 215.798 9.12 215.39 9.12C214.806 9.12 214.286 8.984 213.83 8.712C213.374 8.432 213.018 8.048 212.762 7.56C212.514 7.072 212.39 6.524 212.39 5.916C212.39 5.332 212.518 4.8 212.774 4.32C213.03 3.832 213.39 3.444 213.854 3.156C214.318 2.868 214.85 2.724 215.45 2.724ZM220.162 3.564V7.584C220.162 7.888 220.218 8.096 220.33 8.208C220.442 8.312 220.59 8.364 220.774 8.364C220.822 8.364 220.882 8.356 220.954 8.34C221.026 8.316 221.082 8.304 221.122 8.304C221.194 8.304 221.254 8.336 221.302 8.4C221.358 8.456 221.386 8.524 221.386 8.604C221.386 8.716 221.322 8.812 221.194 8.892C221.066 8.964 220.914 9 220.738 9C220.522 9 220.33 8.98 220.162 8.94C219.994 8.9 219.83 8.78 219.67 8.58C219.518 8.38 219.442 8.06 219.442 7.62V3.564H218.566C218.47 3.564 218.386 3.532 218.314 3.468C218.25 3.404 218.218 3.324 218.218 3.228C218.218 3.132 218.25 3.052 218.314 2.988C218.386 2.924 218.47 2.892 218.566 2.892H219.442V1.56C219.442 1.456 219.474 1.372 219.538 1.308C219.61 1.236 219.698 1.2 219.802 1.2C219.906 1.2 219.99 1.236 220.054 1.308C220.126 1.372 220.162 1.456 220.162 1.56V2.892H221.362C221.45 2.892 221.526 2.928 221.59 3C221.662 3.072 221.698 3.152 221.698 3.24C221.698 3.336 221.666 3.416 221.602 3.48C221.538 3.536 221.458 3.564 221.362 3.564H220.162ZM223.724 8.64C223.724 8.744 223.688 8.832 223.616 8.904C223.552 8.968 223.468 9 223.364 9C223.26 9 223.172 8.968 223.1 8.904C223.036 8.832 223.004 8.744 223.004 8.64V3.12C223.004 3.016 223.036 2.932 223.1 2.868C223.172 2.796 223.26 2.76 223.364 2.76C223.468 2.76 223.552 2.796 223.616 2.868C223.688 2.932 223.724 3.016 223.724 3.12V8.64ZM223.364 1.956C223.204 1.956 223.08 1.92 222.992 1.848C222.904 1.768 222.86 1.656 222.86 1.512V1.392C222.86 1.248 222.904 1.14 222.992 1.068C223.088 0.988 223.216 0.948 223.376 0.948C223.696 0.948 223.856 1.096 223.856 1.392V1.512C223.856 1.656 223.812 1.768 223.724 1.848C223.644 1.92 223.524 1.956 223.364 1.956ZM230.226 2.748C230.306 2.748 230.382 2.776 230.454 2.832C230.526 2.888 230.562 2.96 230.562 3.048C230.562 3.12 230.546 3.188 230.514 3.252L228.162 8.772C228.13 8.836 228.082 8.892 228.018 8.94C227.962 8.98 227.902 9 227.838 9C227.758 9.008 227.686 8.992 227.622 8.952C227.558 8.912 227.51 8.852 227.478 8.772L225.114 3.252C225.114 3.236 225.106 3.212 225.09 3.18C225.082 3.148 225.078 3.116 225.078 3.084C225.078 2.988 225.11 2.908 225.174 2.844C225.238 2.772 225.33 2.736 225.45 2.736C225.522 2.736 225.586 2.76 225.642 2.808C225.706 2.848 225.754 2.904 225.786 2.976L227.826 7.836L229.878 2.976C229.91 2.904 229.954 2.848 230.01 2.808C230.074 2.76 230.146 2.74 230.226 2.748ZM237.071 5.58C237.071 5.676 237.035 5.76 236.963 5.832C236.891 5.896 236.807 5.928 236.711 5.928H232.175C232.175 6.408 232.271 6.84 232.463 7.224C232.663 7.6 232.943 7.9 233.303 8.124C233.671 8.34 234.103 8.448 234.599 8.448C234.983 8.448 235.327 8.368 235.631 8.208C235.935 8.048 236.179 7.844 236.363 7.596C236.451 7.524 236.535 7.488 236.615 7.488C236.695 7.488 236.767 7.52 236.831 7.584C236.895 7.648 236.927 7.72 236.927 7.8C236.927 7.888 236.887 7.972 236.807 8.052C236.551 8.364 236.227 8.62 235.835 8.82C235.451 9.02 235.043 9.12 234.611 9.12C233.995 9.12 233.451 8.988 232.979 8.724C232.507 8.46 232.139 8.092 231.875 7.62C231.611 7.14 231.479 6.588 231.479 5.964C231.479 5.308 231.607 4.736 231.863 4.248C232.127 3.752 232.475 3.376 232.907 3.12C233.339 2.856 233.799 2.724 234.287 2.724C234.767 2.724 235.215 2.836 235.631 3.06C236.055 3.284 236.399 3.612 236.663 4.044C236.927 4.476 237.063 4.988 237.071 5.58ZM234.287 3.42C233.823 3.42 233.391 3.58 232.991 3.9C232.599 4.22 232.347 4.68 232.235 5.28H236.327V5.184C236.287 4.824 236.167 4.512 235.967 4.248C235.767 3.976 235.515 3.772 235.211 3.636C234.915 3.492 234.607 3.42 234.287 3.42ZM245.437 0.599999C246.205 0.599999 246.849 0.792 247.369 1.176C247.897 1.552 248.289 2.06 248.545 2.7C248.809 3.332 248.941 4.032 248.941 4.8C248.941 5.592 248.809 6.304 248.545 6.936C248.289 7.568 247.897 8.072 247.369 8.448C246.849 8.816 246.205 9 245.437 9H242.377C242.273 9 242.185 8.968 242.113 8.904C242.049 8.832 242.017 8.744 242.017 8.64V0.96C242.017 0.856 242.049 0.772 242.113 0.707999C242.185 0.635999 242.273 0.599999 242.377 0.599999H245.437ZM245.317 8.292C246.277 8.292 246.993 7.972 247.465 7.332C247.937 6.684 248.173 5.84 248.173 4.8C248.173 4.152 248.073 3.568 247.873 3.048C247.673 2.52 247.357 2.1 246.925 1.788C246.501 1.468 245.965 1.308 245.317 1.308H242.773V8.292H245.317ZM255.442 2.868C255.546 2.868 255.63 2.904 255.694 2.976C255.766 3.048 255.802 3.136 255.802 3.24V8.64C255.802 8.744 255.766 8.832 255.694 8.904C255.63 8.968 255.546 9 255.442 9C255.338 9 255.25 8.968 255.178 8.904C255.114 8.832 255.082 8.744 255.082 8.64V7.836C254.882 8.196 254.582 8.5 254.182 8.748C253.782 8.996 253.346 9.12 252.874 9.12C252.338 9.12 251.854 8.98 251.422 8.7C250.998 8.42 250.662 8.036 250.414 7.548C250.174 7.06 250.054 6.512 250.054 5.904C250.054 5.296 250.178 4.752 250.426 4.272C250.674 3.784 251.01 3.404 251.434 3.132C251.866 2.86 252.342 2.724 252.862 2.724C253.342 2.724 253.782 2.84 254.182 3.072C254.582 3.304 254.882 3.608 255.082 3.984V3.24C255.082 3.136 255.114 3.048 255.178 2.976C255.25 2.904 255.338 2.868 255.442 2.868ZM252.946 8.448C253.362 8.448 253.734 8.34 254.062 8.124C254.398 7.9 254.658 7.596 254.842 7.212C255.034 6.82 255.13 6.384 255.13 5.904C255.13 5.44 255.034 5.016 254.842 4.632C254.658 4.248 254.398 3.948 254.062 3.732C253.734 3.508 253.362 3.396 252.946 3.396C252.53 3.396 252.154 3.504 251.818 3.72C251.49 3.936 251.23 4.236 251.038 4.62C250.854 4.996 250.762 5.424 250.762 5.904C250.762 6.384 250.854 6.82 251.038 7.212C251.222 7.596 251.478 7.9 251.806 8.124C252.142 8.34 252.522 8.448 252.946 8.448ZM262.112 2.76C262.216 2.76 262.3 2.796 262.364 2.868C262.436 2.932 262.472 3.016 262.472 3.12V8.412C262.472 9.044 262.348 9.584 262.1 10.032C261.852 10.48 261.508 10.82 261.068 11.052C260.628 11.284 260.132 11.4 259.58 11.4C259.244 11.4 258.928 11.364 258.632 11.292C258.344 11.22 258.104 11.124 257.912 11.004C257.744 10.9 257.66 10.784 257.66 10.656C257.66 10.64 257.668 10.6 257.684 10.536C257.708 10.456 257.748 10.396 257.804 10.356C257.86 10.316 257.92 10.296 257.984 10.296C258.032 10.296 258.08 10.308 258.128 10.332C258.64 10.612 259.128 10.752 259.592 10.752C260.256 10.752 260.78 10.544 261.164 10.128C261.556 9.712 261.752 9.144 261.752 8.424V8.004C261.552 8.34 261.264 8.612 260.888 8.82C260.512 9.02 260.104 9.12 259.664 9.12C258.968 9.12 258.44 8.912 258.08 8.496C257.72 8.08 257.54 7.516 257.54 6.804V3.12C257.54 3.016 257.572 2.932 257.636 2.868C257.708 2.796 257.796 2.76 257.9 2.76C258.004 2.76 258.088 2.796 258.152 2.868C258.224 2.932 258.26 3.016 258.26 3.12V6.696C258.26 7.272 258.384 7.708 258.632 8.004C258.888 8.3 259.284 8.448 259.82 8.448C260.148 8.448 260.46 8.368 260.756 8.208C261.06 8.04 261.3 7.824 261.476 7.56C261.66 7.288 261.752 7 261.752 6.696V3.12C261.752 3.016 261.784 2.932 261.848 2.868C261.92 2.796 262.008 2.76 262.112 2.76ZM263.895 8.028C263.831 7.924 263.799 7.836 263.799 7.764C263.799 7.66 263.851 7.58 263.955 7.524C264.003 7.476 264.067 7.452 264.147 7.452C264.243 7.452 264.331 7.492 264.411 7.572C264.883 8.196 265.511 8.508 266.295 8.508C266.679 8.508 267.011 8.42 267.291 8.244C267.579 8.06 267.723 7.796 267.723 7.452C267.723 7.116 267.591 6.864 267.327 6.696C267.063 6.528 266.695 6.384 266.223 6.264C265.559 6.096 265.039 5.88 264.663 5.616C264.287 5.344 264.099 4.948 264.099 4.428C264.099 4.1 264.191 3.808 264.375 3.552C264.559 3.288 264.807 3.084 265.119 2.94C265.439 2.796 265.799 2.724 266.199 2.724C266.543 2.724 266.887 2.792 267.231 2.928C267.583 3.056 267.883 3.264 268.131 3.552C268.203 3.608 268.239 3.688 268.239 3.792C268.239 3.888 268.199 3.972 268.119 4.044C268.063 4.092 267.991 4.116 267.903 4.116C267.823 4.116 267.751 4.084 267.687 4.02C267.495 3.804 267.267 3.64 267.003 3.528C266.739 3.416 266.455 3.36 266.151 3.36C265.775 3.36 265.451 3.448 265.179 3.624C264.915 3.8 264.783 4.064 264.783 4.416C264.799 4.736 264.943 4.98 265.215 5.148C265.495 5.316 265.903 5.468 266.439 5.604C266.855 5.708 267.199 5.824 267.471 5.952C267.743 6.08 267.963 6.26 268.131 6.492C268.307 6.724 268.395 7.032 268.395 7.416C268.395 7.936 268.187 8.352 267.771 8.664C267.355 8.968 266.839 9.12 266.223 9.12C265.247 9.12 264.471 8.756 263.895 8.028Z" fill="black"/>
<path d="M298.848 5.2C298.768 5.2 298.704 5.172 298.656 5.116C298.608 5.06 298.588 4.988 298.596 4.9L298.68 3.784C298.688 3.76 298.684 3.744 298.668 3.736C298.652 3.72 298.636 3.72 298.62 3.736L297.684 4.384C297.628 4.416 297.572 4.432 297.516 4.432C297.412 4.432 297.336 4.388 297.288 4.3C297.256 4.236 297.24 4.188 297.24 4.156C297.24 4.052 297.3 3.968 297.42 3.904L298.452 3.424C298.476 3.416 298.488 3.404 298.488 3.388C298.488 3.372 298.476 3.36 298.452 3.352L297.42 2.86C297.308 2.812 297.252 2.728 297.252 2.608C297.252 2.56 297.264 2.512 297.288 2.464C297.336 2.376 297.412 2.332 297.516 2.332C297.572 2.332 297.628 2.348 297.684 2.38L298.62 3.028C298.636 3.044 298.652 3.048 298.668 3.04C298.684 3.032 298.688 3.016 298.68 2.992L298.596 1.876C298.588 1.788 298.612 1.716 298.668 1.66C298.724 1.604 298.792 1.576 298.872 1.576C298.952 1.576 299.016 1.604 299.064 1.66C299.112 1.716 299.132 1.788 299.124 1.876L299.04 2.992C299.032 3.016 299.036 3.032 299.052 3.04C299.068 3.048 299.088 3.044 299.112 3.028L300.036 2.392C300.092 2.352 300.148 2.332 300.204 2.332C300.316 2.332 300.396 2.38 300.444 2.476C300.468 2.524 300.48 2.572 300.48 2.62C300.48 2.732 300.42 2.812 300.3 2.86L299.28 3.352C299.256 3.36 299.244 3.372 299.244 3.388C299.244 3.404 299.256 3.416 299.28 3.424L300.3 3.904C300.42 3.96 300.48 4.048 300.48 4.168C300.48 4.208 300.468 4.252 300.444 4.3C300.396 4.388 300.316 4.432 300.204 4.432C300.148 4.432 300.092 4.416 300.036 4.384L299.112 3.736C299.088 3.72 299.068 3.72 299.052 3.736C299.036 3.744 299.032 3.76 299.04 3.784L299.124 4.9C299.132 4.988 299.108 5.06 299.052 5.116C298.996 5.172 298.928 5.2 298.848 5.2Z" fill="black"/>
<path d="M309.568 1.6C309.656 1.608 309.728 1.648 309.784 1.72C309.848 1.784 309.88 1.864 309.88 1.96V9.64C309.88 9.744 309.84 9.832 309.76 9.904C309.688 9.968 309.596 10 309.484 10C309.38 10 309.292 9.968 309.22 9.904C309.148 9.832 309.112 9.744 309.112 9.64V2.62L307.612 3.508C307.556 3.54 307.5 3.556 307.444 3.556C307.34 3.556 307.248 3.516 307.168 3.436C307.096 3.356 307.06 3.268 307.06 3.172C307.06 3.116 307.076 3.06 307.108 3.004C307.148 2.948 307.196 2.904 307.252 2.872L309.28 1.648C309.36 1.6 309.456 1.584 309.568 1.6ZM314.56 10.12C313.928 10.12 313.396 9.932 312.964 9.556C312.532 9.18 312.204 8.668 311.98 8.02C311.764 7.364 311.656 6.624 311.656 5.8C311.656 4.968 311.764 4.228 311.98 3.58C312.196 2.932 312.52 2.42 312.952 2.044C313.392 1.668 313.928 1.48 314.56 1.48C315.192 1.48 315.724 1.668 316.156 2.044C316.596 2.412 316.924 2.924 317.14 3.58C317.364 4.228 317.476 4.968 317.476 5.8C317.476 6.624 317.364 7.364 317.14 8.02C316.924 8.668 316.596 9.18 316.156 9.556C315.724 9.932 315.192 10.12 314.56 10.12ZM314.56 9.376C315.248 9.376 315.776 9.056 316.144 8.416C316.52 7.768 316.708 6.896 316.708 5.8C316.708 4.696 316.52 3.824 316.144 3.184C315.776 2.536 315.248 2.212 314.56 2.212C313.88 2.212 313.352 2.536 312.976 3.184C312.608 3.824 312.424 4.696 312.424 5.8C312.424 6.896 312.608 7.768 312.976 8.416C313.352 9.056 313.88 9.376 314.56 9.376ZM321.697 10.12C321.065 10.12 320.533 9.932 320.101 9.556C319.669 9.18 319.341 8.668 319.117 8.02C318.901 7.364 318.793 6.624 318.793 5.8C318.793 4.968 318.901 4.228 319.117 3.58C319.333 2.932 319.657 2.42 320.089 2.044C320.529 1.668 321.065 1.48 321.697 1.48C322.329 1.48 322.861 1.668 323.293 2.044C323.733 2.412 324.061 2.924 324.277 3.58C324.501 4.228 324.613 4.968 324.613 5.8C324.613 6.624 324.501 7.364 324.277 8.02C324.061 8.668 323.733 9.18 323.293 9.556C322.861 9.932 322.329 10.12 321.697 10.12ZM321.697 9.376C322.385 9.376 322.913 9.056 323.281 8.416C323.657 7.768 323.845 6.896 323.845 5.8C323.845 4.696 323.657 3.824 323.281 3.184C322.913 2.536 322.385 2.212 321.697 2.212C321.017 2.212 320.489 2.536 320.113 3.184C319.745 3.824 319.561 4.696 319.561 5.8C319.561 6.896 319.745 7.768 320.113 8.416C320.489 9.056 321.017 9.376 321.697 9.376Z" fill="black"/>
<path d="M72.5105 23.6C72.6065 23.6 72.6865 23.636 72.7505 23.708C72.8225 23.772 72.8585 23.856 72.8585 23.96V31.64C72.8585 31.744 72.8225 31.832 72.7505 31.904C72.6785 31.968 72.5905 32 72.4865 32C72.3745 32 72.2825 31.968 72.2105 31.904C72.1385 31.832 72.1025 31.744 72.1025 31.64V25.04L69.2825 29.312C69.2025 29.416 69.1105 29.464 69.0065 29.456H68.9825C68.8865 29.456 68.7985 29.408 68.7185 29.312L65.8985 25.016V31.64C65.8985 31.744 65.8625 31.832 65.7905 31.904C65.7265 31.968 65.6425 32 65.5385 32C65.4345 32 65.3505 31.968 65.2865 31.904C65.2225 31.832 65.1905 31.744 65.1905 31.64V23.96C65.1905 23.864 65.2225 23.78 65.2865 23.708C65.3585 23.636 65.4465 23.6 65.5505 23.6C65.6065 23.6 65.6665 23.616 65.7305 23.648C65.7945 23.672 65.8425 23.708 65.8745 23.756L69.0185 28.472L72.1865 23.756C72.2745 23.636 72.3825 23.584 72.5105 23.6ZM80.1203 28.58C80.1203 28.676 80.0843 28.76 80.0123 28.832C79.9403 28.896 79.8563 28.928 79.7603 28.928H75.2243C75.2243 29.408 75.3203 29.84 75.5123 30.224C75.7123 30.6 75.9923 30.9 76.3523 31.124C76.7203 31.34 77.1523 31.448 77.6483 31.448C78.0323 31.448 78.3763 31.368 78.6803 31.208C78.9843 31.048 79.2283 30.844 79.4123 30.596C79.5003 30.524 79.5843 30.488 79.6643 30.488C79.7443 30.488 79.8163 30.52 79.8803 30.584C79.9443 30.648 79.9763 30.72 79.9763 30.8C79.9763 30.888 79.9363 30.972 79.8563 31.052C79.6003 31.364 79.2763 31.62 78.8843 31.82C78.5003 32.02 78.0923 32.12 77.6603 32.12C77.0443 32.12 76.5003 31.988 76.0283 31.724C75.5563 31.46 75.1883 31.092 74.9243 30.62C74.6603 30.14 74.5283 29.588 74.5283 28.964C74.5283 28.308 74.6563 27.736 74.9123 27.248C75.1763 26.752 75.5243 26.376 75.9563 26.12C76.3883 25.856 76.8483 25.724 77.3363 25.724C77.8163 25.724 78.2643 25.836 78.6803 26.06C79.1043 26.284 79.4483 26.612 79.7123 27.044C79.9763 27.476 80.1123 27.988 80.1203 28.58ZM77.3363 26.42C76.8723 26.42 76.4403 26.58 76.0403 26.9C75.6483 27.22 75.3963 27.68 75.2843 28.28H79.3763V28.184C79.3363 27.824 79.2163 27.512 79.0163 27.248C78.8163 26.976 78.5643 26.772 78.2603 26.636C77.9643 26.492 77.6563 26.42 77.3363 26.42ZM86.5843 23.12C86.6883 23.12 86.7723 23.156 86.8363 23.228C86.9083 23.292 86.9443 23.376 86.9443 23.48V31.64C86.9443 31.744 86.9083 31.832 86.8363 31.904C86.7723 31.968 86.6883 32 86.5843 32C86.4803 32 86.3923 31.968 86.3203 31.904C86.2563 31.832 86.2243 31.744 86.2243 31.64V30.8C86.0243 31.168 85.7243 31.48 85.3243 31.736C84.9323 31.992 84.4963 32.12 84.0163 32.12C83.4883 32.12 83.0083 31.984 82.5763 31.712C82.1523 31.432 81.8163 31.048 81.5683 30.56C81.3203 30.072 81.1963 29.524 81.1963 28.916C81.1963 28.316 81.3203 27.772 81.5683 27.284C81.8163 26.796 82.1523 26.416 82.5763 26.144C83.0083 25.864 83.4843 25.724 84.0043 25.724C84.4763 25.724 84.9123 25.844 85.3123 26.084C85.7123 26.316 86.0163 26.62 86.2243 26.996V23.48C86.2243 23.376 86.2563 23.292 86.3203 23.228C86.3923 23.156 86.4803 23.12 86.5843 23.12ZM84.0883 31.448C84.5043 31.448 84.8763 31.34 85.2043 31.124C85.5403 30.908 85.8003 30.608 85.9843 30.224C86.1763 29.832 86.2723 29.396 86.2723 28.916C86.2723 28.444 86.1763 28.016 85.9843 27.632C85.8003 27.248 85.5403 26.948 85.2043 26.732C84.8763 26.508 84.5043 26.396 84.0883 26.396C83.6723 26.396 83.2963 26.508 82.9603 26.732C82.6323 26.948 82.3723 27.248 82.1803 27.632C81.9963 28.016 81.9043 28.444 81.9043 28.916C81.9043 29.396 81.9963 29.828 82.1803 30.212C82.3723 30.596 82.6323 30.9 82.9603 31.124C83.2963 31.34 83.6723 31.448 84.0883 31.448ZM89.519 31.64C89.519 31.744 89.483 31.832 89.411 31.904C89.347 31.968 89.263 32 89.159 32C89.055 32 88.967 31.968 88.895 31.904C88.831 31.832 88.799 31.744 88.799 31.64V26.12C88.799 26.016 88.831 25.932 88.895 25.868C88.967 25.796 89.055 25.76 89.159 25.76C89.263 25.76 89.347 25.796 89.411 25.868C89.483 25.932 89.519 26.016 89.519 26.12V31.64ZM89.159 24.956C88.999 24.956 88.875 24.92 88.787 24.848C88.699 24.768 88.655 24.656 88.655 24.512V24.392C88.655 24.248 88.699 24.14 88.787 24.068C88.883 23.988 89.011 23.948 89.171 23.948C89.491 23.948 89.651 24.096 89.651 24.392V24.512C89.651 24.656 89.607 24.768 89.519 24.848C89.439 24.92 89.319 24.956 89.159 24.956ZM96.3694 25.868C96.4734 25.868 96.5574 25.904 96.6214 25.976C96.6934 26.048 96.7294 26.136 96.7294 26.24V31.64C96.7294 31.744 96.6934 31.832 96.6214 31.904C96.5574 31.968 96.4734 32 96.3694 32C96.2654 32 96.1774 31.968 96.1054 31.904C96.0414 31.832 96.0094 31.744 96.0094 31.64V30.836C95.8094 31.196 95.5094 31.5 95.1094 31.748C94.7094 31.996 94.2734 32.12 93.8014 32.12C93.2654 32.12 92.7814 31.98 92.3494 31.7C91.9254 31.42 91.5894 31.036 91.3414 30.548C91.1014 30.06 90.9814 29.512 90.9814 28.904C90.9814 28.296 91.1054 27.752 91.3534 27.272C91.6014 26.784 91.9374 26.404 92.3614 26.132C92.7934 25.86 93.2694 25.724 93.7894 25.724C94.2694 25.724 94.7094 25.84 95.1094 26.072C95.5094 26.304 95.8094 26.608 96.0094 26.984V26.24C96.0094 26.136 96.0414 26.048 96.1054 25.976C96.1774 25.904 96.2654 25.868 96.3694 25.868ZM93.8734 31.448C94.2894 31.448 94.6614 31.34 94.9894 31.124C95.3254 30.9 95.5854 30.596 95.7694 30.212C95.9614 29.82 96.0574 29.384 96.0574 28.904C96.0574 28.44 95.9614 28.016 95.7694 27.632C95.5854 27.248 95.3254 26.948 94.9894 26.732C94.6614 26.508 94.2894 26.396 93.8734 26.396C93.4574 26.396 93.0814 26.504 92.7454 26.72C92.4174 26.936 92.1574 27.236 91.9654 27.62C91.7814 27.996 91.6894 28.424 91.6894 28.904C91.6894 29.384 91.7814 29.82 91.9654 30.212C92.1494 30.596 92.4054 30.9 92.7334 31.124C93.0694 31.34 93.4494 31.448 93.8734 31.448ZM101.5 25.724C102.244 25.724 102.788 25.944 103.132 26.384C103.484 26.816 103.66 27.392 103.66 28.112V31.64C103.66 31.744 103.624 31.832 103.552 31.904C103.48 31.968 103.396 32 103.3 32C103.196 32 103.108 31.968 103.036 31.904C102.972 31.832 102.94 31.744 102.94 31.64V28.148C102.94 27.628 102.808 27.208 102.544 26.888C102.288 26.56 101.888 26.396 101.344 26.396C101 26.396 100.672 26.476 100.36 26.636C100.056 26.796 99.8082 27.012 99.6162 27.284C99.4242 27.548 99.3282 27.836 99.3282 28.148V31.64C99.3282 31.744 99.2922 31.832 99.2202 31.904C99.1562 31.968 99.0722 32 98.9682 32C98.8642 32 98.7762 31.968 98.7042 31.904C98.6402 31.832 98.6082 31.744 98.6082 31.64V26.264C98.6082 26.16 98.6402 26.076 98.7042 26.012C98.7762 25.94 98.8642 25.904 98.9682 25.904C99.0722 25.904 99.1562 25.94 99.2202 26.012C99.2922 26.076 99.3282 26.16 99.3282 26.264V26.924C99.5442 26.58 99.8522 26.296 100.252 26.072C100.66 25.84 101.076 25.724 101.5 25.724ZM115.331 31.412C115.387 31.492 115.415 31.576 115.415 31.664C115.415 31.784 115.371 31.88 115.283 31.952C115.203 32.016 115.111 32.048 115.007 32.048C114.903 32.048 114.815 32.004 114.743 31.916L111.395 27.704L109.763 29.24V31.628C109.755 31.74 109.715 31.832 109.643 31.904C109.571 31.968 109.483 32 109.379 32C109.267 32 109.175 31.968 109.103 31.904C109.039 31.832 109.007 31.74 109.007 31.628V23.972C109.007 23.86 109.043 23.772 109.115 23.708C109.187 23.636 109.279 23.6 109.391 23.6C109.503 23.6 109.591 23.636 109.655 23.708C109.727 23.772 109.763 23.86 109.763 23.972V28.328L114.611 23.744C114.683 23.664 114.771 23.624 114.875 23.624C114.971 23.624 115.051 23.66 115.115 23.732C115.187 23.804 115.223 23.884 115.223 23.972C115.223 24.068 115.187 24.152 115.115 24.224L111.971 27.164L115.331 31.412ZM117.717 31.64C117.717 31.744 117.681 31.832 117.609 31.904C117.545 31.968 117.461 32 117.357 32C117.253 32 117.165 31.968 117.093 31.904C117.029 31.832 116.997 31.744 116.997 31.64V23.48C116.997 23.376 117.029 23.292 117.093 23.228C117.165 23.156 117.253 23.12 117.357 23.12C117.461 23.12 117.545 23.156 117.609 23.228C117.681 23.292 117.717 23.376 117.717 23.48V31.64ZM120.386 31.64C120.386 31.744 120.35 31.832 120.278 31.904C120.214 31.968 120.13 32 120.026 32C119.922 32 119.834 31.968 119.762 31.904C119.698 31.832 119.666 31.744 119.666 31.64V26.12C119.666 26.016 119.698 25.932 119.762 25.868C119.834 25.796 119.922 25.76 120.026 25.76C120.13 25.76 120.214 25.796 120.278 25.868C120.35 25.932 120.386 26.016 120.386 26.12V31.64ZM120.026 24.956C119.866 24.956 119.742 24.92 119.654 24.848C119.566 24.768 119.522 24.656 119.522 24.512V24.392C119.522 24.248 119.566 24.14 119.654 24.068C119.75 23.988 119.878 23.948 120.038 23.948C120.358 23.948 120.518 24.096 120.518 24.392V24.512C120.518 24.656 120.474 24.768 120.386 24.848C120.306 24.92 120.186 24.956 120.026 24.956ZM124.909 25.724C125.285 25.724 125.633 25.768 125.953 25.856C126.281 25.936 126.541 26.048 126.733 26.192C126.933 26.336 127.033 26.492 127.033 26.66C127.033 26.748 127.001 26.828 126.937 26.9C126.881 26.972 126.809 27.008 126.721 27.008C126.641 27.008 126.573 26.992 126.517 26.96C126.469 26.928 126.413 26.88 126.349 26.816C126.245 26.712 126.145 26.636 126.049 26.588C125.929 26.532 125.769 26.488 125.569 26.456C125.377 26.416 125.169 26.396 124.945 26.396C124.505 26.396 124.101 26.508 123.733 26.732C123.373 26.956 123.089 27.26 122.881 27.644C122.673 28.028 122.569 28.452 122.569 28.916C122.569 29.396 122.669 29.828 122.869 30.212C123.069 30.596 123.345 30.9 123.697 31.124C124.057 31.34 124.465 31.448 124.921 31.448C125.209 31.448 125.437 31.424 125.605 31.376C125.781 31.328 125.953 31.26 126.121 31.172C126.177 31.14 126.273 31.068 126.409 30.956C126.473 30.9 126.529 30.86 126.577 30.836C126.625 30.804 126.677 30.788 126.733 30.788C126.829 30.788 126.905 30.82 126.961 30.884C127.017 30.94 127.045 31.016 127.045 31.112C127.045 31.248 126.949 31.396 126.757 31.556C126.565 31.708 126.301 31.84 125.965 31.952C125.629 32.064 125.257 32.12 124.849 32.12C124.265 32.12 123.745 31.984 123.289 31.712C122.833 31.432 122.477 31.048 122.221 30.56C121.973 30.072 121.849 29.524 121.849 28.916C121.849 28.332 121.977 27.8 122.233 27.32C122.489 26.832 122.849 26.444 123.313 26.156C123.777 25.868 124.309 25.724 124.909 25.724ZM133.281 31.364C133.353 31.444 133.389 31.536 133.389 31.64C133.389 31.744 133.345 31.832 133.257 31.904C133.177 31.968 133.101 32 133.029 32C132.925 32 132.837 31.956 132.765 31.868L130.113 29.06L129.213 29.828V31.64C129.213 31.744 129.177 31.832 129.105 31.904C129.041 31.968 128.957 32 128.853 32C128.749 32 128.661 31.968 128.589 31.904C128.525 31.832 128.493 31.744 128.493 31.64V23.48C128.493 23.376 128.525 23.292 128.589 23.228C128.661 23.156 128.749 23.12 128.853 23.12C128.957 23.12 129.041 23.156 129.105 23.228C129.177 23.292 129.213 23.376 129.213 23.48V28.952L132.681 25.964C132.753 25.884 132.837 25.844 132.933 25.844C133.021 25.844 133.101 25.884 133.173 25.964C133.245 26.036 133.281 26.116 133.281 26.204C133.281 26.3 133.237 26.392 133.149 26.48L130.677 28.58L133.281 31.364ZM134.436 31.028C134.372 30.924 134.34 30.836 134.34 30.764C134.34 30.66 134.392 30.58 134.496 30.524C134.544 30.476 134.608 30.452 134.688 30.452C134.784 30.452 134.872 30.492 134.952 30.572C135.424 31.196 136.052 31.508 136.836 31.508C137.22 31.508 137.552 31.42 137.832 31.244C138.12 31.06 138.264 30.796 138.264 30.452C138.264 30.116 138.132 29.864 137.868 29.696C137.604 29.528 137.236 29.384 136.764 29.264C136.1 29.096 135.58 28.88 135.204 28.616C134.828 28.344 134.64 27.948 134.64 27.428C134.64 27.1 134.732 26.808 134.916 26.552C135.1 26.288 135.348 26.084 135.66 25.94C135.98 25.796 136.34 25.724 136.74 25.724C137.084 25.724 137.428 25.792 137.772 25.928C138.124 26.056 138.424 26.264 138.672 26.552C138.744 26.608 138.78 26.688 138.78 26.792C138.78 26.888 138.74 26.972 138.66 27.044C138.604 27.092 138.532 27.116 138.444 27.116C138.364 27.116 138.292 27.084 138.228 27.02C138.036 26.804 137.808 26.64 137.544 26.528C137.28 26.416 136.996 26.36 136.692 26.36C136.316 26.36 135.992 26.448 135.72 26.624C135.456 26.8 135.324 27.064 135.324 27.416C135.34 27.736 135.484 27.98 135.756 28.148C136.036 28.316 136.444 28.468 136.98 28.604C137.396 28.708 137.74 28.824 138.012 28.952C138.284 29.08 138.504 29.26 138.672 29.492C138.848 29.724 138.936 30.032 138.936 30.416C138.936 30.936 138.728 31.352 138.312 31.664C137.896 31.968 137.38 32.12 136.764 32.12C135.788 32.12 135.012 31.756 134.436 31.028ZM144.59 27.2C144.51 27.2 144.446 27.172 144.398 27.116C144.35 27.06 144.33 26.988 144.338 26.9L144.422 25.784C144.43 25.76 144.426 25.744 144.41 25.736C144.394 25.72 144.378 25.72 144.362 25.736L143.426 26.384C143.37 26.416 143.314 26.432 143.258 26.432C143.154 26.432 143.078 26.388 143.03 26.3C142.998 26.236 142.982 26.188 142.982 26.156C142.982 26.052 143.042 25.968 143.162 25.904L144.194 25.424C144.218 25.416 144.23 25.404 144.23 25.388C144.23 25.372 144.218 25.36 144.194 25.352L143.162 24.86C143.05 24.812 142.994 24.728 142.994 24.608C142.994 24.56 143.006 24.512 143.03 24.464C143.078 24.376 143.154 24.332 143.258 24.332C143.314 24.332 143.37 24.348 143.426 24.38L144.362 25.028C144.378 25.044 144.394 25.048 144.41 25.04C144.426 25.032 144.43 25.016 144.422 24.992L144.338 23.876C144.33 23.788 144.354 23.716 144.41 23.66C144.466 23.604 144.534 23.576 144.614 23.576C144.694 23.576 144.758 23.604 144.806 23.66C144.854 23.716 144.874 23.788 144.866 23.876L144.782 24.992C144.774 25.016 144.778 25.032 144.794 25.04C144.81 25.048 144.83 25.044 144.854 25.028L145.778 24.392C145.834 24.352 145.89 24.332 145.946 24.332C146.058 24.332 146.138 24.38 146.186 24.476C146.21 24.524 146.222 24.572 146.222 24.62C146.222 24.732 146.162 24.812 146.042 24.86L145.022 25.352C144.998 25.36 144.986 25.372 144.986 25.388C144.986 25.404 144.998 25.416 145.022 25.424L146.042 25.904C146.162 25.96 146.222 26.048 146.222 26.168C146.222 26.208 146.21 26.252 146.186 26.3C146.138 26.388 146.058 26.432 145.946 26.432C145.89 26.432 145.834 26.416 145.778 26.384L144.854 25.736C144.83 25.72 144.81 25.72 144.794 25.736C144.778 25.744 144.774 25.76 144.782 25.784L144.866 26.9C144.874 26.988 144.85 27.06 144.794 27.116C144.738 27.172 144.67 27.2 144.59 27.2ZM155.211 23.6C155.323 23.6 155.407 23.632 155.463 23.696C155.527 23.76 155.559 23.84 155.559 23.936C155.559 23.976 155.547 24.032 155.523 24.104L152.223 31.796C152.191 31.868 152.143 31.928 152.079 31.976C152.015 32.016 151.947 32.036 151.875 32.036C151.779 32.036 151.691 32.004 151.611 31.94C151.539 31.876 151.503 31.796 151.503 31.7C151.503 31.636 151.515 31.576 151.539 31.52L154.647 24.284H150.795C150.699 24.284 150.615 24.252 150.543 24.188C150.479 24.124 150.447 24.04 150.447 23.936C150.447 23.84 150.479 23.76 150.543 23.696C150.615 23.632 150.699 23.6 150.795 23.6H155.211Z" fill="black"/>
<path d="M213.83 23.6C213.934 23.6 214.018 23.632 214.082 23.696C214.154 23.76 214.19 23.844 214.19 23.948C214.19 24.052 214.154 24.136 214.082 24.2C214.018 24.256 213.934 24.284 213.83 24.284H211.346V31.64C211.346 31.744 211.31 31.832 211.238 31.904C211.166 31.968 211.078 32 210.974 32C210.862 32 210.77 31.968 210.698 31.904C210.634 31.832 210.602 31.744 210.602 31.64V24.284H208.118C208.014 24.284 207.926 24.252 207.854 24.188C207.79 24.124 207.758 24.04 207.758 23.936C207.758 23.84 207.79 23.76 207.854 23.696C207.926 23.632 208.014 23.6 208.118 23.6H213.83ZM219.762 28.928C219.762 29.528 219.63 30.072 219.366 30.56C219.102 31.048 218.738 31.432 218.274 31.712C217.81 31.984 217.294 32.12 216.726 32.12C216.158 32.12 215.642 31.984 215.178 31.712C214.714 31.432 214.35 31.048 214.086 30.56C213.822 30.072 213.69 29.528 213.69 28.928C213.69 28.328 213.822 27.784 214.086 27.296C214.35 26.808 214.714 26.424 215.178 26.144C215.642 25.864 216.158 25.724 216.726 25.724C217.294 25.724 217.81 25.864 218.274 26.144C218.738 26.424 219.102 26.808 219.366 27.296C219.63 27.784 219.762 28.328 219.762 28.928ZM219.042 28.928C219.042 28.448 218.942 28.016 218.742 27.632C218.542 27.248 218.262 26.948 217.902 26.732C217.55 26.508 217.158 26.396 216.726 26.396C216.294 26.396 215.902 26.508 215.55 26.732C215.198 26.948 214.918 27.248 214.71 27.632C214.51 28.016 214.41 28.448 214.41 28.928C214.41 29.4 214.51 29.828 214.71 30.212C214.918 30.596 215.198 30.9 215.55 31.124C215.902 31.34 216.294 31.448 216.726 31.448C217.158 31.448 217.55 31.34 217.902 31.124C218.262 30.908 218.542 30.608 218.742 30.224C218.942 29.84 219.042 29.408 219.042 28.928ZM222.435 26.564V30.584C222.435 30.888 222.491 31.096 222.603 31.208C222.715 31.312 222.863 31.364 223.047 31.364C223.095 31.364 223.155 31.356 223.227 31.34C223.299 31.316 223.355 31.304 223.395 31.304C223.467 31.304 223.527 31.336 223.575 31.4C223.631 31.456 223.659 31.524 223.659 31.604C223.659 31.716 223.595 31.812 223.467 31.892C223.339 31.964 223.187 32 223.011 32C222.795 32 222.603 31.98 222.435 31.94C222.267 31.9 222.103 31.78 221.943 31.58C221.791 31.38 221.715 31.06 221.715 30.62V26.564H220.839C220.743 26.564 220.659 26.532 220.587 26.468C220.523 26.404 220.491 26.324 220.491 26.228C220.491 26.132 220.523 26.052 220.587 25.988C220.659 25.924 220.743 25.892 220.839 25.892H221.715V24.56C221.715 24.456 221.747 24.372 221.811 24.308C221.883 24.236 221.971 24.2 222.075 24.2C222.179 24.2 222.263 24.236 222.327 24.308C222.399 24.372 222.435 24.456 222.435 24.56V25.892H223.635C223.723 25.892 223.799 25.928 223.863 26C223.935 26.072 223.971 26.152 223.971 26.24C223.971 26.336 223.939 26.416 223.875 26.48C223.811 26.536 223.731 26.564 223.635 26.564H222.435ZM230.282 25.868C230.386 25.868 230.47 25.904 230.534 25.976C230.606 26.048 230.642 26.136 230.642 26.24V31.64C230.642 31.744 230.606 31.832 230.534 31.904C230.47 31.968 230.386 32 230.282 32C230.178 32 230.09 31.968 230.018 31.904C229.954 31.832 229.922 31.744 229.922 31.64V30.836C229.722 31.196 229.422 31.5 229.022 31.748C228.622 31.996 228.186 32.12 227.714 32.12C227.178 32.12 226.694 31.98 226.262 31.7C225.838 31.42 225.502 31.036 225.254 30.548C225.014 30.06 224.894 29.512 224.894 28.904C224.894 28.296 225.018 27.752 225.266 27.272C225.514 26.784 225.85 26.404 226.274 26.132C226.706 25.86 227.182 25.724 227.702 25.724C228.182 25.724 228.622 25.84 229.022 26.072C229.422 26.304 229.722 26.608 229.922 26.984V26.24C229.922 26.136 229.954 26.048 230.018 25.976C230.09 25.904 230.178 25.868 230.282 25.868ZM227.786 31.448C228.202 31.448 228.574 31.34 228.902 31.124C229.238 30.9 229.498 30.596 229.682 30.212C229.874 29.82 229.97 29.384 229.97 28.904C229.97 28.44 229.874 28.016 229.682 27.632C229.498 27.248 229.238 26.948 228.902 26.732C228.574 26.508 228.202 26.396 227.786 26.396C227.37 26.396 226.994 26.504 226.658 26.72C226.33 26.936 226.07 27.236 225.878 27.62C225.694 27.996 225.602 28.424 225.602 28.904C225.602 29.384 225.694 29.82 225.878 30.212C226.062 30.596 226.318 30.9 226.646 31.124C226.982 31.34 227.362 31.448 227.786 31.448ZM233.312 31.64C233.312 31.744 233.276 31.832 233.204 31.904C233.14 31.968 233.056 32 232.952 32C232.848 32 232.76 31.968 232.688 31.904C232.624 31.832 232.592 31.744 232.592 31.64V23.48C232.592 23.376 232.624 23.292 232.688 23.228C232.76 23.156 232.848 23.12 232.952 23.12C233.056 23.12 233.14 23.156 233.204 23.228C233.276 23.292 233.312 23.376 233.312 23.48V31.64ZM242.167 23.6C242.935 23.6 243.579 23.792 244.099 24.176C244.627 24.552 245.019 25.06 245.275 25.7C245.539 26.332 245.671 27.032 245.671 27.8C245.671 28.592 245.539 29.304 245.275 29.936C245.019 30.568 244.627 31.072 244.099 31.448C243.579 31.816 242.935 32 242.167 32H239.107C239.003 32 238.915 31.968 238.843 31.904C238.779 31.832 238.747 31.744 238.747 31.64V23.96C238.747 23.856 238.779 23.772 238.843 23.708C238.915 23.636 239.003 23.6 239.107 23.6H242.167ZM242.047 31.292C243.007 31.292 243.723 30.972 244.195 30.332C244.667 29.684 244.903 28.84 244.903 27.8C244.903 27.152 244.803 26.568 244.603 26.048C244.403 25.52 244.087 25.1 243.655 24.788C243.231 24.468 242.695 24.308 242.047 24.308H239.503V31.292H242.047ZM252.172 25.868C252.276 25.868 252.36 25.904 252.424 25.976C252.496 26.048 252.532 26.136 252.532 26.24V31.64C252.532 31.744 252.496 31.832 252.424 31.904C252.36 31.968 252.276 32 252.172 32C252.068 32 251.98 31.968 251.908 31.904C251.844 31.832 251.812 31.744 251.812 31.64V30.836C251.612 31.196 251.312 31.5 250.912 31.748C250.512 31.996 250.076 32.12 249.604 32.12C249.068 32.12 248.584 31.98 248.152 31.7C247.728 31.42 247.392 31.036 247.144 30.548C246.904 30.06 246.784 29.512 246.784 28.904C246.784 28.296 246.908 27.752 247.156 27.272C247.404 26.784 247.74 26.404 248.164 26.132C248.596 25.86 249.072 25.724 249.592 25.724C250.072 25.724 250.512 25.84 250.912 26.072C251.312 26.304 251.612 26.608 251.812 26.984V26.24C251.812 26.136 251.844 26.048 251.908 25.976C251.98 25.904 252.068 25.868 252.172 25.868ZM249.676 31.448C250.092 31.448 250.464 31.34 250.792 31.124C251.128 30.9 251.388 30.596 251.572 30.212C251.764 29.82 251.86 29.384 251.86 28.904C251.86 28.44 251.764 28.016 251.572 27.632C251.388 27.248 251.128 26.948 250.792 26.732C250.464 26.508 250.092 26.396 249.676 26.396C249.26 26.396 248.884 26.504 248.548 26.72C248.22 26.936 247.96 27.236 247.768 27.62C247.584 27.996 247.492 28.424 247.492 28.904C247.492 29.384 247.584 29.82 247.768 30.212C247.952 30.596 248.208 30.9 248.536 31.124C248.872 31.34 249.252 31.448 249.676 31.448ZM258.842 25.76C258.946 25.76 259.03 25.796 259.094 25.868C259.166 25.932 259.202 26.016 259.202 26.12V31.412C259.202 32.044 259.078 32.584 258.83 33.032C258.582 33.48 258.238 33.82 257.798 34.052C257.358 34.284 256.862 34.4 256.31 34.4C255.974 34.4 255.658 34.364 255.362 34.292C255.074 34.22 254.834 34.124 254.642 34.004C254.474 33.9 254.39 33.784 254.39 33.656C254.39 33.64 254.398 33.6 254.414 33.536C254.438 33.456 254.478 33.396 254.534 33.356C254.59 33.316 254.65 33.296 254.714 33.296C254.762 33.296 254.81 33.308 254.858 33.332C255.37 33.612 255.858 33.752 256.322 33.752C256.986 33.752 257.51 33.544 257.894 33.128C258.286 32.712 258.482 32.144 258.482 31.424V31.004C258.282 31.34 257.994 31.612 257.618 31.82C257.242 32.02 256.834 32.12 256.394 32.12C255.698 32.12 255.17 31.912 254.81 31.496C254.45 31.08 254.27 30.516 254.27 29.804V26.12C254.27 26.016 254.302 25.932 254.366 25.868C254.438 25.796 254.526 25.76 254.63 25.76C254.734 25.76 254.818 25.796 254.882 25.868C254.954 25.932 254.99 26.016 254.99 26.12V29.696C254.99 30.272 255.114 30.708 255.362 31.004C255.618 31.3 256.014 31.448 256.55 31.448C256.878 31.448 257.19 31.368 257.486 31.208C257.79 31.04 258.03 30.824 258.206 30.56C258.39 30.288 258.482 30 258.482 29.696V26.12C258.482 26.016 258.514 25.932 258.578 25.868C258.65 25.796 258.738 25.76 258.842 25.76ZM260.625 31.028C260.561 30.924 260.529 30.836 260.529 30.764C260.529 30.66 260.581 30.58 260.685 30.524C260.733 30.476 260.797 30.452 260.877 30.452C260.973 30.452 261.061 30.492 261.141 30.572C261.613 31.196 262.241 31.508 263.025 31.508C263.409 31.508 263.741 31.42 264.021 31.244C264.309 31.06 264.453 30.796 264.453 30.452C264.453 30.116 264.321 29.864 264.057 29.696C263.793 29.528 263.425 29.384 262.953 29.264C262.289 29.096 261.769 28.88 261.393 28.616C261.017 28.344 260.829 27.948 260.829 27.428C260.829 27.1 260.921 26.808 261.105 26.552C261.289 26.288 261.537 26.084 261.849 25.94C262.169 25.796 262.529 25.724 262.929 25.724C263.273 25.724 263.617 25.792 263.961 25.928C264.313 26.056 264.613 26.264 264.861 26.552C264.933 26.608 264.969 26.688 264.969 26.792C264.969 26.888 264.929 26.972 264.849 27.044C264.793 27.092 264.721 27.116 264.633 27.116C264.553 27.116 264.481 27.084 264.417 27.02C264.225 26.804 263.997 26.64 263.733 26.528C263.469 26.416 263.185 26.36 262.881 26.36C262.505 26.36 262.181 26.448 261.909 26.624C261.645 26.8 261.513 27.064 261.513 27.416C261.529 27.736 261.673 27.98 261.945 28.148C262.225 28.316 262.633 28.468 263.169 28.604C263.585 28.708 263.929 28.824 264.201 28.952C264.473 29.08 264.693 29.26 264.861 29.492C265.037 29.724 265.125 30.032 265.125 30.416C265.125 30.936 264.917 31.352 264.501 31.664C264.085 31.968 263.569 32.12 262.953 32.12C261.977 32.12 261.201 31.756 260.625 31.028Z" fill="black"/>
<line x1="65" y1="15.5" x2="156" y2="15.5" stroke="black"/>
<line x1="201" y1="15.5" x2="271" y2="15.5" stroke="black"/>
<path d="M184.972 14.688C185.116 14.688 185.236 14.736 185.332 14.832C185.428 14.928 185.476 15.048 185.476 15.192C185.476 15.32 185.428 15.432 185.332 15.528C185.236 15.608 185.116 15.648 184.972 15.648H180.508V20.472C180.508 20.632 180.46 20.76 180.364 20.856C180.268 20.952 180.148 21 180.004 21C179.86 21 179.74 20.952 179.644 20.856C179.548 20.76 179.5 20.64 179.5 20.496V15.648H175.036C174.892 15.648 174.772 15.6 174.676 15.504C174.58 15.408 174.532 15.288 174.532 15.144C174.532 15.016 174.58 14.912 174.676 14.832C174.772 14.736 174.892 14.688 175.036 14.688H179.5V10.056C179.5 9.896 179.548 9.768 179.644 9.672C179.74 9.576 179.86 9.528 180.004 9.528C180.164 9.528 180.284 9.576 180.364 9.672C180.46 9.768 180.508 9.888 180.508 10.032V14.688H184.972Z" fill="black"/>
<path d="M55.2754 34.02C55.1554 34.02 55.0234 33.984 54.8794 33.912C52.8634 33 51.1474 31.704 49.7314 30.024C48.3394 28.344 47.2834 26.448 46.5634 24.336C45.8674 22.224 45.5194 20.04 45.5194 17.784C45.5194 14.424 46.3354 11.316 47.9674 8.46C49.6234 5.604 51.9394 3.324 54.9154 1.62C55.0354 1.548 55.1554 1.512 55.2754 1.512C55.4674 1.512 55.6234 1.584 55.7434 1.728C55.8634 1.848 55.9234 2.004 55.9234 2.196C55.9234 2.46 55.8034 2.664 55.5634 2.808C53.8114 3.744 52.2754 5.004 50.9554 6.588C49.6594 8.172 48.6634 9.936 47.9674 11.88C47.2954 13.824 46.9594 15.792 46.9594 17.784C46.9594 19.8 47.2954 21.792 47.9674 23.76C48.6394 25.704 49.6234 27.468 50.9194 29.052C52.2154 30.636 53.7634 31.872 55.5634 32.76C55.7794 32.88 55.8874 33.084 55.8874 33.372C55.8874 33.804 55.6834 34.02 55.2754 34.02Z" fill="black"/>
<path d="M283.087 33.984C282.895 33.984 282.739 33.912 282.619 33.768C282.499 33.648 282.439 33.492 282.439 33.3C282.439 33.036 282.559 32.832 282.799 32.688C284.551 31.752 286.075 30.492 287.371 28.908C288.691 27.324 289.687 25.56 290.359 23.616C291.055 21.672 291.403 19.704 291.403 17.712C291.403 15.696 291.067 13.716 290.395 11.772C289.723 9.804 288.739 8.028 287.443 6.444C286.147 4.86 284.599 3.624 282.799 2.736C282.583 2.616 282.475 2.412 282.475 2.124C282.475 1.692 282.679 1.476 283.087 1.476C283.207 1.476 283.339 1.512 283.483 1.584C285.499 2.52 287.203 3.828 288.595 5.508C290.011 7.164 291.067 9.048 291.763 11.16C292.483 13.272 292.843 15.456 292.843 17.712C292.843 21.072 292.015 24.192 290.359 27.072C288.703 29.976 286.399 32.244 283.447 33.876C283.327 33.948 283.207 33.984 283.087 33.984Z" fill="black"/>
</svg>
