<svg width="22" height="27" viewBox="0 0 22 27" fill="none" xmlns="http://www.w3.org/2000/svg">
<circle cx="11" cy="11" r="11" fill="#C0C0C0"/>
<path d="M13.5308 14.698C13.7175 14.698 13.8715 14.7633 13.9928 14.894C14.1235 15.0153 14.1888 15.1693 14.1888 15.356C14.1888 15.5427 14.1235 15.6967 13.9928 15.818C13.8715 15.9393 13.7175 16 13.5308 16H8.61683C8.41149 16 8.24816 15.9393 8.12683 15.818C8.00549 15.6967 7.94483 15.5333 7.94483 15.328C7.94483 15.1413 8.01016 14.9733 8.14083 14.824L11.2628 11.45C11.6642 11.0207 11.9722 10.596 12.1868 10.176C12.4108 9.756 12.5228 9.38733 12.5228 9.07C12.5228 8.55667 12.3688 8.14133 12.0608 7.824C11.7528 7.50667 11.3468 7.348 10.8428 7.348C10.6282 7.348 10.4088 7.39933 10.1848 7.502C9.97016 7.59533 9.76483 7.726 9.56883 7.894C9.38216 8.05267 9.21883 8.23933 9.07883 8.454C8.98549 8.58467 8.89216 8.66867 8.79883 8.706C8.70549 8.74333 8.61683 8.762 8.53283 8.762C8.35549 8.762 8.19216 8.70133 8.04283 8.58C7.90283 8.44933 7.83283 8.3 7.83283 8.132C7.83283 8.00133 7.87483 7.87533 7.95883 7.754C8.04283 7.63267 8.15016 7.50667 8.28083 7.376C8.48616 7.124 8.73349 6.9 9.02283 6.704C9.32149 6.49867 9.63416 6.34 9.96083 6.228C10.2875 6.116 10.6095 6.06 10.9268 6.06C11.5428 6.06 12.0748 6.18133 12.5228 6.424C12.9802 6.66667 13.3302 7.00733 13.5728 7.446C13.8248 7.88467 13.9508 8.40267 13.9508 9C13.9508 9.504 13.7968 10.064 13.4888 10.68C13.1902 11.2867 12.7702 11.884 12.2288 12.472L10.0588 14.838L9.90483 14.698H13.5308Z" fill="#121212"/>
<path fill-rule="evenodd" clip-rule="evenodd" d="M17.9192 26.0227C18.5859 26.4076 19.4192 25.9265 19.4192 25.1567V17.8433C19.4192 17.0735 18.5859 16.5924 17.9192 16.9773L11.5856 20.634C11.4182 20.7306 11.2929 20.8636 11.2095 21.0148C11.1262 20.8637 11.0009 20.7308 10.8336 20.6342L4.5 16.9775C3.83333 16.5926 3 17.0738 3 17.8436V25.157C3 25.9268 3.83333 26.4079 4.5 26.023L10.8336 22.3663C11.001 22.2696 11.1263 22.1366 11.2097 21.9854C11.293 22.1365 11.4183 22.2694 11.5856 22.366L17.9192 26.0227Z" fill="#C0C0C0"/>
</svg>
