<svg width="22" height="27" viewBox="0 0 22 27" fill="none" xmlns="http://www.w3.org/2000/svg">
<circle cx="11" cy="11" r="11" fill="#FFC702"/>
<path fill-rule="evenodd" clip-rule="evenodd" d="M17.9192 26.1809C18.5859 26.5658 19.4192 26.0847 19.4192 25.3149V18.0015C19.4192 17.2317 18.5859 16.7506 17.9192 17.1355L11.5856 20.7922C11.4182 20.8888 11.2929 21.0218 11.2095 21.173C11.1262 21.022 11.0009 20.889 10.8336 20.7924L4.5 17.1357C3.83333 16.7508 3 17.232 3 18.0018V25.3152C3 26.085 3.83333 26.5661 4.5 26.1812L10.8336 22.5245C11.001 22.4278 11.1263 22.2948 11.2097 22.1436C11.293 22.2947 11.4183 22.4276 11.5856 22.5242L17.9192 26.1809Z" fill="#FFC702"/>
<path d="M11.5963 16C11.3816 16 11.2043 15.9347 11.0643 15.804C10.9243 15.664 10.8543 15.4913 10.8543 15.286V7.782L11.0363 8.034L9.73431 8.944C9.62231 9.03733 9.48698 9.084 9.32831 9.084C9.14165 9.084 8.97365 9.014 8.82431 8.874C8.68431 8.72467 8.61431 8.552 8.61431 8.356C8.61431 8.11333 8.73565 7.91267 8.97831 7.754L11.1063 6.34C11.1903 6.284 11.279 6.24667 11.3723 6.228C11.475 6.20933 11.5683 6.2 11.6523 6.2C11.867 6.2 12.0396 6.27 12.1703 6.41C12.301 6.54067 12.3663 6.70867 12.3663 6.914V15.286C12.3663 15.4913 12.2916 15.664 12.1423 15.804C12.0023 15.9347 11.8203 16 11.5963 16Z" fill="#121212"/>
</svg>
