<svg width="22" height="27" viewBox="0 0 22 27" fill="none" xmlns="http://www.w3.org/2000/svg">
<circle cx="11" cy="11" r="11" fill="#CD7F32"/>
<path d="M8.72358 14.208C8.79824 14.208 8.87758 14.222 8.96158 14.25C9.04558 14.2687 9.13891 14.3153 9.24158 14.39C9.40958 14.5393 9.61024 14.6653 9.84358 14.768C10.0862 14.8613 10.3616 14.908 10.6696 14.908C11.0149 14.908 11.3369 14.8287 11.6356 14.67C11.9342 14.502 12.1769 14.2687 12.3636 13.97C12.5502 13.6713 12.6436 13.3167 12.6436 12.906C12.6436 12.486 12.5549 12.1453 12.3776 11.884C12.2002 11.6133 11.9716 11.4127 11.6916 11.282C11.4116 11.142 11.1176 11.072 10.8096 11.072C10.6322 11.072 10.4829 11.0907 10.3616 11.128C10.2402 11.156 10.1236 11.1887 10.0116 11.226C9.89958 11.254 9.77824 11.268 9.64758 11.268C9.47024 11.268 9.33024 11.2073 9.22758 11.086C9.12491 10.9553 9.07358 10.8013 9.07358 10.624C9.07358 10.512 9.09691 10.414 9.14358 10.33C9.19024 10.246 9.25558 10.1527 9.33958 10.05L11.9296 7.278L12.2376 7.558H8.52758C8.34091 7.558 8.18224 7.49733 8.05158 7.376C7.93024 7.24533 7.86958 7.08667 7.86958 6.9C7.86958 6.72267 7.93024 6.57333 8.05158 6.452C8.18224 6.33067 8.34091 6.27 8.52758 6.27H12.9516C13.1942 6.27 13.3716 6.34 13.4836 6.48C13.6049 6.62 13.6656 6.78333 13.6656 6.97C13.6656 7.07267 13.6376 7.17067 13.5816 7.264C13.5349 7.35733 13.4742 7.446 13.3996 7.53L10.7956 10.33L10.4456 9.952C10.5202 9.91467 10.6462 9.87733 10.8236 9.84C11.0009 9.80267 11.1456 9.784 11.2576 9.784C11.7896 9.784 12.2656 9.91933 12.6856 10.19C13.1149 10.4607 13.4462 10.8247 13.6796 11.282C13.9222 11.73 14.0436 12.2387 14.0436 12.808C14.0436 13.4893 13.8896 14.082 13.5816 14.586C13.2736 15.0807 12.8442 15.4633 12.2936 15.734C11.7522 16.0047 11.1269 16.14 10.4176 16.14C10.0629 16.14 9.70824 16.0933 9.35358 16C9.00824 15.8973 8.70958 15.7527 8.45758 15.566C8.29891 15.4727 8.19158 15.3747 8.13558 15.272C8.07958 15.16 8.05158 15.0527 8.05158 14.95C8.05158 14.7727 8.11224 14.6047 8.23358 14.446C8.36424 14.2873 8.52758 14.208 8.72358 14.208Z" fill="#121212"/>
<path fill-rule="evenodd" clip-rule="evenodd" d="M17.9192 26.1809C18.5859 26.5658 19.4192 26.0847 19.4192 25.3149V18.0015C19.4192 17.2317 18.5859 16.7506 17.9192 17.1355L11.5856 20.7922C11.4182 20.8888 11.2929 21.0218 11.2095 21.173C11.1262 21.022 11.0009 20.889 10.8336 20.7924L4.5 17.1357C3.83333 16.7508 3 17.232 3 18.0018V25.3152C3 26.085 3.83333 26.5661 4.5 26.1812L10.8336 22.5245C11.001 22.4278 11.1263 22.2948 11.2097 22.1436C11.293 22.2947 11.4183 22.4276 11.5856 22.5242L17.9192 26.1809Z" fill="#CD7F32"/>
</svg>
