<svg width="16" height="22" viewBox="0 0 16 22" fill="none" xmlns="http://www.w3.org/2000/svg">
<path d="M9.37989 15.9695C10.5281 16.3627 11.542 16.6132 12.9988 17.0608C12.4391 24.1322 5.75239 21.3239 9.37989 15.9695ZM15.3501 9.47361C15.2747 7.35039 14.9007 4.5652 11.9219 5.00161C10.5254 5.36605 9.49366 6.89965 9.0084 9.54559C8.74187 11.0004 8.89686 13.0424 9.21124 14.2665C9.49829 15.1291 9.40066 15.0761 9.70918 15.2399C10.9033 15.5089 12.0854 15.8067 13.2892 16.1104C14.5122 15.2468 15.5166 10.6618 15.3501 9.47361ZM6.15709 9.31066C6.47123 8.0864 6.62621 6.04437 6.35981 4.58973C5.87492 1.94366 4.84302 0.409814 3.44635 0.0456268C0.467486 -0.390787 0.0935117 2.39436 0.0181057 4.51771C-0.148357 5.7057 0.856161 10.2909 2.07922 11.1544C3.28295 10.8507 4.46491 10.5532 5.65939 10.284C5.96754 10.1203 5.86992 10.1733 6.15709 9.31066ZM2.36932 12.1051C2.92875 19.1763 9.61548 16.3681 5.98807 11.0138C4.83984 11.407 3.82603 11.6575 2.36932 12.1051Z" fill="#121212"/>
</svg>
