<svg width="23" height="23" viewBox="0 0 23 23" fill="none" xmlns="http://www.w3.org/2000/svg">
<path d="M11.5 0C5.175 0 0 5.175 0 11.5C0 17.825 5.175 23 11.5 23C17.825 23 23 17.825 23 11.5C23 5.175 17.825 0 11.5 0ZM15.5825 15.87L10.8905 12.9835C10.5455 12.7765 10.3385 12.4085 10.3385 12.006V6.6125C10.35 6.141 10.741 5.75 11.2125 5.75C11.684 5.75 12.075 6.141 12.075 6.6125V11.73L16.491 14.3865C16.905 14.6395 17.043 15.18 16.79 15.594C16.537 15.9965 15.9965 16.123 15.5825 15.87Z" fill="#F8F8F8"/>
</svg>
