<svg width="31" height="46" viewBox="0 0 31 46" fill="none" xmlns="http://www.w3.org/2000/svg">
<path d="M11.3511 44.8302C7.91033 44.303 4.32229 41.5965 2.91995 39.0458C0.998931 35.573 1.03308 31.8718 1.63927 28.0618C3.21024 18.0768 1.6286 16.7982 0 14.8132C2.79188 16.0128 5.39806 17.0053 7.10137 19.1355C9.19741 12.6787 9.77585 7.74171 17.9871 0C17.7118 1.80789 17.2081 3.62859 17.176 5.48344C17.0779 11.2572 21.7225 16.5506 22.7 17.8633C25.3553 21.4002 26.779 25.2571 26.6958 29.5133V30.1258C28.0725 28.9263 28.9626 26.8687 29.2059 24.2411C30.9498 26.4204 31.3959 30.3713 30.6595 33.0928C28.8537 39.763 24.8964 43.2421 18.6403 44.8024C16.8153 45.2443 13.2977 45.1183 11.3511 44.8302Z" fill="url(#paint0_linear)"/>
<path style="mix-blend-mode:multiply" opacity="0.42" d="M11.3511 44.8302C7.91033 44.303 4.32229 41.5965 2.91995 39.0458C0.998931 35.573 1.03308 31.8718 1.63927 28.0618C3.21024 18.0768 1.6286 16.7982 0 14.8132C2.79188 16.0128 5.39806 17.0053 7.10137 19.1355C9.19741 12.6787 9.77585 7.74171 17.9871 0C17.7118 1.80789 17.2081 3.62859 17.176 5.48344C17.0779 11.2572 21.7225 16.5506 22.7 17.8633C25.3553 21.4002 26.779 25.2571 26.6958 29.5133V30.1258C28.0725 28.9263 28.9626 26.8687 29.2059 24.2411C30.9498 26.4204 31.3959 30.3713 30.6595 33.0928C28.8537 39.763 24.8964 43.2421 18.6403 44.8024C16.8153 45.2443 13.2977 45.1183 11.3511 44.8302Z" fill="url(#paint1_linear)"/>
<path d="M11.3251 44.8666C8.82141 44.4162 6.20242 42.0918 5.19282 39.9082C3.80328 36.92 3.82036 33.7567 4.25793 30.4888C5.39987 21.9275 4.25793 20.8304 3.06689 19.1292C5.09464 20.158 6.99218 21.0075 8.23017 22.8346C9.75204 17.2978 10.1747 13.0652 16.1426 6.427C15.9292 7.97662 15.5749 9.54332 15.5535 11.1228C15.4809 16.0727 18.9431 19.5476 19.6538 20.6639C21.5855 23.6991 24.2024 26.459 24.213 29.4579C24.213 32.2199 22.3497 35.4835 22.3603 34.9477C23.9996 34.5208 27.562 32.3864 28.4585 30.0833C29.2717 34.0107 27.5898 37.0139 26.4927 38.6894C24.6591 41.4856 22.3582 43.4941 18.6207 44.7876C17.3315 45.2401 12.7382 45.1185 11.3251 44.8666Z" fill="url(#paint2_linear)"/>
<path style="mix-blend-mode:multiply" opacity="0.42" d="M11.3251 44.8666C8.82141 44.4162 6.20242 42.0918 5.19282 39.9082C3.80328 36.92 3.82036 33.7567 4.25793 30.4888C5.39987 21.9275 4.25793 20.8304 3.06689 19.1292C5.09464 20.158 6.99218 21.0075 8.23017 22.8346C9.75204 17.2978 10.1747 13.0652 16.1426 6.427C15.9292 7.97662 15.5749 9.54332 15.5535 11.1228C15.4809 16.0727 18.9431 19.5476 19.6538 20.6639C21.5855 23.6991 24.2024 26.459 24.213 29.4579C24.213 32.2199 22.3497 35.4835 22.3603 34.9477C23.9996 34.5208 27.562 32.3864 28.4585 30.0833C29.2717 34.0107 27.5898 37.0139 26.4927 38.6894C24.6591 41.4856 22.3582 43.4941 18.6207 44.7876C17.3315 45.2401 12.7382 45.1185 11.3251 44.8666Z" fill="url(#paint3_linear)"/>
<path d="M12.4891 44.8324C10.7028 44.4145 9.12539 43.3702 8.04299 41.889C7.03766 40.5165 6.64065 38.2412 7.03766 36.0576C7.678 32.5977 7.81887 27.9146 7.03766 26.5614C8.3781 27.381 9.6289 28.0555 10.4528 29.5091C11.4581 25.1057 11.1657 22.2412 15.1038 16.9606C14.9715 18.1943 14.7303 19.4408 14.7153 20.7002C14.6684 24.6361 16.8946 26.4846 17.9917 27.7887C20.1262 30.3202 21.4069 32.9861 21.4069 35.3725C21.4069 37.5667 20.5168 38.2092 19.4474 39.27C21.0013 38.873 22.0856 38.4354 23.076 37.2743C23.4432 40.4226 19.4474 44.1964 16.4592 44.9135C15.0056 45.2593 13.4218 45.0352 12.4891 44.8324Z" fill="url(#paint4_linear)"/>
<path style="mix-blend-mode:multiply" opacity="0.42" d="M12.4891 44.8324C10.7028 44.4145 9.12539 43.3702 8.04299 41.889C7.03766 40.5165 6.64065 38.2412 7.03766 36.0576C7.678 32.5977 7.81887 27.9146 7.03766 26.5614C8.3781 27.381 9.6289 28.0555 10.4528 29.5091C11.4581 25.1057 11.1657 22.2412 15.1038 16.9606C14.9715 18.1943 14.7303 19.4408 14.7153 20.7002C14.6684 24.6361 16.8946 26.4846 17.9917 27.7887C20.1262 30.3202 21.4069 32.9861 21.4069 35.3725C21.4069 37.5667 20.5168 38.2092 19.4474 39.27C21.0013 38.873 22.0856 38.4354 23.076 37.2743C23.4432 40.4226 19.4474 44.1964 16.4592 44.9135C15.0056 45.2593 13.4218 45.0352 12.4891 44.8324Z" fill="url(#paint5_linear)"/>
<path d="M13.1487 44.9052C11.9683 44.6386 10.923 43.9569 10.2031 42.9842C9.56275 42.0685 9.33649 40.3139 9.69509 38.8753C10.3674 36.1859 10.1924 33.4367 9.69509 32.5317C10.5489 33.0781 11.345 33.5306 11.8658 34.4997C12.5062 31.5584 12.3205 29.6459 14.8306 26.1176C14.7452 26.9415 14.5915 27.774 14.583 28.6171C14.5531 31.2446 15.9704 32.4805 16.6705 33.3513C17.8337 34.7771 18.4639 36.5636 18.4528 38.4036C18.4528 39.87 17.885 40.6747 17.2041 41.3919C18.3611 41.2958 19.4377 40.7613 20.2137 39.8977C20.4464 42.0002 17.7997 44.5167 15.8957 44.9948C14.9736 45.2125 13.742 45.0333 13.1487 44.9052Z" fill="url(#paint6_linear)"/>
<defs>
<linearGradient id="paint0_linear" x1="15.4877" y1="0" x2="15.4877" y2="45.0927" gradientUnits="userSpaceOnUse">
<stop stop-color="#E65100"/>
<stop offset="1" stop-color="#FF8F00"/>
</linearGradient>
<linearGradient id="paint1_linear" x1="15.4877" y1="0" x2="15.4877" y2="45.0927" gradientUnits="userSpaceOnUse">
<stop stop-color="#FF0000"/>
<stop offset="0.04" stop-color="#FF2100"/>
<stop offset="0.1" stop-color="#FF4F00"/>
<stop offset="0.17" stop-color="#FF7900"/>
<stop offset="0.24" stop-color="#FF9D00"/>
<stop offset="0.31" stop-color="#FFBC00"/>
<stop offset="0.4" stop-color="#FFD400"/>
<stop offset="0.49" stop-color="#FFE700"/>
<stop offset="0.6" stop-color="#FFF500"/>
<stop offset="0.73" stop-color="#FFFD00"/>
<stop offset="1" stop-color="#FFFF00"/>
</linearGradient>
<linearGradient id="paint2_linear" x1="15.8694" y1="6.427" x2="15.8694" y2="45.0928" gradientUnits="userSpaceOnUse">
<stop stop-color="#FF8F00"/>
<stop offset="1" stop-color="#FFB300"/>
</linearGradient>
<linearGradient id="paint3_linear" x1="3252.5" y1="2586.51" x2="3252.5" y2="9590.58" gradientUnits="userSpaceOnUse">
<stop stop-color="#FF0000"/>
<stop offset="0.04" stop-color="#FF2100"/>
<stop offset="0.1" stop-color="#FF4F00"/>
<stop offset="0.17" stop-color="#FF7900"/>
<stop offset="0.24" stop-color="#FF9D00"/>
<stop offset="0.31" stop-color="#FFBC00"/>
<stop offset="0.4" stop-color="#FFD400"/>
<stop offset="0.49" stop-color="#FFE700"/>
<stop offset="0.6" stop-color="#FFF500"/>
<stop offset="0.73" stop-color="#FFFD00"/>
<stop offset="1" stop-color="#FFFF00"/>
</linearGradient>
<linearGradient id="paint4_linear" x1="14.9864" y1="16.9606" x2="14.9864" y2="45.0928" gradientUnits="userSpaceOnUse">
<stop stop-color="#FFB300"/>
<stop offset="1" stop-color="#FFE287"/>
</linearGradient>
<linearGradient id="paint5_linear" x1="14.9864" y1="16.9606" x2="14.9864" y2="45.0928" gradientUnits="userSpaceOnUse">
<stop stop-color="#FFD54F"/>
<stop offset="0.05" stop-color="#FFDB43"/>
<stop offset="0.16" stop-color="#FFE82B"/>
<stop offset="0.29" stop-color="#FFF317"/>
<stop offset="0.44" stop-color="#FFFA0A"/>
<stop offset="0.63" stop-color="#FFFE02"/>
<stop offset="1" stop-color="#FFFF00"/>
</linearGradient>
<linearGradient id="paint6_linear" x1="14.8754" y1="26.1048" x2="14.8754" y2="45.093" gradientUnits="userSpaceOnUse">
<stop stop-color="#FFD54F"/>
<stop offset="0.79" stop-color="#FFE7D1"/>
<stop offset="1" stop-color="#FFECF4"/>
</linearGradient>
</defs>
</svg>
