<svg width="20" height="27" viewBox="0 0 20 27" fill="none" xmlns="http://www.w3.org/2000/svg">
<path d="M11.875 0C11.875 0 12.8 3.35443 12.8 6.07595C12.8 8.68354 11.1125 10.7975 8.5375 10.7975C5.95 10.7975 4 8.68354 4 6.07595L4.0375 5.62025C1.5125 8.65823 0 12.5949 0 16.8734C0 22.4684 4.475 27 10 27C15.525 27 20 22.4684 20 16.8734C20 10.0506 16.7625 3.96203 11.875 0ZM9.6375 23.2025C7.4125 23.2025 5.6125 21.4304 5.6125 19.2278C5.6125 17.1772 6.925 15.7342 9.125 15.2785C11.3375 14.8228 13.625 13.7468 14.9 12.0127C15.3875 13.6456 15.6375 15.3671 15.6375 17.1266C15.6375 20.481 12.95 23.2025 9.6375 23.2025Z" fill="#F8F8F8"/>
</svg>
