<svg width="29" height="28" viewBox="0 0 29 28" fill="none" xmlns="http://www.w3.org/2000/svg">
<path fill-rule="evenodd" clip-rule="evenodd" d="M6.525 0.949951C3.71925 0.949951 1.45 3.2192 1.45 6.02495C1.45 9.8312 6.525 15.45 6.525 15.45C6.525 15.45 11.6 9.8312 11.6 6.02495C11.6 3.2192 9.33075 0.949951 6.525 0.949951ZM6.525 7.83745C5.5245 7.83745 4.7125 7.02545 4.7125 6.02495C4.7125 5.02445 5.5245 4.21245 6.525 4.21245C7.5255 4.21245 8.3375 5.02445 8.3375 6.02495C8.3375 7.02545 7.5255 7.83745 6.525 7.83745ZM29 21.25L23.2 15.45V19.8H5.8V15.45L0 21.25L5.8 27.05V22.7H23.2V27.05L29 21.25ZM17.4 6.02495C17.4 3.2192 19.6693 0.949951 22.475 0.949951C25.2807 0.949951 27.55 3.2192 27.55 6.02495C27.55 9.8312 22.475 15.45 22.475 15.45C22.475 15.45 17.4 9.8312 17.4 6.02495ZM20.6625 6.02495C20.6625 7.02545 21.4745 7.83745 22.475 7.83745C23.4755 7.83745 24.2875 7.02545 24.2875 6.02495C24.2875 5.02445 23.4755 4.21245 22.475 4.21245C21.4745 4.21245 20.6625 5.02445 20.6625 6.02495Z" fill="#F8F8F8"/>
</svg>
