<svg width="20" height="27" viewBox="0 0 20 27" fill="none" xmlns="http://www.w3.org/2000/svg">
<path d="M12.2069 20.2561C13.7012 20.7549 15.0206 21.0726 16.9164 21.6404C16.1881 30.6098 7.48609 27.0478 12.2069 20.2561ZM19.9764 12.0166C19.8783 9.32342 19.3916 5.79061 15.515 6.34417C13.6977 6.80643 12.3549 8.75169 11.7234 12.1079C11.3766 13.9532 11.5783 16.5433 11.9874 18.096C12.361 19.1902 12.2339 19.1229 12.6354 19.3307C14.1894 19.6719 15.7278 20.0497 17.2945 20.4348C18.886 19.3394 20.1931 13.5237 19.9764 12.0166ZM8.01276 11.8099C8.42158 10.257 8.62327 7.66683 8.27658 5.82173C7.64554 2.46539 6.30264 0.519818 4.48504 0.0578742C0.60838 -0.495684 0.121695 3.03707 0.0235625 5.73037C-0.193071 7.23726 1.1142 13.0533 2.70587 14.1485C4.27239 13.7634 5.81059 13.386 7.36507 13.0444C7.76609 12.8368 7.63904 12.904 8.01276 11.8099ZM3.0834 15.3544C3.81144 24.3237 12.5135 20.7617 7.7928 13.9702C6.29851 14.469 4.97915 14.7866 3.0834 15.3544Z" fill="#F8F8F8"/>
</svg>
