<svg width="178" height="70" viewBox="0 0 178 70" fill="none" xmlns="http://www.w3.org/2000/svg">
<path fill-rule="evenodd" clip-rule="evenodd" d="M81.0628 49.9737C67.4336 49.9737 56.3382 38.8782 56.3382 25.249C56.3382 11.6198 67.4336 0.524414 81.0628 0.524414C94.692 0.524414 105.787 11.6198 105.787 25.249C105.787 38.8782 94.692 49.9737 81.0628 49.9737ZM81.0628 2.97644C68.7822 2.97644 58.7902 12.9685 58.7902 25.249C58.7902 37.5296 68.7822 47.5216 81.0628 47.5216C93.3434 47.5216 103.335 37.5296 103.335 25.249C103.335 12.9685 93.3434 2.97644 81.0628 2.97644ZM80.8995 43.2102C90.8302 43.2102 98.8811 35.1594 98.8811 25.2287C98.8811 15.2979 90.8302 7.24711 80.8995 7.24711C70.9688 7.24711 62.918 15.2979 62.918 25.2287C62.918 35.1594 70.9688 43.2102 80.8995 43.2102ZM17.3714 4.95837V42.8013H20.1913V4.95837H17.3714ZM11.1596 4.95837V42.8013H13.9795V4.95837H11.1596ZM0.799805 5.06053V7.88037H7.76765V5.06053H0.799805ZM0.799805 11.2723V14.0922H7.76765V11.2723H0.799805ZM48.0218 14.9504V32.8298C48.0218 35.1388 47.2658 37.1617 45.7537 38.8577C44.3029 40.5537 42.1369 41.3914 39.2558 41.3914C36.3542 41.3914 34.1678 40.5537 32.6557 38.8577C31.205 37.1617 30.4898 35.1592 30.4898 32.8298V14.9504C30.4898 12.5597 31.205 10.5572 32.6557 8.92248C34.1678 7.22649 36.3747 6.38872 39.2558 6.38872C42.1369 6.38872 44.3029 7.22649 45.7537 8.92248C47.2658 10.5572 48.0218 12.5597 48.0218 14.9504ZM41.81 14.9504V32.8298C41.81 33.4632 41.5852 34.0149 41.1561 34.5257C40.7883 34.9549 40.1549 35.1796 39.2762 35.1796C38.3976 35.1796 37.7233 34.9549 37.2942 34.5257C36.9059 34.0149 36.722 33.4632 36.722 32.8298V14.9504C36.722 14.2556 36.9264 13.6835 37.2942 13.2544C37.7437 12.8253 38.3976 12.6005 39.2762 12.6005C40.1549 12.6005 40.7883 12.8253 41.1561 13.2544C41.5852 13.7039 41.81 14.2556 41.81 14.9504ZM27.6904 14.9504V32.8298C27.6904 35.9561 28.6916 38.6533 30.7146 40.9215C32.7783 43.1078 35.6186 44.2113 39.2762 44.2113C42.9338 44.2113 45.7537 43.1283 47.7562 40.9215C49.8199 38.6738 50.8621 35.9765 50.8621 32.8298V14.9504C50.8621 11.8036 49.8199 9.14725 47.7562 6.94042C45.7332 4.6723 42.9134 3.54845 39.2762 3.54845C35.639 3.54845 32.7783 4.6723 30.6941 6.94042C28.6916 9.14725 27.6904 11.8036 27.6904 14.9504ZM33.9022 14.9504V32.8298C33.9022 34.4031 34.413 35.6496 35.4143 36.5895C36.4155 37.5295 37.7028 37.9995 39.2762 37.9995C40.9109 37.9995 42.1982 37.5295 43.1382 36.5895C44.1394 35.6496 44.6503 34.4031 44.6503 32.8298V14.9504C44.6503 13.377 44.1394 12.1306 43.1382 11.1906C42.1982 10.2507 40.9109 9.78069 39.2762 9.78069C37.7028 9.78069 36.4155 10.2507 35.4143 11.1906C34.413 12.1306 33.9022 13.377 33.9022 14.9504Z" fill="white"/>
<path d="M80.9604 24.5337L55.2754 68.9972H106.625L80.9604 24.5337Z" fill="#414142"/>
<path d="M107.341 69.406H54.5811L80.9608 23.7166L107.341 69.406ZM55.991 68.5887H105.931L80.9608 25.3512L55.991 68.5887Z" fill="white"/>
<path d="M116.249 66.4841C115.33 66.4841 114.553 66.3206 113.961 65.9732C113.389 65.6259 113.062 65.1763 112.98 64.6246L114.022 64.4816C114.043 64.7881 114.247 65.0333 114.656 65.2172C115.044 65.3807 115.575 65.4624 116.249 65.4624C117.741 65.4624 118.477 65.1355 118.477 64.4816C118.477 64.1955 118.334 63.9707 118.027 63.746C117.721 63.5212 117.189 63.276 116.393 63.0512L114.615 62.5404C113.532 62.2135 112.612 61.723 111.877 61.0896C111.162 60.4357 110.794 59.5775 110.794 58.4741C110.794 57.6363 111.018 56.9007 111.488 56.2468C111.979 55.593 112.633 55.0821 113.471 54.7143C114.308 54.3261 115.228 54.1218 116.249 54.1218C117.741 54.1218 118.967 54.4896 119.968 55.2047C120.97 55.9199 121.521 56.8394 121.664 57.9837L120.622 58.0859C120.52 57.2072 120.071 56.492 119.274 55.9608C118.477 55.4295 117.476 55.1639 116.249 55.1639C114.983 55.1639 113.92 55.4704 113.082 56.1038C112.245 56.7373 111.836 57.5137 111.836 58.4741C111.836 59.3323 112.122 59.9862 112.674 60.4562C113.225 60.9261 114.022 61.2939 115.044 61.6004L116.944 62.1521C118.661 62.663 119.519 63.419 119.519 64.4407C119.519 65.0946 119.212 65.6054 118.62 65.9732C118.027 66.3002 117.23 66.4841 116.249 66.4841ZM116.249 68.7726C114.717 68.7726 113.45 68.4048 112.428 67.6896C111.427 66.9745 110.855 66.055 110.732 64.9107L111.775 64.7676C111.897 65.6463 112.347 66.3615 113.164 66.9132C113.981 67.4444 115.003 67.7101 116.249 67.7101C117.598 67.7101 118.681 67.4036 119.519 66.811C120.357 66.1776 120.765 65.3398 120.765 64.2772C120.765 63.419 120.5 62.7243 119.968 62.193C119.437 61.6617 118.661 61.2735 117.639 61.0079L115.514 60.4562C114.717 60.2518 114.124 59.9862 113.716 59.7001C113.307 59.3732 113.082 58.9645 113.082 58.4537C113.082 57.8202 113.368 57.3298 113.961 56.962C114.553 56.5942 115.33 56.4103 116.249 56.4103C117.108 56.4103 117.823 56.5942 118.395 56.9212C118.967 57.2481 119.294 57.6772 119.376 58.2085L118.375 58.3515C118.252 57.7589 117.557 57.4524 116.249 57.4524C115.596 57.4524 115.085 57.5546 114.676 57.7385C114.308 57.902 114.124 58.1472 114.124 58.4741C114.124 58.6784 114.247 58.8623 114.513 59.0258C114.758 59.1688 115.33 59.3527 116.188 59.6184L118.027 60.1292C119.233 60.4766 120.152 60.9874 120.806 61.6617C121.48 62.3361 121.807 63.2147 121.807 64.2977C121.807 65.6872 121.276 66.7906 120.234 67.5875C119.212 68.3844 117.884 68.7726 116.249 68.7726ZM131.411 66.4841C130.41 66.4841 129.531 66.2593 128.734 65.8302C127.937 65.3807 127.324 64.7881 126.855 64.032C126.385 63.276 126.16 62.4178 126.16 61.4574C126.16 60.497 126.385 59.6592 126.855 58.8828C127.324 58.1267 127.937 57.5137 128.734 57.0846C129.531 56.6351 130.41 56.4307 131.411 56.4307C132.249 56.4307 133.005 56.5942 133.7 56.9212C134.415 57.2481 135.008 57.6772 135.477 58.2493L134.64 58.8828C133.843 57.9633 132.78 57.4933 131.411 57.4933C130.206 57.4933 129.204 57.8815 128.387 58.6376C127.59 59.3732 127.202 60.3336 127.202 61.4778C127.202 62.6221 127.59 63.5621 128.387 64.3181C129.204 65.0741 130.206 65.4624 131.411 65.4624C132.78 65.4624 133.863 64.9924 134.64 64.0729L135.477 64.7063C135.008 65.258 134.415 65.7076 133.7 66.0345C133.025 66.3206 132.249 66.4841 131.411 66.4841ZM131.411 68.7726C130.001 68.7726 128.734 68.4457 127.59 67.7918C126.446 67.1379 125.547 66.2593 124.872 65.1559C124.198 64.0525 123.871 62.806 123.871 61.437C123.871 60.0475 124.198 58.801 124.872 57.7181C125.547 56.6147 126.446 55.736 127.59 55.0821C128.734 54.4283 130.001 54.1013 131.411 54.1013C132.617 54.1013 133.72 54.3465 134.742 54.8369C135.764 55.3273 136.601 55.9812 137.276 56.7781L136.479 57.4116C135.907 56.7168 135.171 56.1651 134.292 55.7769C133.414 55.3682 132.453 55.1434 131.411 55.1434C130.185 55.1434 129.082 55.4295 128.081 55.9812C127.1 56.5329 126.323 57.289 125.751 58.2493C125.199 59.1688 124.913 60.2314 124.913 61.437C124.913 62.6221 125.199 63.6847 125.751 64.6246C126.323 65.5646 127.1 66.3206 128.081 66.8927C129.082 67.4444 130.185 67.7305 131.411 67.7305C132.453 67.7305 133.414 67.5262 134.292 67.1379C135.171 66.7293 135.907 66.1571 136.479 65.4624L137.276 66.0958C136.601 66.9132 135.764 67.5466 134.742 68.037C133.72 68.5274 132.617 68.7726 131.411 68.7726ZM141.853 68.4253V54.4691H150.149V55.5112H142.895V56.7577H150.149V57.7998H142.895V59.7819H149.045V60.824H142.895V62.0704H149.045V63.1125H142.895V65.0946H150.149V66.1367H142.895V67.3831H150.149V68.4253H141.853ZM139.564 68.4253V54.4691H140.606V68.4253H139.564ZM152.172 68.4253V54.4691H153.214V68.4253H152.172ZM163.778 68.4253V54.4691H164.82V68.4253H163.778ZM161.489 64.5429L155.523 56.2468V58.3719L161.489 66.668V64.5429ZM154.481 68.4253V54.4691H155.523L161.489 62.7652V54.4691H162.532V68.4253H161.489L155.523 60.1292V68.4253H154.481ZM166.577 55.5112V54.4691H178V55.5112H166.577ZM170.603 68.4253V57.7998H166.577V56.7577H178V57.7998H173.933V68.4253H172.891V57.7998H171.645V68.4253H170.603Z" fill="white"/>
</svg>
