<svg width="20" height="18" viewBox="0 0 20 18" fill="none" xmlns="http://www.w3.org/2000/svg">
<path fill-rule="evenodd" clip-rule="evenodd" d="M4.5 0C2.565 0 1 1.565 1 3.5C1 6.125 4.5 10 4.5 10C4.5 10 8 6.125 8 3.5C8 1.565 6.435 0 4.5 0ZM4.5 4.75C3.81 4.75 3.25 4.19 3.25 3.5C3.25 2.81 3.81 2.25 4.5 2.25C5.19 2.25 5.75 2.81 5.75 3.5C5.75 4.19 5.19 4.75 4.5 4.75ZM20 14L16 10V13H4V10L0 14L4 18V15H16V18L20 14ZM12 3.5C12 1.565 13.565 0 15.5 0C17.435 0 19 1.565 19 3.5C19 6.125 15.5 10 15.5 10C15.5 10 12 6.125 12 3.5ZM14.25 3.5C14.25 4.19 14.81 4.75 15.5 4.75C16.19 4.75 16.75 4.19 16.75 3.5C16.75 2.81 16.19 2.25 15.5 2.25C14.81 2.25 14.25 2.81 14.25 3.5Z" fill="#121212"/>
</svg>
