<svg width="28" height="26" viewBox="0 0 28 26" fill="none" xmlns="http://www.w3.org/2000/svg">
<mask id="path-1-inside-1" fill="white">
<path fill-rule="evenodd" clip-rule="evenodd" d="M6.29966 0.599609C3.59066 0.599609 1.39966 2.79061 1.39966 5.49961C1.39966 9.17461 6.29966 14.5996 6.29966 14.5996C6.29966 14.5996 11.1997 9.17461 11.1997 5.49961C11.1997 2.79061 9.00866 0.599609 6.29966 0.599609ZM6.29966 7.24961C5.33366 7.24961 4.54966 6.46561 4.54966 5.49961C4.54966 4.53361 5.33366 3.74961 6.29966 3.74961C7.26566 3.74961 8.04966 4.53361 8.04966 5.49961C8.04966 6.46561 7.26566 7.24961 6.29966 7.24961ZM28 20.2L22.4 14.6V18.8H5.6V14.6L0 20.2L5.6 25.8V21.6H22.4V25.8L28 20.2ZM16.7997 5.49961C16.7997 2.79061 18.9907 0.599609 21.6997 0.599609C24.4087 0.599609 26.5997 2.79061 26.5997 5.49961C26.5997 9.17461 21.6997 14.5996 21.6997 14.5996C21.6997 14.5996 16.7997 9.17461 16.7997 5.49961ZM19.9497 5.49961C19.9497 6.46561 20.7337 7.24961 21.6997 7.24961C22.6657 7.24961 23.4497 6.46561 23.4497 5.49961C23.4497 4.53361 22.6657 3.74961 21.6997 3.74961C20.7337 3.74961 19.9497 4.53361 19.9497 5.49961Z"/>
</mask>
<path fill-rule="evenodd" clip-rule="evenodd" d="M6.29966 0.599609C3.59066 0.599609 1.39966 2.79061 1.39966 5.49961C1.39966 9.17461 6.29966 14.5996 6.29966 14.5996C6.29966 14.5996 11.1997 9.17461 11.1997 5.49961C11.1997 2.79061 9.00866 0.599609 6.29966 0.599609ZM6.29966 7.24961C5.33366 7.24961 4.54966 6.46561 4.54966 5.49961C4.54966 4.53361 5.33366 3.74961 6.29966 3.74961C7.26566 3.74961 8.04966 4.53361 8.04966 5.49961C8.04966 6.46561 7.26566 7.24961 6.29966 7.24961ZM28 20.2L22.4 14.6V18.8H5.6V14.6L0 20.2L5.6 25.8V21.6H22.4V25.8L28 20.2ZM16.7997 5.49961C16.7997 2.79061 18.9907 0.599609 21.6997 0.599609C24.4087 0.599609 26.5997 2.79061 26.5997 5.49961C26.5997 9.17461 21.6997 14.5996 21.6997 14.5996C21.6997 14.5996 16.7997 9.17461 16.7997 5.49961ZM19.9497 5.49961C19.9497 6.46561 20.7337 7.24961 21.6997 7.24961C22.6657 7.24961 23.4497 6.46561 23.4497 5.49961C23.4497 4.53361 22.6657 3.74961 21.6997 3.74961C20.7337 3.74961 19.9497 4.53361 19.9497 5.49961Z" fill="#FFFF00"/>
<path d="M6.29966 14.5996L5.55756 15.2699L6.29966 16.0915L7.04176 15.2699L6.29966 14.5996ZM22.4 14.6L23.1071 13.8929L21.4 12.1858V14.6H22.4ZM28 20.2L28.7071 20.9071L29.4142 20.2L28.7071 19.4929L28 20.2ZM22.4 18.8V19.8H23.4V18.8H22.4ZM5.6 18.8H4.6V19.8H5.6V18.8ZM5.6 14.6H6.6V12.1858L4.89289 13.8929L5.6 14.6ZM0 20.2L-0.707107 19.4929L-1.41421 20.2L-0.707107 20.9071L0 20.2ZM5.6 25.8L4.89289 26.5071L6.6 28.2142V25.8H5.6ZM5.6 21.6V20.6H4.6V21.6H5.6ZM22.4 21.6H23.4V20.6H22.4V21.6ZM22.4 25.8H21.4V28.2142L23.1071 26.5071L22.4 25.8ZM21.6997 14.5996L20.9576 15.2699L21.6997 16.0915L22.4418 15.2699L21.6997 14.5996ZM2.39966 5.49961C2.39966 3.34289 4.14294 1.59961 6.29966 1.59961V-0.400391C3.03837 -0.400391 0.399658 2.23832 0.399658 5.49961H2.39966ZM6.29966 14.5996C7.04176 13.9293 7.04185 13.9294 7.04193 13.9295C7.04193 13.9295 7.04198 13.9296 7.04198 13.9296C7.04198 13.9296 7.0419 13.9295 7.04176 13.9293C7.04146 13.929 7.04087 13.9283 7.03999 13.9274C7.03824 13.9254 7.03534 13.9222 7.03132 13.9177C7.02327 13.9087 7.01078 13.8946 6.99412 13.8758C6.96081 13.8381 6.91088 13.7811 6.84672 13.7066C6.71835 13.5576 6.53329 13.3389 6.31049 13.0644C5.864 12.5142 5.27032 11.7454 4.67862 10.8684C4.085 9.98861 3.50572 9.01802 3.07789 8.06303C2.64418 7.09493 2.39966 6.21602 2.39966 5.49961H0.399658C0.399658 6.6207 0.767636 7.79803 1.25268 8.88072C1.7436 9.97651 2.38931 11.0512 3.02069 11.987C3.654 12.9257 4.28532 13.7428 4.75758 14.3247C4.99415 14.6162 5.19191 14.85 5.3315 15.012C5.40133 15.0931 5.45668 15.1563 5.49514 15.1998C5.51437 15.2216 5.52939 15.2384 5.53989 15.2502C5.54514 15.2561 5.54926 15.2607 5.55222 15.264C5.5537 15.2656 5.55489 15.2669 5.55578 15.2679C5.55622 15.2684 5.55659 15.2688 5.55689 15.2692C5.55704 15.2693 5.55721 15.2695 5.55728 15.2696C5.55743 15.2698 5.55756 15.2699 6.29966 14.5996ZM10.1997 5.49961C10.1997 6.21602 9.95514 7.09493 9.52143 8.06303C9.0936 9.01802 8.51431 9.98861 7.92069 10.8684C7.329 11.7454 6.73532 12.5142 6.28883 13.0644C6.06602 13.3389 5.88097 13.5576 5.7526 13.7066C5.68844 13.7811 5.63851 13.8381 5.6052 13.8758C5.58854 13.8946 5.57604 13.9087 5.568 13.9177C5.56398 13.9222 5.56108 13.9254 5.55932 13.9274C5.55845 13.9283 5.55786 13.929 5.55756 13.9293C5.55741 13.9295 5.55734 13.9296 5.55734 13.9296C5.55734 13.9296 5.55739 13.9295 5.55739 13.9295C5.55746 13.9294 5.55756 13.9293 6.29966 14.5996C7.04176 15.2699 7.04189 15.2698 7.04204 15.2696C7.04211 15.2695 7.04228 15.2693 7.04243 15.2692C7.04272 15.2688 7.0431 15.2684 7.04354 15.2679C7.04443 15.2669 7.04562 15.2656 7.0471 15.264C7.05005 15.2607 7.05418 15.2561 7.05943 15.2502C7.06993 15.2384 7.08495 15.2216 7.10418 15.1998C7.14264 15.1563 7.19799 15.0931 7.26781 15.012C7.40741 14.85 7.60517 14.6162 7.84174 14.3247C8.314 13.7428 8.94532 12.9257 9.57862 11.987C10.21 11.0512 10.8557 9.97651 11.3466 8.88072C11.8317 7.79803 12.1997 6.6207 12.1997 5.49961H10.1997ZM6.29966 1.59961C8.45638 1.59961 10.1997 3.34289 10.1997 5.49961H12.1997C12.1997 2.23832 9.56094 -0.400391 6.29966 -0.400391V1.59961ZM3.54966 5.49961C3.54966 7.01789 4.78137 8.24961 6.29966 8.24961V6.24961C5.88594 6.24961 5.54966 5.91332 5.54966 5.49961H3.54966ZM6.29966 2.74961C4.78137 2.74961 3.54966 3.98132 3.54966 5.49961H5.54966C5.54966 5.08589 5.88594 4.74961 6.29966 4.74961V2.74961ZM9.04966 5.49961C9.04966 3.98132 7.81794 2.74961 6.29966 2.74961V4.74961C6.71337 4.74961 7.04966 5.08589 7.04966 5.49961H9.04966ZM6.29966 8.24961C7.81794 8.24961 9.04966 7.01789 9.04966 5.49961H7.04966C7.04966 5.91332 6.71337 6.24961 6.29966 6.24961V8.24961ZM21.6929 15.3071L27.2929 20.9071L28.7071 19.4929L23.1071 13.8929L21.6929 15.3071ZM23.4 18.8V14.6H21.4V18.8H23.4ZM5.6 19.8H22.4V17.8H5.6V19.8ZM4.6 14.6V18.8H6.6V14.6H4.6ZM0.707107 20.9071L6.30711 15.3071L4.89289 13.8929L-0.707107 19.4929L0.707107 20.9071ZM6.30711 25.0929L0.707107 19.4929L-0.707107 20.9071L4.89289 26.5071L6.30711 25.0929ZM4.6 21.6V25.8H6.6V21.6H4.6ZM22.4 20.6H5.6V22.6H22.4V20.6ZM23.4 25.8V21.6H21.4V25.8H23.4ZM27.2929 19.4929L21.6929 25.0929L23.1071 26.5071L28.7071 20.9071L27.2929 19.4929ZM21.6997 -0.400391C18.4385 -0.400391 15.7997 2.23832 15.7997 5.49961H17.7997C17.7997 3.34289 19.543 1.59961 21.6997 1.59961V-0.400391ZM27.5997 5.49961C27.5997 2.23832 24.961 -0.400391 21.6997 -0.400391V1.59961C23.8565 1.59961 25.5997 3.34289 25.5997 5.49961H27.5997ZM21.6997 14.5996C22.4418 15.2699 22.442 15.2698 22.4421 15.2696C22.4422 15.2695 22.4424 15.2693 22.4425 15.2692C22.4428 15.2688 22.4432 15.2684 22.4436 15.2679C22.4445 15.2669 22.4457 15.2656 22.4472 15.264C22.4501 15.2607 22.4543 15.2561 22.4595 15.2502C22.47 15.2384 22.485 15.2216 22.5043 15.1998C22.5427 15.1563 22.5981 15.0931 22.6679 15.012C22.8075 14.85 23.0053 14.6162 23.2418 14.3247C23.7141 13.7428 24.3454 12.9257 24.9787 11.987C25.6101 11.0512 26.2558 9.97651 26.7467 8.88072C27.2318 7.79803 27.5997 6.6207 27.5997 5.49961H25.5997C25.5997 6.21602 25.3552 7.09493 24.9215 8.06303C24.4937 9.01802 23.9144 9.98861 23.3208 10.8684C22.7291 11.7454 22.1354 12.5142 21.6889 13.0644C21.4661 13.3389 21.2811 13.5576 21.1527 13.7066C21.0885 13.7811 21.0386 13.8381 21.0053 13.8758C20.9886 13.8946 20.9761 13.9087 20.9681 13.9177C20.9641 13.9222 20.9612 13.9254 20.9594 13.9274C20.9585 13.9283 20.9579 13.929 20.9576 13.9293C20.9575 13.9295 20.9574 13.9296 20.9574 13.9296C20.9574 13.9296 20.9575 13.9295 20.9575 13.9295C20.9576 13.9294 20.9576 13.9293 21.6997 14.5996ZM15.7997 5.49961C15.7997 6.6207 16.1677 7.79803 16.6528 8.88072C17.1437 9.97651 17.7894 11.0512 18.4208 11.987C19.0541 12.9257 19.6854 13.7428 20.1577 14.3247C20.3942 14.6162 20.592 14.85 20.7316 15.012C20.8014 15.0931 20.8568 15.1563 20.8952 15.1998C20.9145 15.2216 20.9295 15.2384 20.94 15.2502C20.9452 15.2561 20.9494 15.2607 20.9523 15.264C20.9538 15.2656 20.955 15.2669 20.9559 15.2679C20.9563 15.2684 20.9567 15.2688 20.957 15.2692C20.9571 15.2693 20.9573 15.2695 20.9574 15.2696C20.9575 15.2698 20.9576 15.2699 21.6997 14.5996C22.4418 13.9293 22.4419 13.9294 22.442 13.9295L22.4421 13.9296C22.4421 13.9296 22.442 13.9295 22.4418 13.9293C22.4415 13.929 22.441 13.9283 22.4401 13.9274C22.4383 13.9254 22.4354 13.9222 22.4314 13.9177C22.4234 13.9087 22.4109 13.8946 22.3942 13.8758C22.3609 13.8381 22.311 13.7811 22.2468 13.7066C22.1184 13.5576 21.9334 13.3389 21.7106 13.0644C21.2641 12.5142 20.6704 11.7454 20.0787 10.8684C19.4851 9.98861 18.9058 9.01802 18.478 8.06303C18.0443 7.09493 17.7997 6.21602 17.7997 5.49961H15.7997ZM21.6997 6.24961C21.286 6.24961 20.9497 5.91332 20.9497 5.49961H18.9497C18.9497 7.01789 20.1815 8.24961 21.6997 8.24961V6.24961ZM22.4497 5.49961C22.4497 5.91332 22.1135 6.24961 21.6997 6.24961V8.24961C23.218 8.24961 24.4497 7.01789 24.4497 5.49961H22.4497ZM21.6997 4.74961C22.1135 4.74961 22.4497 5.08589 22.4497 5.49961H24.4497C24.4497 3.98132 23.218 2.74961 21.6997 2.74961V4.74961ZM20.9497 5.49961C20.9497 5.0859 21.286 4.74961 21.6997 4.74961V2.74961C20.1815 2.74961 18.9497 3.98132 18.9497 5.49961H20.9497Z" fill="#121212" mask="url(#path-1-inside-1)"/>
<path d="M28 20.2001L22.4 14.6001V18.8001H5.6V14.6001L0 20.2001L5.6 25.8001V21.6001H22.4V25.8001L28 20.2001Z" fill="#121212"/>
</svg>
