<svg width="19" height="27" viewBox="0 0 19 27" fill="none" xmlns="http://www.w3.org/2000/svg">
<path d="M6.72613 26.5643C4.68729 26.2519 2.56119 24.6481 1.73023 23.1367C0.59192 21.0789 0.612156 18.8858 0.971355 16.6281C1.90224 10.7115 0.965031 9.95386 0 8.77761C1.65434 9.48841 3.19864 10.0765 4.20794 11.3388C5.44996 7.51282 5.79271 4.58737 10.6583 0C10.4952 1.07127 10.1967 2.15013 10.1777 3.24923C10.1195 6.67048 12.8717 9.80714 13.451 10.585C15.0244 12.6807 15.868 14.9662 15.8187 17.4882V17.8512C16.6344 17.1404 17.1619 15.9211 17.3061 14.3642C18.3394 15.6555 18.6037 17.9966 18.1674 19.6092C17.0974 23.5617 14.7524 25.6233 11.0454 26.5478C9.96397 26.8096 7.87961 26.735 6.72613 26.5643Z" fill="url(#paint0_linear)"/>
<path style="mix-blend-mode:multiply" opacity="0.42" d="M6.72613 26.5643C4.68729 26.2519 2.56119 24.6481 1.73023 23.1367C0.59192 21.0789 0.612156 18.8858 0.971355 16.6281C1.90224 10.7115 0.965031 9.95386 0 8.77761C1.65434 9.48841 3.19864 10.0765 4.20794 11.3388C5.44996 7.51282 5.79271 4.58737 10.6583 0C10.4952 1.07127 10.1967 2.15013 10.1777 3.24923C10.1195 6.67048 12.8717 9.80714 13.451 10.585C15.0244 12.6807 15.868 14.9662 15.8187 17.4882V17.8512C16.6344 17.1404 17.1619 15.9211 17.3061 14.3642C18.3394 15.6555 18.6037 17.9966 18.1674 19.6092C17.0974 23.5617 14.7524 25.6233 11.0454 26.5478C9.96397 26.8096 7.87961 26.735 6.72613 26.5643Z" fill="url(#paint1_linear)"/>
<path d="M6.71099 26.5859C5.2274 26.319 3.6755 24.9416 3.07726 23.6478C2.25389 21.8771 2.264 20.0027 2.52329 18.0663C3.19995 12.9932 2.52329 12.3431 1.81754 11.3351C3.01908 11.9447 4.14347 12.4481 4.87705 13.5308C5.77884 10.2499 6.02927 7.74183 9.56561 3.80835C9.43913 4.72658 9.22917 5.65494 9.21653 6.59088C9.17352 9.52391 11.225 11.583 11.6462 12.2445C12.7908 14.043 14.3414 15.6784 14.3478 17.4554C14.3478 19.092 13.2436 21.0259 13.2499 20.7084C14.2213 20.4554 16.3322 19.1907 16.8634 17.826C17.3453 20.1532 16.3486 21.9327 15.6985 22.9256C14.6121 24.5824 13.2487 25.7726 11.034 26.5391C10.2701 26.8072 7.54828 26.7351 6.71099 26.5859Z" fill="url(#paint2_linear)"/>
<path style="mix-blend-mode:multiply" opacity="0.42" d="M6.71099 26.5859C5.2274 26.319 3.6755 24.9416 3.07726 23.6478C2.25389 21.8771 2.264 20.0027 2.52329 18.0663C3.19995 12.9932 2.52329 12.3431 1.81754 11.3351C3.01908 11.9447 4.14347 12.4481 4.87705 13.5308C5.77884 10.2499 6.02927 7.74183 9.56561 3.80835C9.43913 4.72658 9.22917 5.65494 9.21653 6.59088C9.17352 9.52391 11.225 11.583 11.6462 12.2445C12.7908 14.043 14.3414 15.6784 14.3478 17.4554C14.3478 19.092 13.2436 21.0259 13.2499 20.7084C14.2213 20.4554 16.3322 19.1907 16.8634 17.826C17.3453 20.1532 16.3486 21.9327 15.6985 22.9256C14.6121 24.5824 13.2487 25.7726 11.034 26.5391C10.2701 26.8072 7.54828 26.7351 6.71099 26.5859Z" fill="url(#paint3_linear)"/>
<path d="M7.40028 26.5656C6.3418 26.318 5.40711 25.6992 4.76573 24.8215C4.17002 24.0082 3.93477 22.66 4.17002 21.3661C4.54946 19.3159 4.63293 16.5409 4.17002 15.7391C4.9643 16.2247 5.70547 16.6244 6.19368 17.4857C6.78939 14.8765 6.61611 13.1791 8.94964 10.05C8.87123 10.7811 8.7283 11.5197 8.71945 12.266C8.69163 14.5982 10.0108 15.6935 10.6609 16.4663C11.9257 17.9663 12.6846 19.5461 12.6846 20.9601C12.6846 22.2603 12.1571 22.641 11.5235 23.2696C12.4442 23.0343 13.0868 22.775 13.6736 22.087C13.8912 23.9526 11.5235 26.1887 9.75278 26.6137C8.89146 26.8186 7.95299 26.6858 7.40028 26.5656Z" fill="url(#paint4_linear)"/>
<path style="mix-blend-mode:multiply" opacity="0.42" d="M7.40028 26.5656C6.3418 26.318 5.40711 25.6992 4.76573 24.8215C4.17002 24.0082 3.93477 22.66 4.17002 21.3661C4.54946 19.3159 4.63293 16.5409 4.17002 15.7391C4.9643 16.2247 5.70547 16.6244 6.19368 17.4857C6.78939 14.8765 6.61611 13.1791 8.94964 10.05C8.87123 10.7811 8.7283 11.5197 8.71945 12.266C8.69163 14.5982 10.0108 15.6935 10.6609 16.4663C11.9257 17.9663 12.6846 19.5461 12.6846 20.9601C12.6846 22.2603 12.1571 22.641 11.5235 23.2696C12.4442 23.0343 13.0868 22.775 13.6736 22.087C13.8912 23.9526 11.5235 26.1887 9.75278 26.6137C8.89146 26.8186 7.95299 26.6858 7.40028 26.5656Z" fill="url(#paint5_linear)"/>
<path d="M7.79111 26.6086C7.09168 26.4506 6.47226 26.0467 6.04571 25.4703C5.66627 24.9277 5.5322 23.888 5.74469 23.0356C6.14309 21.4419 6.03938 19.8129 5.74469 19.2766C6.2506 19.6004 6.72237 19.8686 7.03097 20.4428C7.41041 18.6999 7.30037 17.5666 8.78776 15.476C8.73717 15.9642 8.6461 16.4574 8.64104 16.957C8.62334 18.514 9.46315 19.2463 9.878 19.7623C10.5673 20.6072 10.9407 21.6657 10.9341 22.7561C10.9341 23.625 10.5977 24.1018 10.1942 24.5268C10.8798 24.4698 11.5177 24.1531 11.9775 23.6414C12.1154 24.8872 10.5471 26.3784 9.41889 26.6617C8.8725 26.7907 8.14272 26.6845 7.79111 26.6086Z" fill="url(#paint6_linear)"/>
<defs>
<linearGradient id="paint0_linear" x1="9.17728" y1="0" x2="9.17728" y2="26.7198" gradientUnits="userSpaceOnUse">
<stop stop-color="#E65100"/>
<stop offset="1" stop-color="#FF8F00"/>
</linearGradient>
<linearGradient id="paint1_linear" x1="9.17728" y1="0" x2="9.17728" y2="26.7198" gradientUnits="userSpaceOnUse">
<stop stop-color="#FF0000"/>
<stop offset="0.04" stop-color="#FF2100"/>
<stop offset="0.1" stop-color="#FF4F00"/>
<stop offset="0.17" stop-color="#FF7900"/>
<stop offset="0.24" stop-color="#FF9D00"/>
<stop offset="0.31" stop-color="#FFBC00"/>
<stop offset="0.4" stop-color="#FFD400"/>
<stop offset="0.49" stop-color="#FFE700"/>
<stop offset="0.6" stop-color="#FFF500"/>
<stop offset="0.73" stop-color="#FFFD00"/>
<stop offset="1" stop-color="#FFFF00"/>
</linearGradient>
<linearGradient id="paint2_linear" x1="9.40372" y1="3.80835" x2="9.40372" y2="26.7199" gradientUnits="userSpaceOnUse">
<stop stop-color="#FF8F00"/>
<stop offset="1" stop-color="#FFB300"/>
</linearGradient>
<linearGradient id="paint3_linear" x1="1927.28" y1="1532.64" x2="1927.28" y2="5682.93" gradientUnits="userSpaceOnUse">
<stop stop-color="#FF0000"/>
<stop offset="0.04" stop-color="#FF2100"/>
<stop offset="0.1" stop-color="#FF4F00"/>
<stop offset="0.17" stop-color="#FF7900"/>
<stop offset="0.24" stop-color="#FF9D00"/>
<stop offset="0.31" stop-color="#FFBC00"/>
<stop offset="0.4" stop-color="#FFD400"/>
<stop offset="0.49" stop-color="#FFE700"/>
<stop offset="0.6" stop-color="#FFF500"/>
<stop offset="0.73" stop-color="#FFFD00"/>
<stop offset="1" stop-color="#FFFF00"/>
</linearGradient>
<linearGradient id="paint4_linear" x1="8.88008" y1="10.05" x2="8.88008" y2="26.7199" gradientUnits="userSpaceOnUse">
<stop stop-color="#FFB300"/>
<stop offset="1" stop-color="#FFE287"/>
</linearGradient>
<linearGradient id="paint5_linear" x1="8.88008" y1="10.05" x2="8.88008" y2="26.7199" gradientUnits="userSpaceOnUse">
<stop stop-color="#FFD54F"/>
<stop offset="0.05" stop-color="#FFDB43"/>
<stop offset="0.16" stop-color="#FFE82B"/>
<stop offset="0.29" stop-color="#FFF317"/>
<stop offset="0.44" stop-color="#FFFA0A"/>
<stop offset="0.63" stop-color="#FFFE02"/>
<stop offset="1" stop-color="#FFFF00"/>
</linearGradient>
<linearGradient id="paint6_linear" x1="8.81432" y1="15.4684" x2="8.81432" y2="26.7199" gradientUnits="userSpaceOnUse">
<stop stop-color="#FFD54F"/>
<stop offset="0.79" stop-color="#FFE7D1"/>
<stop offset="1" stop-color="#FFECF4"/>
</linearGradient>
</defs>
</svg>
