<svg width="20" height="18" viewBox="0 0 20 18" fill="none" xmlns="http://www.w3.org/2000/svg">
<path d="M15 0C16.3261 0 17.5979 0.526784 18.5355 1.46447C19.4732 2.40215 20 3.67392 20 5C20 6.38 19.44 7.63 18.54 8.54L10 17.07L1.46 8.54C0.56 7.63 0 6.38 0 5C0 3.67392 0.526784 2.40215 1.46447 1.46447C2.40215 0.526784 3.67392 0 5 0C6.38 0 7.63 0.56 8.54 1.46L10 2.93L11.46 1.46C12.37 0.56 13.62 0 15 0ZM13.59 3.59L7.17 10L10 12.83L16.41 6.41C16.78 6.05 17 5.55 17 5C17 4.46957 16.7893 3.96086 16.4142 3.58579C16.0391 3.21071 15.5304 3 15 3C14.45 3 13.95 3.22 13.59 3.59ZM6.41 3.59C6.05 3.22 5.55 3 5 3C4.46957 3 3.96086 3.21071 3.58579 3.58579C3.21071 3.96086 3 4.46957 3 5C3 5.55 3.22 6.05 3.59 6.41L5.05 7.88L7.88 5.05L6.41 3.59Z" fill="black"/>
</svg>
