<svg width="18" height="11" viewBox="0 0 18 11" fill="none" xmlns="http://www.w3.org/2000/svg">
<path d="M1 10.3216H17C17.55 10.3216 18 9.93741 18 9.46786C18 8.99831 17.55 8.61414 17 8.61414H1C0.45 8.61414 0 8.99831 0 9.46786C0 9.93741 0.45 10.3216 1 10.3216ZM1 6.05297H11.5C12.05 6.05297 12.5 5.66879 12.5 5.19925C12.5 4.7297 12.05 4.34552 11.5 4.34552H1C0.45 4.34552 0 4.7297 0 5.19925C0 5.66879 0.45 6.05297 1 6.05297ZM0 0.930628C0 1.40018 0.45 1.78435 1 1.78435H6.5C7.05 1.78435 7.5 1.40018 7.5 0.930628C7.5 0.46108 7.05 0.0769043 6.5 0.0769043H1C0.45 0.0769043 0 0.46108 0 0.930628Z" fill="#0C0F23"/>
</svg>
