<svg width="26" height="29" viewBox="0 0 26 29" fill="none" xmlns="http://www.w3.org/2000/svg">
<path d="M23.9435 27.7351C24.426 27.7351 24.8807 27.7312 25.3375 27.7351C25.5007 27.7346 25.6584 27.79 25.78 27.8905C25.9015 27.991 25.9785 28.1296 25.9958 28.2794C26.0334 28.6257 25.8146 28.9092 25.4517 28.976C25.3591 28.9907 25.2652 28.9974 25.1713 28.9958C23.9875 28.9978 22.8039 28.9986 21.6205 28.9983H9.97839C6.9321 28.9992 3.88652 28.9997 0.841651 28.9997C0.741099 29.0016 0.640621 28.9935 0.541955 28.9755C0.379234 28.9449 0.23437 28.8602 0.134903 28.7375C0.0354373 28.6148 -0.0116947 28.4626 0.00246847 28.3099C0.0166317 28.1572 0.0911024 28.0146 0.211722 27.9093C0.332341 27.804 0.490699 27.7432 0.656686 27.7386C1.05986 27.7297 1.46321 27.7297 1.86673 27.7386C2.03561 27.7426 2.08119 27.6891 2.08119 27.5407C2.0769 25.7698 2.07475 24 2.07475 22.2315C2.07475 19.6063 2.07475 16.9808 2.07475 14.3549C2.07475 12.9696 2.08923 11.5867 2.07154 10.2029C2.01203 5.39979 5.67755 1.14488 10.7906 0.22364C14.9215 -0.521465 18.4385 0.603119 21.2554 3.48013C22.8445 5.10294 23.7183 7.04981 23.8953 9.23516C23.9687 10.143 23.9414 11.0583 23.9425 11.9702C23.9471 14.9796 23.9471 17.9894 23.9425 20.9995C23.9425 23.1715 23.9425 25.3436 23.9425 27.516L23.9435 27.7351ZM22.5549 9.46621H3.46172V27.7228H22.5549V9.46621ZM3.70084 8.17984H22.3132C21.688 5.03269 18.4466 1.45905 13.4134 1.27104C8.14858 1.07413 4.45249 4.63886 3.70084 8.17984Z" fill="#333333"/>
<path d="M22.5551 9.46619V27.7228H3.46191V9.46619H22.5551ZM12.967 15.1233C14.7823 15.1233 16.598 15.1223 18.4141 15.1203C18.541 15.1221 18.667 15.1002 18.7845 15.056C18.9209 14.9993 19.0324 14.9016 19.1006 14.7788C19.1688 14.6559 19.1897 14.5154 19.1598 14.3801C19.1322 14.2347 19.0494 14.103 18.9262 14.0087C18.803 13.9145 18.6475 13.8637 18.4875 13.8656C17.9696 13.8567 17.4517 13.8631 16.9327 13.8631H11.0219C9.85206 13.8631 8.68204 13.8631 7.51185 13.8631C7.2663 13.8631 7.06257 13.9408 6.9221 14.1283C6.84692 14.2213 6.80255 14.3325 6.79437 14.4483C6.78619 14.5641 6.81454 14.6796 6.87599 14.7809C7.00788 15.0179 7.23145 15.1213 7.51935 15.1208C9.33505 15.1211 11.1509 15.1219 12.967 15.1233ZM12.9745 18.2783C12.5509 18.2783 12.1276 18.2783 11.7044 18.2783C10.3062 18.2783 8.90829 18.2783 7.51077 18.2783C7.15854 18.2783 6.89101 18.4683 6.8138 18.7637C6.70658 19.1847 7.04595 19.5434 7.5542 19.5434H15.0343C16.1562 19.5434 17.2785 19.5434 18.4012 19.5434C18.6987 19.5434 18.9459 19.4568 19.0885 19.2025C19.3378 18.7573 19.0033 18.2833 18.4371 18.2823C16.6168 18.278 14.7959 18.2767 12.9745 18.2783Z" fill="#F8F8F8"/>
<path d="M3.70068 8.18075C4.45127 4.63977 8.15057 1.07505 13.4148 1.27196C18.4464 1.45997 21.6879 5.03212 22.3146 8.18075H3.70068Z" fill="#FFFF00"/>
<path d="M12.9667 15.1232C11.1507 15.1232 9.33478 15.1232 7.51909 15.1232C7.23011 15.1232 7.00655 15.0203 6.87573 14.7833C6.81427 14.6821 6.78592 14.5665 6.7941 14.4507C6.80229 14.3349 6.84665 14.2238 6.92184 14.1307C7.06338 13.9432 7.26711 13.8655 7.51158 13.8655C8.68142 13.8655 9.85143 13.8655 11.0216 13.8655H16.9325C17.4504 13.8655 17.9683 13.8591 18.4873 13.868C18.6473 13.8661 18.8028 13.9169 18.926 14.0112C19.0491 14.1054 19.1319 14.2371 19.1596 14.3826C19.1894 14.5178 19.1685 14.6584 19.1003 14.7812C19.0321 14.904 18.9206 15.0018 18.7843 15.0584C18.6667 15.1026 18.5407 15.1245 18.4138 15.1227C16.5977 15.1267 14.7821 15.1277 12.9667 15.1257V15.1232Z" fill="#333333"/>
<path d="M12.9743 18.2789C14.7972 18.2789 16.6184 18.2789 18.438 18.2789C19.0042 18.2789 19.3387 18.7548 19.0894 19.1991C18.9468 19.4534 18.6997 19.54 18.4021 19.54C17.2798 19.54 16.1575 19.54 15.0352 19.54H7.55511C7.04686 19.54 6.70588 19.1813 6.81471 18.7603C6.89085 18.4634 7.15837 18.2749 7.51168 18.2749C8.90956 18.2749 10.3074 18.2749 11.7053 18.2749C12.1281 18.2749 12.5515 18.2749 12.9754 18.2749L12.9743 18.2789Z" fill="#333333"/>
</svg>
