<svg width="261" height="256" viewBox="0 0 261 256" fill="none" xmlns="http://www.w3.org/2000/svg">
<path d="M113.88 256C176.507 256 227.276 251.152 227.276 245.172C227.276 239.192 176.507 234.345 113.88 234.345C51.2531 234.345 0.483887 239.192 0.483887 245.172C0.483887 251.152 51.2531 256 113.88 256Z" fill="white"/>
<path d="M120.216 220.749C120.216 220.749 8.5702 207.087 8.30855 92.8372C8.07181 -9.9931 103.42 -13.731 138.937 18.3279C174.453 50.3869 249.311 7.07676 259.385 89.8967C269.459 172.717 200.357 231.502 120.216 220.749Z" fill="white"/>
<path d="M184.595 73.1935C184.595 73.1935 182.303 71.9475 180.72 73.6919C179.138 75.4362 177.524 80.065 177.524 80.065L166.771 70.3153C167.983 69.6658 168.993 68.6947 169.688 67.5088C170.384 66.3228 170.739 64.968 170.715 63.5932C170.646 60.7465 170.385 57.9076 169.936 55.0957L178.658 53.5195L184.595 73.1935Z" fill="#FFBE9D"/>
<path d="M178.976 54.5667C177.518 55.3142 176.783 58.0554 176.204 59.6938C175.3 62.2419 174.466 64.7213 174.615 67.5746C174.833 71.5244 176.222 75.0816 178.546 77.4864C179.085 76.1237 179.817 74.8458 180.72 73.6924C182.303 71.9667 184.595 73.194 184.595 73.194L178.976 54.5667Z" fill="#FDB590"/>
<path d="M183.604 42.0695C183.604 42.0695 191.124 38.9171 195.821 44.3434C200.519 49.7696 198.874 57.4697 188.775 58.6035C178.677 59.7374 183.604 42.0695 183.604 42.0695Z" fill="#001433"/>
<path d="M180.901 60.3229C180.901 60.3229 178.203 65.5685 179.1 67.7427C179.997 69.9169 189.373 77.7105 190.937 75.3182C191.396 74.6594 191.701 73.9061 191.831 73.1136C191.96 72.3212 191.91 71.5098 191.685 70.7393C191.685 70.7393 193.186 70.6645 192.432 69.4933L193.41 69.269C193.318 68.6223 193.318 67.9658 193.41 67.3191C193.41 67.3191 195.435 67.02 195.809 66.341C195.809 66.341 193.709 61.843 194.457 59.6688C195.204 57.4946 196.781 52.4733 191.61 47.072C186.439 41.6707 174.453 47.8756 180.901 60.3229Z" fill="#FFBE9D"/>
<path d="M167.699 51.1593C167.699 51.1593 162.653 43.347 150.411 49.9133C138.17 56.4796 125.797 54.5733 127.816 47.2532C127.816 47.2532 119.991 58.6663 132.108 61.3888C145.589 64.4165 155.321 45.6147 167.699 51.9193" fill="#003154"/>
<path d="M167.07 53.0091C168.395 53.0091 169.469 51.8878 169.469 50.5047C169.469 49.1215 168.395 48.0002 167.07 48.0002C165.746 48.0002 164.672 49.1215 164.672 50.5047C164.672 51.8878 165.746 53.0091 167.07 53.0091Z" fill="#FFA94D"/>
<path d="M180.078 58.2235C180.078 58.2235 179.081 62.5844 180.078 62.6405C181.075 62.6966 183.411 62.2418 182.72 54.5417C182.72 54.5417 193.827 49.4892 189.535 43.5584C185.243 37.6276 169.674 40.6553 166.771 49.3646C166.771 49.3646 166.435 54.037 167.824 57.4635C169.213 60.8899 171.319 63.5189 170.522 65.4938L178.11 62.3788L180.078 58.2235Z" fill="#003154"/>
<path d="M174.054 55.1582C172.34 52.6319 171.697 49.5293 172.266 46.5299C172.593 45.0713 173.099 43.6588 173.774 42.3247C170.54 43.8323 167.824 46.2371 166.771 49.3894C166.771 49.3894 166.435 54.0618 167.824 57.4882C169.213 60.9147 171.319 63.5437 170.522 65.5185L178.11 62.4036L179.268 59.9428C177.163 58.8009 175.372 57.1575 174.054 55.1582Z" fill="#001433"/>
<path d="M180.078 63.8367C180.078 63.8367 181.393 55.4014 177.674 56.8343C173.954 58.2671 178.11 67.9421 180.078 63.8367Z" fill="#FFBE9D"/>
<path d="M107.606 91.6468H107.65C98.9778 101.963 108.273 93.1295 108.273 93.1295C99.9247 105.309 109.774 94.2696 109.774 94.2696C103.127 105.097 110.665 95.6402 114.453 92.5128C111.45 103.689 117.667 90.3572 117.667 90.3572C119.916 88.725 135.472 78.3149 135.472 78.3149C143.571 78.346 158.978 82.0092 158.978 82.0092C160.597 95.366 173.929 90.8805 171.338 76.1967C169.674 66.7273 139.995 65.6869 134.868 65.7119C130.7 65.7119 109.475 86.3701 106.616 90.6313C101.582 97.5465 106.684 92.4442 107.606 91.6468Z" fill="#FFBE9D"/>
<path d="M171.369 76.1842C170.447 70.9138 160.841 68.2536 151.62 66.9329C150.249 69.171 149.26 71.6216 148.692 74.1844C148.26 76.0373 148.195 77.9569 148.499 79.8349C154.175 80.8504 159.009 81.9967 159.009 81.9967C160.629 95.3536 173.948 90.868 171.369 76.1842Z" fill="#FDB590"/>
<path d="M142.668 110.779C142.668 110.779 148.237 122.397 159.619 125.064C159.619 125.064 180.178 108.598 179.96 94.7927C179.742 80.9873 181.206 83.7596 181.206 83.7596C181.206 83.7596 176.814 70.8264 166.404 69.8545C166.404 69.8545 159.869 71.3061 154.299 83.174C148.73 95.0419 152.355 105.209 142.668 110.779Z" fill="#E73A40"/>
<path d="M216.971 82.6756H216.928C223.538 70.9572 216.012 81.3362 216.012 81.3362C221.968 67.8547 214.33 80.4952 214.33 80.4952C218.865 68.6584 213.208 79.3115 210.062 83.0806C210.959 71.5615 207.309 85.7781 207.309 85.7781C205.396 87.7966 193.366 99.8825 193.366 99.8825C189.323 96.0636 181.019 85.7158 181.019 85.7158C176.969 72.9072 159.164 72.9134 164.385 86.8434C167.755 95.8331 190.114 114.143 194.288 114.255C198.462 114.367 216.093 88.1891 218.105 83.473C221.793 75.7791 217.713 81.7224 216.971 82.6756Z" fill="#FFBE9D"/>
<path d="M148.468 180.796C148.468 180.796 146.923 183.114 143.148 184.746C139.372 186.378 143.92 190.752 143.92 190.752L152.854 193.586L153.632 191.182C153.632 191.182 152.181 188.004 155.607 183.799C159.034 179.594 148.468 180.796 148.468 180.796Z" fill="#FFBE9D"/>
<path d="M186.333 146.613C179.555 138.514 147.913 116.585 125.317 124.659C125.317 124.659 125.317 147.261 144.362 148.875C155.52 149.815 163.126 151.205 168.752 152.905C165.322 155.119 162.402 158.037 160.186 161.465C154.05 170.81 147.271 181.482 147.271 181.482L154.374 186.322C154.374 186.322 175.929 164.213 185.934 157.042C188.956 155.285 190.301 151.36 186.333 146.613Z" fill="#000C1E"/>
<path d="M145.035 184.291C145.035 184.291 143.634 182.198 142.151 183.419C140.668 184.64 135.51 187.961 136.208 191.194C136.905 194.427 149.913 204.214 156.143 207.709C162.373 211.204 162.086 207.186 161.825 206.22C161.563 205.255 155.533 197.224 155.595 193.206L155.682 189.188L150.524 188.565L149.564 190.926L145.035 184.291Z" fill="#FFA94D"/>
<path d="M156.803 205.915C150.673 202.464 138.114 193.076 136.388 189.338C136.147 189.93 136.084 190.579 136.207 191.207C136.911 194.44 149.913 204.227 156.143 207.722C161.058 210.488 161.912 208.538 161.924 207.136C161.102 207.585 159.582 207.479 156.803 205.915Z" fill="white"/>
<path d="M150.1 192.944C150.1 192.944 153.769 192.153 155.607 193.206" stroke="white" stroke-width="1.55" stroke-linecap="round" stroke-linejoin="round"/>
<path d="M151.552 197.15C151.552 197.15 155.221 196.358 157.059 197.411" stroke="white" stroke-width="1.55" stroke-linecap="round" stroke-linejoin="round"/>
<path d="M150.878 194.969C150.878 194.969 154.548 194.184 156.379 195.231" stroke="white" stroke-width="1.55" stroke-linecap="round" stroke-linejoin="round"/>
<path d="M78.9792 214.382C78.9792 214.382 77.1103 216.45 73.1356 217.497C69.161 218.544 73.0173 223.552 73.0173 223.552L81.44 227.67L82.5614 225.409C82.5614 225.409 81.5958 222.051 85.6016 218.394C89.6074 214.737 78.9792 214.382 78.9792 214.382Z" fill="#FFBE9D"/>
<path d="M145.577 110.778C145.577 110.778 110.69 113.438 116.602 146.613C116.602 146.613 106.591 166.953 103.688 175.345C103.688 175.345 90.4493 180.833 84.3128 198.588C78.1764 216.344 76.918 214.088 76.918 214.088C76.918 214.088 79.8211 220.219 84.9857 219.253C84.9857 219.253 100.162 195.685 114.366 184.708C114.366 184.708 144.711 154.039 148.586 122.073L138.257 119.494L134.706 146.613C134.706 146.613 150.2 142.09 158.592 124.982L145.577 110.778Z" fill="#001433"/>
<path d="M75.0487 217.34C75.0487 217.34 73.9772 215.06 72.3262 216.051C70.6753 217.041 65.0933 219.571 65.3114 222.866C65.5294 226.162 76.9613 237.762 82.5868 242.129C88.2124 246.496 88.5426 242.484 88.4242 241.506C88.3059 240.528 83.5213 231.682 84.2004 227.719L84.8732 223.757L79.8893 222.393L78.5935 224.586L75.0487 217.34Z" fill="#FFA94D"/>
<path d="M83.5331 240.447C77.9761 236.136 66.943 225.003 65.778 221.047C65.4548 221.595 65.2989 222.225 65.3295 222.86C65.5413 226.162 76.9793 237.756 82.6049 242.123C87.0593 245.587 88.2118 243.786 88.4111 242.397C87.539 242.74 86.05 242.41 83.5331 240.447Z" fill="white"/>
<path d="M78.7866 226.642C78.7866 226.642 82.5245 226.399 84.1941 227.707" stroke="white" stroke-width="1.55" stroke-linecap="round" stroke-linejoin="round"/>
<path d="M79.6279 231.009C79.6279 231.009 83.3658 230.773 85.0355 232.081" stroke="white" stroke-width="1.55" stroke-linecap="round" stroke-linejoin="round"/>
<path d="M79.2852 228.748C79.2852 228.748 83.0231 228.505 84.6865 229.813" stroke="white" stroke-width="1.55" stroke-linecap="round" stroke-linejoin="round"/>
</svg>
