<svg width="271" height="273" viewBox="0 0 271 273" fill="none" xmlns="http://www.w3.org/2000/svg">
<path d="M127.396 272.655C190.023 272.655 240.792 267.807 240.792 261.828C240.792 255.848 190.023 251 127.396 251C64.7692 251 14 255.848 14 261.828C14 267.807 64.7692 272.655 127.396 272.655Z" fill="white"/>
<path d="M120.318 236.637C120.318 236.637 0.281793 221.956 0.000473109 99.1901C-0.254054 -11.3052 102.26 -15.3217 140.446 19.1269C178.632 53.5755 259.116 7.03708 269.947 96.0305C280.778 185.024 206.482 248.191 120.318 236.637Z" fill="white"/>
<path d="M136.479 148.12C132.093 172.703 110.149 196.4 84.6926 193.767C60.18 191.237 43.4316 170.944 63.6222 151.633C33.773 122.664 45.1848 66.4847 90.8319 60.3389C115.415 57.7059 132.973 70.8709 141.751 84.0423C159.303 77.8965 180.373 72.6305 193.538 91.9412C205.207 109.056 198.804 123.544 182.126 132.322C201.443 141.955 231.498 157.182 214.608 180.602C175.98 234.149 136.479 148.12 136.479 148.12Z" fill="#43AC47"/>
<path d="M214.621 180.628C228.904 160.823 209.606 146.887 191.631 137.222C209.76 153.027 220.979 186.825 187.135 188.848C157.896 191.096 169.154 159.05 166.893 143.895C163.496 124.757 133.705 104.483 115.145 114.604C82.5347 132.033 122.453 159.025 107.272 178.702C100.529 186.575 83.0935 187.134 74.1027 186.01C68.201 185.541 62.601 183.126 57.791 179.588C62.6717 187.076 72.7541 192.528 84.6925 193.761C110.143 196.394 132.093 172.697 136.479 148.114C136.479 148.12 175.98 234.149 214.621 180.628Z" fill="#0B8645"/>
<path d="M152.329 146.534C152.476 148.57 155.193 160.02 152.56 169.653C149.927 178.432 143.524 177.636 140.859 193.055C138.432 207.138 145.419 227.984 146.298 242.029C136.415 244.764 129.666 245.188 122.595 242.029C124.348 223.598 131.098 205.186 129.621 186.729C127.36 158.55 110.117 146.419 110.753 125.348C111.992 123.499 114.458 123.955 115.049 125.291C115.64 126.626 122.479 152.802 132.498 129.356C133.14 128.591 136.865 128.713 136.608 130.724C136.351 132.734 124.534 164.272 137.892 169.152C149.304 173.314 148.109 147.857 147.942 144.807C147.775 141.756 152.149 144.499 152.329 146.534Z" fill="#67381B"/>
<path d="M140.827 193.055C143.492 177.642 149.895 178.432 152.528 169.653C155.161 160.02 152.444 148.57 152.296 146.534C152.149 144.499 147.756 141.769 147.917 144.807C148.077 147.844 149.278 173.314 137.866 169.152C124.502 164.272 136.319 132.753 136.582 130.723C136.845 128.694 133.108 128.591 132.472 129.356C122.454 152.802 115.614 126.62 115.024 125.291C114.433 123.961 111.967 123.499 110.727 125.348C110.188 143.143 122.409 154.568 127.578 174.669C131.605 175.895 136.415 177.507 137.545 181.136C138.387 183.942 136.704 190.126 136.145 192.92C135.582 196.07 135.299 199.263 135.298 202.463C135.574 210.034 138.38 218.171 137.821 225.742C137.539 231.355 136.421 237.803 137.821 243.416C137.866 243.57 137.924 243.692 137.976 243.833C140.775 243.411 143.544 242.811 146.266 242.035C145.386 227.984 138.399 207.138 140.827 193.055Z" fill="#4D2A14"/>
<path d="M79.4569 35.8374C79.3631 32.5289 79.6693 29.2212 80.3688 25.9861C80.4909 25.3439 81.223 23.0641 80.3688 22.5761C79.6367 22.1522 78.6028 23.366 78.2368 23.8604C77.6407 24.6009 77.1877 25.4459 76.901 26.3522C76.8368 25.7485 76.779 23.9825 76.0469 24.4705C75.3148 24.9586 74.4671 26.3971 74.0432 27.6815C73.3111 26.1595 72.2772 28.3237 72.1167 28.9659C71.7371 30.0525 71.7576 31.2389 72.1744 32.3117C72.7203 34.1998 74.0625 35.6575 74.7432 37.5456C75.1093 38.5153 75.5331 39.4722 75.8992 40.4612L79.4569 35.8374Z" fill="#4D2A14"/>
<path d="M75.5011 37.7961C77.9928 36.2741 80.9148 33.9044 83.9588 35.42C87.7284 37.308 84.601 40.474 82.6166 42.3621C80.3689 44.552 78.179 47.5317 75.013 48.5079C72.0974 49.4198 68.9314 48.1418 65.8874 48.8097C62.2976 49.5418 58.4637 51.6675 59.1315 48.6235C58.0398 48.6877 54.1417 48.3859 54.9958 47.0437C55.5417 46.1896 57.6738 46.0675 58.5279 45.8299C61.4434 44.9758 64.5517 44.1217 67.2232 42.6639C68.9851 41.7193 70.6045 40.5302 72.0332 39.1318L75.5011 37.7961Z" fill="#E3DAD5"/>
<path d="M73.0668 49.3301C74.2805 49.0989 75.4686 48.7521 76.6759 48.5017C77.4828 48.3427 78.3165 48.3846 79.1034 48.6237C79.1354 48.6294 79.1683 48.6239 79.1967 48.6081C79.2251 48.5923 79.2472 48.5672 79.2593 48.5371C79.2713 48.5069 79.2726 48.4735 79.263 48.4425C79.2533 48.4115 79.2332 48.3848 79.2061 48.3668C77.9988 47.7696 74.8521 48.1292 75.353 50.0751C75.3664 50.1069 75.391 50.1327 75.4221 50.1476C75.4533 50.1625 75.4888 50.1655 75.522 50.156C75.5552 50.1465 75.5838 50.1252 75.6023 50.0961C75.6209 50.067 75.6281 50.0321 75.6227 49.998C75.1732 48.3475 78.0438 48.1164 79.0327 48.6109L79.174 48.3283C78.3732 48.0839 77.5258 48.0333 76.7016 48.1806C75.4557 48.4246 74.242 48.8228 72.9897 49.0347C72.8163 49.0347 72.8869 49.3365 73.0668 49.3044V49.3301Z" fill="#E6650D"/>
<path d="M71.6087 49.0923C72.816 49.362 74.0426 49.5161 75.2499 49.7345C76.0547 49.9056 76.8034 50.2767 77.427 50.8134C77.454 50.8362 77.4887 50.848 77.524 50.8465C77.5594 50.845 77.5929 50.8303 77.6179 50.8052C77.6429 50.7802 77.6577 50.7467 77.6592 50.7113C77.6607 50.676 77.6489 50.6413 77.626 50.6143C76.7719 49.5932 73.7729 48.6877 73.4582 50.6528C73.4582 50.8262 73.7087 50.9033 73.7344 50.7235C73.9784 49.0024 76.7077 49.9528 77.427 50.8134L77.626 50.6143C76.9929 50.0666 76.2375 49.679 75.4233 49.484C74.1839 49.2143 72.9188 49.0666 71.6858 48.784C71.5059 48.7455 71.4289 49.0152 71.6087 49.0602V49.0923Z" fill="#E6650D"/>
<path d="M83.9588 35.42C80.9148 33.9044 77.9928 36.2741 75.5011 37.7961L72.0332 39.1318C70.6045 40.5302 68.9851 41.7193 67.2232 42.6639C64.5517 44.1217 61.4434 44.9758 58.5279 45.8299C57.6738 46.0675 55.5417 46.1896 54.9958 47.0437C54.1417 48.3859 58.0398 48.6877 59.1315 48.6235C59.0505 48.9295 59.0373 49.2495 59.093 49.5611C59.928 49.2302 60.741 48.8462 61.5269 48.4115C63.2095 47.429 64.0957 46.4464 66.1571 46.3051C68.6168 46.1639 69.5287 45.2519 71.5644 43.8455C73.324 42.5612 75.9249 42.9657 77.2543 41.1098C79.3992 38.1236 82.3469 34.5209 84.3184 37.1732C85.6028 38.8942 83.1945 40.0566 81.3707 41.5979C80.1698 42.5868 79.0973 44.1666 79.3285 45.7015C80.4716 44.6033 81.5248 43.396 82.5845 42.3621C84.6266 40.474 87.7284 37.308 83.9588 35.42Z" fill="#67381B"/>
<path d="M85.3772 37.2822C84.9662 37.5134 84.8891 38.0207 84.7928 38.4703C84.7277 38.9029 84.7741 39.345 84.9277 39.7547C85.7754 39.4272 86.6231 39.1125 87.4964 38.785C86.8432 38.2129 86.1331 37.7094 85.3772 37.2822Z" fill="#5D5958"/>
<path d="M82.1353 38.0531C82.1353 37.8626 82.1917 37.6764 82.2976 37.518C82.4034 37.3595 82.5539 37.2361 82.7299 37.1632C82.9059 37.0903 83.0996 37.0712 83.2865 37.1084C83.4733 37.1455 83.645 37.2373 83.7797 37.372C83.9144 37.5067 84.0062 37.6783 84.0433 37.8652C84.0805 38.0521 84.0614 38.2458 83.9885 38.4218C83.9156 38.5978 83.7921 38.7482 83.6337 38.8541C83.4753 38.9599 83.2891 39.0164 83.0985 39.0164C82.8431 39.0164 82.598 38.9149 82.4174 38.7343C82.2367 38.5536 82.1353 38.3086 82.1353 38.0531Z" fill="#4D2A14"/>
<path d="M82.9565 37.8539C82.9565 37.7726 82.9806 37.6931 83.0258 37.6255C83.071 37.5579 83.1352 37.5053 83.2103 37.4742C83.2854 37.4431 83.368 37.4349 83.4477 37.4508C83.5275 37.4666 83.6007 37.5058 83.6582 37.5633C83.7157 37.6207 83.7548 37.694 83.7707 37.7737C83.7865 37.8534 83.7784 37.9361 83.7473 38.0112C83.7162 38.0863 83.6635 38.1505 83.5959 38.1956C83.5283 38.2408 83.4488 38.2649 83.3675 38.2649C83.2585 38.2649 83.154 38.2216 83.0769 38.1445C82.9998 38.0674 82.9565 37.9629 82.9565 37.8539Z" fill="white"/>
<path d="M85.3772 37.2822C84.9662 37.5134 84.8891 38.0207 84.7928 38.4703C84.7277 38.9029 84.7741 39.345 84.9277 39.7547C85.7754 39.4272 86.6231 39.1125 87.4964 38.785C86.8432 38.2129 86.1331 37.7094 85.3772 37.2822Z" fill="#5D5958"/>
<path d="M87.15 38.4766C86.7005 38.9839 85.7372 38.8683 85.3968 38.9775C85.1782 39.0397 84.9792 39.1568 84.8188 39.3178C84.8446 39.4616 84.8811 39.6033 84.928 39.7417C85.7757 39.4142 86.6234 39.0995 87.4968 38.772C87.3925 38.661 87.2762 38.5619 87.15 38.4766Z" fill="#3F3A36"/>
<path d="M75.6802 34.1996C74.8326 31.8877 73.7537 29.6336 73.0087 27.2639C72.5288 25.8088 72.1427 24.3245 71.8528 22.8199C71.7308 21.786 71.7886 19.5383 70.2666 20.0842C68.9308 20.5723 68.34 23.0062 68.5069 24.2199C68.1409 23.7319 67.0427 22.4539 66.6767 23.4878C66.3106 24.5218 66.6767 26.108 67.4088 28.118C66.2528 26.9621 64.551 26.0438 64.9107 28.3557C65.1292 30.3301 66.0609 32.1569 67.5308 33.4932C66.4327 32.9473 64.4868 31.4253 64.2428 33.2492C63.9987 34.7712 65.707 36.5372 66.8116 36.961C63.1639 35.2592 63.5299 40.5509 67.0556 40.6151C64.4419 42.0729 64.4868 44.6353 66.8116 45.3609C70.9473 46.6453 75.2115 45.605 76.0591 43.1068C77.2023 40.0436 76.9004 37.25 75.6802 34.1996Z" fill="#B29983"/>
<path d="M75.854 37.1028C75.2953 35.5872 73.6384 32.0551 72.8806 29.8973C71.8917 27.0845 70.6715 30.0258 70.9541 31.5606C70.7164 31.2395 69.9972 30.4047 69.7596 31.0854C69.522 31.7661 69.7596 32.8001 70.2412 34.1166C69.4834 33.3588 68.366 32.7551 68.6036 34.2771C68.7523 35.5647 69.3612 36.7552 70.3183 37.6294C69.599 37.2697 68.3211 36.2679 68.1605 37.4688C68 38.4642 69.1238 39.6202 69.8366 39.9027C67.4413 38.7853 67.6853 42.2531 69.9972 42.2981C68.2825 43.255 68.2954 44.9311 69.8366 45.4063C72.5531 46.2476 75.3467 45.5669 75.9054 43.9293C76.6668 41.7144 76.6486 39.3059 75.854 37.1028Z" fill="#E3DAD5"/>
<path d="M34.4092 66.6341C32.5786 68.0294 30.9227 69.6401 29.4771 71.4313C29.1689 71.7909 28.2698 73.1717 27.6341 72.9212C26.9983 72.6708 27.2937 71.6368 27.3964 71.213C27.5358 70.5649 27.795 69.9485 28.1607 69.3956C27.8074 69.6332 26.8249 70.3717 26.7671 69.7616C26.8243 68.8657 27.1239 68.0022 27.6341 67.2635C26.4909 67.5332 27.1909 66.0433 27.4735 65.658C27.8979 64.9791 28.5483 64.4719 29.3102 64.2259C30.5946 63.6929 31.9496 63.7828 33.2597 63.3204C33.9468 63.0892 34.6596 62.8966 35.3404 62.6782L34.4092 66.6341Z" fill="#4D2A14"/>
<path d="M34.5956 59.9168C35.9956 58.992 37.6139 57.5663 39.3864 58.3691C41.5827 59.3645 39.8809 61.2461 38.7442 62.3699C37.5047 63.6543 36.3167 65.4268 34.5314 66.0497C32.8809 66.6341 31.0443 65.9791 29.3168 66.4286C27.281 66.9231 25.1361 68.2267 25.4636 66.4736C24.8214 66.5313 22.6058 66.4414 23.0618 65.658C23.3572 65.1571 24.571 65.0158 25.0526 64.8809C26.7539 64.3899 28.3985 63.7205 29.959 62.8837C30.9608 62.3186 34.5956 59.9168 34.5956 59.9168Z" fill="#E3DAD5"/>
<path d="M33.4585 66.5638C34.1457 66.4097 34.82 66.1849 35.5007 66.0116C35.958 65.896 36.4369 65.896 36.8942 66.0116C36.9777 66.0116 37.042 65.9024 36.9585 65.8639C36.2521 65.5492 34.4539 65.8125 34.8007 66.9171C34.8007 67.0198 34.9869 66.9749 34.9548 66.8785C34.6594 65.9409 36.2906 65.7418 36.8814 66.0051L36.9456 65.8574C36.4822 65.7313 35.995 65.7202 35.5264 65.8253C34.82 65.9923 34.1328 66.2299 33.42 66.3905C33.3172 66.3905 33.3622 66.5703 33.4649 66.5446L33.4585 66.5638Z" fill="#E6650D"/>
<path d="M32.6181 66.4605C33.3181 66.589 34.0309 66.6532 34.7309 66.7688C35.2008 66.8505 35.6425 67.0493 36.0153 67.3468C36.0923 67.4046 36.1758 67.2826 36.118 67.2183C35.585 66.6404 33.8447 66.2037 33.7291 67.3532C33.7291 67.4559 33.8768 67.4495 33.8896 67.3532C33.9924 66.3706 35.585 66.8716 36.0024 67.3532L36.0988 67.2248C35.7239 66.9295 35.2833 66.729 34.8144 66.6404C34.1015 66.5119 33.3823 66.4541 32.6759 66.3257C32.5731 66.3257 32.5282 66.4605 32.6309 66.4798L32.6181 66.4605Z" fill="#E6650D"/>
<path d="M39.3859 58.3691C37.6135 57.5663 35.9951 59.0113 34.5952 59.9168C34.5952 59.9168 30.9603 62.3186 29.9714 62.8837C28.4109 63.7205 26.7663 64.39 25.065 64.8809C24.5834 65.0415 23.3696 65.1571 23.0742 65.658C22.6182 66.4415 24.8467 66.5314 25.476 66.4736C25.4374 66.6491 25.4374 66.831 25.476 67.0066C25.9468 66.7985 26.4037 66.5604 26.8439 66.2938C27.7879 65.6965 28.2888 65.1121 29.4512 65.0094C30.8512 64.8745 31.3778 64.3286 32.4888 63.481C33.4649 62.7232 34.9612 62.8837 35.6997 61.792C36.8621 60.0388 38.4676 57.9067 39.6749 59.3838C40.452 60.3406 39.0905 61.0535 38.0823 61.9525C37.722 62.2332 37.4355 62.5974 37.2475 63.0137C37.0596 63.4299 36.9758 63.8856 37.0034 64.3415C37.6456 63.6993 38.2107 62.98 38.7951 62.3635C39.8804 61.2461 41.5822 59.3645 39.3859 58.3691Z" fill="#804622"/>
<path d="M40.2401 59.4033C40.1411 59.4897 40.0618 59.5963 40.0075 59.7159C39.9532 59.8356 39.9252 59.9655 39.9254 60.0969C39.9016 60.3441 39.9391 60.5933 40.0346 60.8226C40.5098 60.6106 40.9915 60.4051 41.4667 60.1804C41.0838 59.8825 40.673 59.6223 40.2401 59.4033Z" fill="#5D5958"/>
<path d="M38.3973 59.9169C38.3936 59.8078 38.4223 59.7 38.4798 59.6071C38.5373 59.5143 38.621 59.4406 38.7204 59.3954C38.8198 59.3501 38.9304 59.3353 39.0381 59.3529C39.1459 59.3705 39.2461 59.4196 39.3259 59.4941C39.4058 59.5686 39.4618 59.665 39.4868 59.7713C39.5119 59.8776 39.5048 59.989 39.4666 60.0913C39.4284 60.1936 39.3607 60.2822 39.2721 60.3461C39.1835 60.4099 39.078 60.4461 38.9688 60.4499C38.8963 60.4525 38.824 60.4408 38.756 60.4153C38.688 60.3899 38.6257 60.3514 38.5726 60.3019C38.5195 60.2524 38.4767 60.1929 38.4466 60.1268C38.4165 60.0608 38.3998 59.9895 38.3973 59.9169Z" fill="#4D2A14"/>
<path d="M38.8531 59.8143C38.8519 59.7673 38.8646 59.721 38.8896 59.6812C38.9147 59.6415 38.9509 59.6101 38.9939 59.5909C39.0368 59.5718 39.0844 59.5658 39.1307 59.5737C39.177 59.5816 39.2199 59.6031 39.2541 59.6354C39.2882 59.6677 39.3119 59.7094 39.3223 59.7553C39.3328 59.8011 39.3293 59.849 39.3126 59.8928C39.2958 59.9367 39.2663 59.9746 39.228 60.0018C39.1896 60.029 39.1441 60.0442 39.0971 60.0454C39.0346 60.0455 38.9744 60.0216 38.929 59.9786C38.8836 59.9355 38.8564 59.8767 38.8531 59.8143Z" fill="white"/>
<path d="M40.2401 59.4033C40.1411 59.4897 40.0618 59.5963 40.0075 59.7159C39.9532 59.8356 39.9252 59.9655 39.9254 60.0969C39.9016 60.3441 39.9391 60.5933 40.0346 60.8226C40.5098 60.6106 40.9915 60.4051 41.4667 60.1804C41.0838 59.8825 40.673 59.6223 40.2401 59.4033Z" fill="#5D5958"/>
<path d="M41.2804 60.0454C41.03 60.3472 40.4777 60.3023 40.285 60.3729C40.162 60.4163 40.0501 60.4865 39.9575 60.5784C39.9575 60.6619 40.0025 60.7454 40.0346 60.8225C40.5098 60.6105 40.9915 60.405 41.4667 60.1803C41.4076 60.1314 41.3454 60.0863 41.2804 60.0454Z" fill="#3F3A36"/>
<path d="M35.052 68.6508C34.1722 69.7553 33.1768 70.7828 32.3483 71.9388C31.8272 72.6445 31.351 73.3824 30.9227 74.1479C30.6722 74.6874 30.2805 75.9204 29.5676 75.3488C28.9254 74.8415 29.0346 73.4223 29.3557 72.7801C29.0667 72.9791 28.2447 73.4801 28.2319 72.8507C28.219 72.2214 28.7071 71.4315 29.4649 70.4682C28.6236 70.892 27.5383 71.0783 28.1484 69.8902C28.6285 68.8613 29.4661 68.042 30.5052 67.5847C29.8117 67.6811 28.4823 68.1563 28.675 67.1223C28.8163 66.249 30.0621 65.6003 30.73 65.5682C28.4438 65.838 29.5933 62.9995 31.5199 63.6417C30.364 62.3573 32.2456 61.2142 33.6584 61.2463C36.1373 61.2912 36.8694 62.3958 36.8694 63.9049C36.8968 64.777 36.7502 65.6459 36.4381 66.4607C36.1261 67.2755 35.6549 68.02 35.052 68.6508Z" fill="#804622"/>
<path d="M35.6417 67.1096C35.0637 67.8288 33.5288 69.4536 32.7261 70.4875C31.6858 71.8425 31.5509 70.0251 31.994 69.2417C31.8078 69.3765 31.2619 69.6976 31.2555 69.2866C31.3582 68.6956 31.6408 68.1506 32.0646 67.7261C31.5124 68.0022 30.7803 68.1242 31.2041 67.3472C31.5136 66.6716 32.0595 66.1325 32.7389 65.8316C32.283 65.8958 31.4096 66.2105 31.538 65.5298C31.6344 64.9582 32.4435 64.5344 32.8867 64.5087C31.3839 64.6885 32.1417 62.8454 33.4068 63.2243C32.6426 62.3959 32.9509 61.484 33.8821 61.5032C35.5068 61.5032 36.9004 62.4087 36.9068 63.3977C36.9221 64.7433 36.4755 66.0534 35.6417 67.1096Z" fill="#67381B"/>
<path d="M127.244 255.013C136.877 247.757 135.06 220.906 137.885 212.32C135.092 220.444 130.718 228.022 128.567 236.422C128.927 230.449 129.806 226.044 128.772 220.219C124.091 225.241 123.333 231.496 124.084 238.201C123.102 236.518 123.179 234.816 122.37 232.922C119.936 235.08 121.085 238.702 120.874 241.694C119.506 234.258 113.154 228.793 112.512 220.444C111.228 226.127 112.255 232.415 112.14 238.169C111.973 237.006 111.356 235.818 111.183 234.887C109.68 236.871 109.256 239.607 108.441 242.092C108.53 240.022 108.732 237.957 109.044 235.908C108.235 237.931 107.631 240.204 106.604 241.983C107.599 236.974 109.051 231.991 109.815 226.969C107.888 231.92 104.799 237.494 103.56 242.722C104.247 235.157 105.827 220.502 111.453 215.075C106.354 219.378 103.367 226.808 100.021 232.601C101.505 227.155 100.664 220.791 101.254 215.262C97.549 222.204 97.4977 232.415 96.9261 238.143C95.8472 233.082 95.7059 230.263 96.7399 225.941C94.3766 230.642 94.7234 236.422 92.8097 241.354C93.301 236.384 93.4491 231.387 93.2528 226.397C93.2528 222.48 90.7739 217.721 91.6858 214.086C91.6858 221.921 89.6501 232.44 88.4748 236.942C89.1813 232.838 86.9015 228.549 87.6271 224.214C85.6556 230.09 86.5547 239.029 85.1675 245.965C83.7868 239.941 83.6841 232.273 84.5575 225.415C83.0226 231.772 81.2437 238.355 81.0832 244.796C80.8456 241.091 81.2181 234.893 79.5612 231.798C77.4612 236.049 77.3906 241.116 75.9649 245.637C75.997 241.264 74.9246 236.126 76.7933 231.862C73.5438 236.043 69.6072 240.211 69.4916 245.939C67.7169 241.768 67.4267 237.114 68.6696 232.755C66.3834 236.306 66.5953 240.461 67.0448 244.411C66.1907 239.517 62.7743 234.932 59.5376 231.284C60.0706 237.764 62.2091 244.347 62.7486 250.608C63.0311 253.62 60.7449 253.254 64.033 255.527C69.3503 259.072 82.1364 257.306 88.1088 257.666C104.164 258.231 127.244 255.013 127.244 255.013Z" fill="#43AC47"/>
<path d="M124.342 253.954C115.139 246.132 118.594 219.442 116.289 210.702C118.594 218.98 122.505 226.802 124.117 235.317C124.117 229.338 123.655 221.51 125.035 215.762C129.409 221.054 129.633 230.713 128.484 237.385C129.563 235.767 129.588 234.059 130.513 232.248C132.812 234.547 131.476 238.104 131.476 241.097C133.32 233.731 139.992 228.67 141.109 220.386C142.028 226.166 140.647 232.35 140.416 238.104C140.647 236.955 141.341 235.805 141.565 234.893C142.946 236.968 143.177 239.729 143.871 242.259C143.909 240.184 143.832 238.109 143.64 236.043C144.327 238.117 144.789 240.416 145.707 242.259C145.02 237.199 143.871 232.132 143.408 227.071C145.02 232.132 147.782 237.886 148.7 243.178C148.469 235.587 147.782 220.861 142.49 215.107C147.319 219.712 149.85 227.309 152.842 233.288C151.693 227.765 152.887 221.459 152.656 215.949C155.931 223.103 155.372 233.288 155.604 239.068C156.984 234.084 157.286 231.278 156.522 226.866C158.596 231.702 157.903 237.449 159.515 242.516C159.339 237.507 159.513 232.493 160.035 227.508C160.266 223.597 163.021 218.993 162.334 215.306C161.871 223.128 163.259 233.75 164.171 238.316C163.715 234.174 166.245 230.032 165.782 225.659C167.394 231.644 165.962 240.513 166.938 247.493C168.672 241.566 169.237 233.917 168.775 227.014C169.925 233.436 171.305 240.134 171.074 246.575C171.536 242.889 171.536 236.679 173.38 233.686C175.216 238.059 174.985 243.12 176.141 247.724C176.372 243.351 177.746 238.291 176.141 233.917C179.127 238.291 182.813 242.664 182.563 248.412C184.583 244.353 185.152 239.725 184.175 235.298C186.243 238.978 185.78 243.12 185.093 247.031C186.243 242.202 189.923 237.828 193.378 234.38C192.453 240.802 189.922 247.262 189.004 253.472C188.542 256.465 190.847 256.233 187.392 258.308C181.869 261.519 169.218 258.995 163.233 258.995C147.191 258.558 124.342 253.954 124.342 253.954Z" fill="#43AC47"/>
<path d="M190.969 238.361C188.304 242.548 184.502 246.357 182.325 250.723C181.291 246.408 184.252 243.467 183.905 240.314C180.052 242.747 178.768 247.834 178.845 251.456C178.202 250.505 178.408 249.606 177.939 248.559C175.968 249.58 176.546 251.571 176.199 253.151C175.691 249.112 171.331 245.888 171.44 241.412C170.092 244.379 170.393 247.769 169.899 250.826C169.86 250.184 169.481 249.542 169.417 249.034C168.133 250.011 167.664 251.449 166.848 252.734C167.065 251.625 167.363 250.535 167.741 249.471C167.072 250.555 166.321 251.586 165.493 252.554C166.592 249.934 168.03 247.358 168.961 244.719C167.182 247.288 164.466 250.075 163.182 252.791C164.235 248.797 166.457 241.078 171.042 238.477C166.932 240.513 164.171 244.314 161.261 247.224C162.758 244.404 162.604 240.969 163.413 238.072C160.157 241.579 159.386 247.012 158.551 250.036C158.108 247.288 158.205 245.779 159.283 243.518C157.19 245.901 157.029 248.996 155.25 251.533C156.224 249.484 156.789 247.266 156.914 245.002C157.119 243.486 154.557 240.461 154.493 238.856C153.658 242.709 155.135 248.148 154.056 250.184C153.33 247.185 150.428 244.469 148.88 242.876C150.864 246.087 154.403 255.81 152.9 259.425C152.624 261.583 185.915 260.523 185.915 260.523C184.438 257.64 188.253 242.792 190.969 238.361Z" fill="#0B8645"/>
<path d="M62.2091 258.68C63.7054 255.765 59.8522 240.93 57.1357 236.499C59.8008 240.686 63.6091 244.494 65.7861 248.855C65.0925 245.702 63.8595 241.605 64.2063 238.451C68.0595 240.885 69.3438 245.971 69.2668 249.587C69.909 248.643 69.7035 247.744 70.1723 246.691C72.1438 247.718 71.5658 249.709 71.9126 251.289C72.4199 247.243 76.7804 244.019 76.6713 239.549C78.0199 242.51 77.718 245.907 78.2125 248.964C78.2511 248.322 78.63 247.68 78.6942 247.166C79.9786 248.148 80.4474 249.587 81.263 250.865C81.0481 249.757 80.7497 248.666 80.3703 247.603C81.0408 248.697 81.7943 249.738 82.6244 250.717C81.5263 248.097 80.0877 245.522 79.163 242.889C80.9419 245.426 83.6583 248.238 84.9427 250.955C83.896 246.96 81.674 239.241 77.0887 236.64C81.1987 238.67 83.9537 242.471 86.8693 245.387C85.373 242.568 85.5271 239.138 84.718 236.236C87.9739 239.742 88.7381 245.175 89.5794 248.2C90.0225 245.451 89.9261 243.942 88.8473 241.682C90.9408 244.058 91.0949 247.153 92.8738 249.696C92.1614 247.1 91.697 244.442 91.4867 241.759C91.1977 239.671 92.7133 237.013 91.7757 235.125C92.3408 239.299 94.6013 244.79 95.8086 247.127C94.9866 244.982 96.3802 242.581 95.5325 240.314C97.4205 243.338 97.3884 248.142 98.9169 251.764C99.5141 248.489 99.0517 244.398 97.9086 240.795C99.5077 244.103 101.306 247.513 101.884 250.936C101.794 248.951 101.075 245.67 102.089 243.936C103.965 246.093 104.382 248.784 105.763 251.122C105.429 248.797 105.865 245.984 104.164 243.833C106.886 245.894 110.123 247.898 110.586 250.955C111.094 249.836 111.33 248.611 111.273 247.383C111.216 246.155 110.868 244.958 110.258 243.891C112.223 245.67 112.358 247.892 112.3 250.017C112.596 247.371 114.818 244.758 116.975 242.645C117.04 246.126 115.909 249.741 115.948 253.1C115.948 254.718 119.12 256.998 116.808 258.379C113.09 260.536 101.929 257.646 97.4912 258.147C85.54 259.226 62.2091 258.68 62.2091 258.68Z" fill="#0B8645"/>
<path d="M155.373 260.767C154.255 258.59 157.139 247.448 159.174 244.128C157.177 247.268 154.326 250.126 152.688 253.395C153.208 251.025 154.146 247.956 153.876 245.592C150.986 247.416 150.023 251.231 150.081 253.941C149.618 253.234 149.753 252.554 149.4 251.77C147.923 252.541 148.36 254.031 148.116 255.212C147.73 252.181 144.462 249.767 144.545 246.408C143.537 248.63 143.762 251.179 143.389 253.472C143.293 253.017 143.173 252.566 143.03 252.123C142.079 252.862 141.713 253.941 141.103 254.898C141.256 254.067 141.471 253.25 141.745 252.451C141.247 253.273 140.682 254.053 140.056 254.782C140.878 252.823 141.983 250.89 142.625 248.912C141.289 250.839 139.253 252.926 138.284 254.962C139.067 251.969 140.737 246.177 144.179 244.231C141.09 245.753 139.042 248.604 136.839 250.788C137.963 248.675 137.847 246.1 138.451 243.929C136.01 246.556 135.432 250.634 134.803 252.92C134.469 250.858 134.546 249.709 135.355 248.033C133.782 249.818 133.666 252.143 132.331 254.044C132.869 252.097 133.22 250.104 133.377 248.09C133.589 246.53 132.453 244.533 133.159 243.12C132.735 246.247 131.04 250.37 130.134 252.111C130.777 250.499 129.704 248.701 130.34 246.973C128.927 249.246 128.953 252.849 127.771 255.566C127.382 252.802 127.639 249.986 128.522 247.339C127.328 249.818 125.954 252.374 125.543 254.943C125.613 253.453 126.185 250.993 125.389 249.696C123.982 251.314 123.674 253.331 122.634 255.084C122.884 253.337 122.556 251.231 123.834 249.619C121.792 251.16 119.339 252.663 118.992 254.955C118.611 254.117 118.435 253.2 118.477 252.28C118.52 251.36 118.78 250.464 119.236 249.664C117.766 250.993 117.663 252.663 117.708 254.256C117.49 252.271 115.82 250.312 114.202 248.726C114.157 251.34 115.004 254.044 114.972 256.561C114.972 257.775 112.59 259.489 114.33 260.523C117.117 262.142 125.491 259.977 128.811 260.35C137.853 261.178 155.373 260.767 155.373 260.767Z" fill="#0B8645"/>
</svg>
