<svg width="16" height="19" viewBox="0 0 16 19" fill="none" xmlns="http://www.w3.org/2000/svg">
<path d="M13.3333 13.4297C12.6578 13.4297 12.0533 13.7159 11.5911 14.1642L5.25333 10.2058C5.29778 9.98645 5.33333 9.76707 5.33333 9.53815C5.33333 9.30924 5.29778 9.08986 5.25333 8.87048L11.52 4.9503C12 5.42721 12.6311 5.72289 13.3333 5.72289C14.8089 5.72289 16 4.44478 16 2.86145C16 1.27811 14.8089 0 13.3333 0C11.8578 0 10.6667 1.27811 10.6667 2.86145C10.6667 3.09036 10.7022 3.30974 10.7467 3.52912L4.48 7.4493C4 6.97239 3.36889 6.67671 2.66667 6.67671C1.19111 6.67671 0 7.95482 0 9.53815C0 11.1215 1.19111 12.3996 2.66667 12.3996C3.36889 12.3996 4 12.1039 4.48 11.627L10.8089 15.5949C10.7644 15.7952 10.7378 16.005 10.7378 16.2149C10.7378 17.7505 11.9022 19 13.3333 19C14.7644 19 15.9289 17.7505 15.9289 16.2149C15.9289 14.6792 14.7644 13.4297 13.3333 13.4297Z" fill="#F8F8F8"/>
</svg>
